<svg width="14" height="24" viewBox="0 0 14 24" fill="none" xmlns="http://www.w3.org/2000/svg" class="svg">
<path d="M0.626953 6.0001C0.626953 4.93208 0.943657 3.88805 1.53702 3.00002C2.13038 2.11199 2.97374 1.41986 3.96046 1.01115C4.94718 0.602437 6.03294 0.495499 7.08044 0.70386C8.12794 0.91222 9.09013 1.42652 9.84533 2.18172C10.6005 2.93693 11.1148 3.89911 11.3232 4.94661C11.5316 5.99411 11.4246 7.07987 11.0159 8.06659C10.6072 9.05331 9.91506 9.89668 9.02703 10.49C8.13901 11.0834 7.09497 11.4001 6.02695 11.4001C4.59547 11.3979 3.22325 10.8282 2.21103 9.81602C1.19882 8.80381 0.629175 7.43159 0.626953 6.0001V6.0001ZM13.227 19.8001H11.427V18.0001C11.427 17.841 11.3637 17.6884 11.2512 17.5758C11.1387 17.4633 10.9861 17.4001 10.827 17.4001C10.6678 17.4001 10.5152 17.4633 10.4027 17.5758C10.2902 17.6884 10.227 17.841 10.227 18.0001V19.8001H8.42695C8.26782 19.8001 8.11521 19.8633 8.00269 19.9758C7.89017 20.0884 7.82695 20.241 7.82695 20.4001C7.82695 20.5592 7.89017 20.7118 8.00269 20.8244C8.11521 20.9369 8.26782 21.0001 8.42695 21.0001H10.227V22.8001C10.227 22.9592 10.2902 23.1118 10.4027 23.2244C10.5152 23.3369 10.6678 23.4001 10.827 23.4001C10.9861 23.4001 11.1387 23.3369 11.2512 23.2244C11.3637 23.1118 11.427 22.9592 11.427 22.8001V21.0001H13.227C13.3861 21.0001 13.5387 20.9369 13.6512 20.8244C13.7637 20.7118 13.827 20.5592 13.827 20.4001C13.827 20.241 13.7637 20.0884 13.6512 19.9758C13.5387 19.8633 13.3861 19.8001 13.227 19.8001ZM9.02695 22.2001H8.42695C7.94956 22.2001 7.49173 22.0105 7.15416 21.6729C6.8166 21.3353 6.62695 20.8775 6.62695 20.4001C6.62695 19.9227 6.8166 19.4649 7.15416 19.1273C7.49173 18.7897 7.94956 18.6001 8.42695 18.6001H9.02695V18.0001C9.02695 17.5227 9.2166 17.0649 9.55416 16.7273C9.89173 16.3897 10.3496 16.2001 10.827 16.2001C11.0201 16.1999 11.2115 16.2366 11.391 16.3081C11.2706 15.2877 10.7803 14.3468 10.013 13.6635C9.24565 12.9802 8.25444 12.6018 7.22695 12.6001H4.82695C3.71304 12.6001 2.64476 13.0426 1.8571 13.8303C1.06945 14.6179 0.626953 15.6862 0.626953 16.8001V22.8001C0.626953 22.9592 0.690167 23.1118 0.802689 23.2244C0.915211 23.3369 1.06782 23.4001 1.22695 23.4001H9.13495C9.06229 23.2085 9.02568 23.005 9.02695 22.8001V22.2001Z" fill="#2B3344"/>
</svg>
