<svg xmlns="http://www.w3.org/2000/svg" xmlns:xlink="http://www.w3.org/1999/xlink" viewBox="0 0 1155.15 695.56"><defs><style>.cls-1{fill:none;}.cls-2{fill:#e7f3fe;}.cls-3{fill:#303c60;}.cls-4{fill:#e38540;}.cls-5{fill:#6791c9;}.cls-6{clip-path:url(#clip-path);}.cls-7{fill:#75a1de;}.cls-8{fill:#2e5b9a;}.cls-9{fill:#f09959;}.cls-10{fill:#9bd6e8;}.cls-11{fill:#7bcee8;}.cls-12{fill:#d54a41;}.cls-13{fill:#f39892;}.cls-14{fill:#f2e5de;}.cls-15{fill:#9ec8ff;}.cls-16{fill:#fff;}.cls-17{fill:#9cd499;}.cls-18{fill:#f37168;}.cls-19{fill:#74b570;}</style><clipPath id="clip-path"><path class="cls-1" d="M423.55,675.86C129.3,658.74-106.67,347.44,49.9,166.77,171.34,26.66,333.25,230.6,484.26,127.85,716.59-30.23,1093-59,1142.81,140.31S1027.61,651,904.61,669.64,423.55,675.86,423.55,675.86Z"/></clipPath></defs><title>Asset 1</title><g id="Layer_2" data-name="Layer 2"><g id="Слой_1" data-name="Слой 1"><path class="cls-2" d="M423.55,675.86C129.3,658.74-106.67,347.44,49.9,166.77,171.34,26.66,333.25,230.6,484.26,127.85,716.59-30.23,1093-59,1142.81,140.31S1027.61,651,904.61,669.64,423.55,675.86,423.55,675.86Z"/><path class="cls-3" d="M461.69,254c3.11,74.73,2.33,115.2-24.91,146.34s-103.53,23.35-103.53,23.35-7.53,110-114.17,114.69-122-137-38.4-173.33C260.21,330.43,285.51,320.38,313,234.76c25.13-78.23,103.53-63.32,122.21-30.62S461.69,254,461.69,254Z"/><path class="cls-4" d="M426.66,635.39s50.34,9.86,52.93,9.34,57.61-24.91,63.32-21.28,38.92,17.64,46.18,20.76-4.15,4.15-9.86,4.15-38.4-13.49-42-10.9,28.54,7.79,28.54,9.86-86.15,21.8-91.34,21.8-45.15-3.63-45.15-3.63Z"/><path class="cls-5" d="M384.88,360.47c27.12,5.32,43.08,34,48.27,59.15S384.88,360.47,384.88,360.47Z"/><g class="cls-6"><path class="cls-7" d="M339.48,341.14s-52.16,35-80.18,52.16,10.12,201.61,19.46,270.11S450,669.64,450,669.64,439.11,612,453.13,519.4c10-66.35-26.73-107.94-47.75-136.74C352.34,310,339.48,341.14,339.48,341.14Z"/><path class="cls-5" d="M288.1,394.07c59.94,73.18,80.2,86.86,65.39,136.23-11.68,38.92-15.57,52.93-17.91,66.16S446.9,587.9,446.9,587.9l-.78,42.82S356.6,673.53,313,682.09s-70.84-1.55-70.84-1.55Z"/></g><path class="cls-8" d="M1038.67,687.15H329.49a9.27,9.27,0,0,1,0-18.54h709.18a9.27,9.27,0,0,1,0,18.54Z"/><path class="cls-9" d="M358.68,267.45l-27,79.92s29.58,80.18,54.49,62.27c8.51-6.11-3.11-54.49-3.11-54.49l18.16-64.87Z"/><path class="cls-9" d="M272.53,391c-37.26,4.14-40.48,54.49-57.6,138.56S203,669.08,211,679.76c19.46,25.68,238.19-63.83,265.44-63.06,18.8.54,3.11-31.13,3.11-31.13L271,617.48s29.58-97.3,29.58-147.12S286.54,389.4,272.53,391Z"/><path class="cls-9" d="M466.36,587.12c21.8-5.45,53.71-17.9,59.94-12.45s31.91,44.37,40.48,55.27-3.9,2.33-13.24-6.23a119.08,119.08,0,0,0-17.12-13.23s-11.68,10.89-22.58,17.12-14.79-6.23-33.47-9.34S415,631.49,415,631.49Z"/><path class="cls-7" d="M276.68,384.73c-22.83,1-40.48,20.24-46.7,49.82s-24.39,123.51-24.39,123.51-3.64,2.6,34.25,9.34,69-1,69-1,7.78-53.46,5.71-90.3-10.38-71.62-23.88-83.55S276.68,384.73,276.68,384.73Z"/><path class="cls-4" d="M383.07,355.15l18.16-64.87-42.55-22.83-6.5,19.25c-1.42,64.45,15.09,86,26.22,93.88,3.47,2.46,6.46.56,9-3.46C385.54,365.44,383.07,355.15,383.07,355.15Z"/><path class="cls-9" d="M469.47,275c0,34.72-4.14,77.29-34.25,76.29-46.7-1.56-76.13-37.86-76.13-72.58s24.42-62.87,54.54-62.87S469.47,240.26,469.47,275Z"/><path class="cls-10" d="M818,668.58H642.94l72-158.44a13,13,0,0,1,11.79-7.59h158.9a5.06,5.06,0,0,1,4.6,7.15Z"/><path class="cls-10" d="M817.65,668.58h-323A20.38,20.38,0,0,1,515,648.21H817.65Z"/><path class="cls-11" d="M885.65,502.55h-140a13,13,0,0,0-11.79,7.59l-72,158.44H818L890.25,509.7A5.06,5.06,0,0,0,885.65,502.55Z"/><path class="cls-3" d="M418.1,203.75c33.08-2.34,52.67,27.89,58.38,54.36,4.12,19.09,2.08,22.83,2.08,22.83s-3.64,5.19-29.59,6.75-29.06,1-29.06,1l-1.55-30.1-7.79,29.06s-4.15,5.71-20.24-2.08S367,251.88,367,251.88s-3.63-17.12,8.82-28.54S418.1,203.75,418.1,203.75Z"/><path class="cls-12" d="M393.48,281.84c-3.17,21-19.93,35.88-37.44,33.23s-29.12-21.81-25.94-42.81S350,236.38,367.54,239,396.66,260.84,393.48,281.84Z"/><path class="cls-13" d="M380.84,281.28c-2.94,19.44-16.7,33.49-30.74,31.37s-23-19.61-20.1-39,16.7-33.49,30.74-31.37S383.78,261.83,380.84,281.28Z"/><path class="cls-14" d="M359.39,276.93c-1.62,10.69-7.44,18.67-13,17.82s-8.77-10.18-7.16-20.86,7.44-18.66,13-17.82S361,266.25,359.39,276.93Z"/><path class="cls-12" d="M358.55,239.56c15.18-56.44,67.58-48.21,80.82-40.35,11.16,6.61,12.72,16,12.72,16s-14.4-11.68-38.92-7.4c-23.27,4.06-37.11,17.77-39.05,32.95C373.12,248.46,358.55,239.56,358.55,239.56Z"/><path class="cls-3" d="M125.67,421.74h-.12a1.19,1.19,0,0,1-1.08-1.3c1.37-14.28,8.5-28.95,20.09-41.31,13.1-14,31.75-25,53.93-31.86C247.9,332,291,312.54,318.1,229.2a1.2,1.2,0,0,1,1.51-.78,1.21,1.21,0,0,1,.77,1.52c-12.45,38.3-29.4,66.19-51.81,85.26-19.76,16.81-42,25.89-69.38,34.35-21.77,6.74-40.06,17.53-52.88,31.21-11.23,12-18.13,26.15-19.45,39.89A1.19,1.19,0,0,1,125.67,421.74Z"/><path class="cls-3" d="M148,364.14a1.2,1.2,0,0,1-.73-2.15,144.15,144.15,0,0,1,51.85-23.06c58.61-12.91,98-48.16,113.8-101.92a1.2,1.2,0,0,1,2.3.68c-9.78,33.21-28.19,59.42-54.7,77.9-17.07,11.9-37.55,20.54-60.88,25.68a141.5,141.5,0,0,0-50.9,22.62A1.27,1.27,0,0,1,148,364.14Z"/><path class="cls-15" d="M899.44,346.91H741.36c-1.49,0-2.25-1.21-1.71-2.69l32.07-88.1a4.24,4.24,0,0,1,3.66-2.68H933.46a1.82,1.82,0,0,1,1.71,2.68l-32.07,88.1A4.25,4.25,0,0,1,899.44,346.91Z"/><path class="cls-16" d="M897.53,342.79H746.26a1.7,1.7,0,0,1-1.59-2.51l29.2-80.22a4,4,0,0,1,3.41-2.51H928.56a1.7,1.7,0,0,1,1.59,2.51L901,340.28A4,4,0,0,1,897.53,342.79Z"/><path class="cls-15" d="M894.81,337.56h-142c-1.55,0-2.35-1.26-1.79-2.81l25.17-69.15a4.46,4.46,0,0,1,3.84-2.82H922c1.55,0,2.35,1.26,1.79,2.82l-25.17,69.15A4.47,4.47,0,0,1,894.81,337.56Z"/><ellipse class="cls-16" cx="837.41" cy="300.17" rx="31.1" ry="21.65" transform="translate(2.13 606.22) rotate(-39.84)"/><path class="cls-15" d="M859.75,300.17c-4.49,12.34-18.13,22.34-30.47,22.34s-18.7-10-14.21-22.34,18.13-22.34,30.47-22.34S864.24,287.83,859.75,300.17Z"/><polygon class="cls-16" points="848.86 298.98 838.97 303.69 829.09 308.41 832.52 298.98 835.96 289.55 842.41 294.26 848.86 298.98"/><path class="cls-17" d="M660.14,247.79H647.68a7.21,7.21,0,0,1-6.07-2.92,7.89,7.89,0,0,1-.64-7.3l4.53-12.46c1.76-4.81,6.94-8.58,11.82-8.58h12.45a7.21,7.21,0,0,1,6.07,2.92,7.89,7.89,0,0,1,.64,7.3L672,239.21C670.2,244,665,247.79,660.14,247.79Zm-2.82-26.46c-2.84,0-6.25,2.53-7.31,5.42l-4.53,12.46a3.23,3.23,0,0,0,.06,2.91,2.56,2.56,0,0,0,2.14.87h12.46c2.88,0,6.23-2.48,7.3-5.42L672,225.11a3.23,3.23,0,0,0-.06-2.91,2.54,2.54,0,0,0-2.14-.87Z"/><path class="cls-17" d="M640.87,300.73H628.42a7.25,7.25,0,0,1-6.08-2.93,7.91,7.91,0,0,1-.64-7.3l4.54-12.45c1.75-4.82,6.94-8.59,11.81-8.59H650.5a7.27,7.27,0,0,1,6.08,2.92,7.91,7.91,0,0,1,.63,7.31l-4.53,12.45C650.93,297,645.74,300.73,640.87,300.73Zm-2.82-26.47c-2.84,0-6.25,2.54-7.3,5.43l-4.54,12.45a3.26,3.26,0,0,0,.07,2.91,2.54,2.54,0,0,0,2.14.88h12.45c2.89,0,6.23-2.49,7.3-5.43l4.53-12.45a3.23,3.23,0,0,0-.06-2.91,2.51,2.51,0,0,0-2.14-.88Z"/><path class="cls-15" d="M621.6,353.66H609.15a7.24,7.24,0,0,1-6.07-2.92,7.9,7.9,0,0,1-.64-7.31L607,331c1.75-4.82,6.94-8.59,11.81-8.59h12.46a7.23,7.23,0,0,1,6.07,2.93,7.89,7.89,0,0,1,.64,7.3l-4.53,12.45C631.66,349.89,626.48,353.66,621.6,353.66Zm-2.82-26.47c-2.88,0-6.23,2.49-7.3,5.43L607,345.07A3.23,3.23,0,0,0,607,348a2.53,2.53,0,0,0,2.14.88H621.6c2.89,0,6.23-2.48,7.3-5.43L633.44,331a3.23,3.23,0,0,0-.06-2.91,2.57,2.57,0,0,0-2.14-.88Z"/><path class="cls-15" d="M762.61,237.61h-68.5a1.59,1.59,0,0,1-1.49-2.34,3.71,3.71,0,0,1,3.19-2.33h68.5a1.58,1.58,0,0,1,1.48,2.33A3.69,3.69,0,0,1,762.61,237.61Z"/><path class="cls-15" d="M759.21,247h-68.5a1.58,1.58,0,0,1-1.49-2.33,3.71,3.71,0,0,1,3.19-2.34h68.5a1.58,1.58,0,0,1,1.48,2.34A3.7,3.7,0,0,1,759.21,247Z"/><path class="cls-15" d="M744.76,286.65h-68.5a1.58,1.58,0,0,1-1.49-2.33A3.71,3.71,0,0,1,678,282h68.5a1.58,1.58,0,0,1,1.48,2.34A3.7,3.7,0,0,1,744.76,286.65Z"/><path class="cls-15" d="M741.36,296h-68.5a1.58,1.58,0,0,1-1.49-2.33,3.71,3.71,0,0,1,3.19-2.34h68.5a1.58,1.58,0,0,1,1.48,2.34A3.7,3.7,0,0,1,741.36,296Z"/><path class="cls-15" d="M724.93,341.14H656.42a1.58,1.58,0,0,1-1.48-2.33,3.7,3.7,0,0,1,3.18-2.34h68.51a1.58,1.58,0,0,1,1.48,2.34A3.71,3.71,0,0,1,724.93,341.14Z"/><path class="cls-15" d="M721.53,350.48H653a1.58,1.58,0,0,1-1.48-2.33,3.71,3.71,0,0,1,3.19-2.34h68.5a1.58,1.58,0,0,1,1.48,2.34A3.71,3.71,0,0,1,721.53,350.48Z"/><path class="cls-18" d="M657.24,240.79a2.28,2.28,0,0,1-.63-.09,2.37,2.37,0,0,1-1.6-1.42l-4.7-11.67a2.4,2.4,0,0,1,4.45-1.8l3.52,8.74,27.79-21.42a2.4,2.4,0,0,1,2.93,3.81l-30.3,23.35A2.37,2.37,0,0,1,657.24,240.79Z"/><path class="cls-18" d="M638,293.72a2.72,2.72,0,0,1-.63-.08,2.42,2.42,0,0,1-1.59-1.42L631,280.54a2.4,2.4,0,0,1,4.46-1.79l3.52,8.74,27.78-21.42a2.4,2.4,0,1,1,2.93,3.8l-30.29,23.35A2.4,2.4,0,0,1,638,293.72Z"/><polygon class="cls-15" points="1090.91 176.11 827.8 176.11 834.61 157.43 1097.71 157.43 1090.91 176.11"/><polygon class="cls-15" points="1080.71 204.14 817.61 204.14 824.4 185.46 1087.51 185.46 1080.71 204.14"/><path class="cls-15" d="M789.08,428.16H595.87c-2.53,0-3.84-2.06-2.92-4.59a7.3,7.3,0,0,1,6.26-4.59H792.42c2.53,0,3.84,2.07,2.92,4.59A7.28,7.28,0,0,1,789.08,428.16Z"/><path class="cls-15" d="M781.65,448.56H588.44c-2.52,0-3.83-2.06-2.92-4.59a7.3,7.3,0,0,1,6.27-4.59H785c2.52,0,3.83,2.07,2.92,4.59A7.28,7.28,0,0,1,781.65,448.56Z"/><path class="cls-17" d="M962.52,621.06c0-3.24,39.05-111.16,12.65-180.63-18.48-48.64-21.4-107-21.4-107s-36,51.56-11.68,130.36c15,48.5,21.08,61.94,22.38,76.21s-5.84,85.61-5.84,85.61Z"/><path class="cls-19" d="M958.63,626.8a1.1,1.1,0,0,1-.47-.1,1.2,1.2,0,0,1-.72-1.22c.07-.71,7.11-71.39,5.83-85.38-.84-9.31-3.72-18.11-10-37.39C950,492.83,946,480.54,941,464.14c-12.65-41-8.78-74.49-3.3-95.39,6-22.69,14.76-35.48,15.14-36a1.19,1.19,0,0,1,1.31-.46,1.21,1.21,0,0,1,.87,1.09c0,.58,3.12,58.75,21.32,106.65,9.88,26,11.86,60.23,5.89,101.82-4.76,33.2-13.24,61.58-16.87,73.7-.83,2.76-1.54,5.14-1.59,5.58a1.09,1.09,0,0,1-.28.73l-3.9,4.54A1.19,1.19,0,0,1,958.63,626.8Zm-5.81-289.57a131.37,131.37,0,0,0-12.88,32.24c-5.37,20.57-9.16,53.58,3.3,94,5.06,16.38,9.07,28.66,12.3,38.53,6.35,19.46,9.25,28.34,10.13,37.92,1.13,12.48-4,67-5.47,82l1.19-1.39c.14-.71.55-2.13,1.62-5.7,22.55-75.38,26.26-133.92,11-174C958.39,399.65,953.83,351,952.82,337.23Z"/><path class="cls-17" d="M971,632.09c-5.84-120,22.7-185.49,81.07-237.38s61-65.51,61-65.51-9.08,101.18-42.8,136.2-83,61-90.15,79.13-4.54,79.12-4.54,79.12l-4.54,11Z"/><path class="cls-17" d="M963.82,642.46c-.65-1.94,12.32-112.2,59.67-118.69s58.37,4.54,90.8-.64a203.11,203.11,0,0,0,40.86-11s-12.28,31.26-54.48,44.1c-29.83,9.08-68.75-5.83-91.45-1.94s-34.37,52.53-34.37,52.53L971,632.09Z"/><path class="cls-19" d="M970.31,626.15a1.21,1.21,0,0,1-1.2-1.09c-.07-.77-6.79-78.23,26.09-137.54,17-30.63,35.53-48.39,53.46-65.55,16.71-16,32.49-31.11,44.45-55a1.2,1.2,0,0,1,2.15,1.08c-12.15,24.3-28.08,39.55-44.94,55.69-17.8,17-36.21,34.67-53,65-32.51,58.64-25.87,135.38-25.8,136.15a1.21,1.21,0,0,1-1.08,1.31Z"/><path class="cls-19" d="M967.07,610.59a1.27,1.27,0,0,1-.34-.05,1.21,1.21,0,0,1-.82-1.49c12.42-42.79,26.67-67.76,44.84-78.57,16.25-9.67,33-6.7,50.83-3.56,4.35.77,8.85,1.57,13.3,2.15,38.64,5.07,57.48-4.32,57.67-4.42a1.2,1.2,0,0,1,1.1,2.14c-.78.4-19.6,9.84-59.08,4.66-4.51-.59-9-1.39-13.41-2.16-17.33-3.07-33.7-6-49.18,3.25-17.62,10.49-31.53,35-43.76,77.18A1.22,1.22,0,0,1,967.07,610.59Z"/><path class="cls-19" d="M1029,444.23a1.2,1.2,0,0,1-.73-2.15,145.29,145.29,0,0,1,55.31-23.9,1.2,1.2,0,0,1,.45,2.35A142.6,142.6,0,0,0,1029.74,444,1.2,1.2,0,0,1,1029,444.23Z"/><path class="cls-19" d="M992.36,496.44a1.22,1.22,0,0,1-.61-.17,1.19,1.19,0,0,1-.42-1.64c16.89-28.48,36.67-35.66,79.8-49.18a1.2,1.2,0,1,1,.71,2.29c-42.52,13.33-62,20.39-78.45,48.11A1.19,1.19,0,0,1,992.36,496.44Z"/><path class="cls-13" d="M981.87,672h-29A21.3,21.3,0,0,1,932,654.66l-9.34-48.84h89.5l-9.34,48.84A21.3,21.3,0,0,1,981.87,672Z"/><path class="cls-12" d="M1009.87,618.27H925.56a2.4,2.4,0,1,1,0-4.8h84.31a2.4,2.4,0,0,1,0,4.8Z"/></g></g></svg>