<svg xmlns="http://www.w3.org/2000/svg" viewBox="0 0 473.16 440.05"><defs><style>.cls-1{fill:#f0f0f0;}.cls-2{fill:#e0e0e0;}.cls-3,.cls-7{fill:#27debf;}.cls-10,.cls-12,.cls-4{opacity:0.5;}.cls-16,.cls-5,.cls-7{opacity:0.7;}.cls-6{opacity:0.3;}.cls-23,.cls-8{opacity:0.6;}.cls-27,.cls-9{opacity:0.2;}.cls-11{fill:#fafafa;}.cls-12,.cls-18,.cls-23{fill:#fff;}.cls-13,.cls-20{fill:#37474f;}.cls-14{opacity:0.8;}.cls-15{fill:#455a64;}.cls-17{opacity:0.4;}.cls-19{opacity:0.15;}.cls-20{opacity:0.9;}.cls-21{fill:#263238;}.cls-22{fill:#f5f5f5;}.cls-24{fill:#ebebeb;}.cls-25{opacity:0.65;}.cls-26{fill:#ffa8a7;}.cls-28{fill:#f28f8f;}</style></defs><title>Asset 2</title><g id="Layer_2" data-name="Layer 2"><g id="Floor"><ellipse id="Floor-2" data-name="Floor" class="cls-1" cx="236.58" cy="303.46" rx="236.58" ry="136.59"/></g><g id="Shadows"><ellipse id="Shadow" class="cls-2" cx="372.19" cy="367.54" rx="35.11" ry="20.27"/><path id="Shadow-2" data-name="Shadow" class="cls-2" d="M53.52,345,14.25,322.29c-1.39-.8-1.39-2.1,0-2.9L230.68,194.44a5.55,5.55,0,0,1,5,0L275,217.11c1.38.8,1.38,2.1,0,2.9L58.54,345A5.55,5.55,0,0,1,53.52,345Z"/></g><g id="Device"><g id="PC"><g id="Monitor"><path class="cls-3" d="M189.73,309.46l31.62-18.29c3.26-1.88,4.88-4.34,4.89-6.81s0-4.4,0-4.4L188.2,258.4a6.94,6.94,0,0,1-3.15-5.45V214l-55.23,31.91v39a7,7,0,0,0,3.15,5.45l33.15,19.14C172.64,313.22,183.21,313.22,189.73,309.46Z"/><g class="cls-4"><path d="M189.73,309.46l31.62-18.29c3.26-1.88,4.88-4.34,4.89-6.81s0-4.4,0-4.4L188.2,258.4a6.94,6.94,0,0,1-3.15-5.45V214l-55.23,31.91v39a7,7,0,0,0,3.15,5.45l33.15,19.14C172.64,313.22,183.21,313.22,189.73,309.46Z"/></g><path class="cls-3" d="M143.08,291.77v4.38L133,290.31a6.94,6.94,0,0,1-3.14-5.45v-39l10.52-6.07c.22,2.68.45,5.44.67,8.13l-7.38,4.27v30.45a6.92,6.92,0,0,0,3.15,5.46Z"/><path class="cls-5" d="M143.08,291.77v4.38L133,290.31a6.94,6.94,0,0,1-3.14-5.45v-39l10.52-6.07c.22,2.68.45,5.44.67,8.13l-7.38,4.27v30.45a6.92,6.92,0,0,0,3.15,5.46Z"/><path class="cls-3" d="M133.63,282.67a6.94,6.94,0,0,0,3.15,5.45l29.34,16.94c6.52,3.76,17.08,3.76,23.6,0l31.64-18.28c6.52-3.76,6.52-9.86,0-13.62l-29.35-17a7,7,0,0,1-3.15-5.45V220.3l-55.23,31.91Z"/><path class="cls-6" d="M133.63,282.67a6.94,6.94,0,0,0,3.15,5.45l29.34,16.94c6.52,3.76,17.08,3.76,23.6,0l31.64-18.28c6.52-3.76,6.52-9.86,0-13.62l-29.35-17a7,7,0,0,1-3.15-5.45V220.3l-55.23,31.91Z"/><path class="cls-7" d="M198.42,259.91h0l-6.41-3.7a7,7,0,0,1-3.15-5.45V220.3l-55.23,31.91v30.46a6.94,6.94,0,0,0,3.15,5.45l6.3,3.64Z"/><path class="cls-8" d="M198.42,259.91h0l-6.41-3.7a7,7,0,0,1-3.15-5.45V220.3l-55.23,31.91v30.46a6.94,6.94,0,0,0,3.15,5.45l6.3,3.64Z"/><path class="cls-3" d="M226.24,280v4.39c0,2.47-1.63,4.93-4.89,6.82l-31.62,18.27a23.63,23.63,0,0,1-11.27,2.8v-4.38a23.75,23.75,0,0,0,11.27-2.8l31.62-18.29C224.61,284.91,226.24,282.44,226.24,280Z"/><path class="cls-9" d="M226.24,280v4.39c0,2.47-1.63,4.93-4.89,6.82l-31.62,18.27a23.63,23.63,0,0,1-11.27,2.8v-4.38a23.75,23.75,0,0,0,11.27-2.8l31.62-18.29C224.61,284.91,226.24,282.44,226.24,280Z"/><path class="cls-3" d="M45,324.73a8.46,8.46,0,0,0,7.62-.14L266.16,201.28a8.7,8.7,0,0,0,3.94-6.82V7.52A8.47,8.47,0,0,0,266.41.84a8.48,8.48,0,0,0-7.63.14L45.2,124.29a8.72,8.72,0,0,0-3.93,6.82V318.05A8.45,8.45,0,0,0,45,324.73Z"/><path class="cls-6" d="M45,324.73a8.46,8.46,0,0,0,7.62-.14L266.16,201.28a8.7,8.7,0,0,0,3.94-6.82V7.52A8.47,8.47,0,0,0,266.41.84a8.48,8.48,0,0,0-7.63.14L45.2,124.29a8.72,8.72,0,0,0-3.93,6.82V318.05A8.45,8.45,0,0,0,45,324.73Z"/><path class="cls-3" d="M52.58,324.58,266.16,201.27a8.67,8.67,0,0,0,3.94-6.81V7.51c0-2.51-1.76-3.52-3.94-2.27L52.59,128.55a8.67,8.67,0,0,0-3.94,6.81v187C48.65,324.82,50.41,325.84,52.58,324.58Z"/><path class="cls-3" d="M52.58,324.58,266.16,201.27a8.67,8.67,0,0,0,3.94-6.81V7.51c0-2.51-1.76-3.52-3.94-2.27L52.59,128.55a8.67,8.67,0,0,0-3.94,6.81v187C48.65,324.82,50.41,325.84,52.58,324.58Z"/><path class="cls-10" d="M52.58,324.58,266.16,201.27a8.67,8.67,0,0,0,3.94-6.81V7.51c0-2.51-1.76-3.52-3.94-2.27L52.59,128.55a8.67,8.67,0,0,0-3.94,6.81v187C48.65,324.82,50.41,325.84,52.58,324.58Z"/><path class="cls-3" d="M52,324.88a8.51,8.51,0,0,1-7-.15A8.46,8.46,0,0,1,41.26,318V297l7.38,4.27v21C48.64,324.61,50.1,325.64,52,324.88Z"/><path class="cls-5" d="M52,324.88a8.51,8.51,0,0,1-7-.15A8.46,8.46,0,0,1,41.26,318V297l7.38,4.27v21C48.64,324.61,50.1,325.64,52,324.88Z"/><path class="cls-3" d="M48.65,301.28v21c0,2.51,1.76,3.53,3.93,2.27L266.16,201.27a8.67,8.67,0,0,0,3.94-6.81v-21Z"/><g class="cls-4"><path d="M48.65,301.28v21c0,2.51,1.76,3.53,3.93,2.27L266.16,201.27a8.67,8.67,0,0,0,3.94-6.81v-21Z"/></g><path class="cls-11" d="M56,285.77v-148a5.22,5.22,0,0,1,2.36-4.08l202-116.61c1.31-.75,2.36-.14,2.36,1.37v148a5.23,5.23,0,0,1-2.36,4.09l-202,116.6C57.08,287.89,56,287.28,56,285.77Z"/><path class="cls-3" d="M159.37,245.88a8.16,8.16,0,0,0-3.69,6.4c0,2.35,1.65,3.31,3.69,2.13a8.16,8.16,0,0,0,3.69-6.4C163.06,245.66,161.41,244.71,159.37,245.88Z"/><path class="cls-12" d="M159.37,245.88a8.16,8.16,0,0,0-3.69,6.4c0,2.35,1.65,3.31,3.69,2.13a8.16,8.16,0,0,0,3.69-6.4C163.06,245.66,161.41,244.71,159.37,245.88Z"/><path class="cls-3" d="M49.8,131.47a8.51,8.51,0,0,0-1.16,3.89V301.29L41.26,297V131.11a8.14,8.14,0,0,1,1.17-3.89Z"/><path class="cls-5" d="M49.8,131.47a8.51,8.51,0,0,0-1.16,3.89V301.29L41.26,297V131.11a8.14,8.14,0,0,1,1.17-3.89Z"/></g></g><g id="Keyboard"><path id="Shadow-3" data-name="Shadow" class="cls-2" d="M126.43,367.35l53.36,30.9a6.6,6.6,0,0,0,6,0l157.67-90.91c1.65-1,1.65-2.5,0-3.45L290.07,273a6.6,6.6,0,0,0-6,0L126.43,363.9C124.78,364.85,124.78,366.39,126.43,367.35Z"/><g id="Keyboard-2" data-name="Keyboard"><path class="cls-3" d="M340.2,298.42a2.1,2.1,0,0,0-1.23-1.73l-50.14-28.94a6.63,6.63,0,0,0-6,0l-153,88.47a2.1,2.1,0,0,0-1.24,1.73v5.26a2.08,2.08,0,0,0,1.24,1.72L180,393.87a6.65,6.65,0,0,0,6,0l153-88.33a2.1,2.1,0,0,0,1.23-1.72C340.21,303.19,340.2,299,340.2,298.42Z"/><path class="cls-10" d="M340.2,298.42a2.1,2.1,0,0,0-1.23-1.73l-50.14-28.94a6.63,6.63,0,0,0-6,0l-153,88.47a2.1,2.1,0,0,0-1.24,1.73v5.26a2.08,2.08,0,0,0,1.24,1.72L180,393.87a6.65,6.65,0,0,0,6,0l153-88.33a2.1,2.1,0,0,0,1.23-1.72C340.21,303.19,340.2,299,340.2,298.42Z"/><path class="cls-3" d="M180,388.48l-50.11-28.81c-1.65-.95-1.65-2.49,0-3.45l153-88.47a6.63,6.63,0,0,1,6,0L339,296.69c1.65,1,1.65,2.5,0,3.45L186,388.47A6.62,6.62,0,0,1,180,388.48Z"/><path class="cls-6" d="M180,388.48l-50.11-28.81c-1.65-.95-1.65-2.49,0-3.45l153-88.47a6.63,6.63,0,0,1,6,0L339,296.69c1.65,1,1.65,2.5,0,3.45L186,388.47A6.62,6.62,0,0,1,180,388.48Z"/><path class="cls-3" d="M182.78,389.19v5.38a6.41,6.41,0,0,1-2.81-.69l-50.09-28.94a2.12,2.12,0,0,1-1.24-1.73v-5.27a2.12,2.12,0,0,0,1.24,1.73L180,388.49A6.15,6.15,0,0,0,182.78,389.19Z"/><path class="cls-5" d="M182.78,389.19v5.38a6.41,6.41,0,0,1-2.81-.69l-50.09-28.94a2.12,2.12,0,0,1-1.24-1.73v-5.27a2.12,2.12,0,0,0,1.24,1.73L180,388.49A6.15,6.15,0,0,0,182.78,389.19Z"/><path class="cls-13" d="M246.77,305l5.71,3.3a.78.78,0,0,0,.37.09l5.26-2.93L252,302Z"/><path class="cls-13" d="M253.65,301l5.73,3.32a.94.94,0,0,0,.34.07h.21L265,301.5,258.84,298Z"/><path class="cls-13" d="M235.2,311.7l5.73,3.31a.94.94,0,0,0,.34.07l8.53-4.81-6.15-3.45Z"/><path class="cls-13" d="M228.33,315.66l5.73,3.31a.71.71,0,0,0,.34.08l5.27-2.93-6.15-3.46Z"/><path class="cls-13" d="M196.94,367.59l5.26-2.94-6.14-3.45-5.2,3,5.74,3.31A.71.71,0,0,0,196.94,367.59Z"/><path class="cls-13" d="M221.46,319.63l5.7,3.29a.76.76,0,0,0,.37.1l5.27-2.93-6.15-3.46Z"/><path class="cls-13" d="M259.74,306.5l-5.2,3,5.72,3.3a.8.8,0,0,0,.36.08l5.26-2.93Z"/><path class="cls-13" d="M240.53,333.45l5.27-2.93-6.14-3.46-5.2,3,5.72,3.31A.78.78,0,0,0,240.53,333.45Z"/><path class="cls-13" d="M267.49,308.91l5.27-2.93-6.15-3.45-5.19,3,5.73,3.31A.71.71,0,0,0,267.49,308.91Z"/><path class="cls-13" d="M233.66,337.42l5.27-2.94L232.78,331l-5.2,3,5.71,3.29A.76.76,0,0,0,233.66,337.42Z"/><path class="cls-13" d="M226.79,341.38l5.26-2.93L225.91,335l-5.2,3,5.74,3.31A.74.74,0,0,0,226.79,341.38Z"/><path class="cls-13" d="M254.28,325.51l11-6.27-13.91-7.94-5.92,3.42,7.27,4.19a.37.37,0,0,1,.2.3.34.34,0,0,1-.18.27l-4.59,2.65,5.7,3.28A.69.69,0,0,0,254.28,325.51Z"/><path class="cls-13" d="M207.71,327.57l5.73,3.31a.89.89,0,0,0,.34.07l5.27-2.93-6.14-3.45Z"/><path class="cls-13" d="M247.4,329.48l5.27-2.93-6.14-3.46-5.2,3,5.7,3.29A.68.68,0,0,0,247.4,329.48Z"/><path class="cls-13" d="M169.1,365.72l5.27-2.93-6.14-3.46-5.2,3,5.7,3.3A.8.8,0,0,0,169.1,365.72Z"/><path class="cls-13" d="M152.73,359.31l5.75,3.32a.83.83,0,0,0,.32.06H159l5.06-2.92-6.15-3.45Z"/><path class="cls-13" d="M178.68,369.16l.21,0,5.05-2.91-6.14-3.46-5.2,3,5.74,3.31A.71.71,0,0,0,178.68,369.16Z"/><path class="cls-13" d="M183.19,375.52l5.27-2.93-6.15-3.45-5.19,3,5.7,3.29A.78.78,0,0,0,183.19,375.52Z"/><path class="cls-13" d="M159.6,355.34l5.74,3.31a.7.7,0,0,0,.33.08l5.27-2.94-6.14-3.45Z"/><path class="cls-13" d="M190.06,371.56l5.27-2.94-6.14-3.45-5.2,3,5.73,3.31A.74.74,0,0,0,190.06,371.56Z"/><path class="cls-13" d="M180.22,343.44l5.73,3.31a.74.74,0,0,0,.34.07l5.27-2.93-6.14-3.45Z"/><path class="cls-13" d="M187.09,339.47l5.72,3.3a.71.71,0,0,0,.36.09l5.26-2.93-6.14-3.46Z"/><path class="cls-13" d="M194,335.5l5.71,3.3a.73.73,0,0,0,.37.09l5.27-2.93-6.15-3.46Z"/><path class="cls-13" d="M173.35,347.41l5.7,3.29a.73.73,0,0,0,.37.09l5.27-2.93-6.15-3.45Z"/><path class="cls-13" d="M200.84,331.54l5.73,3.31a.82.82,0,0,0,.34.07l5.27-2.93L206,328.54Z"/><path class="cls-13" d="M166.47,351.37l5.73,3.31a.82.82,0,0,0,.35.08l5.27-2.93-6.15-3.45Z"/><path class="cls-13" d="M214.58,323.6l5.74,3.32a.92.92,0,0,0,.33.06l5.27-2.93-6.14-3.45Z"/><path class="cls-13" d="M231.75,322.65l5.71,3.3a.76.76,0,0,0,.37.09l.21,0,5.05-2.91L237,319.66Z"/><path class="cls-13" d="M268.84,292.27l5.71,3.3a.77.77,0,0,0,.36.09l5.27-2.93L274,289.27Z"/><path class="cls-13" d="M275.71,288.31l5.72,3.29a.65.65,0,0,0,.35.09l5.27-2.93-6.14-3.45Z"/><path class="cls-13" d="M224.88,326.62l5.72,3.3a.7.7,0,0,0,.36.09l5.26-2.94-6.14-3.45Z"/><path class="cls-13" d="M282.59,284.34l5.7,3.29a.78.78,0,0,0,.37.09l5.27-2.93-6.15-3.45Z"/><path class="cls-13" d="M244.7,322.07h.21l5.06-2.92-6.15-3.45-5.2,3,5.72,3.29A.7.7,0,0,0,244.7,322.07Z"/><path class="cls-13" d="M276.6,296.76l5.71,3.29a.73.73,0,0,0,.37.09l5.27-2.93-6.15-3.45Z"/><path class="cls-13" d="M290.35,288.82l5.7,3.29a.73.73,0,0,0,.37.1l5.27-2.93-6.14-3.46Z"/><path class="cls-13" d="M289.55,296.18l5.27-2.93-6.14-3.46-5.2,3,5.73,3.31A.74.74,0,0,0,289.55,296.18Z"/><path class="cls-13" d="M310.74,292.66a.84.84,0,0,0,.33.06h.21l5.05-2.92-13.91-7.94-5.2,3Z"/><path class="cls-13" d="M218,330.59l5.71,3.3a.79.79,0,0,0,.36.08h.21l5.06-2.92-6.14-3.45Z"/><path class="cls-13" d="M297.32,300.66h.21l5.06-2.92-6.15-3.45-5.2,3,5.72,3.3A.7.7,0,0,0,297.32,300.66Z"/><path class="cls-13" d="M304.19,296.69l5.27-2.93-6.14-3.45-5.2,3,5.69,3.28A.71.71,0,0,0,304.19,296.69Z"/><path class="cls-13" d="M183.64,350.43l5.71,3.29a.73.73,0,0,0,.37.09l5.27-2.93-6.15-3.45Z"/><path class="cls-13" d="M169.9,358.37l5.7,3.29a.76.76,0,0,0,.37.09h.22l5.05-2.92-6.14-3.46Z"/><path class="cls-13" d="M192.43,361.22l5.26-2.93-6.14-3.45-5.2,3,5.74,3.31A.75.75,0,0,0,192.43,361.22Z"/><path class="cls-13" d="M185.55,365.19l5.27-2.93-6.15-3.45-5.19,3,5.73,3.31A.94.94,0,0,0,185.55,365.19Z"/><path class="cls-13" d="M199.3,357.25h.21l5.05-2.91-6.14-3.46-5.2,3,5.71,3.29A.76.76,0,0,0,199.3,357.25Z"/><path class="cls-13" d="M211.13,334.56l5.72,3.3a.83.83,0,0,0,.36.08h.21l5.05-2.92-6.14-3.45Z"/><path class="cls-13" d="M213,349.32l5.27-2.93-6.14-3.45-5.2,3,5.7,3.3A.8.8,0,0,0,213,349.32Z"/><path class="cls-13" d="M206.17,353.29l5.27-2.93-6.15-3.46-5.2,3,5.74,3.31A.77.77,0,0,0,206.17,353.29Z"/><path class="cls-13" d="M197.39,342.49l5.7,3.3a.77.77,0,0,0,.38.09l5.26-2.93-6.14-3.46Z"/><path class="cls-13" d="M176.77,354.4l5.71,3.29a.73.73,0,0,0,.37.09l5.26-2.93L182,351.4Z"/><path class="cls-13" d="M204.26,338.53l5.71,3.29a.76.76,0,0,0,.37.09L215.6,339l-6.14-3.46Z"/><path class="cls-13" d="M190.52,346.46l5.7,3.29a.76.76,0,0,0,.37.1l.22,0,5.05-2.92-6.14-3.45Z"/><path class="cls-13" d="M219.91,345.35l5.27-2.93L219,339l-5.2,3,5.72,3.3A.78.78,0,0,0,219.91,345.35Z"/><path class="cls-13" d="M260.52,297.08l5.74,3.31a.7.7,0,0,0,.33.07l5.27-2.93-6.14-3.45Z"/><path class="cls-13" d="M151.05,360.28l-5.2,3,5.74,3.31a.71.71,0,0,0,.34.07h.21l5.06-2.92Z"/><path class="cls-13" d="M161.35,363.3l-7.73,4.46,5.74,3.31a.71.71,0,0,0,.34.08l.21,0,7.59-4.38Z"/><path class="cls-13" d="M142.71,354.21l-6.28,3.62,5.71,3.3a.7.7,0,0,0,.36.09l6.35-3.56Z"/><path class="cls-13" d="M175.44,373.1l-6.28,3.63,5.7,3.29a.73.73,0,0,0,.37.1l6.36-3.56Z"/><path class="cls-13" d="M170.93,366.74l-9.54,5.51,5.74,3.31a.7.7,0,0,0,.33.07h.22l9.39-5.43Z"/><path class="cls-13" d="M153.45,354.9l5.27-2.93-6.15-3.46-5.2,3,5.71,3.3A.73.73,0,0,0,153.45,354.9Z"/><path class="cls-13" d="M176.93,381.22l5.71,3.29a.66.66,0,0,0,.36.09l7.8-4.39-6.15-3.45Z"/><path class="cls-13" d="M160.32,350.93l5.27-2.93-6.14-3.45-5.2,3,5.73,3.31A.77.77,0,0,0,160.32,350.93Z"/><path class="cls-13" d="M190.8,333.33H191l5.06-2.92L189.93,327l-5.2,3,5.72,3.3A.75.75,0,0,0,190.8,333.33Z"/><path class="cls-13" d="M197.68,329.37l5.26-2.94L196.8,323l-5.2,3,5.72,3.3A.82.82,0,0,0,197.68,329.37Z"/><path class="cls-13" d="M183.93,337.3h.21l5.06-2.92-6.15-3.45-5.19,3,5.7,3.29A.78.78,0,0,0,183.93,337.3Z"/><path class="cls-13" d="M174.07,343l.21,0,5.06-2.92-6.15-3.45-5.19,3,5.71,3.3A.71.71,0,0,0,174.07,343Z"/><path class="cls-13" d="M167.19,347l5.27-2.93-6.14-3.45-5.2,3,5.73,3.31A.74.74,0,0,0,167.19,347Z"/><path class="cls-13" d="M313.66,302.28l5.74,3.31a.7.7,0,0,0,.33.07h.21l5.06-2.92-6.15-3.45Z"/><path class="cls-13" d="M277.84,323l5.71,3.29a.76.76,0,0,0,.37.1l5.27-2.93L283,320Z"/><path class="cls-13" d="M299.91,310.21l5.71,3.3a.77.77,0,0,0,.36.09l.22,0,11.92-6.88L312,303.24Z"/><path class="cls-13" d="M284.72,319l5.7,3.29a.76.76,0,0,0,.37.1l5.27-2.93L289.91,316Z"/><path class="cls-13" d="M291.59,315l5.68,3.27a.69.69,0,0,0,.4.11l5.26-2.93L296.79,312Z"/><path class="cls-13" d="M204.55,325.4l.21,0,5.06-2.91L203.67,319l-5.2,3,5.71,3.29A.66.66,0,0,0,204.55,325.4Z"/><path class="cls-13" d="M318,290.82l-5.2,3,13.52,7.81a.79.79,0,0,0,.32.06h.21l5.05-2.92Z"/><path class="cls-13" d="M194.29,371.19l5.7,3.29a.73.73,0,0,0,.37.1l6.35-3.56-6.14-3.46Z"/><path class="cls-13" d="M202.25,366.6l5.69,3.28a.71.71,0,0,0,.38.1h.21l39.06-22.55L241.44,344Z"/><path class="cls-13" d="M203.81,363.62l5.27-2.93-6.15-3.45-5.2,3,5.73,3.31A.78.78,0,0,0,203.81,363.62Z"/><path class="cls-13" d="M186.33,375.79l5.71,3.29a.7.7,0,0,0,.36.09l6.36-3.56-6.15-3.45Z"/><path class="cls-13" d="M243.12,343l5.71,3.3a.79.79,0,0,0,.36.08h.22l6.14-3.54-6.15-3.46Z"/><path class="cls-13" d="M259,333.81l5.72,3.31a.75.75,0,0,0,.35.08l.21,0,6.14-3.54-6.14-3.46Z"/><path class="cls-13" d="M251.08,338.4l5.73,3.32a.94.94,0,0,0,.34.07l6.36-3.56-6.15-3.45Z"/><path class="cls-13" d="M267,329.22l5.71,3.29a.76.76,0,0,0,.37.09h.21l7.58-4.38-6.14-3.46Z"/><path class="cls-13" d="M274.36,305l.21,0,5.06-2.92-6.14-3.45-5.2,3,5.72,3.31A.78.78,0,0,0,274.36,305Z"/><path class="cls-13" d="M283,317.88h.22l5.05-2.92-6.14-3.45-5.2,3,5.72,3.3A.78.78,0,0,0,283,317.88Z"/><path class="cls-13" d="M258.79,331.88l14.31-8.16L267,320.27l-14.24,8.22,5.74,3.31A.83.83,0,0,0,258.79,331.88Z"/><path class="cls-13" d="M298.22,309.11h.21l5.05-2.92-6.14-3.45-5.2,3,5.74,3.31A.71.71,0,0,0,298.22,309.11Z"/><path class="cls-13" d="M305.09,305.14h.21l5.05-2.92-6.14-3.45-5.2,3,5.73,3.3A.75.75,0,0,0,305.09,305.14Z"/><path class="cls-13" d="M251.91,335.84l5.27-2.93L251,329.46l-5.2,3,5.71,3.3A.83.83,0,0,0,251.91,335.84Z"/><path class="cls-13" d="M290.45,304.63l.21,0,5.06-2.91-6.15-3.46-5.2,3,5.7,3.29A.77.77,0,0,0,290.45,304.63Z"/><path class="cls-13" d="M217.55,355.68l5.27-2.93-6.14-3.45-5.2,3,5.73,3.31A.74.74,0,0,0,217.55,355.68Z"/><path class="cls-13" d="M245.05,339.81l5.26-2.93-6.14-3.45-5.2,3,5.75,3.31A.76.76,0,0,0,245.05,339.81Z"/><path class="cls-13" d="M210.68,359.65h.21l5.06-2.92-6.15-3.45-5.19,3,5.73,3.31A.94.94,0,0,0,210.68,359.65Z"/><path class="cls-13" d="M224.43,351.72l5.26-2.93-6.14-3.46-5.2,3,5.75,3.32A1,1,0,0,0,224.43,351.72Z"/><path class="cls-13" d="M231.3,347.75l.21,0,5.05-2.92-6.14-3.45-5.2,3,5.71,3.29A.76.76,0,0,0,231.3,347.75Z"/><path class="cls-13" d="M238.17,343.78l.21,0,5.06-2.91-6.14-3.45-5.2,3,5.73,3.32A.94.94,0,0,0,238.17,343.78Z"/><path class="cls-13" d="M221.28,315.74l5.27-2.94-6.14-3.45-5.2,3,5.7,3.29A.79.79,0,0,0,221.28,315.74Z"/><path class="cls-13" d="M312,301.18l.21,0,5.06-2.92-6.15-3.45-5.19,3,5.73,3.31A.77.77,0,0,0,312,301.18Z"/><path class="cls-13" d="M235,307.8l5.27-2.93-6.15-3.45-5.2,3,5.71,3.29A.73.73,0,0,0,235,307.8Z"/><path class="cls-13" d="M250.29,299l5.27-2.93-6.14-3.46-5.2,3,5.71,3.3A.72.72,0,0,0,250.29,299Z"/><path class="cls-13" d="M243.42,303l5.27-2.93-6.15-3.45-5.19,3,5.71,3.3A.79.79,0,0,0,243.42,303Z"/><path class="cls-13" d="M214.41,319.7l5.27-2.93-6.15-3.45-5.19,3,5.71,3.3A.79.79,0,0,0,214.41,319.7Z"/><path class="cls-13" d="M228.16,311.77l.21,0,5-2.91-6.14-3.46-5.2,3,5.71,3.29A.76.76,0,0,0,228.16,311.77Z"/><path class="cls-13" d="M257.17,295l5.26-2.93-6.14-3.46-5.2,3,5.71,3.3A.73.73,0,0,0,257.17,295Z"/><path class="cls-13" d="M284.11,277.16l5.26-2.93L286,272.42l-5.2,3,2.93,1.65A.78.78,0,0,0,284.11,277.16Z"/><path class="cls-13" d="M295.53,283.76l5.27-2.94-6.15-3.45-5.19,3,5.71,3.3A.75.75,0,0,0,295.53,283.76Z"/><path class="cls-13" d="M263.49,289.06h.21l5.05-2.92-3.33-1.8-5.2,3,2.91,1.65A.79.79,0,0,0,263.49,289.06Z"/><path class="cls-13" d="M270.36,285.1l.22,0,5.05-2.92-3.34-1.8-5.2,3L270,285A.7.7,0,0,0,270.36,285.1Z"/><path class="cls-13" d="M277.24,281.13l5.26-2.93-3.34-1.81-5.2,3,2.94,1.65A.71.71,0,0,0,277.24,281.13Z"/></g></g></g><g id="Windows"><g class="cls-14"><path class="cls-15" d="M285.06,22.16V170.62A6.82,6.82,0,0,1,282,176L81.88,291.7a2,2,0,0,1-1,.3,1.84,1.84,0,0,1-.4-.06,1.14,1.14,0,0,1-.26-.09l-.16-.09-.18-.12a.9.9,0,0,1-.18-.15,2.45,2.45,0,0,1-.56-.81,3.75,3.75,0,0,1-.33-1.56V141.41a6.83,6.83,0,0,1,3.09-5.34L282,20.38a2.27,2.27,0,0,1,2.08-.26,1.35,1.35,0,0,1,.26.15l0,0a1,1,0,0,1,.2.2.48.48,0,0,1,.09.11.75.75,0,0,1,.1.17,1.41,1.41,0,0,1,.19.39,1.07,1.07,0,0,1,.07.27.07.07,0,0,1,0,.06,1.47,1.47,0,0,1,.05.29C285.05,21.9,285.06,22,285.06,22.16Z"/><path class="cls-15" d="M283.34,21a.62.62,0,0,1,.3.06l0,0h0l.05,0,.09.12h0l.07.11,0,.05,0,0,.1.29v0l0,0v0a.23.23,0,0,1,0,.07c0,.1,0,.2,0,.3V170.62a5.82,5.82,0,0,1-2.59,4.48L81.38,290.83a1,1,0,0,1-.52.17h0l-.21,0-.06,0h0l-.14-.1,0,0h0l0-.05a1.36,1.36,0,0,1-.33-.48,2.75,2.75,0,0,1-.24-1.15V141.41a5.82,5.82,0,0,1,2.59-4.47L282.47,21.25a1.79,1.79,0,0,1,.87-.28m0-1a2.81,2.81,0,0,0-1.37.41L81.88,136.07a6.83,6.83,0,0,0-3.09,5.34V289.12a3.75,3.75,0,0,0,.33,1.56,2.45,2.45,0,0,0,.56.81.9.9,0,0,0,.18.15l.18.12.16.09a1.14,1.14,0,0,0,.26.09,1.84,1.84,0,0,0,.4.06h0a2.08,2.08,0,0,0,1-.3L282,176a6.82,6.82,0,0,0,3.09-5.34V22.16c0-.13,0-.26,0-.38a1.47,1.47,0,0,0-.05-.29.07.07,0,0,0,0-.06,1.07,1.07,0,0,0-.07-.27,1.41,1.41,0,0,0-.19-.39.75.75,0,0,0-.1-.17.48.48,0,0,0-.09-.11,1,1,0,0,0-.2-.2l0,0a1.35,1.35,0,0,0-.26-.15,1.67,1.67,0,0,0-.71-.15Z"/><g class="cls-16"><path class="cls-15" d="M285.06,22.16V170.62A6.82,6.82,0,0,1,282,176L81.88,291.7a2,2,0,0,1-1,.3,1.84,1.84,0,0,1-.4-.06,1.14,1.14,0,0,1-.26-.09l-.16-.09-.18-.12a.9.9,0,0,1-.18-.15,2.45,2.45,0,0,1-.56-.81,3.75,3.75,0,0,1-.33-1.56V141.41a6.83,6.83,0,0,1,3.09-5.34L282,20.38a2.27,2.27,0,0,1,2.08-.26,1.35,1.35,0,0,1,.26.15l0,0a1,1,0,0,1,.2.2.48.48,0,0,1,.09.11.75.75,0,0,1,.1.17,1.41,1.41,0,0,1,.19.39,1.07,1.07,0,0,1,.07.27.07.07,0,0,1,0,.06,1.47,1.47,0,0,1,.05.29C285.05,21.9,285.06,22,285.06,22.16Z"/></g></g><path class="cls-3" d="M284.05,20.12a2.27,2.27,0,0,0-2.08.26L81.88,136.07a6.83,6.83,0,0,0-3.09,5.34v10.08l-3.93-2.3v-10a6.79,6.79,0,0,1,3.07-5.33L278,18.16a2.14,2.14,0,0,1,2.23-.19C280.83,18.31,283.39,19.77,284.05,20.12Z"/><path class="cls-3" d="M285.05,22.14c0-1.95-1.38-2.73-3.08-1.75L81.88,136.08a6.79,6.79,0,0,0-3.09,5.33V151.5L285.05,32.26Z"/><g class="cls-17"><path class="cls-18" d="M282,20.38,81.88,136.07a6.39,6.39,0,0,0-2.17,2.29l-3.92-2.27a6.13,6.13,0,0,1,2.15-2.25L278,18.15a2.17,2.17,0,0,1,2.24-.18c.55.34,3.11,1.79,3.76,2.14A2.24,2.24,0,0,0,282,20.38Z"/></g><path class="cls-19" d="M74.85,149.2v-10a6.41,6.41,0,0,1,.94-3.09l3.93,2.26a6.27,6.27,0,0,0-.92,3.07V151.5Z"/><path class="cls-15" d="M266.48,33.62a4.61,4.61,0,0,0-1.74,3.69c0,1.48.78,2.23,1.74,1.67a4.58,4.58,0,0,0,1.74-3.68C268.22,33.82,267.44,33.06,266.48,33.62Z"/><path class="cls-15" d="M272.75,30A4.61,4.61,0,0,0,271,33.68c0,1.48.78,2.23,1.74,1.68a4.58,4.58,0,0,0,1.74-3.69C274.49,30.19,273.72,29.44,272.75,30Z"/><path class="cls-15" d="M279,26.37a4.58,4.58,0,0,0-1.74,3.68c0,1.48.78,2.23,1.74,1.68A4.59,4.59,0,0,0,280.77,28C280.77,26.56,280,25.81,279,26.37Z"/><path class="cls-20" d="M79.93,291.71l-.39-.22c-.28-.17-.61-.36-1-.54h0c-.17-.1-.34-.2-.52-.29l0,0-.81-.47-.67-.38-.39-.21a1.76,1.76,0,0,1-.52-.43,2,2,0,0,1-.42-.63,3.83,3.83,0,0,1-.35-1.63V149.19l3.93,2.3V289.12a4.44,4.44,0,0,0,.33,1.56,2.45,2.45,0,0,0,.56.81.45.45,0,0,0,.18.15A.23.23,0,0,0,79.93,291.71Z"/><path class="cls-21" d="M145.69,202.88s-7.29-4.71-8.23-4.74l-20.69-.65,8.22,4.38v.36Z"/><path class="cls-11" d="M110.2,217.07v-13L145.69,160v17.2L125,201.87v.36l20.7.65v17.2Z"/><polygon class="cls-15" points="145.69 160 137.46 155.26 101.98 199.37 110.2 204.1 145.69 160"/><polygon class="cls-13" points="101.98 199.37 101.98 212.33 110.2 217.06 110.2 204.1 101.98 199.37"/><path class="cls-11" d="M167.16,211.55l-11,6.36,27.46-100.64,10.62-6.13Z"/><polygon class="cls-15" points="194.23 111.14 186 106.4 175.38 112.53 183.61 117.27 194.23 111.14"/><polygon class="cls-13" points="175.38 112.53 183.61 117.27 156.15 217.91 147.92 213.17 175.38 112.53"/><polygon class="cls-21" points="196.47 164.07 204.69 168.81 225.38 143.9 217.16 139.16 196.47 164.07"/><path class="cls-11" d="M225.39,143.9l-20.7-.77v-17.2l35.49,3.13v13l-35.49,44v-17.2l20.7-24.54Z"/><polygon class="cls-15" points="196.47 121.19 204.69 125.93 240.18 129.06 231.95 124.32 196.47 121.19"/><polyline class="cls-13" points="204.69 125.93 204.69 143.13 196.47 138.39 196.47 121.19"/><polygon class="cls-13" points="196.47 164.07 204.69 168.81 204.69 186.01 196.47 181.27 196.47 164.07"/><g class="cls-14"><path class="cls-15" d="M349.66,47.77V196.22a6.82,6.82,0,0,1-3.09,5.34l-85.28,49.21a2,2,0,0,1-1,.3,1.34,1.34,0,0,1-.4-.06,1.14,1.14,0,0,1-.26-.09l-.16-.09-.19-.12a1.22,1.22,0,0,1-.17-.15,2.45,2.45,0,0,1-.56-.81,3.75,3.75,0,0,1-.33-1.56V100.49a6.84,6.84,0,0,1,3.09-5.35L346.57,46a2.25,2.25,0,0,1,2.08-.27,1.35,1.35,0,0,1,.26.15l0,0a1,1,0,0,1,.2.21.52.52,0,0,1,.1.11.54.54,0,0,1,.1.16,1.38,1.38,0,0,1,.18.39,1.28,1.28,0,0,1,.07.28.07.07,0,0,1,0,.06,1.26,1.26,0,0,1,.05.28C349.65,47.5,349.66,47.63,349.66,47.77Z"/><path class="cls-15" d="M347.94,46.57a.63.63,0,0,1,.3.07h0l.05.05.09.11h0l.07.11,0,0,0,0,.1.29v0l0,0v0a.23.23,0,0,1,0,.07,3,3,0,0,1,0,.31V196.22a5.79,5.79,0,0,1-2.59,4.48l-85.28,49.2a1,1,0,0,1-.52.17h0l-.21,0-.08,0-.13-.09,0,0h0l-.05-.05a1.36,1.36,0,0,1-.33-.48,2.75,2.75,0,0,1-.24-1.15V100.49A5.82,5.82,0,0,1,261.79,96l85.28-49.16a1.94,1.94,0,0,1,.87-.28m0-1a2.75,2.75,0,0,0-1.37.42L261.29,95.14a6.84,6.84,0,0,0-3.09,5.35v147.7a3.75,3.75,0,0,0,.33,1.56,2.45,2.45,0,0,0,.56.81,1.22,1.22,0,0,0,.17.15l.19.12.16.09a1.14,1.14,0,0,0,.26.09,1.34,1.34,0,0,0,.4.06h0a2,2,0,0,0,1-.3l85.28-49.21a6.82,6.82,0,0,0,3.09-5.34V47.77c0-.14,0-.27,0-.39a1.26,1.26,0,0,0-.05-.28.07.07,0,0,0,0-.06,1.28,1.28,0,0,0-.07-.28,1.38,1.38,0,0,0-.18-.39.54.54,0,0,0-.1-.16.52.52,0,0,0-.1-.11,1,1,0,0,0-.2-.21l0,0a1.35,1.35,0,0,0-.26-.15,1.64,1.64,0,0,0-.71-.15Z"/><g class="cls-14"><path class="cls-15" d="M349.66,47.77V196.22a6.82,6.82,0,0,1-3.09,5.34l-85.28,49.21a2,2,0,0,1-1,.3,1.34,1.34,0,0,1-.4-.06,1.14,1.14,0,0,1-.26-.09l-.16-.09-.19-.12a1.22,1.22,0,0,1-.17-.15,2.45,2.45,0,0,1-.56-.81,3.75,3.75,0,0,1-.33-1.56V100.49a6.84,6.84,0,0,1,3.09-5.35L346.57,46a2.25,2.25,0,0,1,2.08-.27,1.35,1.35,0,0,1,.26.15l0,0a1,1,0,0,1,.2.21.52.52,0,0,1,.1.11.54.54,0,0,1,.1.16,1.38,1.38,0,0,1,.18.39,1.28,1.28,0,0,1,.07.28.07.07,0,0,1,0,.06,1.26,1.26,0,0,1,.05.28C349.65,47.5,349.66,47.63,349.66,47.77Z"/></g></g><path class="cls-3" d="M348.65,45.72a2.25,2.25,0,0,0-2.08.27L261.29,95.14a6.84,6.84,0,0,0-3.09,5.35v10.07l-3.93-2.3v-10a6.79,6.79,0,0,1,3.07-5.33l85.3-49.16a2.11,2.11,0,0,1,2.23-.18C345.43,43.91,348,45.38,348.65,45.72Z"/><path class="cls-3" d="M349.65,47.75c0-2-1.38-2.74-3.08-1.76L261.29,95.15a6.79,6.79,0,0,0-3.09,5.33v10.09l91.44-52.71Z"/><g class="cls-17"><path class="cls-18" d="M346.57,46,261.29,95.14a6.39,6.39,0,0,0-2.17,2.29l-3.92-2.27a6.13,6.13,0,0,1,2.15-2.25l85.29-49.15a2.16,2.16,0,0,1,2.24-.19c.55.34,3.11,1.8,3.76,2.15A2.2,2.2,0,0,0,346.57,46Z"/></g><path class="cls-19" d="M254.26,108.27v-10a6.41,6.41,0,0,1,.94-3.09l3.93,2.26a6.27,6.27,0,0,0-.92,3.07v10.08Z"/><path class="cls-15" d="M331.09,59.22a4.59,4.59,0,0,0-1.75,3.69c0,1.48.78,2.23,1.75,1.68a4.61,4.61,0,0,0,1.74-3.69C332.83,59.42,332.05,58.67,331.09,59.22Z"/><path class="cls-15" d="M337.36,55.6a4.56,4.56,0,0,0-1.75,3.68c0,1.48.78,2.24,1.75,1.68a4.61,4.61,0,0,0,1.74-3.69C339.1,55.79,338.32,55,337.36,55.6Z"/><path class="cls-15" d="M343.63,52a4.57,4.57,0,0,0-1.74,3.69c0,1.48.77,2.23,1.74,1.67a4.58,4.58,0,0,0,1.74-3.68C345.37,52.16,344.59,51.41,343.63,52Z"/><path class="cls-20" d="M259.33,250.78l-.38-.22c-.28-.17-.61-.35-.95-.54h0l-.52-.29,0,0-.81-.47-.68-.38c-.18-.11-.32-.18-.38-.21a1.93,1.93,0,0,1-.53-.43,2.21,2.21,0,0,1-.41-.63,3.82,3.82,0,0,1-.35-1.62V108.26l3.93,2.3V248.19a4.44,4.44,0,0,0,.33,1.56,2.45,2.45,0,0,0,.56.81.5.5,0,0,0,.17.15A.23.23,0,0,0,259.33,250.78Z"/><path class="cls-3" d="M265.78,118.94a1.32,1.32,0,0,1,.15-.58l2.22-4.58a.64.64,0,0,1,.1-.14l.06,0a.14.14,0,0,1,.17,0,.32.32,0,0,1,.07.23v1.54a2.09,2.09,0,0,1,0,.48,2.06,2.06,0,0,1-.16.42l-1.17,2.42,1.17,1.07a.67.67,0,0,1,.16.24,1.51,1.51,0,0,1,0,.43V122a.73.73,0,0,1-.07.31.54.54,0,0,1-.17.21l-.06,0s-.06,0-.1,0l-2.22-2a.48.48,0,0,1-.15-.4Z"/><path class="cls-3" d="M273.88,107.44a2.75,2.75,0,0,1,.17-.45.89.89,0,0,1,.33-.36l.83-.48a.15.15,0,0,1,.18,0,.37.37,0,0,1,.07.23,1.28,1.28,0,0,1,0,.17l-3.8,16.2a2.67,2.67,0,0,1-.16.44.87.87,0,0,1-.34.37l-.8.46a.12.12,0,0,1-.17,0,.28.28,0,0,1-.07-.22.56.56,0,0,1,0-.17Z"/><path class="cls-3" d="M279.77,112a1.3,1.3,0,0,1-.16.57l-2.22,4.59a.42.42,0,0,1-.1.14l-.05,0a.14.14,0,0,1-.18,0,.28.28,0,0,1-.07-.22v-1.54a2.09,2.09,0,0,1,0-.48,2.89,2.89,0,0,1,.16-.42l1.17-2.42-1.17-1.08a.69.69,0,0,1-.16-.23,1.51,1.51,0,0,1,0-.43V109a.7.7,0,0,1,.07-.31.48.48,0,0,1,.18-.21s0,0,.05,0a.12.12,0,0,1,.1,0l2.22,2a.47.47,0,0,1,.16.39Z"/><path class="cls-3" d="M285.93,110.94a.15.15,0,0,1,.21,0,.37.37,0,0,1,.09.27v1.7a.88.88,0,0,1-.09.38.52.52,0,0,1-.21.26l-1.05.61a.15.15,0,0,1-.21,0,.37.37,0,0,1-.09-.27v-1.7a.88.88,0,0,1,.09-.38.52.52,0,0,1,.21-.26Z"/><path class="cls-3" d="M289.43,108.92a.17.17,0,0,1,.21,0,.37.37,0,0,1,.09.27v1.7a.88.88,0,0,1-.09.38.52.52,0,0,1-.21.26l-1.05.61a.15.15,0,0,1-.21,0,.37.37,0,0,1-.09-.27v-1.7a.88.88,0,0,1,.09-.38.52.52,0,0,1,.21-.26Z"/><path class="cls-3" d="M292.92,106.9a.18.18,0,0,1,.22,0,.38.38,0,0,1,.09.28v1.69a.85.85,0,0,1-.09.38.62.62,0,0,1-.22.27l-1,.6a.17.17,0,0,1-.22,0,.35.35,0,0,1-.09-.27v-1.7a.88.88,0,0,1,.09-.38.53.53,0,0,1,.22-.26Z"/><path class="cls-3" d="M266.71,131.31,318,101.73c.61-.35,1.1-.1,1.1.55a2.34,2.34,0,0,1-1.1,1.82l-51.24,29.59c-.6.35-1.1.1-1.1-.56A2.35,2.35,0,0,1,266.71,131.31Z"/><path class="cls-2" d="M283.15,150.3l51.25-29.59c.6-.35,1.09-.1,1.09.56a2.33,2.33,0,0,1-1.09,1.81l-51.25,29.59c-.6.35-1.09.1-1.09-.55A2.35,2.35,0,0,1,283.15,150.3Z"/><path class="cls-2" d="M283.15,159.79l24.53-14.15c.6-.35,1.09-.1,1.09.55a2.35,2.35,0,0,1-1.09,1.82l-24.53,14.15c-.6.35-1.09.1-1.09-.55A2.35,2.35,0,0,1,283.15,159.79Z"/><path class="cls-2" d="M283.15,169.28l24.53-14.15c.6-.35,1.09-.1,1.09.56a2.37,2.37,0,0,1-1.09,1.82l-24.53,14.15c-.6.34-1.09.1-1.09-.56A2.37,2.37,0,0,1,283.15,169.28Z"/><path class="cls-3" d="M322.2,99.28l20.42-11.84c.6-.34,1.09-.1,1.09.56a2.37,2.37,0,0,1-1.09,1.82L322.2,101.65c-.61.35-1.1.1-1.1-.56A2.32,2.32,0,0,1,322.2,99.28Z"/><path class="cls-3" d="M266.71,235.72,318,206.13c.61-.35,1.1-.1,1.1.56a2.35,2.35,0,0,1-1.1,1.82l-51.24,29.58c-.6.35-1.1.1-1.1-.55A2.34,2.34,0,0,1,266.71,235.72Z"/><path class="cls-3" d="M322.2,203.68l20.42-11.83c.6-.35,1.09-.1,1.09.56a2.33,2.33,0,0,1-1.09,1.81L322.2,206.06c-.61.34-1.1.1-1.1-.56A2.35,2.35,0,0,1,322.2,203.68Z"/><path class="cls-3" d="M322.2,175.26l20.42-11.83c.6-.35,1.09-.11,1.09.55a2.35,2.35,0,0,1-1.09,1.82L322.2,177.63c-.61.35-1.1.1-1.1-.55A2.34,2.34,0,0,1,322.2,175.26Z"/><path class="cls-3" d="M322.2,184.75l20.42-11.83c.6-.35,1.09-.11,1.09.55a2.35,2.35,0,0,1-1.09,1.82L322.2,187.12c-.61.35-1.1.1-1.1-.55A2.34,2.34,0,0,1,322.2,184.75Z"/><path class="cls-22" d="M266.71,226.24,318,196.65c.61-.35,1.1-.1,1.1.56A2.35,2.35,0,0,1,318,199l-51.24,29.58c-.6.35-1.1.1-1.1-.55A2.34,2.34,0,0,1,266.71,226.24Z"/><path class="cls-3" d="M304.79,185.28l11.47-6.62c.61-.35,1.1-.1,1.1.55a2.34,2.34,0,0,1-1.1,1.82l-11.47,6.62c-.6.35-1.09.1-1.09-.55A2.35,2.35,0,0,1,304.79,185.28Z"/><path class="cls-3" d="M266.71,140.83l29.89-17.27c.6-.35,1.09-.1,1.09.55a2.35,2.35,0,0,1-1.09,1.82L266.71,143.2c-.6.35-1.1.1-1.1-.55A2.34,2.34,0,0,1,266.71,140.83Z"/><path class="cls-23" d="M266.71,140.83l29.89-17.27c.6-.35,1.09-.1,1.09.55a2.35,2.35,0,0,1-1.09,1.82L266.71,143.2c-.6.35-1.1.1-1.1-.55A2.34,2.34,0,0,1,266.71,140.83Z"/><path class="cls-3" d="M266.71,150.3l10.14-5.86c.61-.35,1.1-.1,1.1.55a2.34,2.34,0,0,1-1.1,1.82l-10.14,5.86c-.6.35-1.1.11-1.1-.55A2.34,2.34,0,0,1,266.71,150.3Z"/><path class="cls-23" d="M266.71,150.3l10.14-5.86c.61-.35,1.1-.1,1.1.55a2.34,2.34,0,0,1-1.1,1.82l-10.14,5.86c-.6.35-1.1.11-1.1-.55A2.34,2.34,0,0,1,266.71,150.3Z"/><path class="cls-3" d="M266.71,159.79l10.14-5.86c.61-.35,1.1-.1,1.1.56a2.32,2.32,0,0,1-1.1,1.81l-10.14,5.87c-.6.35-1.1.1-1.1-.56A2.35,2.35,0,0,1,266.71,159.79Z"/><path class="cls-23" d="M266.71,159.79l10.14-5.86c.61-.35,1.1-.1,1.1.56a2.32,2.32,0,0,1-1.1,1.81l-10.14,5.87c-.6.35-1.1.1-1.1-.56A2.35,2.35,0,0,1,266.71,159.79Z"/><path class="cls-3" d="M266.71,169.29l10.14-5.87c.61-.35,1.1-.1,1.1.56a2.35,2.35,0,0,1-1.1,1.82l-10.14,5.86c-.6.35-1.1.1-1.1-.56A2.32,2.32,0,0,1,266.71,169.29Z"/><path class="cls-23" d="M266.71,169.29l10.14-5.87c.61-.35,1.1-.1,1.1.56a2.35,2.35,0,0,1-1.1,1.82l-10.14,5.86c-.6.35-1.1.1-1.1-.56A2.32,2.32,0,0,1,266.71,169.29Z"/><path class="cls-3" d="M266.71,178.78l10.14-5.86c.61-.35,1.1-.11,1.1.55a2.34,2.34,0,0,1-1.1,1.82l-10.14,5.86c-.6.35-1.1.1-1.1-.55A2.34,2.34,0,0,1,266.71,178.78Z"/><path class="cls-23" d="M266.71,178.78l10.14-5.86c.61-.35,1.1-.11,1.1.55a2.34,2.34,0,0,1-1.1,1.82l-10.14,5.86c-.6.35-1.1.1-1.1-.55A2.34,2.34,0,0,1,266.71,178.78Z"/><path class="cls-3" d="M300.85,121.11l13-7.48c.61-.35,1.1-.11,1.1.55a2.35,2.35,0,0,1-1.1,1.82l-13,7.48c-.61.35-1.1.1-1.1-.56A2.32,2.32,0,0,1,300.85,121.11Z"/><path class="cls-23" d="M300.85,121.11l13-7.48c.61-.35,1.1-.11,1.1.55a2.35,2.35,0,0,1-1.1,1.82l-13,7.48c-.61.35-1.1.1-1.1-.56A2.32,2.32,0,0,1,300.85,121.11Z"/><path class="cls-22" d="M295.48,171.64l29.89-17.27c.61-.35,1.1-.1,1.1.56a2.32,2.32,0,0,1-1.1,1.81L295.48,174c-.6.35-1.09.11-1.09-.55A2.35,2.35,0,0,1,295.48,171.64Z"/><path class="cls-22" d="M312.73,171.22,342.62,154c.6-.35,1.09-.1,1.09.55a2.35,2.35,0,0,1-1.09,1.82l-29.89,17.27c-.61.35-1.1.1-1.1-.56A2.32,2.32,0,0,1,312.73,171.22Z"/><path class="cls-22" d="M329.62,151.92l13-7.48c.6-.35,1.09-.1,1.09.55a2.35,2.35,0,0,1-1.09,1.82l-13,7.48c-.61.35-1.1.1-1.1-.55A2.34,2.34,0,0,1,329.62,151.92Z"/><path class="cls-3" d="M283.15,140.81,313,123.54c.61-.35,1.1-.1,1.1.55a2.34,2.34,0,0,1-1.1,1.82l-29.89,17.27c-.6.35-1.09.1-1.09-.55A2.35,2.35,0,0,1,283.15,140.81Z"/><path class="cls-23" d="M283.15,140.81,313,123.54c.61-.35,1.1-.1,1.1.55a2.34,2.34,0,0,1-1.1,1.82l-29.89,17.27c-.6.35-1.09.1-1.09-.55A2.35,2.35,0,0,1,283.15,140.81Z"/><path class="cls-3" d="M317.29,121.09l13-7.48c.61-.35,1.1-.1,1.1.55a2.34,2.34,0,0,1-1.1,1.82l-13,7.48c-.61.35-1.1.1-1.1-.55A2.34,2.34,0,0,1,317.29,121.09Z"/><path class="cls-23" d="M317.29,121.09l13-7.48c.61-.35,1.1-.1,1.1.55a2.34,2.34,0,0,1-1.1,1.82l-13,7.48c-.61.35-1.1.1-1.1-.55A2.34,2.34,0,0,1,317.29,121.09Z"/></g><g id="Speech_Bubbles" data-name="Speech Bubbles"><path class="cls-3" d="M412.74,54.84V43.45l-9.61-.84a.74.74,0,0,0-.4.08c-.37.21-9.47,5.41-9.59,5.49a.7.7,0,0,0-.16,1.08l10.19,11.05Z"/><path class="cls-3" d="M403.17,60.31,393,49.26a.71.71,0,0,1,.58-1.18l9.61.84Z"/><path class="cls-3" d="M412.74,43.45l-9.57,5.47-9.61-.84a.7.7,0,0,0-.33.05c.77-.45,9.15-5.25,9.5-5.43a.66.66,0,0,1,.4-.09Z"/><path class="cls-12" d="M412.74,43.45l-9.57,5.47-9.61-.84a.7.7,0,0,0-.33.05c.77-.45,9.15-5.25,9.5-5.43a.66.66,0,0,1,.4-.09Z"/><path class="cls-3" d="M403.19,36.07a7.65,7.65,0,0,1,3.47-6l2.82-1.63a7.69,7.69,0,0,1,6.93,0l30.07,17.37a7.65,7.65,0,0,1,3.46,6V86.54a7.69,7.69,0,0,1-3.46,6l-2.82,1.62a7.63,7.63,0,0,1-6.93,0l-8.88-5.12-11.54-6.67-9.65-5.57a7.64,7.64,0,0,1-3.47-6Z"/><path class="cls-9" d="M449.94,86.54a7.69,7.69,0,0,1-3.46,6l-2.82,1.62a7.73,7.73,0,0,1-6.34.28c1.63.62,2.87-.3,2.87-2.28V57.44a7.17,7.17,0,0,0-1-3.42l9.75-5.63a7.17,7.17,0,0,1,1,3.42Z"/><path class="cls-12" d="M403.3,35.09c.41-1.47,1.75-1.94,3.35-1l30.08,17.37A7,7,0,0,1,439.17,54l9.75-5.62a7,7,0,0,0-2.44-2.59L416.41,28.45a7.69,7.69,0,0,0-6.93,0l-2.83,1.63A7.67,7.67,0,0,0,403.3,35.09Z"/><polygon class="cls-15" points="421.69 48.76 410.24 47.16 411.84 68.28 421.69 81.08 421.69 48.76"/><polygon class="cls-13" points="421.69 48.76 433.14 60.38 431.54 79.66 421.69 81.08 421.69 48.76"/><path class="cls-11" d="M426.41,76.25,429,77.77,421.71,52,414.4,69.32,417,70.83l1.58-3.76,6.23,3.6Zm-6.86-11.44,2.16-5.15,2.17,7.65Z"/><path class="cls-3" d="M412.74,119.68V108.29l-9.61-.83a.66.66,0,0,0-.4.08c-.37.2-9.47,5.41-9.59,5.48a.7.7,0,0,0-.16,1.08l10.19,11.05Z"/><path class="cls-24" d="M403.17,125.15,393,114.1a.71.71,0,0,1,.58-1.18l9.61.84Z"/><path class="cls-3" d="M412.74,108.29l-9.57,5.48-9.61-.84a.7.7,0,0,0-.33,0c.77-.45,9.15-5.25,9.5-5.43a.59.59,0,0,1,.4-.08Z"/><path class="cls-22" d="M412.74,108.29l-9.57,5.48-9.61-.84a.7.7,0,0,0-.33,0c.77-.45,9.15-5.25,9.5-5.43a.59.59,0,0,1,.4-.08Z"/><path class="cls-24" d="M403.19,100.92a7.64,7.64,0,0,1,3.47-6l2.82-1.63a7.63,7.63,0,0,1,6.93,0l30.07,17.36a7.65,7.65,0,0,1,3.46,6v34.74a7.67,7.67,0,0,1-3.46,6L443.66,159a7.69,7.69,0,0,1-6.93,0l-8.88-5.13-11.54-6.66-9.65-5.57a7.67,7.67,0,0,1-3.47-6Z"/><path class="cls-2" d="M449.94,151.39a7.67,7.67,0,0,1-3.46,6L443.66,159a7.77,7.77,0,0,1-6.34.28c1.63.61,2.87-.31,2.87-2.28V122.28a7.13,7.13,0,0,0-1-3.41l9.75-5.63a7.13,7.13,0,0,1,1,3.41Z"/><path class="cls-22" d="M403.3,99.93c.41-1.47,1.75-1.94,3.35-1l30.08,17.37a6.94,6.94,0,0,1,2.44,2.59l9.75-5.63a7,7,0,0,0-2.44-2.58L416.41,93.29a7.69,7.69,0,0,0-6.93,0l-2.83,1.63A7.67,7.67,0,0,0,403.3,99.93Z"/><polygon class="cls-3" points="421.69 122.15 424.22 117.4 433.14 122.55 421.69 144.09 410.24 109.33 419.16 114.48 421.69 122.15"/><polygon class="cls-19" points="421.69 122.15 424.22 117.4 433.14 122.55 421.69 144.09 410.24 109.33 419.16 114.48 421.69 122.15"/><path class="cls-13" d="M421.69,122.15l-2.53-7.67-4-2.29c3.2,9.69,6.51,19.74,6.51,19.74l6.5-12.23-4-2.3Z"/><path class="cls-3" d="M412.74,184.52V173.14l-9.61-.84a.74.74,0,0,0-.4.08c-.37.2-9.47,5.41-9.59,5.48A.71.71,0,0,0,393,179l10.19,11Z"/><path class="cls-13" d="M403.17,190,393,179a.71.71,0,0,1,.58-1.18l9.61.84Z"/><path class="cls-3" d="M412.74,173.13l-9.57,5.48-9.61-.84a.7.7,0,0,0-.33,0c.77-.46,9.15-5.25,9.5-5.44a.66.66,0,0,1,.4-.08Z"/><path class="cls-15" d="M412.74,173.13l-9.57,5.48-9.61-.84a.7.7,0,0,0-.33,0c.77-.46,9.15-5.25,9.5-5.44a.66.66,0,0,1,.4-.08Z"/><path class="cls-13" d="M403.19,165.76a7.64,7.64,0,0,1,3.47-6l2.82-1.63a7.63,7.63,0,0,1,6.93,0l30.07,17.36a7.67,7.67,0,0,1,3.46,6v34.74a7.65,7.65,0,0,1-3.46,6l-2.82,1.63a7.63,7.63,0,0,1-6.93,0l-8.88-5.12-11.54-6.67-9.65-5.57a7.65,7.65,0,0,1-3.47-6Z"/><path class="cls-21" d="M449.94,216.23a7.65,7.65,0,0,1-3.46,6l-2.82,1.63a7.73,7.73,0,0,1-6.34.28c1.63.62,2.87-.3,2.87-2.28V187.12a7.13,7.13,0,0,0-1-3.41l9.75-5.63a7.13,7.13,0,0,1,1,3.41Z"/><path class="cls-15" d="M403.3,164.77c.41-1.47,1.75-1.93,3.35-1l30.08,17.37a6.84,6.84,0,0,1,2.44,2.58l9.75-5.62a7,7,0,0,0-2.44-2.59l-30.07-17.37a7.69,7.69,0,0,0-6.93,0l-2.83,1.63A7.67,7.67,0,0,0,403.3,164.77Z"/><path class="cls-3" d="M428.39,192.29c.71-3.59.41-6.9-1-8.78a3.31,3.31,0,0,0-2.71-1.44h-.25a5.44,5.44,0,0,0-2.66,1c-2-3.78-4-6.11-5.43-6.11l-.2,0a1.3,1.3,0,0,0-.91.68c-.69,1.15-.73,3.63-.2,6.91a5.63,5.63,0,0,0-3.75.26,2.37,2.37,0,0,0-1.16,2.19c0,2.17,1.91,5.15,4.88,8-.71,3.59-.41,6.91,1,8.79a3.87,3.87,0,0,0,1.13,1,3.15,3.15,0,0,0,1.59.42,4,4,0,0,0,1.06-.15,6.3,6.3,0,0,0,1.9-1c1.62,3,3.22,5.17,4.51,5.92a2,2,0,0,0,1,.3l.2,0a1.3,1.3,0,0,0,.91-.68c.69-1.15.73-3.65.2-6.94a8.54,8.54,0,0,0,1.59.17,4,4,0,0,0,2.05-.46,2.37,2.37,0,0,0,1.17-2.18C433.27,198.12,431.35,195.13,428.39,192.29Zm-3.43,5.8c-.35.63-.73,1.2-1.11,1.75-.66-.32-1.36-.68-2.1-1.11s-1.44-.88-2.12-1.33c-.39-1-.78-2.06-1.15-3.16s-.69-2.12-1-3.12c.28-.62.58-1.24.92-1.85a18.12,18.12,0,0,1,1.1-1.75c.66.32,1.36.67,2.11,1.1s1.52.92,2.23,1.41q.57,1.49,1.14,3.15c.34,1,.65,2,.93,2.93C425.64,196.77,425.32,197.43,425,198.09Zm1-5.11c-.23-.67-.46-1.31-.69-1.95.67.51,1.3,1,1.89,1.55a20.29,20.29,0,0,1-.65,2.11C426.32,194.13,426.13,193.56,425.94,193Zm-4.19-5.64c-.51-.3-1-.56-1.5-.81a12.17,12.17,0,0,1,1.43-1.5c.47.95.95,2,1.42,3.13C422.66,187.88,422.21,187.6,421.75,187.34Zm-4.25.88c-.18.33-.35.66-.52,1-.27-1-.49-2-.68-2.94a17.77,17.77,0,0,1,2,.68C418,187.36,417.75,187.78,417.5,188.22Zm0,6.22c.23.67.47,1.32.71,2-.72-.54-1.39-1.08-2-1.63a23.15,23.15,0,0,1,.7-2.25C417.12,193.16,417.33,193.79,417.54,194.44Zm4.09,5.58c.5.29,1,.55,1.48.8a11.9,11.9,0,0,1-1.35,1.45c-.46-.92-.92-1.93-1.37-3Zm4.25-.89q.3-.54.57-1.11c.29,1.1.53,2.14.72,3.1a19.06,19.06,0,0,1-2.06-.72C425.37,200,425.63,199.58,425.88,199.13Zm-1.36-10c-.68-1.71-1.38-3.28-2.08-4.7a5.54,5.54,0,0,1,1.67-.83,3,3,0,0,1,.86-.13,2.3,2.3,0,0,1,1.14.29,2.34,2.34,0,0,1,.68.62c.95,1.26,1.21,3.91.61,7A35.15,35.15,0,0,0,424.52,189.12ZM419,185.93a20,20,0,0,0-2.93-1.07c-.5-3.1-.44-5.23.06-6.06a.69.69,0,0,1,.45-.36h.09a1.08,1.08,0,0,1,.54.18c.95.55,2.32,2.33,3.81,5.11A13.28,13.28,0,0,0,419,185.93Zm-2.62,4.66a23.1,23.1,0,0,0-1.1,3.29c-2.57-2.48-4.09-4.89-4.09-6.35a1.44,1.44,0,0,1,.76-1.34,3.44,3.44,0,0,1,1.7-.36,8.6,8.6,0,0,1,1.63.18C415.54,187.43,415.9,189,416.36,190.59Zm2.62,7.73c.65,1.64,1.34,3.17,2,4.56a4.78,4.78,0,0,1-2.4,1,2.2,2.2,0,0,1-2-.89c-1-1.27-1.21-3.92-.62-7A34.49,34.49,0,0,0,419,198.32Zm5.42,3.11a20.15,20.15,0,0,0,3,1.1c.5,3.11.44,5.25-.06,6.08a.67.67,0,0,1-.45.36c-.91.16-2.62-1.86-4.49-5.39A13.87,13.87,0,0,0,424.4,201.43Zm2.67-4.8a24.24,24.24,0,0,0,1.05-3.15c2.57,2.47,4.09,4.88,4.09,6.34a1.46,1.46,0,0,1-.76,1.34,4.91,4.91,0,0,1-3.24.2C427.93,199.9,427.54,198.31,427.07,196.63Z"/><path class="cls-3" d="M423.72,194.85c0,1.5-.91,2.18-2,1.54a4.88,4.88,0,0,1-2-3.89c0-1.49.91-2.18,2-1.53A4.85,4.85,0,0,1,423.72,194.85Z"/><g class="cls-25"><path class="cls-18" d="M428.39,192.29c.71-3.59.41-6.9-1-8.78a3.31,3.31,0,0,0-2.71-1.44h-.25a5.44,5.44,0,0,0-2.66,1c-2-3.78-4-6.11-5.43-6.11l-.2,0a1.3,1.3,0,0,0-.91.68c-.69,1.15-.73,3.63-.2,6.91a5.63,5.63,0,0,0-3.75.26,2.37,2.37,0,0,0-1.16,2.19c0,2.17,1.91,5.15,4.88,8-.71,3.59-.41,6.91,1,8.79a3.87,3.87,0,0,0,1.13,1,3.15,3.15,0,0,0,1.59.42,4,4,0,0,0,1.06-.15,6.3,6.3,0,0,0,1.9-1c1.62,3,3.22,5.17,4.51,5.92a2,2,0,0,0,1,.3l.2,0a1.3,1.3,0,0,0,.91-.68c.69-1.15.73-3.65.2-6.94a8.54,8.54,0,0,0,1.59.17,4,4,0,0,0,2.05-.46,2.37,2.37,0,0,0,1.17-2.18C433.27,198.12,431.35,195.13,428.39,192.29Zm-3.43,5.8c-.35.63-.73,1.2-1.11,1.75-.66-.32-1.36-.68-2.1-1.11s-1.44-.88-2.12-1.33c-.39-1-.78-2.06-1.15-3.16s-.69-2.12-1-3.12c.28-.62.58-1.24.92-1.85a18.12,18.12,0,0,1,1.1-1.75c.66.32,1.36.67,2.11,1.1s1.52.92,2.23,1.41q.57,1.49,1.14,3.15c.34,1,.65,2,.93,2.93C425.64,196.77,425.32,197.43,425,198.09Zm1-5.11c-.23-.67-.46-1.31-.69-1.95.67.51,1.3,1,1.89,1.55a20.29,20.29,0,0,1-.65,2.11C426.32,194.13,426.13,193.56,425.94,193Zm-4.19-5.64c-.51-.3-1-.56-1.5-.81a12.17,12.17,0,0,1,1.43-1.5c.47.95.95,2,1.42,3.13C422.66,187.88,422.21,187.6,421.75,187.34Zm-4.25.88c-.18.33-.35.66-.52,1-.27-1-.49-2-.68-2.94a17.77,17.77,0,0,1,2,.68C418,187.36,417.75,187.78,417.5,188.22Zm0,6.22c.23.67.47,1.32.71,2-.72-.54-1.39-1.08-2-1.63a23.15,23.15,0,0,1,.7-2.25C417.12,193.16,417.33,193.79,417.54,194.44Zm4.09,5.58c.5.29,1,.55,1.48.8a11.9,11.9,0,0,1-1.35,1.45c-.46-.92-.92-1.93-1.37-3Zm4.25-.89q.3-.54.57-1.11c.29,1.1.53,2.14.72,3.1a19.06,19.06,0,0,1-2.06-.72C425.37,200,425.63,199.58,425.88,199.13Zm-1.36-10c-.68-1.71-1.38-3.28-2.08-4.7a5.54,5.54,0,0,1,1.67-.83,3,3,0,0,1,.86-.13,2.3,2.3,0,0,1,1.14.29,2.34,2.34,0,0,1,.68.62c.95,1.26,1.21,3.91.61,7A35.15,35.15,0,0,0,424.52,189.12ZM419,185.93a20,20,0,0,0-2.93-1.07c-.5-3.1-.44-5.23.06-6.06a.69.69,0,0,1,.45-.36h.09a1.08,1.08,0,0,1,.54.18c.95.55,2.32,2.33,3.81,5.11A13.28,13.28,0,0,0,419,185.93Zm-2.62,4.66a23.1,23.1,0,0,0-1.1,3.29c-2.57-2.48-4.09-4.89-4.09-6.35a1.44,1.44,0,0,1,.76-1.34,3.44,3.44,0,0,1,1.7-.36,8.6,8.6,0,0,1,1.63.18C415.54,187.43,415.9,189,416.36,190.59Zm2.62,7.73c.65,1.64,1.34,3.17,2,4.56a4.78,4.78,0,0,1-2.4,1,2.2,2.2,0,0,1-2-.89c-1-1.27-1.21-3.92-.62-7A34.49,34.49,0,0,0,419,198.32Zm5.42,3.11a20.15,20.15,0,0,0,3,1.1c.5,3.11.44,5.25-.06,6.08a.67.67,0,0,1-.45.36c-.91.16-2.62-1.86-4.49-5.39A13.87,13.87,0,0,0,424.4,201.43Zm2.67-4.8a24.24,24.24,0,0,0,1.05-3.15c2.57,2.47,4.09,4.88,4.09,6.34a1.46,1.46,0,0,1-.76,1.34,4.91,4.91,0,0,1-3.24.2C427.93,199.9,427.54,198.31,427.07,196.63Z"/><path class="cls-18" d="M423.72,194.85c0,1.5-.91,2.18-2,1.54a4.88,4.88,0,0,1-2-3.89c0-1.49.91-2.18,2-1.53A4.85,4.85,0,0,1,423.72,194.85Z"/></g></g><g id="Character"><g id="Character-2" data-name="Character"><path class="cls-26" d="M380.65,233.62c3.9.76,5.68,2.1,7.91,7.52s6.18,18.62,7.11,22.24c.41,1.63-9.86,16.15-9.42,15.93.13-.06-4-7-4-7l5-9.65-3.59-8.77Z"/><path class="cls-3" d="M379.32,233.71s3.57-.64,5.93,1.32,2.72,3.26,4.31,7.29,4.22,12.4,4.22,12.4-.76,4.5-8.09,5.38L379.41,246S377.22,237.4,379.32,233.71Z"/><path class="cls-15" d="M372,349.81a8.45,8.45,0,0,0,.23,3.81,8.59,8.59,0,0,0,3.08,3.72,15,15,0,0,1,2.56,3.1,13.18,13.18,0,0,0,2.67,3.34c.84.72,3.18.78,4.32.31s1.51-.9,1.44-2.71-5.55-2.43-5.55-2.43Z"/><path class="cls-3" d="M385.55,356c.47.18.58,1.07.66,2.84.05,1.34.61,3.31-1.23,4.15a4.53,4.53,0,0,1-4.88-1c-1.26-1.58-2.11-3-3.9-4.89-1.55-1.67-3.17-2.24-3.86-5.57-.45-2.15-.1-3,1.35-3.65,2-.85,5.1,1.92,6.65,2.35C381.68,350.56,385.08,355.81,385.55,356Z"/><path class="cls-9" d="M385.55,356c.47.18.58,1.07.66,2.84.05,1.34.61,3.31-1.23,4.15a4.53,4.53,0,0,1-4.88-1c-1.26-1.58-2.11-3-3.9-4.89-1.55-1.67-3.17-2.24-3.86-5.57-.45-2.15-.1-3,1.35-3.65,2-.85,5.1,1.92,6.65,2.35C381.68,350.56,385.08,355.81,385.55,356Z"/><path class="cls-11" d="M380.34,350.18l-.26-.09a5.13,5.13,0,0,0-4.3,2.82c-.26.58.55,1,1,.58a5.48,5.48,0,0,1,4.29-2.8A2.3,2.3,0,0,0,380.34,350.18Z"/><path class="cls-11" d="M381.63,351.19a5.05,5.05,0,0,0-4,2.8c-.27.58.55,1,1,.58a5.21,5.21,0,0,1,3.58-2.67Z"/><path class="cls-15" d="M347,377.22c-.31,1.51.24,2.29,2.17,3.41a10.81,10.81,0,0,0,8.18.57c3.2-.93,4.73-2.33,6.06-2.66s4.62-.36,5.93-.75,1.3-1.05,1.29-2.63Z"/><path class="cls-3" d="M369.36,367.54a34.65,34.65,0,0,1,1,3.55c.27,1.31.65,3.51.19,4.5s-2.25,1.63-5,1.61c-1.8,0-4.61,1.21-6.54,2.28a10,10,0,0,1-6.24.87c-2.48-.29-5.05-1.73-5.45-2.76s-.5-1.79,5.34-4.28c.05,0,6.77-2.5,9.6-5.62Z"/><g class="cls-27"><path d="M369.36,367.54a34.65,34.65,0,0,1,1,3.55c.27,1.31.65,3.51.19,4.5s-2.25,1.63-5,1.61c-1.8,0-4.61,1.21-6.54,2.28a10,10,0,0,1-6.24.87c-2.48-.29-5.05-1.73-5.45-2.76s-.5-1.79,5.34-4.28c.05,0,6.77-2.5,9.6-5.62Z"/></g><path class="cls-11" d="M358.14,379.86s-.5-5-4.58-6.44c-3.68-1.3-6.9,1.43-6.54,3.8C347.26,378.82,351.74,382.45,358.14,379.86Z"/><path class="cls-11" d="M354.59,372.48a4.76,4.76,0,0,1,2.78,1.23c1.18,1,1.21,1.65,1.21,1.65a.62.62,0,0,0,1.06-.51s-.27-2.53-3.6-3.05A1.37,1.37,0,0,0,354.59,372.48Z"/><path class="cls-11" d="M356.92,371.36a4.16,4.16,0,0,1,2.81,1.12c1.18,1,1.18,1.76,1.18,1.76a.62.62,0,0,0,1.07-.51s-.28-2.52-3.61-3A1.35,1.35,0,0,0,356.92,371.36Z"/><path class="cls-11" d="M359.23,370a4.18,4.18,0,0,1,2.88.92c1.24.91,1.3,1.68,1.3,1.68a.62.62,0,0,0,1-.58s-.45-2.5-3.8-2.79A1.38,1.38,0,0,0,359.23,370Z"/><path class="cls-26" d="M385.55,353.12v3.4a5.32,5.32,0,0,1-5.5.15c-.09-.21-.37-3.55-.37-3.55Z"/><path class="cls-26" d="M369.36,365.19v2.54c0,.92-1.08,2.29-3.9,2.19-2-.07-3.36-.6-3.28-2.23v-2.35Z"/><path class="cls-15" d="M389.22,324.25c-.19-7.17-1.66-10.32-1.66-10.32s.55-8.86,1.74-19.71c1.81-16.51,1-19.72-2.28-27.15,0,0-27.8-2.82-28.65,8.74-1.06,14.39-1.18,43.66-.8,48.74s.38.39,1.61,10.68c1,8.13,3,30.11,3,30.11a7.62,7.62,0,0,0,7.18-.15s2.28-26.89,2-32.75a65.68,65.68,0,0,0-.7-9s3.25-23.18,3.75-26.91c0,0,.46,6.68.84,11.76s.35,9.18,1.42,19.69c.84,8.25,2.87,26.05,2.87,26.05a6.84,6.84,0,0,0,6.07-.44S389.37,330.06,389.22,324.25Z"/><path class="cls-11" d="M373.25,354s.15-4,5.52-4.53l.31.18a4.65,4.65,0,0,0-2.64-2,3.65,3.65,0,0,0-4.13,1.19C371.37,350,372.32,353.17,373.25,354Z"/><polygon class="cls-26" points="366.4 229.88 367.71 240.63 377.16 239.77 376.08 227.85 366.4 229.88"/><path class="cls-13" d="M386.37,238.82c-1-2.83-3.42-5.79-7.05-5.11-.95.17-1.78.31-2.67.49-.08,2.48-4.74,3.76-9.39,2.26-1.4.4-2.68.8-3.84,1.22-3.32,1.19-4.66,6.71-4.73,15.95s-1.38,27.79-1.38,27.79,7,3.71,20.08,1.34,12.85-6.82,12.85-6.82-.26-5.42-6.16-14.52C389.09,248.1,387.91,243,386.37,238.82Z"/><path class="cls-21" d="M359.39,216.24a8.29,8.29,0,0,1,.71-8c3.17-5,9.28-5.83,16.53-3.89A12.86,12.86,0,0,1,385.69,216c.34,5.31-14.47,9.23-14.13,12.87Z"/><path class="cls-28" d="M359.07,218.25s-2,3.23-1.73,3.56a5.09,5.09,0,0,0,1.62.64Z"/><path class="cls-26" d="M365.2,208c-2,1.11-5.48,3.15-6.18,10.68-.72,7.73,1.07,10.36,2.14,11.34.73.66,4.39.81,6.29.16,2.36-.8,7.47-3.5,9.78-7.54,2.73-4.75,3.15-11-.21-13.36A12.33,12.33,0,0,0,365.2,208Z"/><path class="cls-21" d="M365.3,217.14a7.65,7.65,0,0,1-4.9-6.18c-.76-4.9,5.36-7,5.36-7Z"/><path class="cls-21" d="M364.61,208.38s-1.59,7.08.66,11.46c0,0,1.17-2.78,3.55-2.05s2.26,3.89.44,5.56a3.53,3.53,0,0,1-3.66.88,16,16,0,0,0,3.53,5.34s7,3.14,13.14-3.74c5.53-6.25,4.5-17.14-4-19.71S364.61,208.38,364.61,208.38Z"/><path class="cls-21" d="M393.78,236.1h0a9.62,9.62,0,0,1-9.62-9.61v-16.1h0a9.62,9.62,0,0,1,9.62,9.61Z"/><path class="cls-21" d="M385.24,208.3a1.66,1.66,0,0,0-1.08,2.09l3.16-1A1.65,1.65,0,0,0,385.24,208.3Z"/><path class="cls-26" d="M339.52,254.7c-1.38-1.57-1.6-5-3.43-7.41s-1.49-4.78-2.64-3.71-.29,5-.29,5-2.13,3.95-2.31,6,5.17,7.09,5.17,7.09Z"/><path class="cls-26" d="M333.45,248.28s-2.17,3-11.91-.93c-2.7-1.09-.88,4.7,2.42,7.1,3.06,2.22,6.88,2.9,9.94,5C333.91,259.13,333.45,248.28,333.45,248.28Z"/><path class="cls-26" d="M364.25,237.39c-2.78,1-5.21,2.09-7.8,7-3.33,6.26-9.39,18.52-9.39,18.52l-7.54-8.17s-1.1-1.55-3.15,1.82-1.14,4.31-1.14,4.31,8.78,11.76,10.4,13.26,4.26.33,6-2,10.66-18.54,10.66-18.54S368.17,243.31,364.25,237.39Z"/><path class="cls-3" d="M365.59,237a10.67,10.67,0,0,0-8.46,5.63c-3.32,6-6.82,12.78-6.82,12.78s2.41,5.8,8.54,6.25c0-.6,5-9.5,6.91-13.31S367.47,238.67,365.59,237Z"/><path class="cls-13" d="M374.45,296.54l.53-5.62a21.32,21.32,0,0,0,8.48-3.21s-1.8,2.89-6.76,4.21l-1.12,5.47-.29,10.91Z"/></g></g></g></svg>