<svg xmlns="http://www.w3.org/2000/svg" viewBox="0 0 470.23 448.69"><defs><style>.cls-1{isolation:isolate;}.cls-2{fill:#f5f5f5;}.cls-3{fill:#e0e0e0;}.cls-4{fill:#27debf;}.cls-5{opacity:0.1;}.cls-12,.cls-13,.cls-22,.cls-25,.cls-27,.cls-6,.cls-7{fill:#fff;}.cls-6{opacity:0.65;}.cls-14,.cls-34,.cls-7{opacity:0.5;}.cls-21,.cls-27,.cls-8{opacity:0.4;}.cls-9{opacity:0.2;}.cls-10{fill:#455a64;}.cls-11,.cls-24{fill:#37474f;}.cls-12,.cls-23{opacity:0.15;}.cls-13{opacity:0.85;}.cls-15,.cls-18{opacity:0.3;}.cls-16{opacity:0.7;}.cls-17{fill:#fafafa;}.cls-18,.cls-29{fill:#263238;}.cls-19{opacity:0.45;}.cls-20{opacity:0.8;}.cls-24{opacity:0.9;}.cls-25,.cls-26{opacity:0.6;}.cls-28{fill:#ffa8a7;}.cls-30{fill:#f0f0f0;}.cls-31{fill:#f28f8f;}.cls-32{fill:#ebebeb;}.cls-33{fill:#e6e6e6;}.cls-34{mix-blend-mode:multiply;}</style></defs><title>Asset 5</title><g class="cls-1"><g id="Layer_2" data-name="Layer 2"><g id="Floor"><ellipse id="Floor-2" data-name="Floor" class="cls-2" cx="235.12" cy="312.95" rx="235.12" ry="135.74"/></g><g id="Shadow"><path id="Shadow-2" data-name="Shadow" class="cls-3" d="M221.24,405.55,77.17,322.37c-.6-.35-.6-.91,0-1.25L298.42,193.38a2.41,2.41,0,0,1,2.16,0l144.07,83.18c.6.34.6.9,0,1.25L223.41,405.55A2.44,2.44,0,0,1,221.24,405.55Z"/><path id="Shadow-3" data-name="Shadow" class="cls-3" d="M12.18,308.13c-.6-.34-.6-.9,0-1.25l79.07-45.49a2.4,2.4,0,0,1,2.17,0l55,31.41a.66.66,0,0,1,0,1.25L68,340.49S20,312.69,12.18,308.13Z"/><ellipse id="Shadow-4" data-name="Shadow" class="cls-3" cx="363.02" cy="380.03" rx="36.78" ry="21.24"/></g><g id="Server"><g id="Server-2" data-name="Server"><polygon class="cls-4" points="21.73 295.78 67.97 322.48 114.2 295.78 67.97 269.09 21.73 295.78"/><polygon class="cls-5" points="21.73 295.78 67.97 322.48 114.2 295.78 67.97 269.09 21.73 295.78"/><polygon class="cls-5" points="67.96 322.47 67.97 319.14 111.31 294.12 114.2 295.78 67.96 322.47"/><path class="cls-4" d="M68,322.47v12.31a6.34,6.34,0,0,1-3.08-.73h0l-20-11.57L23.58,310.2A4.09,4.09,0,0,1,21.73,307V295.78Z"/><path class="cls-6" d="M68,322.47v12.31a6.34,6.34,0,0,1-3.08-.73h0l-20-11.57L23.58,310.2A4.09,4.09,0,0,1,21.73,307V295.78Z"/><path class="cls-4" d="M114.2,295.78V307a4.12,4.12,0,0,1-1.85,3.21L94,320.81,71,334.05a6.29,6.29,0,0,1-3.08.73V322.47Z"/><path class="cls-7" d="M114.2,295.78V307a4.12,4.12,0,0,1-1.85,3.21L94,320.81,71,334.05a6.29,6.29,0,0,1-3.08.73V322.47Z"/><path class="cls-4" d="M54.73,320.62l.7-.4h0a1,1,0,0,1,.94.1,3,3,0,0,1,1.34,2.32.94.94,0,0,1-.39.86h0l-.66.38-.12-.2a1.3,1.3,0,0,1-.38-.15,2.94,2.94,0,0,1-1.34-2.32,1.86,1.86,0,0,1,0-.34Z"/><path class="cls-8" d="M54.73,320.62l.7-.4h0a1,1,0,0,1,.94.1,3,3,0,0,1,1.34,2.32.94.94,0,0,1-.39.86h0l-.66.38-.12-.2a1.3,1.3,0,0,1-.38-.15,2.94,2.94,0,0,1-1.34-2.32,1.86,1.86,0,0,1,0-.34Z"/><path class="cls-4" d="M55.7,320.7A3,3,0,0,1,57,323c0,.85-.6,1.2-1.34.77a3,3,0,0,1-1.34-2.32C54.36,320.62,55,320.27,55.7,320.7Z"/><path class="cls-9" d="M55.7,320.7A3,3,0,0,1,57,323c0,.85-.6,1.2-1.34.77a3,3,0,0,1-1.34-2.32C54.36,320.62,55,320.27,55.7,320.7Z"/><path class="cls-4" d="M60.54,324l.71-.41h0a.93.93,0,0,1,.94.09A3,3,0,0,1,63.53,326a1,1,0,0,1-.39.87h0l-.66.37-.12-.19a1.66,1.66,0,0,1-.38-.15,3,3,0,0,1-1.34-2.32,1.67,1.67,0,0,1,0-.34Z"/><path class="cls-8" d="M60.54,324l.71-.41h0a.93.93,0,0,1,.94.09A3,3,0,0,1,63.53,326a1,1,0,0,1-.39.87h0l-.66.37-.12-.19a1.66,1.66,0,0,1-.38-.15,3,3,0,0,1-1.34-2.32,1.67,1.67,0,0,1,0-.34Z"/><path class="cls-4" d="M61.51,324.05a3,3,0,0,1,1.34,2.32c0,.86-.6,1.2-1.34.77a2.94,2.94,0,0,1-1.34-2.31C60.17,324,60.77,323.63,61.51,324.05Z"/><path class="cls-9" d="M61.51,324.05a3,3,0,0,1,1.34,2.32c0,.86-.6,1.2-1.34.77a2.94,2.94,0,0,1-1.34-2.31C60.17,324,60.77,323.63,61.51,324.05Z"/><polygon class="cls-4" points="21.73 275.76 67.97 302.46 114.2 275.76 67.97 249.07 21.73 275.76"/><polygon class="cls-5" points="21.73 275.76 67.97 302.46 114.2 275.76 67.97 249.07 21.73 275.76"/><polygon class="cls-5" points="67.97 302.46 67.97 299.12 111.31 274.1 114.2 275.76 67.97 302.46"/><polygon class="cls-4" points="21.73 289.11 67.97 315.8 67.97 302.46 21.73 275.76 21.73 289.11"/><polygon class="cls-6" points="21.73 289.11 67.97 315.8 67.97 302.46 21.73 275.76 21.73 289.11"/><polygon class="cls-4" points="67.97 315.8 114.2 289.11 114.2 275.76 67.97 302.46 67.97 315.8"/><polygon class="cls-7" points="67.97 315.8 114.2 289.11 114.2 275.76 67.97 302.46 67.97 315.8"/><polygon class="cls-10" points="27.51 295.78 27.51 292.45 67.97 315.8 67.97 319.14 27.51 295.78"/><polygon class="cls-4" points="111.31 290.78 111.31 294.12 67.97 319.14 67.97 315.8 111.31 290.78"/><polygon class="cls-11" points="111.31 290.78 111.31 294.12 67.97 319.14 67.97 315.8 111.31 290.78"/><path class="cls-4" d="M54.73,300.6l.7-.4h0a1,1,0,0,1,.94.1,3,3,0,0,1,1.34,2.32.94.94,0,0,1-.39.86h0l-.66.38-.12-.2a1.3,1.3,0,0,1-.38-.15,2.94,2.94,0,0,1-1.34-2.32,1.86,1.86,0,0,1,0-.34Z"/><path class="cls-8" d="M54.73,300.6l.7-.4h0a1,1,0,0,1,.94.1,3,3,0,0,1,1.34,2.32.94.94,0,0,1-.39.86h0l-.66.38-.12-.2a1.3,1.3,0,0,1-.38-.15,2.94,2.94,0,0,1-1.34-2.32,1.86,1.86,0,0,1,0-.34Z"/><path class="cls-4" d="M55.7,300.68A3,3,0,0,1,57,303c0,.85-.6,1.2-1.34.77a3,3,0,0,1-1.34-2.32C54.36,300.6,55,300.25,55.7,300.68Z"/><path class="cls-9" d="M55.7,300.68A3,3,0,0,1,57,303c0,.85-.6,1.2-1.34.77a3,3,0,0,1-1.34-2.32C54.36,300.6,55,300.25,55.7,300.68Z"/><path class="cls-4" d="M60.54,304l.71-.41h0a.93.93,0,0,1,.94.09A3,3,0,0,1,63.53,306a1,1,0,0,1-.39.87h0l-.66.37-.12-.19a1.66,1.66,0,0,1-.38-.15,3,3,0,0,1-1.34-2.32,1.67,1.67,0,0,1,0-.34Z"/><path class="cls-8" d="M60.54,304l.71-.41h0a.93.93,0,0,1,.94.09A3,3,0,0,1,63.53,306a1,1,0,0,1-.39.87h0l-.66.37-.12-.19a1.66,1.66,0,0,1-.38-.15,3,3,0,0,1-1.34-2.32,1.67,1.67,0,0,1,0-.34Z"/><path class="cls-4" d="M61.51,304a3,3,0,0,1,1.34,2.32c0,.86-.6,1.2-1.34.77a2.94,2.94,0,0,1-1.34-2.31C60.17,304,60.77,303.61,61.51,304Z"/><path class="cls-9" d="M61.51,304a3,3,0,0,1,1.34,2.32c0,.86-.6,1.2-1.34.77a2.94,2.94,0,0,1-1.34-2.31C60.17,304,60.77,303.61,61.51,304Z"/><polygon class="cls-4" points="21.73 255.74 67.97 282.44 114.2 255.74 67.97 229.05 21.73 255.74"/><polygon class="cls-5" points="21.73 255.74 67.97 282.44 114.2 255.74 67.97 229.05 21.73 255.74"/><polygon class="cls-5" points="67.97 282.44 67.97 279.1 111.31 254.07 114.2 255.74 67.97 282.44"/><polygon class="cls-4" points="21.73 269.09 67.97 295.78 67.97 282.44 21.73 255.74 21.73 269.09"/><polygon class="cls-6" points="21.73 269.09 67.97 295.78 67.97 282.44 21.73 255.74 21.73 269.09"/><polygon class="cls-4" points="67.97 295.78 114.2 269.09 114.2 255.74 67.97 282.44 67.97 295.78"/><polygon class="cls-7" points="67.97 295.78 114.2 269.09 114.2 255.74 67.97 282.44 67.97 295.78"/><polygon class="cls-10" points="27.51 275.76 27.51 272.43 67.97 295.78 67.97 299.12 27.51 275.76"/><polygon class="cls-11" points="111.31 270.76 111.31 274.1 67.97 299.12 67.97 295.78 111.31 270.76"/><path class="cls-4" d="M54.73,280.58l.7-.4h0a1,1,0,0,1,.94.1,3,3,0,0,1,1.34,2.32.94.94,0,0,1-.39.86h0l-.66.38-.12-.2a1.3,1.3,0,0,1-.38-.15,2.94,2.94,0,0,1-1.34-2.32,1.86,1.86,0,0,1,0-.34Z"/><path class="cls-8" d="M54.73,280.58l.7-.4h0a1,1,0,0,1,.94.1,3,3,0,0,1,1.34,2.32.94.94,0,0,1-.39.86h0l-.66.38-.12-.2a1.3,1.3,0,0,1-.38-.15,2.94,2.94,0,0,1-1.34-2.32,1.86,1.86,0,0,1,0-.34Z"/><path class="cls-4" d="M55.7,280.66A3,3,0,0,1,57,283c0,.85-.6,1.2-1.34.77a3,3,0,0,1-1.34-2.32C54.36,280.58,55,280.23,55.7,280.66Z"/><path class="cls-9" d="M55.7,280.66A3,3,0,0,1,57,283c0,.85-.6,1.2-1.34.77a3,3,0,0,1-1.34-2.32C54.36,280.58,55,280.23,55.7,280.66Z"/><path class="cls-4" d="M60.54,283.94l.71-.41h0a.93.93,0,0,1,.94.09,3,3,0,0,1,1.34,2.32,1,1,0,0,1-.39.87h0l-.66.37-.12-.19a1.66,1.66,0,0,1-.38-.15,3,3,0,0,1-1.34-2.32,1.67,1.67,0,0,1,0-.34Z"/><path class="cls-8" d="M60.54,283.94l.71-.41h0a.93.93,0,0,1,.94.09,3,3,0,0,1,1.34,2.32,1,1,0,0,1-.39.87h0l-.66.37-.12-.19a1.66,1.66,0,0,1-.38-.15,3,3,0,0,1-1.34-2.32,1.67,1.67,0,0,1,0-.34Z"/><path class="cls-4" d="M61.51,284a3,3,0,0,1,1.34,2.32c0,.86-.6,1.2-1.34.77a2.94,2.94,0,0,1-1.34-2.31C60.17,283.93,60.77,283.59,61.51,284Z"/><path class="cls-9" d="M61.51,284a3,3,0,0,1,1.34,2.32c0,.86-.6,1.2-1.34.77a2.94,2.94,0,0,1-1.34-2.31C60.17,283.93,60.77,283.59,61.51,284Z"/><polygon class="cls-4" points="21.73 235.72 67.97 262.42 114.2 235.72 67.97 209.03 21.73 235.72"/><polygon class="cls-12" points="21.73 235.72 67.97 262.42 114.2 235.72 67.97 209.03 21.73 235.72"/><polygon class="cls-5" points="21.73 235.72 67.97 262.42 114.2 235.72 67.97 209.03 21.73 235.72"/><polygon class="cls-5" points="67.97 259.09 67.97 262.42 114.2 235.72 111.31 234.06 67.97 259.09"/><polygon class="cls-4" points="21.73 249.07 67.97 275.76 67.97 262.42 21.73 235.72 21.73 249.07"/><polygon class="cls-6" points="21.73 249.07 67.97 275.76 67.97 262.42 21.73 235.72 21.73 249.07"/><polygon class="cls-4" points="67.97 275.76 114.2 249.07 114.2 235.72 67.97 262.42 67.97 275.76"/><polygon class="cls-7" points="67.97 275.76 114.2 249.07 114.2 235.72 67.97 262.42 67.97 275.76"/><polygon class="cls-10" points="27.51 255.74 27.51 252.41 67.97 275.76 67.97 279.1 27.51 255.74"/><polygon class="cls-11" points="111.31 250.74 111.31 254.07 67.97 279.1 67.97 275.76 111.31 250.74"/><path class="cls-4" d="M54.73,260.56l.7-.4h0a1,1,0,0,1,.94.1,3,3,0,0,1,1.34,2.32.94.94,0,0,1-.39.86h0l-.66.38-.12-.2a1.3,1.3,0,0,1-.38-.15,2.94,2.94,0,0,1-1.34-2.32,1.86,1.86,0,0,1,0-.34Z"/><path class="cls-8" d="M54.73,260.56l.7-.4h0a1,1,0,0,1,.94.1,3,3,0,0,1,1.34,2.32.94.94,0,0,1-.39.86h0l-.66.38-.12-.2a1.3,1.3,0,0,1-.38-.15,2.94,2.94,0,0,1-1.34-2.32,1.86,1.86,0,0,1,0-.34Z"/><path class="cls-4" d="M55.7,260.64A3,3,0,0,1,57,263c0,.85-.6,1.2-1.34.77a3,3,0,0,1-1.34-2.32C54.36,260.56,55,260.21,55.7,260.64Z"/><path class="cls-9" d="M55.7,260.64A3,3,0,0,1,57,263c0,.85-.6,1.2-1.34.77a3,3,0,0,1-1.34-2.32C54.36,260.56,55,260.21,55.7,260.64Z"/><path class="cls-4" d="M60.54,263.92l.71-.41h0a.93.93,0,0,1,.94.09,3,3,0,0,1,1.34,2.32,1,1,0,0,1-.39.87h0l-.66.37-.12-.19a1.66,1.66,0,0,1-.38-.15,3,3,0,0,1-1.34-2.32,1.67,1.67,0,0,1,0-.34Z"/><path class="cls-8" d="M60.54,263.92l.71-.41h0a.93.93,0,0,1,.94.09,3,3,0,0,1,1.34,2.32,1,1,0,0,1-.39.87h0l-.66.37-.12-.19a1.66,1.66,0,0,1-.38-.15,3,3,0,0,1-1.34-2.32,1.67,1.67,0,0,1,0-.34Z"/><path class="cls-4" d="M61.51,264a3,3,0,0,1,1.34,2.32c0,.86-.6,1.2-1.34.77a2.94,2.94,0,0,1-1.34-2.31C60.17,263.91,60.77,263.57,61.51,264Z"/><path class="cls-9" d="M61.51,264a3,3,0,0,1,1.34,2.32c0,.86-.6,1.2-1.34.77a2.94,2.94,0,0,1-1.34-2.31C60.17,263.91,60.77,263.57,61.51,264Z"/><path class="cls-4" d="M112.35,214.64,69.79,190.08a4.15,4.15,0,0,0-3.7,0L23.58,214.64a4.1,4.1,0,0,0-1.85,3.2v11.22L68,255.75h0l46.21-26.69V217.84A4.1,4.1,0,0,0,112.35,214.64Z"/><path class="cls-7" d="M112.35,214.64,69.79,190.08a4.15,4.15,0,0,0-3.7,0L23.58,214.64a4.1,4.1,0,0,0-1.85,3.2v11.22L68,255.75h0l46.21-26.69V217.84A4.1,4.1,0,0,0,112.35,214.64Z"/><path class="cls-4" d="M68,241.78v14L21.73,229.06V217.84a4.14,4.14,0,0,1,1.52-3c-.68.59-.57,1.38.33,1.9l42.57,24.55A3.66,3.66,0,0,0,68,241.78Z"/><path class="cls-6" d="M68,241.78v14L21.73,229.06V217.84a4.14,4.14,0,0,1,1.52-3c-.68.59-.57,1.38.33,1.9l42.57,24.55A3.66,3.66,0,0,0,68,241.78Z"/><path class="cls-4" d="M23.58,216.78l42.57,24.56a4.07,4.07,0,0,0,3.69,0l42.51-24.56a1.13,1.13,0,0,0,0-2.14L69.79,190.08a4.09,4.09,0,0,0-3.7,0L23.58,214.64A1.13,1.13,0,0,0,23.58,216.78Z"/><path class="cls-13" d="M23.58,216.78l42.57,24.56a4.07,4.07,0,0,0,3.69,0l42.51-24.56a1.13,1.13,0,0,0,0-2.14L69.79,190.08a4.09,4.09,0,0,0-3.7,0L23.58,214.64A1.13,1.13,0,0,0,23.58,216.78Z"/><polygon class="cls-10" points="27.51 235.73 27.51 232.39 67.97 255.75 67.97 259.09 27.51 235.73"/><polygon class="cls-11" points="111.31 230.72 111.31 234.06 67.97 259.09 67.97 255.75 111.31 230.72"/><path class="cls-4" d="M54.73,240.55l.7-.41h0a.93.93,0,0,1,.94.09,3,3,0,0,1,1.34,2.32,1,1,0,0,1-.39.87h0l-.66.38-.12-.2a1.3,1.3,0,0,1-.38-.15,3,3,0,0,1-1.34-2.32,1.67,1.67,0,0,1,0-.34Z"/><path class="cls-8" d="M54.73,240.55l.7-.41h0a.93.93,0,0,1,.94.09,3,3,0,0,1,1.34,2.32,1,1,0,0,1-.39.87h0l-.66.38-.12-.2a1.3,1.3,0,0,1-.38-.15,3,3,0,0,1-1.34-2.32,1.67,1.67,0,0,1,0-.34Z"/><path class="cls-4" d="M55.7,240.63A2.94,2.94,0,0,1,57,242.94c0,.86-.6,1.2-1.34.78a3,3,0,0,1-1.34-2.32C54.36,240.54,55,240.2,55.7,240.63Z"/><path class="cls-9" d="M55.7,240.63A2.94,2.94,0,0,1,57,242.94c0,.86-.6,1.2-1.34.78a3,3,0,0,1-1.34-2.32C54.36,240.54,55,240.2,55.7,240.63Z"/><path class="cls-4" d="M60.54,243.9l.71-.4h0a1,1,0,0,1,.94.1,3,3,0,0,1,1.34,2.32.94.94,0,0,1-.39.86h0l-.66.38-.12-.2a1.3,1.3,0,0,1-.38-.15,2.94,2.94,0,0,1-1.34-2.32,1.86,1.86,0,0,1,0-.34Z"/><path class="cls-8" d="M60.54,243.9l.71-.4h0a1,1,0,0,1,.94.1,3,3,0,0,1,1.34,2.32.94.94,0,0,1-.39.86h0l-.66.38-.12-.2a1.3,1.3,0,0,1-.38-.15,2.94,2.94,0,0,1-1.34-2.32,1.86,1.86,0,0,1,0-.34Z"/><path class="cls-4" d="M61.51,244a3,3,0,0,1,1.34,2.32c0,.85-.6,1.2-1.34.77a3,3,0,0,1-1.34-2.32C60.17,243.9,60.77,243.55,61.51,244Z"/><path class="cls-9" d="M61.51,244a3,3,0,0,1,1.34,2.32c0,.85-.6,1.2-1.34.77a3,3,0,0,1-1.34-2.32C60.17,243.9,60.77,243.55,61.51,244Z"/></g></g><g id="Device"><g id="Laptop"><path class="cls-4" d="M100.5,320.8a11.32,11.32,0,0,0,5.3,8.79l115.29,66.58a11.69,11.69,0,0,0,10.59,0L434.7,279a10,10,0,0,0,0-17.59L319.41,194.8a11.69,11.69,0,0,0-10.59,0L105.8,312A11.34,11.34,0,0,0,100.5,320.8Z"/><path class="cls-14" d="M440,270.17a11.37,11.37,0,0,1-5.3,8.79l-203,117.22a11,11,0,0,1-5.29,1.26V386a10.86,10.86,0,0,0,5.29-1.27l203-117.21c2.56-1.48,2.88-3.76,1-5.44A11.37,11.37,0,0,1,440,270.17Z"/><path class="cls-15" d="M105.8,318.12,221.09,384.7a11.69,11.69,0,0,0,10.59,0l203-117.21c2.92-1.69,2.92-4.43,0-6.12L319.41,194.8a11.69,11.69,0,0,0-10.59,0L105.8,312C102.87,313.7,102.87,316.43,105.8,318.12Z"/><path class="cls-16" d="M226.39,386v11.46a10.87,10.87,0,0,1-5.3-1.26L105.8,329.6a9.92,9.92,0,0,1-.54-17.25c-2.37,1.7-2.19,4.2.54,5.77L221.09,384.7A10.77,10.77,0,0,0,226.39,386Z"/><path class="cls-4" d="M95.54,312.2c-2.75-1.59-2.6-4.26-2.6-7.64V145.31a11.7,11.7,0,0,1,5.3-9.17l203-117.21a11.38,11.38,0,0,1,10.27-.19c2.74,1.59,2.59,4.26,2.59,7.64V185.62a11.72,11.72,0,0,1-5.29,9.18L105.8,312A11.36,11.36,0,0,1,95.54,312.2Z"/><path class="cls-15" d="M314.11,26.37c0-3.37-2.37-4.74-5.29-3.05l-203,117.21a10.77,10.77,0,0,0-3.75,4L94.5,140.1h0a10.78,10.78,0,0,1,3.75-4l203-117.21a11.33,11.33,0,0,1,10.26-.19C314.26,20.32,314.11,23,314.11,26.37Z"/><path class="cls-14" d="M100.5,149.7V309c0,3.38,2.37,4.75,5.3,3.06l203-117.21a11.72,11.72,0,0,0,5.29-9.18V26.38c0-3.38-2.37-4.75-5.29-3.06l-203,117.21A11.7,11.7,0,0,0,100.5,149.7Z"/><path class="cls-16" d="M105.17,312.33a11.36,11.36,0,0,1-9.63-.14c-2.74-1.57-2.6-4.25-2.6-7.63V145.31a10.65,10.65,0,0,1,1.56-5.21l7.55,4.38h0a10.88,10.88,0,0,0-1.55,5.21V309C100.5,312.08,102.54,313.49,105.17,312.33Z"/><path class="cls-17" d="M108.65,146.64l195.73-113c1.76-1,3.18-.19,3.18,1.84v139a7,7,0,0,1-3.18,5.5L108.65,293c-1.76,1-3.18.19-3.18-1.84v-139A7,7,0,0,1,108.65,146.64Z"/><path class="cls-18" d="M120.45,312.32,308.9,203.52a5.87,5.87,0,0,1,5.29,0l3.14,1.73c1.46.84,1.46,2.21,0,3.05L128.86,317.08a5.83,5.83,0,0,1-5.3,0l-3.11-1.7C119,314.53,119,313.16,120.45,312.32Z"/><path class="cls-18" d="M135.23,321.11l188.44-108.8a5.41,5.41,0,0,1,4.84-.26l49.05,28.32c1.21.7,1,1.95-.45,2.79L188.88,351.81a5.41,5.41,0,0,1-4.84.27L134.78,323.9C133.57,323.2,133.77,322,135.23,321.11Z"/><polygon class="cls-8" points="260.31 318.2 261.52 318.9 293.65 337.45 350.8 304.45 351.99 303.77 318.64 284.53 260.31 318.2"/><polygon class="cls-4" points="261.52 318.9 293.65 337.45 350.8 304.45 318.64 285.9 261.52 318.9"/><polygon class="cls-19" points="261.52 318.9 293.65 337.45 350.8 304.45 318.64 285.9 261.52 318.9"/><path class="cls-4" d="M95.53,312.19a8.61,8.61,0,0,0,1.63.7,8,8,0,0,1-1.63-.69,5.39,5.39,0,0,1-.5-.33Z"/><path class="cls-4" d="M104.8,312.69a.2.2,0,0,1,.09-.07s0,0-.06.06Z"/></g></g><g id="Window"><g id="Window-2" data-name="Window"><g id="Window-3" data-name="Window"><g class="cls-20"><path class="cls-10" d="M335.06,38.68a1.26,1.26,0,0,0-.05-.28.07.07,0,0,0,0-.06,1,1,0,0,0-.07-.28,1.38,1.38,0,0,0-.18-.39.54.54,0,0,0-.1-.16.94.94,0,0,0-.09-.12,1,1,0,0,0-.2-.2l0,0a1.82,1.82,0,0,0-.27-.15,2.25,2.25,0,0,0-2.07.26L127.92,155.06a6.83,6.83,0,0,0-3.09,5.34V308.81a2.09,2.09,0,0,0,1.12,1.85l.13.09.16.09a1.14,1.14,0,0,0,.26.09,1.75,1.75,0,0,0,.4.05,2,2,0,0,0,1-.29l.08-.05h0l2.94-1.7L332,192.86a6.81,6.81,0,0,0,3.08-5.34V39.06C335.08,38.93,335.07,38.8,335.06,38.68Z"/></g><path class="cls-4" d="M334.07,37a2.25,2.25,0,0,0-2.07.26L127.92,155.06a6.83,6.83,0,0,0-3.09,5.34v10.08l-3.93-2.31v-10a6.79,6.79,0,0,1,3.07-5.33L328.06,35.06a2.13,2.13,0,0,1,2.24-.18C330.85,35.21,333.41,36.68,334.07,37Z"/><path class="cls-4" d="M335.08,39c0-1.94-1.39-2.73-3.08-1.75L127.92,155.06a6.79,6.79,0,0,0-3.09,5.34v10.08L335.08,49.16Z"/><g class="cls-21"><path class="cls-22" d="M332,37.29,127.92,155.06a6.31,6.31,0,0,0-2.17,2.29l-3.92-2.27a6.06,6.06,0,0,1,2.15-2.25L328.06,35.05a2.17,2.17,0,0,1,2.24-.18c.55.34,3.11,1.8,3.76,2.15A2.18,2.18,0,0,0,332,37.29Z"/></g><path class="cls-23" d="M120.89,168.18v-10a6.37,6.37,0,0,1,.94-3.08l3.93,2.26a6.24,6.24,0,0,0-.92,3.06v10.08Z"/><path class="cls-10" d="M316.51,50.52a4.61,4.61,0,0,0-1.74,3.69c0,1.48.78,2.23,1.74,1.68a4.61,4.61,0,0,0,1.74-3.69C318.25,50.72,317.47,50,316.51,50.52Z"/><path class="cls-10" d="M322.78,46.89A4.61,4.61,0,0,0,321,50.58c0,1.48.78,2.23,1.74,1.68a4.61,4.61,0,0,0,1.74-3.69C324.52,47.09,323.74,46.34,322.78,46.89Z"/><path class="cls-10" d="M329.05,43.27A4.58,4.58,0,0,0,327.31,47c0,1.48.78,2.23,1.74,1.67a4.6,4.6,0,0,0,1.74-3.69C330.79,43.46,330,42.71,329.05,43.27Z"/><path class="cls-24" d="M125.94,310.67l-.16-.09-3.25-1.88a3.27,3.27,0,0,1-1.61-2.39,3.4,3.4,0,0,1,0-.45V168.17l3.94,2.31V308.8a2,2,0,0,0,1,1.75l.1.07,0,0Z"/></g><g id="Code"><path class="cls-4" d="M185.47,148.27a1.18,1.18,0,0,1,.16-.58l2.22-4.59a.36.36,0,0,1,.1-.13l.05,0a.14.14,0,0,1,.18,0,.35.35,0,0,1,.07.23v1.54a2,2,0,0,1-.05.47,2.72,2.72,0,0,1-.15.42L186.88,148l1.17,1.07a.61.61,0,0,1,.15.24,1.35,1.35,0,0,1,.05.42v1.54a.82.82,0,0,1-.07.31.46.46,0,0,1-.18.22l-.05,0a.1.1,0,0,1-.1,0l-2.22-2a.44.44,0,0,1-.16-.39Z"/><path class="cls-4" d="M193.58,136.76a2.28,2.28,0,0,1,.17-.45.78.78,0,0,1,.32-.35l.84-.48a.12.12,0,0,1,.17,0,.3.3,0,0,1,.07.23.59.59,0,0,1,0,.17l-3.8,16.2a1.76,1.76,0,0,1-.16.43.75.75,0,0,1-.33.37l-.8.46a.14.14,0,0,1-.18,0,.3.3,0,0,1-.07-.23,1.15,1.15,0,0,1,0-.16Z"/><path class="cls-4" d="M199.46,141.33a1.18,1.18,0,0,1-.16.58l-2.21,4.58a.46.46,0,0,1-.1.14l-.06,0c-.07,0-.13,0-.17,0a.3.3,0,0,1-.08-.23v-1.54a2,2,0,0,1,0-.47,2.72,2.72,0,0,1,.15-.42l1.17-2.43-1.17-1.07a.61.61,0,0,1-.15-.24,1.4,1.4,0,0,1,0-.42V138.3a.68.68,0,0,1,.08-.31.4.4,0,0,1,.17-.22l.06,0a.1.1,0,0,1,.1,0l2.21,2a.44.44,0,0,1,.16.39Z"/><path class="cls-4" d="M205.62,140.27a.18.18,0,0,1,.22,0,.38.38,0,0,1,.09.28v1.7a.92.92,0,0,1-.09.38.65.65,0,0,1-.22.26l-1,.6a.17.17,0,0,1-.22,0,.38.38,0,0,1-.09-.28v-1.7a.92.92,0,0,1,.09-.38.58.58,0,0,1,.22-.26Z"/><path class="cls-4" d="M209.12,138.25a.16.16,0,0,1,.21,0,.38.38,0,0,1,.09.28v1.7a.88.88,0,0,1-.09.38.57.57,0,0,1-.21.26l-1.05.6a.15.15,0,0,1-.21,0,.38.38,0,0,1-.09-.28V139.5a.92.92,0,0,1,.09-.39.63.63,0,0,1,.21-.26Z"/><path class="cls-4" d="M212.62,136.23a.16.16,0,0,1,.21,0,.39.39,0,0,1,.09.28v1.7a.88.88,0,0,1-.09.38.57.57,0,0,1-.21.26l-1.05.61a.17.17,0,0,1-.21,0,.38.38,0,0,1-.09-.28v-1.69a.85.85,0,0,1,.09-.38.61.61,0,0,1,.21-.27Z"/><path class="cls-4" d="M186.4,160.64l43-24.89c.61-.35,1.1-.1,1.1.55a2.34,2.34,0,0,1-1.1,1.82L186.4,163c-.6.35-1.09.1-1.09-.55A2.35,2.35,0,0,1,186.4,160.64Z"/><path class="cls-2" d="M202.85,179.62l117-67.61c.6-.35,1.09-.1,1.09.55a2.35,2.35,0,0,1-1.09,1.82L202.85,182c-.61.35-1.1.1-1.1-.56A2.35,2.35,0,0,1,202.85,179.62Z"/><path class="cls-2" d="M202.85,189.12l16.31-9.46c.6-.35,1.09-.1,1.09.56a2.37,2.37,0,0,1-1.09,1.82l-16.31,9.45c-.61.35-1.1.1-1.1-.56A2.32,2.32,0,0,1,202.85,189.12Z"/><path class="cls-2" d="M202.85,198.61l16.31-9.45c.6-.35,1.09-.11,1.09.55a2.37,2.37,0,0,1-1.09,1.82L202.85,201c-.61.35-1.1.1-1.1-.55A2.34,2.34,0,0,1,202.85,198.61Z"/><path class="cls-4" d="M233.68,133.3,328,78.74c.6-.35,1.09-.1,1.09.56A2.37,2.37,0,0,1,328,81.12l-94.36,54.55c-.61.35-1.1.1-1.1-.55A2.34,2.34,0,0,1,233.68,133.3Z"/><path class="cls-4" d="M203.2,255.27l26.23-15.11c.61-.35,1.1-.1,1.1.55a2.34,2.34,0,0,1-1.1,1.82L203.2,257.64c-.6.35-1.09.1-1.09-.55A2.35,2.35,0,0,1,203.2,255.27Z"/><path class="cls-4" d="M233.68,237.71,328,183.15c.6-.35,1.09-.1,1.09.55a2.35,2.35,0,0,1-1.09,1.82l-94.36,54.56c-.61.35-1.1.1-1.1-.56A2.32,2.32,0,0,1,233.68,237.71Z"/><path class="cls-4" d="M233.68,209.28,328,154.72c.6-.35,1.09-.1,1.09.56A2.37,2.37,0,0,1,328,157.1l-94.36,54.55c-.61.35-1.1.1-1.1-.55A2.34,2.34,0,0,1,233.68,209.28Z"/><path class="cls-4" d="M233.68,218.77,328,164.21c.6-.35,1.09-.1,1.09.56a2.37,2.37,0,0,1-1.09,1.82l-94.36,54.55c-.61.35-1.1.1-1.1-.55A2.34,2.34,0,0,1,233.68,218.77Z"/><path class="cls-22" d="M203.2,245.79l26.23-15.11c.61-.35,1.1-.11,1.1.55a2.35,2.35,0,0,1-1.1,1.82L203.2,248.16c-.6.35-1.09.1-1.09-.55A2.35,2.35,0,0,1,203.2,245.79Z"/><path class="cls-4" d="M224.49,214.6l3.25-1.92c.6-.35,1.09-.1,1.09.55a2.35,2.35,0,0,1-1.09,1.82L224.49,217c-.61.35-1.1.1-1.1-.56A2.35,2.35,0,0,1,224.49,214.6Z"/><path class="cls-4" d="M186.4,170.15l21.68-12.57c.6-.35,1.09-.1,1.09.55a2.35,2.35,0,0,1-1.09,1.82L186.4,172.53c-.6.35-1.09.1-1.09-.56A2.37,2.37,0,0,1,186.4,170.15Z"/><path class="cls-25" d="M186.4,170.15l21.68-12.57c.6-.35,1.09-.1,1.09.55a2.35,2.35,0,0,1-1.09,1.82L186.4,172.53c-.6.35-1.09.1-1.09-.56A2.37,2.37,0,0,1,186.4,170.15Z"/><path class="cls-4" d="M186.4,179.63l10.14-5.86c.61-.35,1.1-.11,1.1.55a2.34,2.34,0,0,1-1.1,1.82L186.4,182c-.6.35-1.09.1-1.09-.55A2.35,2.35,0,0,1,186.4,179.63Z"/><path class="cls-25" d="M186.4,179.63l10.14-5.86c.61-.35,1.1-.11,1.1.55a2.34,2.34,0,0,1-1.1,1.82L186.4,182c-.6.35-1.09.1-1.09-.55A2.35,2.35,0,0,1,186.4,179.63Z"/><path class="cls-4" d="M186.4,189.12l10.14-5.86c.61-.35,1.1-.1,1.1.55a2.34,2.34,0,0,1-1.1,1.82l-10.14,5.86c-.6.35-1.09.1-1.09-.55A2.35,2.35,0,0,1,186.4,189.12Z"/><path class="cls-25" d="M186.4,189.12l10.14-5.86c.61-.35,1.1-.1,1.1.55a2.34,2.34,0,0,1-1.1,1.82l-10.14,5.86c-.6.35-1.09.1-1.09-.55A2.35,2.35,0,0,1,186.4,189.12Z"/><path class="cls-4" d="M186.4,198.61l10.14-5.86c.61-.35,1.1-.1,1.1.55a2.34,2.34,0,0,1-1.1,1.82L186.4,201c-.6.35-1.09.11-1.09-.55A2.35,2.35,0,0,1,186.4,198.61Z"/><path class="cls-25" d="M186.4,198.61l10.14-5.86c.61-.35,1.1-.1,1.1.55a2.34,2.34,0,0,1-1.1,1.82L186.4,201c-.6.35-1.09.11-1.09-.55A2.35,2.35,0,0,1,186.4,198.61Z"/><path class="cls-4" d="M186.4,208.1l10.14-5.86c.61-.35,1.1-.1,1.1.56a2.32,2.32,0,0,1-1.1,1.81l-10.14,5.87c-.6.35-1.09.1-1.09-.56A2.37,2.37,0,0,1,186.4,208.1Z"/><path class="cls-25" d="M186.4,208.1l10.14-5.86c.61-.35,1.1-.1,1.1.56a2.32,2.32,0,0,1-1.1,1.81l-10.14,5.87c-.6.35-1.09.1-1.09-.56A2.37,2.37,0,0,1,186.4,208.1Z"/><path class="cls-4" d="M212.32,155.13l13-7.48c.61-.35,1.1-.1,1.1.55a2.34,2.34,0,0,1-1.1,1.82l-13,7.48c-.6.35-1.09.1-1.09-.55A2.35,2.35,0,0,1,212.32,155.13Z"/><path class="cls-25" d="M212.32,155.13l13-7.48c.61-.35,1.1-.1,1.1.55a2.34,2.34,0,0,1-1.1,1.82l-13,7.48c-.6.35-1.09.1-1.09-.55A2.35,2.35,0,0,1,212.32,155.13Z"/><path class="cls-22" d="M232.42,200.54,328,145.24c.6-.34,1.1-.1,1.1.56a2.38,2.38,0,0,1-1.1,1.82l-95.62,55.29c-.6.35-1.09.11-1.09-.55A2.37,2.37,0,0,1,232.42,200.54Z"/><path class="cls-22" d="M315,143.22l13-7.48c.6-.35,1.09-.1,1.09.55a2.35,2.35,0,0,1-1.09,1.82l-13,7.48c-.6.35-1.09.1-1.09-.55A2.35,2.35,0,0,1,315,143.22Z"/><path class="cls-22" d="M215.18,201l95.62-55.3c.6-.35,1.09-.1,1.09.55A2.35,2.35,0,0,1,310.8,148l-95.62,55.3c-.61.35-1.1.1-1.1-.55A2.34,2.34,0,0,1,215.18,201Z"/><path class="cls-4" d="M202.85,170.14l21.67-12.58c.6-.35,1.09-.1,1.09.56a2.37,2.37,0,0,1-1.09,1.82l-21.67,12.57c-.61.35-1.1.1-1.1-.56A2.32,2.32,0,0,1,202.85,170.14Z"/><path class="cls-25" d="M202.85,170.14l21.67-12.58c.6-.35,1.09-.1,1.09.56a2.37,2.37,0,0,1-1.09,1.82l-21.67,12.57c-.61.35-1.1.1-1.1-.56A2.32,2.32,0,0,1,202.85,170.14Z"/><path class="cls-4" d="M228.76,155.11l86.95-50.2c.6-.35,1.09-.1,1.09.55a2.35,2.35,0,0,1-1.09,1.82l-86.95,50.2c-.6.35-1.09.11-1.09-.55A2.35,2.35,0,0,1,228.76,155.11Z"/><path class="cls-25" d="M228.76,155.11l86.95-50.2c.6-.35,1.09-.1,1.09.55a2.35,2.35,0,0,1-1.09,1.82l-86.95,50.2c-.6.35-1.09.11-1.09-.55A2.35,2.35,0,0,1,228.76,155.11Z"/><g class="cls-26"><path class="cls-22" d="M170.6,167.79l6-3.44c.6-.34,1.08-.06,1.08.63v2.19a2.37,2.37,0,0,1-1.08,1.87l-6,3.44c-.6.35-1.08.07-1.08-.62v-2.19A2.4,2.4,0,0,1,170.6,167.79Z"/><path class="cls-22" d="M170.6,177.37l6-3.44c.6-.34,1.08-.06,1.08.63v2.19a2.37,2.37,0,0,1-1.08,1.87l-6,3.44c-.6.35-1.08.07-1.08-.62v-2.19A2.4,2.4,0,0,1,170.6,177.37Z"/><path class="cls-22" d="M170.6,187l6-3.44c.6-.34,1.08-.06,1.08.63v2.19a2.37,2.37,0,0,1-1.08,1.87l-6,3.45c-.6.34-1.08.06-1.08-.63v-2.19A2.4,2.4,0,0,1,170.6,187Z"/><path class="cls-22" d="M170.6,196.54l6-3.44c.6-.35,1.08-.07,1.08.62v2.19a2.4,2.4,0,0,1-1.08,1.88l-6,3.44c-.6.34-1.08.06-1.08-.63v-2.19A2.37,2.37,0,0,1,170.6,196.54Z"/><path class="cls-22" d="M170.6,206.12l6-3.44c.6-.35,1.08-.07,1.08.62v2.19a2.4,2.4,0,0,1-1.08,1.88l-6,3.44c-.6.34-1.08.06-1.08-.63V208A2.37,2.37,0,0,1,170.6,206.12Z"/><path class="cls-22" d="M170.6,215.7l6-3.44c.6-.35,1.08-.07,1.08.62v2.19a2.4,2.4,0,0,1-1.08,1.88l-6,3.44c-.6.35-1.08.07-1.08-.62v-2.2A2.37,2.37,0,0,1,170.6,215.7Z"/><path class="cls-22" d="M170.6,225.28l6-3.44c.6-.34,1.08-.07,1.08.63v2.19a2.37,2.37,0,0,1-1.08,1.87l-6,3.44c-.6.35-1.08.07-1.08-.62v-2.19A2.4,2.4,0,0,1,170.6,225.28Z"/><path class="cls-22" d="M170.6,234.86l6-3.44c.6-.34,1.08-.06,1.08.63v2.19a2.37,2.37,0,0,1-1.08,1.87l-6,3.44c-.6.35-1.08.07-1.08-.62v-2.19A2.4,2.4,0,0,1,170.6,234.86Z"/><path class="cls-22" d="M170.6,244.44l6-3.44c.6-.34,1.08-.06,1.08.63v2.19a2.37,2.37,0,0,1-1.08,1.87l-6,3.44c-.6.35-1.08.07-1.08-.62v-2.19A2.4,2.4,0,0,1,170.6,244.44Z"/><path class="cls-22" d="M170.6,254l6-3.44c.6-.35,1.08-.07,1.08.62v2.19a2.4,2.4,0,0,1-1.08,1.88l-6,3.44c-.6.34-1.08.06-1.08-.63V255.9A2.37,2.37,0,0,1,170.6,254Z"/><path class="cls-22" d="M170.6,263.61l6-3.44c.6-.35,1.08-.07,1.08.62V263a2.4,2.4,0,0,1-1.08,1.88l-6,3.44c-.6.34-1.08.06-1.08-.63v-2.19A2.37,2.37,0,0,1,170.6,263.61Z"/><path class="cls-22" d="M170.6,273.19l6-3.44c.6-.35,1.08-.07,1.08.62v2.19a2.4,2.4,0,0,1-1.08,1.88l-6,3.44c-.6.34-1.08.06-1.08-.63v-2.19A2.37,2.37,0,0,1,170.6,273.19Z"/></g></g></g></g><g id="Icons"><g id="Gear"><g id="Speech_Bubble" data-name="Speech Bubble"><g id="Speach_Bubble" data-name="Speach Bubble"><path class="cls-4" d="M395.92,135.44l-34.11,19.65a3,3,0,0,0-1.37,2.36v46.66a3,3,0,0,0,1.38,2.35l5.42,3.08a3.05,3.05,0,0,0,2.73,0l34.12-19.65a3,3,0,0,0,1.36-2.36V140.85a3,3,0,0,0-1.37-2.34l-5.42-3.09A3.07,3.07,0,0,0,395.92,135.44Z"/><path class="cls-9" d="M370,209.52a3.14,3.14,0,0,1-2.74,0l-5.41-3.09a3,3,0,0,1-1.38-2.34V157.45a2.77,2.77,0,0,1,.44-1.39l8.13,4.68a2.73,2.73,0,0,0-.4,1.34v46.65C368.61,209.53,369.17,210,370,209.52Z"/><path class="cls-27" d="M405.43,140.61c-.11-.69-.67-.94-1.35-.55L370,159.72a2.7,2.7,0,0,0-1,1l-8.14-4.68a2.74,2.74,0,0,1,.94-1l34.12-19.66a3,3,0,0,1,2.73,0l5.42,3.08A3,3,0,0,1,405.43,140.61Z"/><path class="cls-4" d="M356.71,192.05c-.86-.51-7.38-4.19-7.59-4.31a1.26,1.26,0,0,1-.27-1.94l11.59-14.47,8.17,4.68-12.13,14.13A1.28,1.28,0,0,0,356.71,192.05Z"/><path class="cls-27" d="M356.71,192.05c-.86-.51-7.38-4.19-7.59-4.31a1.26,1.26,0,0,1-.27-1.94l11.59-14.47,8.17,4.68-12.13,14.13A1.28,1.28,0,0,0,356.71,192.05Z"/><path class="cls-4" d="M404.09,140.07,370,159.72a3,3,0,0,0-1.36,2.36V176l-12.13,14.12a1.22,1.22,0,0,0,.78,2.09l11.35,1.52h0v15c0,.87.61,1.22,1.36.78l34.12-19.65a3,3,0,0,0,1.36-2.36V140.85C405.45,140,404.84,139.63,404.09,140.07Z"/></g></g><path id="Gear-2" data-name="Gear" class="cls-17" d="M400.22,171.94l-2.76-.14c-.19,0-.33-.28-.32-.6a17.13,17.13,0,0,0-.11-2.3,1.56,1.56,0,0,1,.17-.94l2.73-3.87a.94.94,0,0,0,0-.85l-1.35-2.93c-.13-.27-.36-.36-.51-.19l-3,3.2a.45.45,0,0,1-.61,0,4.71,4.71,0,0,0-1.32-.8.61.61,0,0,1-.27-.68l.67-4.34c.05-.31-.07-.54-.26-.52l-3.22.38c-.19,0-.41.27-.49.55l-1.34,4.54a1.23,1.23,0,0,1-.47.67,12,12,0,0,0-2,1.35.41.41,0,0,1-.58-.17l-1.49-2.3c-.16-.23-.4-.27-.55-.09l-3.18,3.91a1,1,0,0,0-.09.87l.94,3a1.39,1.39,0,0,1-.05,1,26.2,26.2,0,0,0-1.36,2.82,1,1,0,0,1-.53.56l-3.05.84a.91.91,0,0,0-.46.63l-1.1,4.93c-.07.29,0,.54.23.55l2.75.14c.2,0,.34.28.33.6a15.56,15.56,0,0,0,.11,2.3,1.6,1.6,0,0,1-.17.95l-2.73,3.86a1,1,0,0,0,0,.86l1.36,2.92c.13.27.35.36.51.2l3-3.21a.44.44,0,0,1,.6,0,4.91,4.91,0,0,0,1.33.8.64.64,0,0,1,.27.68l-.68,4.35c0,.3.07.53.27.51l3.21-.38a.76.76,0,0,0,.5-.55l1.33-4.54a1.24,1.24,0,0,1,.48-.67,12.4,12.4,0,0,0,2-1.35.41.41,0,0,1,.58.17l1.49,2.3c.15.23.4.27.54.09l3.18-3.9a1.08,1.08,0,0,0,.1-.88l-.95-3a1.39,1.39,0,0,1,.06-.95,25.32,25.32,0,0,0,1.36-2.82,1,1,0,0,1,.53-.56l3-.84a.84.84,0,0,0,.46-.63l1.11-4.93C400.52,172.2,400.41,172,400.22,171.94Zm-7.58,3.88c-1,4.49-4.21,8.42-7.15,8.77s-4.49-3-3.48-7.52,4.21-8.42,7.14-8.77S393.65,171.32,392.64,175.82Z"/></g><g id="_" data-name="{}"><g id="Speech_Bubble-2" data-name="Speech Bubble"><g id="Speach_Bubble-2" data-name="Speach Bubble"><path class="cls-4" d="M395.92,67.88,361.81,87.54a3,3,0,0,0-1.37,2.36v46.66a3,3,0,0,0,1.38,2.34l5.42,3.09a3.05,3.05,0,0,0,2.73,0l34.12-19.65a3,3,0,0,0,1.36-2.36V73.3A3,3,0,0,0,404.08,71l-5.42-3.08A3.07,3.07,0,0,0,395.92,67.88Z"/><path class="cls-9" d="M370,142a3.14,3.14,0,0,1-2.74,0l-5.41-3.09a3,3,0,0,1-1.38-2.34V89.9a2.77,2.77,0,0,1,.44-1.39L369,93.19a2.7,2.7,0,0,0-.4,1.34v46.65C368.61,142,369.17,142.44,370,142Z"/><path class="cls-27" d="M405.43,73.05c-.11-.68-.67-.93-1.35-.54L370,92.17a2.7,2.7,0,0,0-1,1l-8.14-4.68a2.74,2.74,0,0,1,.94-1l34.12-19.66a3,3,0,0,1,2.73,0L404.08,71A3,3,0,0,1,405.43,73.05Z"/><path class="cls-4" d="M356.71,124.5c-.86-.51-7.38-4.19-7.59-4.31a1.26,1.26,0,0,1-.27-1.94l11.59-14.47,8.17,4.68-12.13,14.13A1.29,1.29,0,0,0,356.71,124.5Z"/><path class="cls-27" d="M356.71,124.5c-.86-.51-7.38-4.19-7.59-4.31a1.26,1.26,0,0,1-.27-1.94l11.59-14.47,8.17,4.68-12.13,14.13A1.29,1.29,0,0,0,356.71,124.5Z"/><path class="cls-4" d="M404.09,72.51,370,92.17a3,3,0,0,0-1.36,2.36v13.93l-12.13,14.13a1.22,1.22,0,0,0,.78,2.09l11.35,1.51h0v15c0,.87.61,1.23,1.36.79l34.12-19.65a3,3,0,0,0,1.36-2.36V73.3C405.45,72.43,404.84,72.08,404.09,72.51Z"/></g></g><g id="_2" data-name="{}"><path class="cls-22" d="M375.4,113.85a2.21,2.21,0,0,1,.51-1.42l.3-.36a3.86,3.86,0,0,0,.72-1.54,7.41,7.41,0,0,0,.22-1.78,13.34,13.34,0,0,1,.53-3.81,14.57,14.57,0,0,1,1.37-3.21,12.14,12.14,0,0,1,1.88-2.48A9.9,9.9,0,0,1,383,97.61a.21.21,0,0,1,.27,0,.49.49,0,0,1,.11.35v3.68a1.28,1.28,0,0,1-.1.47,1.26,1.26,0,0,1-.23.32,5.53,5.53,0,0,0-.88.8,5,5,0,0,0-.72,1,4.84,4.84,0,0,0-.47,1.21,6.26,6.26,0,0,0-.17,1.48,13.71,13.71,0,0,1-.1,1.72,11.92,11.92,0,0,1-.29,1.51,8.82,8.82,0,0,1-.41,1.2,3.18,3.18,0,0,1-.47.8.59.59,0,0,1,.47.28,2.82,2.82,0,0,1,.41.78,6.29,6.29,0,0,1,.29,1.19,10,10,0,0,1,.1,1.5,4.07,4.07,0,0,0,.17,1.29,1.25,1.25,0,0,0,.47.67,1.2,1.2,0,0,0,.72.16,2.6,2.6,0,0,0,.88-.21.23.23,0,0,1,.23.05.54.54,0,0,1,.1.35v3.68a1.2,1.2,0,0,1-.11.48.77.77,0,0,1-.27.33,5.77,5.77,0,0,1-2.07.75,2.86,2.86,0,0,1-1.88-.31,3.38,3.38,0,0,1-1.37-1.63,7.91,7.91,0,0,1-.53-3.2,4.72,4.72,0,0,0-.22-1.52c-.15-.45-.39-.68-.72-.7l-.3,0q-.51-.06-.51-.84Z"/><path class="cls-22" d="M398.65,101.82a2.26,2.26,0,0,1-.5,1.42l-.3.36a3.74,3.74,0,0,0-.73,1.54,7.91,7.91,0,0,0-.21,1.77,13,13,0,0,1-.54,3.82,14.57,14.57,0,0,1-1.37,3.21,12,12,0,0,1-1.87,2.48,10.53,10.53,0,0,1-2.07,1.64.21.21,0,0,1-.27,0,.45.45,0,0,1-.11-.35V114a1.06,1.06,0,0,1,.1-.46.83.83,0,0,1,.23-.32,6,6,0,0,0,.88-.8,5.4,5.4,0,0,0,.71-1,4.93,4.93,0,0,0,.48-1.22,6.16,6.16,0,0,0,.16-1.48,12.56,12.56,0,0,1,.11-1.61,13.05,13.05,0,0,1,.28-1.53,11.69,11.69,0,0,1,.41-1.26,3.16,3.16,0,0,1,.48-.82.62.62,0,0,1-.48-.25,2.71,2.71,0,0,1-.41-.73,5.86,5.86,0,0,1-.28-1.18,10.82,10.82,0,0,1-.11-1.59,4.1,4.1,0,0,0-.16-1.29,1.26,1.26,0,0,0-.48-.67,1.19,1.19,0,0,0-.71-.16,2.55,2.55,0,0,0-.88.21.2.2,0,0,1-.23-.06.45.45,0,0,1-.1-.34V93.77a1.05,1.05,0,0,1,.11-.48.66.66,0,0,1,.27-.33,5.93,5.93,0,0,1,2.07-.76,2.88,2.88,0,0,1,1.87.32,3.38,3.38,0,0,1,1.37,1.63,7.72,7.72,0,0,1,.54,3.2,5,5,0,0,0,.21,1.52c.15.45.39.68.73.7l.3,0c.33,0,.5.31.5.83Z"/></g></g><g id="_3" data-name="&lt;/&gt;"><g id="Speech_Bubble-3" data-name="Speech Bubble"><g id="Speach_Bubble-3" data-name="Speach Bubble"><path class="cls-4" d="M395.92.33,361.81,20a3,3,0,0,0-1.37,2.36V69a3,3,0,0,0,1.38,2.35l5.42,3.08a3.05,3.05,0,0,0,2.73,0l34.12-19.65a3,3,0,0,0,1.36-2.37V5.75a3,3,0,0,0-1.37-2.35L398.66.32A3.07,3.07,0,0,0,395.92.33Z"/><path class="cls-9" d="M370,74.42a3.14,3.14,0,0,1-2.74,0l-5.41-3.09A3,3,0,0,1,360.44,69V22.35a2.74,2.74,0,0,1,.44-1.39L369,25.64a2.7,2.7,0,0,0-.4,1.34V73.63C368.61,74.43,369.17,74.88,370,74.42Z"/><path class="cls-27" d="M405.43,5.5c-.11-.69-.67-.93-1.35-.54L370,24.62a2.7,2.7,0,0,0-1,1L360.87,21a2.66,2.66,0,0,1,.94-1L395.93.33a3,3,0,0,1,2.73,0l5.42,3.08A3,3,0,0,1,405.43,5.5Z"/><path class="cls-4" d="M356.71,57c-.86-.51-7.38-4.19-7.59-4.31a1.26,1.26,0,0,1-.27-1.94l11.59-14.47,8.17,4.68L356.48,55A1.29,1.29,0,0,0,356.71,57Z"/><path class="cls-27" d="M356.71,57c-.86-.51-7.38-4.19-7.59-4.31a1.26,1.26,0,0,1-.27-1.94l11.59-14.47,8.17,4.68L356.48,55A1.29,1.29,0,0,0,356.71,57Z"/><path class="cls-4" d="M404.09,5,370,24.62A3,3,0,0,0,368.61,27V40.91L356.48,55a1.22,1.22,0,0,0,.78,2.09l11.35,1.52h0v15c0,.87.61,1.22,1.36.79l34.12-19.65a3,3,0,0,0,1.36-2.37V5.75C405.45,4.88,404.84,4.53,404.09,5Z"/></g></g><g id="_4" data-name="&lt;/&gt;"><path class="cls-22" d="M373,47.69a2,2,0,0,1,.13-.73,5,5,0,0,1,.38-.69l7-11.29.11-.13.08-.06a.21.21,0,0,1,.26,0,.49.49,0,0,1,.11.35V39.5a1.94,1.94,0,0,1-.2.91q-.21.38-.36.6l-3.05,4.69,3.05,1.19a1.86,1.86,0,0,1,.36.17c.13.08.2.31.2.66v4.36a1.07,1.07,0,0,1-.11.46.63.63,0,0,1-.26.31.2.2,0,0,1-.08,0h-.11l-7-3.22a.91.91,0,0,1-.38-.26,1,1,0,0,1-.13-.58Z"/><path class="cls-22" d="M388.22,28.56a4,4,0,0,1,.26-.7,1.29,1.29,0,0,1,.51-.55L391.33,26a.21.21,0,0,1,.27,0,.45.45,0,0,1,.11.35,1.38,1.38,0,0,1,0,.26l-5.9,25.15a3.6,3.6,0,0,1-.25.68A1.3,1.3,0,0,1,385,53l-2.29,1.32a.21.21,0,0,1-.27,0,.49.49,0,0,1-.11-.35.92.92,0,0,1,0-.26Z"/><path class="cls-22" d="M401.05,32.63a1.8,1.8,0,0,1-.13.73,6.09,6.09,0,0,1-.37.69l-7,11.29a.81.81,0,0,1-.11.13l-.08.06a.21.21,0,0,1-.26,0,.47.47,0,0,1-.1-.35V40.82a1.7,1.7,0,0,1,.2-.89c.13-.24.25-.44.35-.59l3.06-4.72-3.06-1.16a1.11,1.11,0,0,1-.35-.19c-.14-.09-.2-.31-.2-.67V28.24a1.06,1.06,0,0,1,.1-.46.68.68,0,0,1,.26-.31l.08,0h.11l7,3.22a.94.94,0,0,1,.37.26.9.9,0,0,1,.13.58Z"/></g></g></g><g id="Character"><g id="Character-2" data-name="Character"><path class="cls-28" d="M314.81,246.15c5.25.81,8.45,3.8,8.61,7.95s-6.39,20-6.39,20c7.23,6.55,12.19,10.89,15.73,13.41,2.78,2,10.37,11.13,10.14,13s-3.28-1.93-5.26-3.86-5.78-2.27-10.05-4.32-18.41-9.15-20.24-11.71S314.81,246.15,314.81,246.15Z"/><path class="cls-11" d="M314.32,246.05a12.32,12.32,0,0,1,4.53,1.07,8.36,8.36,0,0,1,4.7,5.63c.38,2.31-.52,6.16-2.13,10.35a92.18,92.18,0,0,1-4.07,8.81l-3-2.43Z"/><path class="cls-28" d="M348.25,363.32s1.34,9.19,4,12.6c2.42,3.08,4.16,7,7,10.21.62.7,2,2,2.56,2.56a1.12,1.12,0,0,1-.09,1.71c-1.23,1.22-6.54,1.6-9.55-.58s-6-6.37-7.82-8.13L342,379.34a2.41,2.41,0,0,1-.64-2.28c.06-.24.12-.51.19-.83.38-1.72-2-8.72-2-8.72Z"/><path class="cls-29" d="M341.85,381.18a4.69,4.69,0,0,0,.29,1.65,7.28,7.28,0,0,0,2.81,2.1,6.21,6.21,0,0,1,3.08,3.19,11.06,11.06,0,0,0,5.24,5,15.89,15.89,0,0,0,9.41.79c3.92-.78,4.19-3.1,4.19-3.1s.16-2.19-.82-2.51S341.85,381.18,341.85,381.18Z"/><path class="cls-10" d="M340.83,371.59a21.15,21.15,0,0,1,.27,5.65c-.09,1.14-.11,2.94.75,3.94,1.18,1.58,3.68,2.06,5.3,4.22s4,6.07,9.19,7,9-.79,10-2.27,0-2.85-3.3-4.56c-3.54-1.82-8.26-7.37-8.26-7.37a20.34,20.34,0,0,1-3.33-5.53l-1.25-4c-.28-.77-5.83.9-6.42,2l.67,3.54L343,370.86A3.68,3.68,0,0,0,340.83,371.59Z"/><path class="cls-17" d="M353,391.23a6.54,6.54,0,0,1,3.7-5.66c3.84-2.06,6.22-.83,7.42,0,1.44,1,3.5,3.08,2.3,4.65s-3.4,2.52-7.35,2.65A9.45,9.45,0,0,1,353,391.23Z"/><path class="cls-17" d="M347.44,379.3a.45.45,0,0,0,.35-.19c.42-.62,3.2-3,5.94-2.26.14-.32-.1-.64-.66-1a8,8,0,0,0-6,2.76.41.41,0,0,0,.13.59A.37.37,0,0,0,347.44,379.3Z"/><path class="cls-17" d="M355.34,378.87a1.36,1.36,0,0,0-.79-.94,8.17,8.17,0,0,0-5.67,2.78.41.41,0,0,0,.13.59.36.36,0,0,0,.26.07.42.42,0,0,0,.35-.19C350,380.58,352.68,378.35,355.34,378.87Z"/><path class="cls-17" d="M352.5,375a.78.78,0,0,0-.55-1.06c-3.14-.68-6.19,1.84-6.75,2.66a.42.42,0,0,0,.13.59.52.52,0,0,0,.27.07.48.48,0,0,0,.35-.19C346.41,376.38,349.58,373.71,352.5,375Z"/><path class="cls-17" d="M359.7,383.2a2.41,2.41,0,0,0-1.24-1.12,8.07,8.07,0,0,0-5.91,2.77.42.42,0,0,0,.13.59.52.52,0,0,0,.27.07.48.48,0,0,0,.35-.19C353.75,384.66,356.82,382.08,359.7,383.2Z"/><path class="cls-17" d="M351.11,383.44a.45.45,0,0,0,.35-.19c.43-.62,3.15-2.92,5.86-2.29a1.55,1.55,0,0,0-.94-1,8.14,8.14,0,0,0-5.66,2.78.41.41,0,0,0,.12.59A.46.46,0,0,0,351.11,383.44Z"/><path class="cls-11" d="M288.3,290.16c-1,5.79-1.35,9.07.68,14.91s8.8,10.57,17,15.15c6.77,3.78,16.74,9.25,18.75,10.1s2.25,2.06,2,5.88,1.22,10.05,5.6,17.8c4.62,8.18,7.66,14.75,7.66,14.75a28.43,28.43,0,0,1,9.12-3.34s-8.48-37.9-10.26-42.86S318,301.78,318,301.78s1.86-7.94,3.25-13.72Z"/><path class="cls-28" d="M367.32,353.21s2.48,7.66,4.47,11.25a55.51,55.51,0,0,0,7,10.21c.62.69,2,2,2.56,2.55a1.11,1.11,0,0,1-.09,1.71c-1.23,1.22-6.54,1.6-9.55-.58s-6-6.37-7.82-8.13c-.91-.88-1.75-1.73-2.38-2.35a2.41,2.41,0,0,1-.64-2.28c.06-.23.12-.51.19-.83.38-1.72-2-8.72-2-8.72Z"/><path class="cls-11" d="M307.81,278.69c-1,5.79-1.35,9.07.68,14.91s6.78,15.14,15,19.71c6.76,3.79,17,7.65,19,8.54,1.55.69,2.07,2.37,2.73,6.56.59,3.79,2.43,7.92,6.81,15.67,4.62,8.18,7.51,13.21,7.51,13.21a19.2,19.2,0,0,1,8.49-3.11S358.29,318,356.5,313s-14.71-12.26-20.26-15.46-8.65-5.19-15-9.48Z"/><path class="cls-29" d="M361.28,369.67a4.78,4.78,0,0,0,.3,1.65,7.32,7.32,0,0,0,2.8,2.1,6.27,6.27,0,0,1,3.09,3.19,11.1,11.1,0,0,0,5.23,5.05,15.94,15.94,0,0,0,9.42.78c3.91-.78,4.18-3.1,4.18-3.1s.17-2.18-.82-2.51S361.28,369.67,361.28,369.67Z"/><path class="cls-10" d="M360.27,360.08a21.07,21.07,0,0,1,.26,5.65c-.08,1.14-.11,2.94.75,3.94,1.19,1.59,3.69,2.06,5.31,4.22s4,6.07,9.19,7,9-.79,10-2.28,0-2.84-3.31-4.56c-3.53-1.82-8.25-7.36-8.25-7.36a19.91,19.91,0,0,1-3.33-5.54l-1.05-3.77c-.27-.78-5.92.67-6.51,1.78l.7,3.45-1.55-3.24Z"/><path class="cls-17" d="M372.42,379.72a6.54,6.54,0,0,1,3.7-5.66c3.84-2.06,6.23-.83,7.43,0,1.43,1,3.5,3.07,2.3,4.64s-3.4,2.52-7.36,2.65A9.45,9.45,0,0,1,372.42,379.72Z"/><path class="cls-17" d="M366.87,367.8a.48.48,0,0,0,.35-.19c.43-.63,3.21-3,5.95-2.27.13-.32-.1-.64-.67-1a8,8,0,0,0-6,2.76.41.41,0,0,0,.12.59A.54.54,0,0,0,366.87,367.8Z"/><path class="cls-17" d="M374.77,367.36a1.32,1.32,0,0,0-.79-.93,8.15,8.15,0,0,0-5.67,2.78.43.43,0,0,0,.13.59.43.43,0,0,0,.27.06.42.42,0,0,0,.35-.19C369.48,369.07,372.11,366.84,374.77,367.36Z"/><path class="cls-17" d="M371.94,363.48a.79.79,0,0,0-.56-1.07c-3.13-.68-6.18,1.85-6.74,2.66a.41.41,0,0,0,.13.59.48.48,0,0,0,.26.07.45.45,0,0,0,.35-.19C365.84,364.87,369,362.21,371.94,363.48Z"/><path class="cls-17" d="M379.14,371.69a2.54,2.54,0,0,0-1.24-1.12,8.07,8.07,0,0,0-5.91,2.77.43.43,0,0,0,.39.66.45.45,0,0,0,.35-.19C373.19,373.15,376.26,370.57,379.14,371.69Z"/><path class="cls-17" d="M370.55,371.93a.43.43,0,0,0,.35-.19c.42-.61,3.14-2.91,5.85-2.28a1.54,1.54,0,0,0-.93-1,8.17,8.17,0,0,0-5.67,2.78.42.42,0,0,0,.13.59A.38.38,0,0,0,370.55,371.93Z"/><path class="cls-11" d="M322.1,296.61a45.89,45.89,0,0,1-4.09,5.17l1.16,1A16.53,16.53,0,0,0,322.1,296.61Z"/><path class="cls-17" d="M300.23,246.54a35.49,35.49,0,0,0-6.81,1s4.06,4.81,1.45,13.35c-1.85,6-3.33,6.31-6.79,7.47,2.39,10.26-.19,24.23-.19,24.23s6.62,5.35,20.75,4.07c12.41-1.13,12.62-8.62,12.62-8.62l-4.33-4.86.59-9.44s4.6-3.25,4.36-10.72c-.27-8.6-7.23-17-7.23-17a20.35,20.35,0,0,0-4.38-.18S304.36,246.29,300.23,246.54Z"/><path class="cls-30" d="M318.3,293.27c-6.4,1.12-15.56-.25-18.73-3.52s-4.91-11-3.44-15.52,1.2-13,.27-18.05l-.54-.19a24.48,24.48,0,0,1-1,4.92c-1.85,6-3.33,6.31-6.79,7.47,2.17,10-.19,24.23-.19,24.23s6.62,5.35,20.75,4.07c4-.37,7.4-1.46,9.66-3.41Z"/><path class="cls-29" d="M312.08,209.7A17.31,17.31,0,0,0,292.25,224a14.45,14.45,0,0,0,12,16.55l5.65.91c7.87,1.26,13.53-6.48,15.49-14.21C327.66,218.24,321.52,211.21,312.08,209.7Z"/><path class="cls-29" d="M282.12,246.05h0a11.5,11.5,0,0,0,11.51-11.5V219.71h0a11.5,11.5,0,0,0-11.51,11.5Z"/><path class="cls-4" d="M304.9,226.91l-3.14-3.06a2.35,2.35,0,0,1,1.57-1.49l3.15,3.23A2.34,2.34,0,0,1,304.9,226.91Z"/><path class="cls-28" d="M321.28,220.69c1.63,1.35,3.24,4.6,1.49,14.08-1.48,8-4.41,9.61-5.82,10s-3.88-.4-6.27-1.2l-.59,3.33s3.05,7.56,1.91,11.25c-.66,2.15-5.25-1.1-8.09-3.78a26.43,26.43,0,0,1-4.85-7.28l1.85-11.18s-1.67,1.18-3.78-1.36c-1.74-2.1-1.95-5.2-.11-6.55a3.57,3.57,0,0,1,5.44,2s.52-4.1,6.68-5.18C313.75,224,318.88,224.42,321.28,220.69Z"/><path class="cls-29" d="M305.34,226.29c-.75.57-1.29,3.38-1.57,5.17a1.63,1.63,0,0,1-1.77,1.38h0l.46-2.84S302.47,225.48,305.34,226.29Z"/><path class="cls-11" d="M325.72,228.43l-.49,0a14.89,14.89,0,0,0-4.94.41c-1.61.56-2.2,1.12-3.07,1.17s-1.48-.46-3.13-.85a16.74,16.74,0,0,0-5.25.12l-.54.09a1,1,0,0,0-.64.89,1.72,1.72,0,0,0,.43,1,1,1,0,0,1,.14.4,15.91,15.91,0,0,0,.45,2.75,2.73,2.73,0,0,0,.6,1,2.14,2.14,0,0,0,.32.28l.19.12a2.72,2.72,0,0,0,.57.25l.1,0,.15,0,.16,0a2.78,2.78,0,0,0,.52,0h.5a4.12,4.12,0,0,0,3.75-2.26c.62-1.08.59-2.57,1.58-2.62h.18c.73.14.54,1.51.93,2.48a3.62,3.62,0,0,0,.63,1l.16.15a.6.6,0,0,0,.08.08l.09.07.08.06.09.06.07,0,.05,0a2.77,2.77,0,0,0,.84.3h.08a3.84,3.84,0,0,0,1,0,3.54,3.54,0,0,0,3.2-2.09,19.2,19.2,0,0,0,.81-2.82,1.14,1.14,0,0,1,.21-.38,2.2,2.2,0,0,0,.54-1C326.25,228.85,326,228.46,325.72,228.43Zm-10.67,4.49a3.66,3.66,0,0,1-.85,1.51h0a3.4,3.4,0,0,1-2.42,1,2.31,2.31,0,0,1-2.19-1,.33.33,0,0,1-.06-.1.27.27,0,0,1-.06-.1.41.41,0,0,1-.05-.09.36.36,0,0,1,0-.09l0-.07,0-.06a.49.49,0,0,0,0-.11h0c0-.1-.07-.2-.1-.3h0c0-.06,0-.12,0-.18s0-.21,0-.29v-.12c-.11-.73-.21-2.17.19-2.51a4.53,4.53,0,0,1,3-.67h.17a6.06,6.06,0,0,1,.73.09l.28,0a7.15,7.15,0,0,1,.7.2l.21.08.23.1,0,0,.09,0a1.25,1.25,0,0,1,.45.37A3.25,3.25,0,0,1,315.05,232.92Zm9.42-.8a3.74,3.74,0,0,1-1.69,2.44,3,3,0,0,1-1.22.33,2.31,2.31,0,0,1-2.33-1h0a.21.21,0,0,1,0-.06l-.05-.08,0,0a1.17,1.17,0,0,0-.05-.11.78.78,0,0,1-.05-.14l0-.06v0l0-.05s0,0,0,0a3.45,3.45,0,0,1-.12-.55,3.69,3.69,0,0,1,.21-2.23,5.07,5.07,0,0,1,2.72-1.23,5.13,5.13,0,0,1,.74-.09h.65l.2,0,.37,0,.08,0h0l.06,0,.08,0,.11,0,.17.06h0a1.31,1.31,0,0,1,.38.23C325,229.91,324.68,231.37,324.47,232.12Z"/><path class="cls-11" d="M308.08,229.44l-8-1.91a3.64,3.64,0,0,1,2.21,1.95l5.56,1.33Z"/><path class="cls-29" d="M313.42,231.83a1.06,1.06,0,0,1-1.14.95,1.07,1.07,0,0,1-.91-1.18,1,1,0,1,1,2.05.23Z"/><path class="cls-31" d="M312.83,238.3l2.72,1.38a1.5,1.5,0,0,1-2,.73A1.6,1.6,0,0,1,312.83,238.3Z"/><path class="cls-29" d="M322.89,227.74,320.3,227a1.34,1.34,0,0,1,2.59.72Z"/><path class="cls-29" d="M313,227.37l-2.58.78a1.35,1.35,0,0,1,2.58-.78Z"/><path class="cls-29" d="M321.6,231.83a1,1,0,1,1-.91-1.18A1,1,0,0,1,321.6,231.83Z"/><path class="cls-31" d="M317.07,231.27l-.29,6.31,3.29-.89-2.79-5.42A.72.72,0,0,0,317.07,231.27Z"/><path class="cls-31" d="M310.68,243.55c-2.54-.76-7.63-3.15-8.12-5.39a5.5,5.5,0,0,0,1.43,3c1.38,1.63,6.43,4,6.43,4Z"/><path class="cls-32" d="M299.55,310.92v.72a2.06,2.06,0,0,0,1,1.78l19.51,11.22a2,2,0,0,0,2.05,0L357.91,304a2,2,0,0,0,1-1.77v-.5L321.1,323.55Z"/><path class="cls-17" d="M358.94,301.71l-21.22-12.25a1.21,1.21,0,0,0-1.22,0l-36.81,21.26a.27.27,0,0,0,0,.47l21.41,12.37Z"/><path class="cls-28" d="M327.59,292.35c1.74.67,1.68,1.19,3.1,2a7.16,7.16,0,0,0,4.35,1.2,23.23,23.23,0,0,0,2.49,2.06c1.87,1.28,3.73,2.26,6,1.54,2.52-.8.75-3.29,0-4.51s-4.79-4.82-5.59-5.56-4.23-1.24-7.25-2.18Z"/><polygon class="cls-3" points="320.91 321.75 309.46 315.15 342.93 295.83 354.43 302.4 320.91 321.75"/><polygon class="cls-3" points="315.28 303.39 315.5 303.51 321.11 306.75 331.08 300.99 331.29 300.87 325.47 297.51 315.28 303.39"/><polygon class="cls-33" points="315.5 303.51 321.11 306.75 331.08 300.99 325.47 297.75 315.5 303.51"/><path class="cls-32" d="M321.1,323.55v1.37a2,2,0,0,0,1-.28L357.91,304a2,2,0,0,0,1-1.77v-.5Z"/><g class="cls-34"><path class="cls-3" d="M321.1,323.55v1.37a2,2,0,0,0,1-.28L357.91,304a2,2,0,0,0,1-1.77v-.5Z"/></g><path class="cls-32" d="M321.68,323.86a2.44,2.44,0,0,0,2.09-.16l35.63-20.58a2.41,2.41,0,0,0,1.18-1.69l3.9-23.26a2.69,2.69,0,0,0,0-.4,2.4,2.4,0,0,0-.72-1.72l-37,21.38a1.82,1.82,0,0,0-.87,1.25Z"/><path class="cls-17" d="M321.1,323.56l.25.14.33.16,4.22-25.18a1.82,1.82,0,0,1,.87-1.25l37-21.38a2.67,2.67,0,0,0-.49-.38l-37.1,21.42a1.81,1.81,0,0,0-.87,1.26Z"/><path class="cls-4" d="M341.75,302.38a7.91,7.91,0,0,1,3.59-4.62c1.72-1,2.91-.53,2.64,1a7.81,7.81,0,0,1-3.59,4.62C342.67,304.4,341.49,303.94,341.75,302.38Z"/><path class="cls-28" d="M301.43,302.37c-4.23-2.15-19.37-8-23.93-10.5-3.18-1.73-4.86-2.85-4.4-5.79.43-2.74,7.66-25.89,10.15-31.1,2.19-4.57,5.55-6.09,10.56-7.24,3.47,4,1,16-2.43,20.39-2.49,5.39-6.93,15.25-6.93,15.25s7.86,5.33,14.11,9.17a56,56,0,0,0,9.69,4.77c2,.72,5.64,2.55,6.28,3.42A62.48,62.48,0,0,1,318.4,308c.5,1.34,1.79,4.12-.84,4.43-2.39.29-4-1-5.64-2.63a23.62,23.62,0,0,1-2.07-2.48,9.17,9.17,0,0,1-5.1-2.05C303.5,304.18,301.43,302.37,301.43,302.37Z"/><path class="cls-11" d="M294.28,247.35s-5.51.52-8.66,3.73-3.29,5.13-4.85,9.22S276,274.4,276,274.4a11.81,11.81,0,0,0,11.86,4.51l4.18-10.07a24.28,24.28,0,0,0,4.07-10C297.1,252.85,296.68,249.4,294.28,247.35Z"/></g></g></g></g></svg>