<svg width="24" height="7" viewBox="0 0 24 7" fill="none" xmlns="http://www.w3.org/2000/svg">
<path d="M8.75 3.49875C8.75 3.86005 8.82116 4.21781 8.95943 4.55161C9.09769 4.88541 9.30035 5.1887 9.55582 5.44418C9.8113 5.69965 10.1146 5.90231 10.4484 6.04057C10.7822 6.17884 11.14 6.25 11.5013 6.25C11.8625 6.25 12.2203 6.17884 12.5541 6.04057C12.8879 5.90231 13.1912 5.69965 13.4467 5.44418C13.7022 5.1887 13.9048 4.88541 14.0431 4.55161C14.1813 4.21781 14.2525 3.86005 14.2525 3.49875C14.2523 2.76907 13.9623 2.06935 13.4462 1.5535C12.9302 1.03766 12.2303 0.747959 11.5006 0.748124C10.7709 0.74829 10.0712 1.03831 9.55538 1.55439C9.03954 2.07047 8.74984 2.77032 8.75 3.5V3.49875ZM5.5 3.49875C5.49984 3.13761 5.42854 2.78005 5.29019 2.44646C5.15184 2.11288 4.94914 1.80982 4.69366 1.55457C4.43818 1.29933 4.13493 1.0969 3.80122 0.958852C3.46752 0.820803 3.10989 0.749835 2.74875 0.75C2.38762 0.750164 2.03005 0.821457 1.69647 0.959809C1.36288 1.09816 1.05982 1.30086 0.804573 1.55634C0.549328 1.81182 0.346902 2.11507 0.208853 2.44877C0.0708044 2.78248 -0.000163868 3.14011 2.84117e-07 3.50125C0.000331816 4.2306 0.290381 4.92994 0.806341 5.44543C1.3223 5.96092 2.0219 6.25033 2.75125 6.25C3.4806 6.24967 4.17994 5.95962 4.69543 5.44366C5.21092 4.9277 5.50033 4.22809 5.5 3.49875ZM17.5 3.49875C17.5 4.22843 17.7899 4.92822 18.3058 5.44418C18.8218 5.96014 19.5216 6.25 20.2513 6.25C20.9809 6.25 21.6807 5.96014 22.1967 5.44418C22.7126 4.92822 23.0025 4.22843 23.0025 3.49875C23.0025 2.76907 22.7126 2.06928 22.1967 1.55332C21.6807 1.03736 20.9809 0.747499 20.2513 0.747499C19.5216 0.747499 18.8218 1.03736 18.3058 1.55332C17.7899 2.06928 17.5 2.76907 17.5 3.49875Z" fill="black" fill-opacity="0.67"/>
</svg>
