<svg xmlns="http://www.w3.org/2000/svg" viewBox="0 0 471.18 439.91"><defs><style>.cls-1{fill:#f0f0f0;}.cls-2{fill:#e0e0e0;}.cls-3{fill:#27debf;}.cls-4,.cls-6{opacity:0.15;}.cls-14,.cls-5{fill:#fff;}.cls-7{fill:#455a64;}.cls-8{fill:#263238;}.cls-9{fill:#37474f;}.cls-10{fill:#fafafa;}.cls-11{opacity:0.2;}.cls-12,.cls-14{opacity:0.6;}.cls-13{fill:#ffa8a7;}.cls-15{opacity:0.1;}.cls-16{fill:#b16668;}.cls-17{fill:#f28f8f;}</style></defs><title>Asset 1</title><g id="Layer_2" data-name="Layer 2"><g id="Floor"><ellipse id="Floor-2" data-name="Floor" class="cls-1" cx="235.59" cy="303.89" rx="235.59" ry="136.02"/></g><g id="Shadow"><ellipse id="Shadow-2" data-name="Shadow" class="cls-2" cx="186.84" cy="360.06" rx="81.24" ry="46.9"/></g><g id="Plants"><g id="Plants-2" data-name="Plants"><path class="cls-3" d="M417.87,301.38l-9.53-5.5s-2.33-20.4-.78-36.2c2.18-22.2,16.52-48.92,33.62-42.64s-7.84,28.88-13.39,47.72S417.87,301.38,417.87,301.38Z"/><path class="cls-4" d="M417.87,301.38l-9.53-5.5s-2.33-20.4-.78-36.2c2.18-22.2,16.52-48.92,33.62-42.64s-7.84,28.88-13.39,47.72S417.87,301.38,417.87,301.38Z"/><path class="cls-5" d="M412.86,299.07h0a.58.58,0,0,0,.55-.6c-1.67-49.33,22.89-74.15,23.13-74.39a.58.58,0,0,0,0-.82.57.57,0,0,0-.81,0c-.26.25-25.17,25.42-23.48,75.25A.58.58,0,0,0,412.86,299.07Z"/><path class="cls-3" d="M423.86,304.81l-6.78-3.91s-1.16-14,5.71-31c6-14.8,20.8-27.09,28.26-24.51s7.27,7.87,3.63,13.42S428.93,277.57,423.86,304.81Z"/><path class="cls-5" d="M420.28,303.33h0a.59.59,0,0,0,.58-.58c-.14-31.2,29.15-52.28,29.45-52.49a.56.56,0,0,0,.13-.8.58.58,0,0,0-.8-.14c-.3.22-30.07,21.65-29.94,53.43A.58.58,0,0,0,420.28,303.33Z"/></g><g id="Plants-3" data-name="Plants"><path class="cls-3" d="M65.25,289.13l8.8-5.94s3.87-23.05.27-43.29c-5.06-28.46-24.69-37.93-31.69-35s-8.5,11.47,4.57,27.72C54.91,242.24,65,262.63,65.25,289.13Z"/><g class="cls-6"><path d="M65.25,289.13l8.8-5.94s3.87-23.05.27-43.29c-5.06-28.46-24.69-37.93-31.69-35s-8.5,11.47,4.57,27.72C54.91,242.24,65,262.63,65.25,289.13Z"/></g><path class="cls-5" d="M68.27,277.73h-.09a.64.64,0,0,1-.56-.71c3.18-26.79-8.13-55.87-20.44-67.44a.64.64,0,0,1,.88-.92c12.53,11.78,24,41.32,20.83,68.51A.65.65,0,0,1,68.27,277.73Z"/><path class="cls-3" d="M42.21,304.67c-1.4.84-5.48-2.19-6.61-2.92A13.44,13.44,0,0,1,31,296.69a12.64,12.64,0,0,1-1.27-7.56,29.89,29.89,0,0,1,.89-4.05c.35-1.31.7-2.62,1-3.94a9.75,9.75,0,0,0,.5-4c-.39-2.67-2.8-4.5-5-6.07-2.42-1.74-4.95-4.06-5-7.28A11.32,11.32,0,0,1,24.89,257c1.5-2,3.3-3.74,4.65-5.82a7.93,7.93,0,0,0,1.52-5,8.2,8.2,0,0,0-1.15-3.11c-1.18-2.08-2.71-4-3.54-6.21s-.77-5.05,1-6.69c1.41-1.36,3.56-1.58,5.51-1.49a12.63,12.63,0,0,1,5.2,1.71c5.17,2.75,8.21,8.75,13.68,10.84,2.11.8,4.41.94,6.6,1.48s4.45,1.61,5.5,3.61c2.07,3.94-1.54,8.92-.06,13.12,1.32,3.71,5,5.07,7.08,8.4a8,8,0,0,1,1,4.88A23.35,23.35,0,0,1,70,281a73,73,0,0,1-4.37,7.87S42.42,304.54,42.21,304.67Z"/><path class="cls-5" d="M55.73,296.38h0a.64.64,0,0,1-.63-.65c.56-25.32-11.9-53-20.72-61a.66.66,0,0,1,0-.91.63.63,0,0,1,.9,0c9,8.1,21.71,36.26,21.14,61.93A.63.63,0,0,1,55.73,296.38Z"/><path class="cls-5" d="M51.06,265.54l-.18,0c-8.18-2.36-18.32-2.6-18.42-2.6a.64.64,0,0,1-.62-.66.61.61,0,0,1,.65-.62c.1,0,10.4.25,18.74,2.66a.62.62,0,0,1,.43.78A.64.64,0,0,1,51.06,265.54Z"/></g></g><g id="Speech_Bubble" data-name="Speech Bubble"><g id="Speach_Bubble" data-name="Speach Bubble"><path class="cls-7" d="M286.75,271.73l-3.79-2.2a4.78,4.78,0,0,1-2.17-3.75V108.27a4.78,4.78,0,0,1,2.16-3.75L388.3,43.69a4.79,4.79,0,0,1,4.33,0l3.79,2.19a4.78,4.78,0,0,1,2.17,3.75V207.15a4.8,4.8,0,0,1-2.16,3.75L291.08,271.73A4.79,4.79,0,0,1,286.75,271.73Z"/><path class="cls-7" d="M398.57,49.28c-.15-1.12-1.06-1.53-2.15-.9L291.08,109.21a4.48,4.48,0,0,0-1.53,1.61l-8.13-4.69a4.43,4.43,0,0,1,1.53-1.62L388.3,43.69a4.79,4.79,0,0,1,4.33,0l3.79,2.19A4.83,4.83,0,0,1,398.57,49.28Z"/><path class="cls-8" d="M290.71,271.9a4.83,4.83,0,0,1-4-.17l-3.8-2.2a4.8,4.8,0,0,1-2.16-3.75V108.26a4.43,4.43,0,0,1,.63-2.13l8.13,4.69a4.37,4.37,0,0,0-.64,2.14V270.48C288.91,271.72,289.69,272.29,290.71,271.9Z"/><path class="cls-9" d="M288.91,113V270.48c0,1.38,1,1.94,2.17,1.25L396.43,210.9a4.8,4.8,0,0,0,2.16-3.75V49.63c0-1.38-1-1.94-2.16-1.25L291.08,109.21A4.78,4.78,0,0,0,288.91,113Z"/><path class="cls-7" d="M264.31,173c-1.36-.81-7.67-4.4-8-4.59a2,2,0,0,1-.43-3.09l24.91-26.72,8.12,4.66L264,170A2,2,0,0,0,264.31,173Z"/><path class="cls-9" d="M288.91,143.27,264,170a2,2,0,0,0,1.63,3.36l23.27-1.91Z"/><path class="cls-3" d="M343.75,95.18C356,88.09,366,93.84,366,108s-10,31.41-22.23,38.5-22.23,1.34-22.23-12.83S331.47,102.27,343.75,95.18Z"/><path class="cls-5" d="M343.6,106.34c4-2.3,7.21-.44,7.21,4.16A16,16,0,0,1,343.6,123c-4,2.29-7.22.43-7.22-4.17A15.93,15.93,0,0,1,343.6,106.34Z"/><path class="cls-5" d="M357.81,130.86c0-7.55-5.31-10.61-11.85-6.84l-4.09,2.37c-6.54,3.77-11.85,13-11.85,20.52V149a12.13,12.13,0,0,0,3.82.59,20.14,20.14,0,0,0,9.91-3,43.81,43.81,0,0,0,14.06-13.9Z"/><path class="cls-3" d="M329.67,216.71l28.16-16.26c1.2-.69,2.17-.13,2.17,1.25v9.07a4.78,4.78,0,0,1-2.17,3.75l-28.16,16.26c-1.2.69-2.17.13-2.17-1.25v-9.07A4.78,4.78,0,0,1,329.67,216.71Z"/><path class="cls-10" d="M315.88,196.45l55.74-32.18c1.43-.83,2.6-.16,2.6,1.5v3.37a5.74,5.74,0,0,1-2.6,4.5l-55.74,32.18c-1.43.83-2.59.16-2.59-1.5V201A5.74,5.74,0,0,1,315.88,196.45Z"/><path class="cls-10" d="M322.4,173.16c.76-.44,1.35-.51,1.77-.2s.63,1,.63,2.06a5.92,5.92,0,0,1-.63,2.79,4.42,4.42,0,0,1-1.77,1.86l-1.5.87v3.23a.76.76,0,0,1-.08.32.46.46,0,0,1-.18.22l-.76.44a.14.14,0,0,1-.18,0,.32.32,0,0,1-.07-.23v-9.36a.77.77,0,0,1,.07-.32.51.51,0,0,1,.18-.22Zm-1.5,5.57,1.45-.84a2.34,2.34,0,0,0,.86-.82,2.48,2.48,0,0,0,.32-1.32c0-.54-.11-.85-.32-.94a1,1,0,0,0-.86.19l-1.45.84Z"/><path class="cls-10" d="M329,169.35c.1-.06.18-.06.23,0a.86.86,0,0,1,.13.3l2.31,7.82v.1a.7.7,0,0,1-.07.31.46.46,0,0,1-.18.22l-.68.39c-.12.08-.21.09-.26,0a.4.4,0,0,1-.1-.18L330,177l-3,1.72-.4,1.84a2.34,2.34,0,0,1-.11.3.56.56,0,0,1-.26.27l-.68.39a.14.14,0,0,1-.18,0,.32.32,0,0,1-.07-.23.37.37,0,0,1,0-.11l2.3-10.48a2.27,2.27,0,0,1,.13-.45A.56.56,0,0,1,328,170Zm.52,6.06-1-3.53-1,4.72Z"/><path class="cls-10" d="M335.16,165.65a2.37,2.37,0,0,1,1.11-.38,1.27,1.27,0,0,1,.8.19,1.22,1.22,0,0,1,.49.58,2.11,2.11,0,0,1,.18.78.66.66,0,0,1-.07.33.48.48,0,0,1-.18.21l-.66.38c-.11.06-.19.08-.24,0a.47.47,0,0,1-.15-.16.73.73,0,0,0-.42-.39,1.13,1.13,0,0,0-.86.23,2.87,2.87,0,0,0-.46.34,2.44,2.44,0,0,0-.39.46,2.53,2.53,0,0,0-.26.52,1.7,1.7,0,0,0-.09.54,1.06,1.06,0,0,0,.09.5.39.39,0,0,0,.3.18,1.64,1.64,0,0,0,.56,0l.87-.19a3.28,3.28,0,0,1,1-.12,1.12,1.12,0,0,1,.67.22,1.19,1.19,0,0,1,.38.59,3.13,3.13,0,0,1,.13,1,4.73,4.73,0,0,1-.19,1.32,5.35,5.35,0,0,1-.53,1.26,5.76,5.76,0,0,1-.86,1.12,5.15,5.15,0,0,1-1.14.89,2.87,2.87,0,0,1-1,.39,1.61,1.61,0,0,1-.86-.07,1.3,1.3,0,0,1-.59-.55,2.24,2.24,0,0,1-.26-1,.71.71,0,0,1,.07-.32.53.53,0,0,1,.19-.22l.65-.38c.11-.06.19-.08.25,0s.1.08.14.17a1.35,1.35,0,0,0,.16.29.53.53,0,0,0,.25.19,1,1,0,0,0,.4,0,2.35,2.35,0,0,0,.6-.26,3.19,3.19,0,0,0,.55-.38,2.68,2.68,0,0,0,.78-1,1.68,1.68,0,0,0,.12-.63.58.58,0,0,0-.13-.44.5.5,0,0,0-.4-.12,3.41,3.41,0,0,0-.67.11c-.26.06-.56.13-.91.19a2.4,2.4,0,0,1-.82.06.89.89,0,0,1-.58-.25,1.28,1.28,0,0,1-.35-.62,4.27,4.27,0,0,1-.11-1.05,4.51,4.51,0,0,1,.19-1.31,5.24,5.24,0,0,1,.52-1.24,5.54,5.54,0,0,1,.78-1.07A4.2,4.2,0,0,1,335.16,165.65Z"/><path class="cls-10" d="M341.73,161.86a2.37,2.37,0,0,1,1.11-.38,1.36,1.36,0,0,1,.8.19,1.26,1.26,0,0,1,.48.58,2.11,2.11,0,0,1,.18.78.55.55,0,0,1-.07.33.48.48,0,0,1-.18.21l-.66.38c-.1.06-.18.08-.24,0a.38.38,0,0,1-.14-.16.78.78,0,0,0-.43-.39,1.11,1.11,0,0,0-.85.23,2.55,2.55,0,0,0-.47.34,2.39,2.39,0,0,0-.38.46,2.11,2.11,0,0,0-.26.52,1.71,1.71,0,0,0-.1.54,1.06,1.06,0,0,0,.09.5.39.39,0,0,0,.3.18,1.63,1.63,0,0,0,.56,0c.24,0,.52-.11.87-.19a3.7,3.7,0,0,1,1-.12,1.1,1.1,0,0,1,.67.22,1.28,1.28,0,0,1,.39.59,3.48,3.48,0,0,1,.12,1,4.73,4.73,0,0,1-.19,1.32,5.35,5.35,0,0,1-.53,1.26,5.73,5.73,0,0,1-.86,1.13,5.29,5.29,0,0,1-1.13.88,2.91,2.91,0,0,1-1,.39,1.58,1.58,0,0,1-.85-.07,1.27,1.27,0,0,1-.6-.55,2.12,2.12,0,0,1-.25-1,.52.52,0,0,1,.07-.32.46.46,0,0,1,.18-.22l.66-.38c.1-.06.19-.08.24-.05a.25.25,0,0,1,.14.18,2.54,2.54,0,0,0,.16.28.55.55,0,0,0,.26.19,1,1,0,0,0,.4,0,2.35,2.35,0,0,0,.6-.26,3.56,3.56,0,0,0,.54-.38,2.32,2.32,0,0,0,.46-.48,2.61,2.61,0,0,0,.32-.56,1.68,1.68,0,0,0,.12-.63.58.58,0,0,0-.13-.44.5.5,0,0,0-.4-.12,3.22,3.22,0,0,0-.66.11c-.26.06-.57.13-.91.19a2.46,2.46,0,0,1-.83.06.91.91,0,0,1-.58-.25,1.27,1.27,0,0,1-.34-.62,3.79,3.79,0,0,1-.12-1,4.94,4.94,0,0,1,.19-1.31,5.69,5.69,0,0,1,.52-1.24,5.19,5.19,0,0,1,.79-1.07A4,4,0,0,1,341.73,161.86Z"/><path class="cls-10" d="M349,163.11l-.81,4.79a1.77,1.77,0,0,1-.12.42.51.51,0,0,1-.21.26l-.76.45c-.1.05-.17.05-.22,0a.49.49,0,0,1-.11-.29l-1.21-8.44s0-.08,0-.11a.79.79,0,0,1,.08-.32.51.51,0,0,1,.18-.22l.69-.4a.19.19,0,0,1,.18,0c.06,0,.1.1.12.23l.79,5.69.69-4.27a1.4,1.4,0,0,1,.09-.31.53.53,0,0,1,.24-.3l.77-.45q.17-.09.24,0a.5.5,0,0,1,.09.2l.7,3.47.79-6.6a1,1,0,0,1,.11-.37.66.66,0,0,1,.18-.19l.69-.4a.14.14,0,0,1,.18,0,.29.29,0,0,1,.08.23.57.57,0,0,1,0,.12l-1.2,9.83a1.72,1.72,0,0,1-.11.42.58.58,0,0,1-.22.26l-.77.44c-.09.06-.16,0-.21,0a1.41,1.41,0,0,1-.12-.29Z"/><path class="cls-10" d="M353.7,158.87a10.32,10.32,0,0,1,.2-1.65,7.73,7.73,0,0,1,.51-1.54,6.39,6.39,0,0,1,.85-1.33,4.52,4.52,0,0,1,1.21-1,2.27,2.27,0,0,1,1.19-.39,1.24,1.24,0,0,1,.85.35,2.32,2.32,0,0,1,.51.95,5.74,5.74,0,0,1,.21,1.41c0,.19,0,.39,0,.61s0,.44,0,.68,0,.47,0,.69,0,.43,0,.62a10.07,10.07,0,0,1-.2,1.64,7.52,7.52,0,0,1-.51,1.54,5.83,5.83,0,0,1-.86,1.33,4.52,4.52,0,0,1-1.19,1,2.38,2.38,0,0,1-1.21.39,1.19,1.19,0,0,1-.85-.34,2.2,2.2,0,0,1-.51-.95,6.38,6.38,0,0,1-.2-1.41c0-.18,0-.38,0-.6s0-.45,0-.69,0-.46,0-.69S353.69,159.06,353.7,158.87Zm4.26-2.39a1.82,1.82,0,0,0-.44-1.36c-.26-.23-.62-.22-1,0a2.67,2.67,0,0,0-1.06,1.18,4.4,4.4,0,0,0-.44,1.87c0,.37,0,.78,0,1.23s0,.85,0,1.21a1.81,1.81,0,0,0,.44,1.36c.26.22.62.21,1.06,0a2.68,2.68,0,0,0,1-1.17,4.32,4.32,0,0,0,.44-1.86c0-.38,0-.79,0-1.24S358,156.84,358,156.48Z"/><path class="cls-10" d="M363.62,149.36c.79-.45,1.38-.52,1.79-.19a2.45,2.45,0,0,1,.61,2,6.41,6.41,0,0,1-.31,2,5,5,0,0,1-.93,1.64l1.3,2.83a.78.78,0,0,1,0,.14.58.58,0,0,1-.06.26.39.39,0,0,1-.14.18l-.8.46c-.13.08-.22.08-.28,0a.68.68,0,0,1-.13-.18l-1.23-2.67-1.25.73v3.37a.74.74,0,0,1-.07.32.59.59,0,0,1-.18.22l-.76.44a.14.14,0,0,1-.18,0,.29.29,0,0,1-.08-.23V151.3A.76.76,0,0,1,361,151a.46.46,0,0,1,.18-.22Zm-1.41,5.38,1.36-.79a2.52,2.52,0,0,0,.86-.79,2.26,2.26,0,0,0,.32-1.28c0-.54-.11-.84-.32-.9a1.18,1.18,0,0,0-.86.22l-1.36.79Z"/><path class="cls-10" d="M370.29,145.51a2.65,2.65,0,0,1,1.21-.42,1.2,1.2,0,0,1,.85.31,2.1,2.1,0,0,1,.53,1,6.36,6.36,0,0,1,.22,1.52c0,.7,0,1.42,0,2.15a10,10,0,0,1-.22,1.77,7.42,7.42,0,0,1-.52,1.57,5.9,5.9,0,0,1-.84,1.28,4.6,4.6,0,0,1-1.18,1L368,157a.14.14,0,0,1-.18,0,.29.29,0,0,1-.08-.23v-9.35a.76.76,0,0,1,.08-.32.46.46,0,0,1,.18-.22Zm1.54,3.11a3.13,3.13,0,0,0-.12-.8,1.09,1.09,0,0,0-.29-.52.65.65,0,0,0-.48-.19,1.42,1.42,0,0,0-.7.24l-1.26.72v6.52l1.31-.75a2.6,2.6,0,0,0,.67-.56,3.19,3.19,0,0,0,.47-.72,4.12,4.12,0,0,0,.28-.86,5,5,0,0,0,.12-.94C371.86,150,371.86,149.32,371.83,148.62Z"/></g></g><g id="Question_Marks" data-name="Question Marks"><g id="Question_Marks-2" data-name="Question Marks"><path class="cls-3" d="M233,.38a18.4,18.4,0,0,1,4.94,1.85,14.19,14.19,0,0,1,3.93,3.12,11.41,11.41,0,0,1,2.32,4.2,10,10,0,0,1,.1,5.09,10.36,10.36,0,0,1-1.55,3.72,12.4,12.4,0,0,1-2.44,2.56,19.45,19.45,0,0,1-2.91,1.87l-2.88,1.53A15.76,15.76,0,0,0,232,25.91,4.72,4.72,0,0,0,230.48,28a2.14,2.14,0,0,1-.73.94,1.28,1.28,0,0,1-1.1.23l-4.24-.94a1.57,1.57,0,0,1-1-.69,1.29,1.29,0,0,1-.19-1.15A10.12,10.12,0,0,1,225,22.74a14.12,14.12,0,0,1,2.61-2.52,20,20,0,0,1,3-1.82c1-.52,2-1,2.87-1.5a12.48,12.48,0,0,0,2.27-1.55,3.61,3.61,0,0,0,1.21-2,4.32,4.32,0,0,0-1-3.88,7.75,7.75,0,0,0-4.44-2.41q-4.74-1.05-8,3.2a3.43,3.43,0,0,1-.78.79,1.48,1.48,0,0,1-1.11.07l-4.51-1a1.24,1.24,0,0,1-.79-.52,1.22,1.22,0,0,1-.17-1,8.94,8.94,0,0,1,2.08-3.72,13.93,13.93,0,0,1,3.89-3,16.81,16.81,0,0,1,5.11-1.7A14.72,14.72,0,0,1,233,.38Zm-4.79,32.17a1.56,1.56,0,0,1,1.17,1.84l-1.08,4.9a1.48,1.48,0,0,1-.68,1,1.46,1.46,0,0,1-1.16.22l-4.8-1.07a1.45,1.45,0,0,1-1-.68,1.47,1.47,0,0,1-.21-1.15l1.09-4.91a1.56,1.56,0,0,1,1.84-1.17Z"/><path class="cls-3" d="M238.31,47.29a12.69,12.69,0,0,1,3.64-.08,10,10,0,0,1,3.32,1,8,8,0,0,1,2.56,2.1,7.59,7.59,0,0,1,1.32,6,8.24,8.24,0,0,1-.91,2.27,12.63,12.63,0,0,1-1.38,1.94l-1.45,1.72a10.86,10.86,0,0,0-1.17,1.65,3.09,3.09,0,0,0-.46,1.71,1.69,1.69,0,0,1-.23.8.94.94,0,0,1-.65.42l-3,.49a1.12,1.12,0,0,1-.81-.19.88.88,0,0,1-.41-.69,6.76,6.76,0,0,1,.2-2.77,9.7,9.7,0,0,1,1-2.29,13.27,13.27,0,0,1,1.44-1.93c.53-.59,1-1.16,1.46-1.7a8.51,8.51,0,0,0,1.06-1.57,2.51,2.51,0,0,0,.27-1.58,3,3,0,0,0-1.65-2.23,5.39,5.39,0,0,0-3.46-.42,5.2,5.2,0,0,0-4.33,4.11,2.26,2.26,0,0,1-.3.71,1.06,1.06,0,0,1-.68.33l-3.16.51a.86.86,0,0,1-.64-.13.82.82,0,0,1-.35-.58A6,6,0,0,1,230,54a9.59,9.59,0,0,1,1.72-2.92,11.76,11.76,0,0,1,2.84-2.4A10.22,10.22,0,0,1,238.31,47.29Zm5.16,21.84a1.06,1.06,0,0,1,.79.19,1,1,0,0,1,.44.69l.56,3.43a1.07,1.07,0,0,1-.88,1.22l-3.35.55a1.07,1.07,0,0,1-.79-.19,1,1,0,0,1-.43-.69l-.56-3.43a1,1,0,0,1,.19-.79,1,1,0,0,1,.69-.43Z"/><g class="cls-11"><path d="M238.31,47.29a12.69,12.69,0,0,1,3.64-.08,10,10,0,0,1,3.32,1,8,8,0,0,1,2.56,2.1,7.59,7.59,0,0,1,1.32,6,8.24,8.24,0,0,1-.91,2.27,12.63,12.63,0,0,1-1.38,1.94l-1.45,1.72a10.86,10.86,0,0,0-1.17,1.65,3.09,3.09,0,0,0-.46,1.71,1.69,1.69,0,0,1-.23.8.94.94,0,0,1-.65.42l-3,.49a1.12,1.12,0,0,1-.81-.19.88.88,0,0,1-.41-.69,6.76,6.76,0,0,1,.2-2.77,9.7,9.7,0,0,1,1-2.29,13.27,13.27,0,0,1,1.44-1.93c.53-.59,1-1.16,1.46-1.7a8.51,8.51,0,0,0,1.06-1.57,2.51,2.51,0,0,0,.27-1.58,3,3,0,0,0-1.65-2.23,5.39,5.39,0,0,0-3.46-.42,5.2,5.2,0,0,0-4.33,4.11,2.26,2.26,0,0,1-.3.71,1.06,1.06,0,0,1-.68.33l-3.16.51a.86.86,0,0,1-.64-.13.82.82,0,0,1-.35-.58A6,6,0,0,1,230,54a9.59,9.59,0,0,1,1.72-2.92,11.76,11.76,0,0,1,2.84-2.4A10.22,10.22,0,0,1,238.31,47.29Zm5.16,21.84a1.06,1.06,0,0,1,.79.19,1,1,0,0,1,.44.69l.56,3.43a1.07,1.07,0,0,1-.88,1.22l-3.35.55a1.07,1.07,0,0,1-.79-.19,1,1,0,0,1-.43-.69l-.56-3.43a1,1,0,0,1,.19-.79,1,1,0,0,1,.69-.43Z"/></g><path class="cls-3" d="M266.58,52.67a1.22,1.22,0,0,1,.51.82,1.2,1.2,0,0,1-.21.94l-2.38,3.35a1.22,1.22,0,0,1-.82.51,1.2,1.2,0,0,1-.94-.21l-3.28-2.33a1.17,1.17,0,0,1-.5-.82,1.2,1.2,0,0,1,.21-.94l2.38-3.35a1.27,1.27,0,0,1,1.76-.3ZM280.43,30a15,15,0,0,1,3.14,3,11.55,11.55,0,0,1,2,3.6,9.21,9.21,0,0,1,.41,3.9,8.15,8.15,0,0,1-1.54,3.87A8.43,8.43,0,0,1,282,46.61a10.15,10.15,0,0,1-2.65,1.15,17.8,17.8,0,0,1-2.78.49c-.94.07-1.83.15-2.66.23a13,13,0,0,0-2.36.41A3.86,3.86,0,0,0,269.77,50a1.7,1.7,0,0,1-.85.48,1,1,0,0,1-.9-.18l-2.9-2.06a1.32,1.32,0,0,1-.53-.83,1.07,1.07,0,0,1,.23-.93,8.31,8.31,0,0,1,2.49-2.16,11.42,11.42,0,0,1,2.76-1.07,16.43,16.43,0,0,1,2.83-.43q1.41-.09,2.64-.21a10.41,10.41,0,0,0,2.21-.44A3,3,0,0,0,279.29,41a3.55,3.55,0,0,0,.47-3.25,6.35,6.35,0,0,0-2.57-3.23q-3.24-2.31-7.07-.15a2.5,2.5,0,0,1-.84.34,1.18,1.18,0,0,1-.86-.29l-3.08-2.19a1,1,0,0,1-.43-.65,1,1,0,0,1,.19-.78,7.09,7.09,0,0,1,2.75-2.14,11.4,11.4,0,0,1,3.88-1,13.9,13.9,0,0,1,4.4.35A12,12,0,0,1,280.43,30Z"/><g class="cls-12"><path class="cls-5" d="M266.58,52.67a1.22,1.22,0,0,1,.51.82,1.2,1.2,0,0,1-.21.94l-2.38,3.35a1.22,1.22,0,0,1-.82.51,1.2,1.2,0,0,1-.94-.21l-3.28-2.33a1.17,1.17,0,0,1-.5-.82,1.2,1.2,0,0,1,.21-.94l2.38-3.35a1.27,1.27,0,0,1,1.76-.3ZM280.43,30a15,15,0,0,1,3.14,3,11.55,11.55,0,0,1,2,3.6,9.21,9.21,0,0,1,.41,3.9,8.15,8.15,0,0,1-1.54,3.87A8.43,8.43,0,0,1,282,46.61a10.15,10.15,0,0,1-2.65,1.15,17.8,17.8,0,0,1-2.78.49c-.94.07-1.83.15-2.66.23a13,13,0,0,0-2.36.41A3.86,3.86,0,0,0,269.77,50a1.7,1.7,0,0,1-.85.48,1,1,0,0,1-.9-.18l-2.9-2.06a1.32,1.32,0,0,1-.53-.83,1.07,1.07,0,0,1,.23-.93,8.31,8.31,0,0,1,2.49-2.16,11.42,11.42,0,0,1,2.76-1.07,16.43,16.43,0,0,1,2.83-.43q1.41-.09,2.64-.21a10.41,10.41,0,0,0,2.21-.44A3,3,0,0,0,279.29,41a3.55,3.55,0,0,0,.47-3.25,6.35,6.35,0,0,0-2.57-3.23q-3.24-2.31-7.07-.15a2.5,2.5,0,0,1-.84.34,1.18,1.18,0,0,1-.86-.29l-3.08-2.19a1,1,0,0,1-.43-.65,1,1,0,0,1,.19-.78,7.09,7.09,0,0,1,2.75-2.14,11.4,11.4,0,0,1,3.88-1,13.9,13.9,0,0,1,4.4.35A12,12,0,0,1,280.43,30Z"/></g></g></g><g id="Character"><g id="Character-2" data-name="Character"><path class="cls-8" d="M192.12,141.19H156.59V55.11a28.19,28.19,0,0,1,28.19-28.19h3.28a28.19,28.19,0,0,1,28.19,28.19v62A24.13,24.13,0,0,1,192.12,141.19Z"/><path class="cls-8" d="M153.13,348.42a66.14,66.14,0,0,0-1,10.8c-.13,6.56-1.33,8.89-1.49,14.27-.19,6.15.88,8.46,3.37,11.91s9,6.6,11.82.75,2.41-9.67,1.52-15.7c-.91-6.24-1-9.68-1.56-14.44-.46-4.19-1-7.38-1-7.38Z"/><path class="cls-13" d="M171.75,304.85l-21.6-.39c.32,14.42,2.61,30.43,3,44,.08,2.55-.06,19.79.9,25,1.45,7.88,10.79,6.81,11.29,2.1s-.6-24.84-.57-26.92c-.09-8.68,4-23.33,6.11-38.9C171,309,171.65,305.6,171.75,304.85Z"/><path class="cls-8" d="M199.5,337.2s-.85-.46-1,.45c-.21,1.08-.53,3.32-1,5.09-.62,2.47-1.14,6.54-.77,8.56s5.07,4.6,8.12,5.54a24.74,24.74,0,0,1,10,6c3,2.84,9.53,5.52,14,5.49,5.25,0,8.91-1.75,10.64-4.56s-1.58-3.15-7.58-7l-4.65-3c-9.51-6.21-13-9.53-15.67-15.74Z"/><path class="cls-13" d="M211.67,333.36c-.16-4.47,2.9-42.35,2.9-42.35l-20.51,9.35c4.39,26.23,5.33,32.41,5.4,36.7h0a3.81,3.81,0,0,0-.11,1.1c0,5.09,5.77,7.84,10.25,11.24a84.25,84.25,0,0,0,12.13,7.92c3.26,1.63,9.88,1.78,10.7-.31-5.46-4.17-13.4-10.41-17.74-15.17C212.62,339.57,211.83,337.82,211.67,333.36Z"/><path class="cls-7" d="M159,164.14c-7.88,17.3-7.88,30.67-6.57,52.74,1.19,20.25,3.09,38.07,3.09,38.07-.3,3.59-5.29,10.6-5.94,26.48-.6,14.84,1,33.71,1,33.71s11.21,6.21,19.5-.06c0,0,8-38.19,10.34-56.76,2-16.22,5.6-36.93,5.6-36.93l7.53,36.84a96,96,0,0,0-3.54,16c-1.06,10.93,5.06,32.39,5.06,32.39s11.58,3.45,18.65-2.82c0,0,2.64-34.89,3.63-48.05,1.32-17.63-1.46-65.35-3.63-90.62Z"/><path class="cls-8" d="M186,221.39l3.11-27.74s13.94-1.86,20.26-7.8A22.9,22.9,0,0,1,193,196.24l-4.5,25.8,5.09,36.19Z"/><path class="cls-13" d="M242.49,157.32a120.34,120.34,0,0,0,.76-15.25c-.31-4.4-1.1-5.11-7.25-12.91-8.3-10.53-15.39-20-22.89-29.41-5.36-6.72-11-7.75-16.48-7.45-3.84.21,3.66,18.68,7.43,29.61l21.55,23.18a4.6,4.6,0,0,1,.86,3.17L225.15,168l6.45,8.64S241.37,168.2,242.49,157.32Z"/><path class="cls-3" d="M175.87,92.9h0c-4.17.29-11.75.95-11.75.95-4.37,2.44-5.48,4.45-6.29,10.26-.35,2.47,1.67,9.06,3.4,18.43l3.28,17.37-.36,8.62c-1.7,5.26-5.55,11.79-9,21.42,16.7,9.32,30.7,9.67,43.4,8,9.68-1.25,14.81-3.59,16.52-5.91-.36-9.51-1-15.39-1.2-25.33-.07-4.17.18-8.39.34-13.19,6.5-5.34,6.58-14.21,3-20-8.23-13.33-16.24-21.72-21.54-21.29Z"/><path class="cls-14" d="M175.87,92.9h0c-4.17.29-11.75.95-11.75.95-4.37,2.44-5.48,4.45-6.29,10.26-.35,2.47,1.67,9.06,3.4,18.43l3.28,17.37-.36,8.62c-1.7,5.26-5.55,11.79-9,21.42,16.7,9.32,30.7,9.67,43.4,8,9.68-1.25,14.81-3.59,16.52-5.91-.36-9.51-1-15.39-1.2-25.33-.07-4.17.18-8.39.34-13.19,6.5-5.34,6.58-14.21,3-20-8.23-13.33-16.24-21.72-21.54-21.29Z"/><path class="cls-15" d="M201.34,133.7s-7.62,5.92-16.33,2.83a14.88,14.88,0,0,1-10-10.69s-.92,9.95,10.05,13.34C195.69,142.45,201.34,133.7,201.34,133.7Z"/><path class="cls-13" d="M211.68,65.59c-.33,14.44-5,18-7.36,19s-6.88.4-11.28-.33V93s5.08,5.32,4.7,9.29-8,4.42-13.68.53a43,43,0,0,1-8.43-7.61,3.09,3.09,0,0,1-.73-2V72.79s-2.41,2.55-6.67-.37a7.86,7.86,0,0,1-2-11.42c1.86-2.19,6.58-2.34,8.84,1,1.28,2.49,1.45,5,2.88,4,3.8-2.74,1.76-9,6.35-12h0a33,33,0,0,1,4.68-2c8.19-2.83,15.29-5.21,17-10.81C209.2,43,212.08,48.56,211.68,65.59Z"/><circle class="cls-16" cx="195.53" cy="76.59" r="1.9"/><path class="cls-8" d="M194.27,63.4a2,2,0,1,1-2.1-2A2,2,0,0,1,194.27,63.4Z"/><path class="cls-8" d="M209.42,63.6a1.85,1.85,0,0,1-1.72,2,1.74,1.74,0,0,1-1.91-1.8,1.82,1.82,0,1,1,3.63-.17Z"/><path class="cls-7" d="M191.7,68.54a6.51,6.51,0,0,1-6.51-6.5c0-4.42,4.56-4.42,6.51-4.42s6.5,0,6.5,4.42A6.51,6.51,0,0,1,191.7,68.54Zm0-9.9c-3.95,0-5.48,1-5.48,3.4a5.48,5.48,0,0,0,11,0C197.18,59.6,195.64,58.64,191.7,58.64Z"/><path class="cls-7" d="M208.21,68.54A6.51,6.51,0,0,1,201.7,62c0-4.42,4.56-4.42,6.51-4.42s6.5,0,6.5,4.42A6.51,6.51,0,0,1,208.21,68.54Zm0-9.9c-3.94,0-5.48,1-5.48,3.4a5.48,5.48,0,1,0,11,0C213.69,59.6,212.15,58.64,208.21,58.64Z"/><polygon class="cls-17" points="199.21 59.94 199.53 72.09 205.92 70.11 199.21 59.94"/><path class="cls-17" d="M193,84.29c-4.64-.61-14.19-3.35-15.68-7.13A9.78,9.78,0,0,0,180.7,82c2.85,2.45,12.33,5.2,12.33,5.2Z"/><path class="cls-8" d="M193.26,54.05,189,56.63a2.61,2.61,0,0,1,.86-3.5A2.43,2.43,0,0,1,193.26,54.05Z"/><path class="cls-8" d="M210.51,56.92l-4.72-1.64a2.4,2.4,0,0,1,3.1-1.59A2.62,2.62,0,0,1,210.51,56.92Z"/><path class="cls-7" d="M197.69,62.56a.51.51,0,0,1-.51-.52c0-.83,1.64-1.37,3.12-1.37s2.43.54,2.43,1.37a.52.52,0,0,1-1,0,2.06,2.06,0,0,0-1.4-.34,5.91,5.91,0,0,0-2.1.35A.51.51,0,0,1,197.69,62.56Z"/><path class="cls-7" d="M185.72,62.12h-.06l-11.43-1a5.54,5.54,0,0,0-1.87-1.22l13.42,1.24a.52.52,0,0,1,.45.57A.51.51,0,0,1,185.72,62.12Z"/><path class="cls-13" d="M138.79,74c3.74-5,6.29-8.77,9.7-13.05,1.94-2.43,3.18-4.17,5-6.66,1.28-1.72,2-3.17,3.46-3.7a12,12,0,0,0,4.17-2.86,25.11,25.11,0,0,0,2-2.52,37.6,37.6,0,0,1,7.56-7.61c3-2.26,6.35-4,9.44-6.15,1.84-1.29,3.81-3.43,1.57-5.43a5.21,5.21,0,0,0-2.39-1.14c-5.45-1.19-10.19.68-15.52,2A44.94,44.94,0,0,0,157,29.25,12.05,12.05,0,0,0,154,31a15.83,15.83,0,0,0-3.09,4.42c-2.39,4.21-7.35,7.93-10.84,11.22C136,50.46,132.34,54,127.67,58.23c-4.2,3.83-8.31,7.35-12.16,11.53-3.19,3.45-2,6.15-1.58,7.09,2.6,5.34,5.51,7.26,9,10.57,6,5.73,26.75,22.22,33.62,27.67a11.14,11.14,0,0,1,3.37,4.4l1.32,3.05c7.84,1.44,13.07-10.33,6.58-24.5A14.87,14.87,0,0,0,163,92.29C154.85,86.32,138.79,74,138.79,74Z"/><path class="cls-17" d="M138.79,74a20.63,20.63,0,0,1-9.58,6.59s5,1.28,11.85-4.87Z"/><path class="cls-7" d="M240.45,146.89h0l-1.28-1.1h0a1.43,1.43,0,0,0-1.31-.14L224,149.43a5.12,5.12,0,0,0-3.12,2.92l-10,28.83a1.32,1.32,0,0,0,.18,1.47h0l1.32,1.14v0a1.42,1.42,0,0,0,1.33.16l13.89-3.77a5.12,5.12,0,0,0,3.12-2.92c2-5.67,8-23.16,10-28.83C241,147.7,240.83,147.17,240.45,146.89Z"/><path class="cls-3" d="M212.16,182.28l10-28.83a5.08,5.08,0,0,1,3.12-2.91l13.88-3.78c1.29-.35,2,.39,1.54,1.65-2,5.67-8,23.16-10,28.83a5.12,5.12,0,0,1-3.12,2.92l-13.89,3.77C212.42,184.28,211.73,183.54,212.16,182.28Z"/><path class="cls-9" d="M223.77,151.34a5,5,0,0,0-1.62,2.12l-10,28.82a1.36,1.36,0,0,0,.14,1.44l-1.24-1.06h0a1.32,1.32,0,0,1-.19-1.48l10-28.83a4.91,4.91,0,0,1,1.49-2Z"/><path class="cls-17" d="M236.64,160c-1,2.93-4.47,4.89-10.21,6.25s-8.91,7.45-8,9.3,10.19,3.58,13.9,3,7.43-5.89,8.56-7.55,2.43-13.24,1.24-14.83-3.7-1.34-3.7-1.34Z"/></g></g></g></svg>