<svg xmlns="http://www.w3.org/2000/svg" viewBox="0 0 615.09 492.72"><defs><style>.cls-1{fill:#bdefe9;}.cls-2{fill:#8fd8d1;}.cls-3{fill:#f4d87e;}.cls-4{fill:#097c71;}.cls-5{fill:#1c938a;}.cls-6{fill:#00564c;}.cls-7{fill:#c13633;}.cls-8{fill:#d54b42;}.cls-9{fill:#db5956;}.cls-10{fill:#d1d3d4;}.cls-11{fill:#a7a9ac;}.cls-12{fill:#bcbec0;}.cls-13{fill:#f1f2f2;}.cls-14{fill:#3bafa9;}.cls-15{fill:#1c1c1d;}.cls-16{fill:#a97c50;}.cls-17{fill:#e6e7e8;}.cls-18{fill:#808285;}.cls-19{fill:#fff;}</style></defs><title>Asset 1</title><g id="Layer_2" data-name="Layer 2"><g id="Layer_1-2" data-name="Layer 1"><g id="design"><path class="cls-1" d="M2.75,375.6c10,49,47.34,93.95,87.7,109.9,21.35,8.47,43.05,9.51,61.83,3,49.39-17.14,77.59-77.5,116.66-112.14,25.49-22.61,55.18-40,88.18-44.45,18.78-2.55,38.73-1,56-8.69,20.36-9.12,33.93-30.56,39.84-52.17,13-47.64,0-104.55-17.64-146.64C418.7,84.84,392,43.26,354.7,22.41c-42.94-24-101.8-31-144.34-9.72-29,14.48-59.54,14.68-90,13.48S63.63,36.82,37.9,62.06C27.55,72.24,20.11,84.55,14.84,98.24c-9.67,25.16-12,54.83-11.76,84.16V185q.75,49.5-.14,98.76C2.41,313.06-3.29,346.13,2.75,375.6Z"/><path class="cls-2" d="M304.93,126.26V153a7.8,7.8,0,0,0,7.8,7.79h13a86.69,86.69,0,0,0,9.79,23.62l-9.18,9.18a7.81,7.81,0,0,0,0,11l18.89,18.9a7.81,7.81,0,0,0,11,0l9.18-9.18A86.23,86.23,0,0,0,389,224.09v13h0a7.8,7.8,0,0,0,7.8,7.8h26.72a7.8,7.8,0,0,0,7.8-7.8v-13A86,86,0,0,0,455,214.31l9.18,9.18a7.81,7.81,0,0,0,11,0L494,204.59a7.79,7.79,0,0,0,0-11l-9.18-9.18a86.06,86.06,0,0,0,9.79-23.62h13a7.79,7.79,0,0,0,7.8-7.79V126.23h0a7.8,7.8,0,0,0-7.8-7.8h-13a86.32,86.32,0,0,0-9.79-23.62L494,85.64a7.81,7.81,0,0,0,0-11L475.13,55.75a7.79,7.79,0,0,0-11,0l-9.19,9.17a86.73,86.73,0,0,0-23.61-9.78v-13a7.8,7.8,0,0,0-7.8-7.79H396.78a7.81,7.81,0,0,0-7.8,7.79v13a86.86,86.86,0,0,0-23.61,9.78l-9.18-9.17a7.79,7.79,0,0,0-11,0L326.33,74.67a7.81,7.81,0,0,0,0,11l9.18,9.17a87,87,0,0,0-9.79,23.62h-13A7.81,7.81,0,0,0,304.93,126.26Zm52.5,13.36v0a52.71,52.71,0,1,1,52.7,52.72A52.72,52.72,0,0,1,357.43,139.6Z"/><path class="cls-1" d="M482.51,354.71a3.07,3.07,0,0,0-3.05,3.07v10.5a3.06,3.06,0,0,0,3.06,3.06h5.1a34.17,34.17,0,0,0,3.85,9.28l-3.61,3.61v0a3,3,0,0,0,0,4.31l7.42,7.43a3.08,3.08,0,0,0,4.34,0l3.6-3.61a34.12,34.12,0,0,0,9.28,3.85v5.09h0a3.07,3.07,0,0,0,3.07,3.07h10.51a3.05,3.05,0,0,0,3-3.07v-5.09a34.08,34.08,0,0,0,9.27-3.84L542,396a3.07,3.07,0,0,0,4.33,0l7.4-7.44h0a3.05,3.05,0,0,0,0-4.32l-3.61-3.61a34,34,0,0,0,3.9-9.28h5.1a3.05,3.05,0,0,0,3-3.06v-10.5a3.06,3.06,0,0,0-3-3.07H554a34.12,34.12,0,0,0-3.85-9.28l3.65-3.61h0a3.05,3.05,0,0,0,0-4.32l-7.43-7.42h0a3.06,3.06,0,0,0-4.32,0l-3.61,3.6a33.84,33.84,0,0,0-9.28-3.84v-5.12a3.06,3.06,0,0,0-3.07-3h-10.5a3.08,3.08,0,0,0-3.07,3.07v5.1a34.09,34.09,0,0,0-9.28,3.84l-3.6-3.6a3.07,3.07,0,0,0-4.34,0l-7.42,7.42v0a3,3,0,0,0,0,4.31l3.61,3.61a34.3,34.3,0,0,0-3.85,9.28Zm38.3,29h0A20.71,20.71,0,0,1,500.13,363V363a20.72,20.72,0,1,1,20.68,20.76Z"/><path class="cls-1" d="M532,302.69a1.87,1.87,0,0,0-1.83,1.91V311a1.87,1.87,0,0,0,1.89,1.82h3.11a21.09,21.09,0,0,0,2.37,5.67l-2.2,2.2h0a1.86,1.86,0,0,0,0,2.63l4.53,4.52h0a1.85,1.85,0,0,0,2.63,0l2.2-2.19a20.52,20.52,0,0,0,5.65,2.34v3.13a1.87,1.87,0,0,0,1.87,1.87h6.42a1.86,1.86,0,0,0,1.85-1.89V328a20.73,20.73,0,0,0,5.67-2.35l2.18,2.23h0a1.85,1.85,0,0,0,2.63,0l4.53-4.52h0a1.85,1.85,0,0,0,0-2.63l-2.2-2.2a20.79,20.79,0,0,0,2.35-5.66h3.1A1.87,1.87,0,0,0,580.6,311v-6.44a1.87,1.87,0,0,0-1.87-1.87h-3.09a20.79,20.79,0,0,0-2.35-5.66l2.2-2.2h0a1.85,1.85,0,0,0,0-2.63L571,287.67h0a1.86,1.86,0,0,0-2.63,0l-2.19,2.2a20.8,20.8,0,0,0-5.67-2.38v-3.11a1.87,1.87,0,0,0-1.87-1.86h-6.4a1.88,1.88,0,0,0-1.87,1.86v3.11a20.73,20.73,0,0,0-5.65,2.35l-2.2-2.2h0a1.86,1.86,0,0,0-2.63,0l-4.53,4.52h0a1.86,1.86,0,0,0,0,2.63l2.2,2.2a21.36,21.36,0,0,0-2.37,5.69H532Zm10.81,5.07v0a12.63,12.63,0,1,1,12.62,12.64A12.64,12.64,0,0,1,542.77,307.74Z"/><path class="cls-3" d="M161.13,357l-7.8,10.5s2.08,25.05,3.5,28.38-2.5,6.6-2.5,6.6c-2.94-3.82-14.56-30.27-18.11-40.05-.69-1.91,1.85-4.95,3.76-5.62l5.15-1.81,8.22-11.35Z"/><path class="cls-4" d="M127.18,364.33l1.24,2.82,7,.24,9.82,24.16c2,3.11,7.81,11.25,7.81,11.25,1.58,1.63,4.33,1,4.33,1,.82-5.05-1.12-15.69-2.59-21-8.57,3.37-12.39-12.11-13.93-16.85a15.14,15.14,0,0,1,1.7-10c-3.11-.44-8.3,5.64-8.3,5.64Z"/><path class="cls-5" d="M88.13,246c-4.1,15-4.39,27.78,3.61,37.21s89,7.79,89,7.79L147,350.89l11.79,13.47s30-43.32,43.73-62,22.25-31,12.12-36.23-87.88-19.51-87.88-19.51Z"/><path class="cls-6" d="M162.69,71.42c-29.42-2.93-57.12,57.33-57.12,57.33,6.9,9.14,40.29,16.57,57.76,10.52,51.17-17.71,33.24-49.18,25.54-49C188.87,90.27,187.25,73.85,162.69,71.42Z"/><path class="cls-3" d="M248.36,226.12l-10.23-5.88-7,3.76a6.82,6.82,0,0,1-4.77.67l-5.58-1.25-52-1.53,1.76-15.27,52.12,10.79,15.28-2.36,11.6,7.45Z"/><path class="cls-7" d="M151.06,222.44c8.4,1.39,63.46,2.06,63.46,2.06l2.75-12.35-50.79-8.53c-5.2-44,.72-61.87-11.28-63.42C135,137.58,141.85,199.63,151.06,222.44Z"/><path class="cls-3" d="M139.57,123.88s1.24-22,8.43-31.42c8.78-11.43,16.74-14.67,27.48-11.69s13.42,7.09,12.68,13.45c-1.15,9.92-3.31,20.38-11.09,32.08-6.83,10.32-15.42,9.55-20.1,8,0,0,.39,16-11.77,14.28-7.79.32-6.92-5.79-12.28-10.79C132.92,137.79,137.68,128,139.57,123.88Z"/><path class="cls-8" d="M95.16,217.48c.77-17.72-1.83-23.2-.23-37.72s2-26,11.83-36.81c4.16-4.61,9.37-8.52,15.43-9.88s11.9-1.09,17.4,2.52c0,0-4.66,11.79,5.63,13,9.53,1.13,10.86-8.17,10.86-8.17A8.62,8.62,0,0,1,161.3,144s-3.54,14.53-5.83,41.07c0,6.57-4,11-17.7,12.66,0,0-5.94,9.2-11,48.9-13.29,1.44-38.64-.64-38.64-.64C88.92,242.89,94.57,230,95.16,217.48Z"/><path class="cls-3" d="M206.34,244.05l-8-9.77-8.23,1.78a6.58,6.58,0,0,1-5-.87L180,232l-53.92-.87.61-14.69L184,226.09l13.72,2.14a5.47,5.47,0,0,1,3.61,2.18l6.76,11.12Z"/><path class="cls-9" d="M125.52,212.7l51.59,7.13-5.75,16.93s-42.05-4.56-56.78-5.39-14-14.73-12.73-19.92c12.45-51.26.25-77.62,18-78.26,6.34-.27,8.6,3.45,10.92,8.73C136.78,155.59,125.52,212.7,125.52,212.7Z"/><path class="cls-10" d="M240.56,184.17a6.7,6.7,0,0,1,6.37-4.68h78.15a6.53,6.53,0,0,1,2,.3,6.67,6.67,0,0,1,4.39,8.35L315.5,239.26H223.38Z"/><path class="cls-11" d="M315.48,239.28v1.35a4,4,0,0,1-4,4H176a1.83,1.83,0,0,1-1.83-1.83v-1.71a1.83,1.83,0,0,1,1.83-1.83H315.5Z"/><path class="cls-12" d="M315.5,239.26v1.27h0a4.09,4.09,0,0,1-4.1,4.1H226.22a2.84,2.84,0,0,1-2.84-2.84v-2.53H315.5Z"/><path class="cls-13" d="M277.56,209.38c0,3.32,2.21,6,4.94,6s4.94-2.7,4.94-6v-.08c-2.43-.35-4.34-2.83-4.34-5.83a3.78,3.78,0,0,0-.6-.08C279.78,203.39,277.56,206.06,277.56,209.38Z"/><path class="cls-3" d="M196.64,384.26l-.09,10.05s21.28,13.33,24.8,14.23,3.78,6,3.78,6c-4.82.07-32.95-6.55-42.9-9.55-1.95-.59-2.86-4.44-2.25-6.37l1.65-5.21,1-11.87Z"/><path class="cls-4" d="M178.22,413.42l3,.69,3.37-4.18,26.25,5.39c3.68.28,13.68.51,13.68.51,2.29-.26,3.43-2.83,3.43-2.83-3.57-3.7-13.24-8.54-18.37-10.54-2.44,8.84-17.12,2.61-21.83,1a15.73,15.73,0,0,1-7.1-7.92c-1.38,2.53-.9,12.21-.9,12.21Z"/><path class="cls-14" d="M213.43,270.27c20.79,7.5,5.08,34.39-2,61.67s-12.14,57.95-12.14,57.95l-18.82-3.57,11.77-87.65s-49.89.41-89.89-1.94c-34.77-2-21.14-36.23-14.22-50.73C88.13,246,192.64,262.77,213.43,270.27Z"/><path class="cls-15" d="M179.51,439.08a14.62,14.62,0,0,1,1.92-13.89L250.13,336l-60.92-79.18a4.86,4.86,0,0,1,.23-6,3.26,3.26,0,0,1,.62-.55,3.2,3.2,0,0,1,4.46.82l60.55,78.61,60.55-78.61a3.25,3.25,0,0,1,.56-.61,3.2,3.2,0,0,1,4.52.34,4.83,4.83,0,0,1,.22,6l-61,79.18,68.7,89.18a14.6,14.6,0,0,1,1.92,13.89c-1.77,4.74-5.57,7.69-9.94,7.69H189.5C185.13,446.76,181.32,443.81,179.51,439.08Zm7.28-8.15a5,5,0,0,0-.65,4.7,3.72,3.72,0,0,0,3.36,2.59H320.6a3.72,3.72,0,0,0,3.36-2.59,5,5,0,0,0-.65-4.7l-68.26-88.62Z"/><path class="cls-16" d="M138.74,254.77a5.07,5.07,0,0,1-5.07-5.07h0a5.07,5.07,0,0,1,5.07-5.07H371.37a5.07,5.07,0,0,1,5.06,5.08h0a5.07,5.07,0,0,1-5.07,5.07Z"/><polygon class="cls-15" points="84.93 305.81 89.7 306.32 76.56 428.5 125.88 428.5 112.69 305.91 117.46 305.4 131.21 433.29 71.22 433.29 84.93 305.81"/><path class="cls-15" d="M101.13,298.91h27.81L145,447.11H85Zm23.51,4.79h-19.2L90.38,442.32H139.7Z"/><rect class="cls-16" x="73.19" y="296.4" width="75.47" height="10.36"/><polygon class="cls-16" points="62.3 267.7 69.53 267.7 76.76 306.77 69.53 306.77 62.3 267.7"/><path class="cls-4" d="M107.3,154.14c-4.53,13.87-7.53,50.67-29.53,55.38-16.93,3.61-73,2.63-71.43-29.21C7.62,154.06,27.92,149.66,43.83,145c27.68-8.15,16.24-40.72,65.43-43,21.68-1,22-22,42.86-30,9.67-3.68,20.34-6.13,31.14.38,8.8,5.32,10.67,10.3,11.8,17.9,2.08,14.07-20.45,33.72-38.71,22.72,0,0,1.12-7.74-4-7.06-8,1.06-10.19,19.94-2.31,18.2,0,0,3,20.56-17.75,14.24C118.55,134.23,112.93,136.94,107.3,154.14Z"/><path class="cls-4" d="M518.37,227.74c10.94,0,15-4,15-14,0-.88,1.67-.88,1.67,0,0,8.47,3.06,14,15,14,.86,0,.86,1.67,0,1.67-11.61,0-15,4.46-15,14,0,.87-1.67.87-1.67,0,0-9.57-4.27-14-15-14C517.51,229.41,517.51,227.74,518.37,227.74Z"/><path class="cls-4" d="M570.14,181.28c15.2,0,20.87-5.45,20.87-19.45,0-1.22,2.32-1.22,2.32,0,0,11.75,4.23,19.45,20.86,19.45,1.2,0,1.2,2.33,0,2.33-16.14,0-20.87,6.18-20.87,19.47,0,1.22-2.32,1.22-2.32,0,0-13.29-5.92-19.47-20.87-19.47C569,183.61,569,181.28,570.14,181.28Z"/><path class="cls-4" d="M511.13,89.65c27.25,0,37.39-9.78,37.39-34.85,0-2.19,4.17-2.19,4.17,0,0,21,7.58,34.85,37.39,34.85,2.16,0,2.16,4.18,0,4.18-28.91,0-37.39,11.07-37.39,34.89,0,2.19-4.17,2.19-4.17,0,0-23.82-10.59-34.89-37.39-34.89C509,93.83,509,89.65,511.13,89.65Z"/><ellipse class="cls-13" cx="378.68" cy="469.64" rx="187.33" ry="21.9"/><path class="cls-17" d="M442.9,462.7c21,0,38,3,38,6.8s-17,6.79-38,6.79-38-3-38-6.79S421.9,462.7,442.9,462.7Z"/><path class="cls-12" d="M403,467.75l-8.36-41.9h54.93l-8.36,41.9c-.42,2.1-2.34,3.08-4.42,3.62-8.78,2.28-21.29,2.45-29.37,0C405.34,470.75,403.4,469.85,403,467.75Z"/><ellipse class="cls-18" cx="422" cy="425.85" rx="27.37" ry="4.01"/><path class="cls-10" d="M403,467.76a4.52,4.52,0,0,0,4.42,3.62,43.18,43.18,0,0,0,13.22,1.77c.61,0,.95-2.61,2.5-3.2a8.25,8.25,0,0,0,3.1-2.18c1.91-2.08.51-5.56-1.65-7.37s-5-2.82-6.83-4.94a1.67,1.67,0,0,1-.51-1c0-.89,1.11-1.24,1.85-1.73,1.77-1.14,1.72-3.89.49-5.6s-3.24-2.63-5.13-3.54a94.43,94.43,0,0,1-18.67-12Z"/><path class="cls-5" d="M427.32,257c2.75,16.37,7.34,32.46,8.81,49,.59,6.48-.76,12.82-2,19.21-3,15.49-12,28.22-13.46,73.61-3-35.5-18.37-70.11-20.72-79.79a61.06,61.06,0,0,1-.29-26.6c2.62-11.58,5.94-19.6,8.62-29.52,3.33-12.35,6.25-26.27,4.84-39-.93-8.4-3.68-16.61-3.12-25.15.4-6.16,2.95-14.7,9.95-16,7.33-1.37,10.58,5.57,11.79,12.93s1.59,14-.17,21.27C427.41,234.07,424.57,240.6,427.32,257Z"/><path class="cls-6" d="M421.35,426c-7-81.66-1.41-221.59-1.35-223a1,1,0,0,1,0-.55,1,1,0,0,1,1.89.63c-.06,1.4-5.65,141.21,1.35,222.72a1,1,0,0,1-.88,1.05h-.08A1,1,0,0,1,421.35,426Z"/><path class="cls-6" d="M418,342.19c-1-22.89-11.52-30.12-11.63-30.19h0a1,1,0,0,1-.22-1,1,1,0,0,1,1.24-.67c.49.31,11.41,7.71,12.49,31.71a1,1,0,0,1-.92,1h0A1,1,0,0,1,418,342.19Z"/><path class="cls-6" d="M418.71,325.67a1,1,0,0,1-.9-1c1.53-25.86,11.46-29.36,11.88-29.5a1,1,0,0,1,.88.44,1,1,0,0,1-.28,1.39c-.09,0-9.16,3.46-10.52,27.79a1,1,0,0,1-1,.9Z"/><path class="cls-6" d="M417.9,294.92c-1.72-17.92-7.33-23.23-7.41-23.31a1,1,0,0,1-.05-1,1,1,0,0,1,1.33-.46c.25.23,6.23,5.7,8.05,24.57a1,1,0,0,1-.87,1.05h-.09A1,1,0,0,1,417.9,294.92Z"/><path class="cls-5" d="M473.33,308.84c-2.71,12.21-2.81,16.85-6.32,28.28-3.07,10-22,30.15-30.88,63.95,4.16-26.88.47-29.7,1.09-43.93.28-7.63,4.3-28.83,6.88-33.93,3.5-7.2,6.16-8.88,10.84-15.28,5.82-8,14.3-21.05,18.65-29.85,3.58-7.55,14.48-24.44,18.4-26,1.48,6.78-7.62,26.55-9.73,31.78C475.57,299.75,476.19,296.67,473.33,308.84Z"/><path class="cls-6" d="M432.47,427.72a1,1,0,0,1-.88-1c2.64-33.42,15.31-72.29,25.48-99,10.22-26.86,21.87-51.52,23.5-52.18a1,1,0,0,1,1,.17,1,1,0,0,1,.09,1.36.71.71,0,0,1-.23.19c-3.68,4.68-43.17,89.05-47.95,149.63a1,1,0,0,1-1,.88Zm47.94-150.46-.14-.1A.45.45,0,0,0,480.41,277.26Z"/><path class="cls-6" d="M445.34,365.09a1,1,0,0,1-.69-1.17c4.33-16.69-.83-24.21-1.08-24.56a1,1,0,0,1-.05-.92,1,1,0,0,1,1.31-.51c.87.55,6.15,9.26,1.68,26.47a1,1,0,0,1-1.17.69Z"/><path class="cls-6" d="M449,352.32a1,1,0,0,1-.54-1.25c6.81-17.18,14.36-18.35,15.81-18.41l.06,1,1,.17a1,1,0,0,1-.93.79c-.76,0-7.59.79-14.1,17.2a1,1,0,0,1-.89.61A.87.87,0,0,1,449,352.32Z"/><path class="cls-6" d="M456.69,330.84a1,1,0,0,1-.69-1.17c3.44-13,1.34-18.18,1.2-18.49a1,1,0,0,1,0-.68,1,1,0,0,1,1.24-.68c.89.34,3.09,6.6-.53,20.34a1,1,0,0,1-.93.72A.73.73,0,0,1,456.69,330.84Z"/><path class="cls-14" d="M385.55,341.24c6.76,6.51,9.7,8.68,14.7,16.29,4.61,7,8,30.58,12.19,54.78-6.29-18.53-12.77-21.22-18.77-28.65-3.18-4.09-11.77-15.27-13.44-18.54-2.18-4.77-1.82-7-3.45-12.15-2-6.45-7.1-16.17-11.78-21.32-3.7-4.48-13.07-15.39-13.7-18.48,5.47-.54,17.78,10.51,20.52,13.69C380.64,336.3,378.56,335,385.55,341.24Z"/><path class="cls-6" d="M415.07,427c-4.61-22.73-14.64-48.83-26.18-68.13a184.07,184.07,0,0,0-22-30.49c-1.81-2.06-1.84-2.1-1.67-2.68a1,1,0,0,1,.68-.66,1,1,0,0,1,1.15.58c.19.24.73.85,1.29,1.49a186.12,186.12,0,0,1,22.19,30.79c11.64,19.45,21.75,45.79,26.41,68.72a1,1,0,0,1-.76,1.13H416A1,1,0,0,1,415.07,427Z"/><path class="cls-6" d="M401.32,383.61c-5-10.42-11.91-11.2-12.67-11.26a1,1,0,0,1-.93-.93h1l.1-1c1.44.1,8.88,1.18,14.27,12.34a1,1,0,0,1-.44,1.28.87.87,0,0,1-.42.1A1,1,0,0,1,401.32,383.61Z"/><path class="cls-6" d="M397.46,375c-5.93-14.3-1-18.41-1-18.41a1,1,0,0,1,1.27.5,1,1,0,0,1-.22,1.08c-.22.3-3.05,4.58,1.71,16.1a.94.94,0,0,1,.06.28,1,1,0,0,1-.95,1.05A1,1,0,0,1,397.46,375Z"/><path class="cls-6" d="M390,360.83c-5.27-6.91-9.38-7.81-10.15-7.91a1,1,0,0,1-.87-.78l.94-.19.18-.94c1.27.17,5.84,1.28,11.43,8.65a1,1,0,0,1-.18,1.35.93.93,0,0,1-.58.2A1,1,0,0,1,390,360.83Z"/><circle class="cls-19" cx="260.28" cy="76.39" r="15.69"/><circle class="cls-19" cx="284.87" cy="114.92" r="7.85"/><path class="cls-19" d="M274.46,155.89a3.63,3.63,0,1,0,3.62-3.65,3.64,3.64,0,0,0-3.62,3.65Z"/></g></g></g></svg>