<svg xmlns="http://www.w3.org/2000/svg" viewBox="0 0 615.14 492.74"><defs><style>.cls-1{fill:#bdefe9;}.cls-2{fill:#8fd8d1;}.cls-3{fill:#f4d87e;}.cls-4{fill:#097c71;}.cls-5{fill:#1c938a;}.cls-6{fill:#00564c;}.cls-7{fill:#c13633;}.cls-8{fill:#d54b42;}.cls-9{fill:#db5956;}.cls-10{fill:#d1d3d4;}.cls-11{fill:#a7a9ac;}.cls-12{fill:#bcbec0;}.cls-13{fill:#f1f2f2;}.cls-14{fill:#3bafa9;}.cls-15{fill:#1c1c1d;}.cls-16{fill:#a97c50;}.cls-17{fill:#e6e7e8;}.cls-18{fill:#808285;}.cls-19{fill:#fff;}</style></defs><title>Asset 2</title><g id="Layer_2" data-name="Layer 2"><g id="design"><path class="cls-1" d="M612.19,283.78q-.88-49.26-.14-98.76l0-2.62c.29-29.33-2.09-59-11.76-84.16-5.27-13.69-12.71-26-23.06-36.18-25.73-25.24-52-37.09-82.46-35.89s-61,1-90-13.48C362.23-8.58,303.37-1.61,260.43,22.41c-37.29,20.85-64,62.43-80.62,102-17.68,42.09-30.65,99-17.64,146.64,5.91,21.61,19.48,43.05,39.84,52.17,17.27,7.73,37.22,6.14,56,8.69,33,4.46,62.69,21.84,88.18,44.45,39.07,34.64,67.27,95,116.66,112.14,18.78,6.51,40.48,5.47,61.83-3,40.36-15.95,77.73-60.94,87.7-109.9C618.42,346.13,612.72,313.06,612.19,283.78Z"/><path class="cls-2" d="M302.41,118.46h-13a86.72,86.72,0,0,0-9.79-23.62l9.18-9.17a7.81,7.81,0,0,0,0-11L269.94,55.75a7.79,7.79,0,0,0-11,0l-9.18,9.17a86.64,86.64,0,0,0-23.61-9.78v-13a7.8,7.8,0,0,0-7.8-7.79H191.6a7.8,7.8,0,0,0-7.8,7.79v13a86.64,86.64,0,0,0-23.61,9.78L151,55.75a7.79,7.79,0,0,0-11,0L121.09,74.64a7.81,7.81,0,0,0,0,11l9.18,9.17a86.41,86.41,0,0,0-9.79,23.62h-13a7.8,7.8,0,0,0-7.8,7.8V153a7.8,7.8,0,0,0,7.8,7.79h13a86.28,86.28,0,0,0,9.79,23.62l-9.18,9.18a7.8,7.8,0,0,0,0,11L140,223.49a7.81,7.81,0,0,0,11,0l9.18-9.18a86.32,86.32,0,0,0,23.61,9.78v13a7.8,7.8,0,0,0,7.8,7.8h26.72a7.8,7.8,0,0,0,7.8-7.8v-13a86.32,86.32,0,0,0,23.61-9.78l9.18,9.18a7.81,7.81,0,0,0,11,0l18.89-18.9a7.8,7.8,0,0,0,0-11l-9.18-9.18a86.59,86.59,0,0,0,9.79-23.62h13a7.8,7.8,0,0,0,7.8-7.79V126.26A7.8,7.8,0,0,0,302.41,118.46ZM205,192.32a52.71,52.71,0,1,1,52.7-52.7A52.71,52.71,0,0,1,205,192.32Z"/><path class="cls-1" d="M132.62,354.71h-5.1a33.89,33.89,0,0,0-3.85-9.28l3.61-3.61a3.05,3.05,0,0,0,0-4.33l-7.42-7.42a3.07,3.07,0,0,0-4.34,0l-3.6,3.6a33.87,33.87,0,0,0-9.28-3.84v-5.1a3.07,3.07,0,0,0-3.07-3.07H89.07A3.06,3.06,0,0,0,86,324.73v5.1a33.87,33.87,0,0,0-9.28,3.84l-3.61-3.6a3.05,3.05,0,0,0-4.33,0l-7.43,7.42a3.05,3.05,0,0,0,0,4.33L65,345.43a34.2,34.2,0,0,0-3.85,9.28H56A3.06,3.06,0,0,0,53,357.78v10.5A3.06,3.06,0,0,0,56,371.34h5.1A34.2,34.2,0,0,0,65,380.62l-3.61,3.61a3.05,3.05,0,0,0,0,4.33L68.79,396a3.07,3.07,0,0,0,4.33,0l3.61-3.61A34.2,34.2,0,0,0,86,396.23v5.09a3.06,3.06,0,0,0,3.06,3.07h10.5a3.07,3.07,0,0,0,3.07-3.07v-5.09a34.2,34.2,0,0,0,9.28-3.85l3.6,3.61a3.08,3.08,0,0,0,4.34,0l7.42-7.43a3.05,3.05,0,0,0,0-4.33l-3.61-3.61a33.89,33.89,0,0,0,3.85-9.28h5.1a3.06,3.06,0,0,0,3.06-3.06v-10.5A3.06,3.06,0,0,0,132.62,354.71Zm-38.3,29A20.72,20.72,0,1,1,115,363,20.71,20.71,0,0,1,94.32,383.74Z"/><path class="cls-1" d="M83.08,302.69H80A20.75,20.75,0,0,0,77.63,297l2.2-2.2a1.86,1.86,0,0,0,0-2.64l-4.53-4.52a1.86,1.86,0,0,0-2.64,0l-2.2,2.2a20.71,20.71,0,0,0-5.65-2.35v-3.11a1.87,1.87,0,0,0-1.87-1.86h-6.4a1.87,1.87,0,0,0-1.87,1.86v3.11A20.77,20.77,0,0,0,49,289.87l-2.19-2.2a1.86,1.86,0,0,0-2.64,0l-4.53,4.52a1.86,1.86,0,0,0,0,2.64l2.2,2.2a20.77,20.77,0,0,0-2.35,5.66H36.4a1.87,1.87,0,0,0-1.87,1.87V311a1.87,1.87,0,0,0,1.87,1.86h3.1a20.77,20.77,0,0,0,2.35,5.66l-2.2,2.2a1.86,1.86,0,0,0,0,2.64l4.53,4.52a1.86,1.86,0,0,0,2.64,0L49,325.65A20.75,20.75,0,0,0,54.67,328v3.11A1.87,1.87,0,0,0,56.54,333h6.4a1.87,1.87,0,0,0,1.87-1.87V328a20.68,20.68,0,0,0,5.65-2.34l2.2,2.19a1.86,1.86,0,0,0,2.64,0l4.53-4.52a1.86,1.86,0,0,0,0-2.64l-2.2-2.2A20.75,20.75,0,0,0,80,312.82h3.11A1.87,1.87,0,0,0,85,311v-6.4A1.87,1.87,0,0,0,83.08,302.69ZM59.74,320.38a12.63,12.63,0,1,1,12.62-12.62A12.63,12.63,0,0,1,59.74,320.38Z"/><path class="cls-3" d="M461.78,343.65,470,355l5.15,1.81c1.91.67,4.45,3.71,3.76,5.62-3.55,9.78-15.17,36.23-18.11,40.05,0,0-3.92-3.27-2.5-6.6s3.5-28.38,3.5-28.38L454,357Z"/><path class="cls-4" d="M480.87,361.59s-5.19-6.08-8.3-5.64a15.14,15.14,0,0,1,1.7,10c-1.54,4.74-5.36,20.22-13.93,16.85-1.47,5.31-3.41,15.95-2.59,21,0,0,2.75.63,4.33-1,0,0,5.84-8.14,7.81-11.25l9.82-24.16,7-.24,1.24-2.82Z"/><path class="cls-5" d="M488.37,246.62s-77.75,14.27-87.88,19.51-1.57,17.55,12.12,36.23,43.73,62,43.73,62l11.79-13.47L434.39,291s81,1.64,89-7.79S531.1,261,527,246Z"/><path class="cls-6" d="M426.26,90.27c-7.7-.18-25.63,31.29,25.54,49,17.47,6.05,50.86-1.38,57.76-10.52,0,0-27.7-60.26-57.12-57.33C427.88,73.85,426.26,90.27,426.26,90.27Z"/><path class="cls-3" d="M365.59,222.5l11.6-7.45,15.28,2.36,52.12-10.79,1.76,15.27-52,1.53-5.58,1.25A6.85,6.85,0,0,1,384,224l-7-3.76-10.23,5.88Z"/><path class="cls-7" d="M459.93,140.2c-12,1.55-6.08,19.39-11.28,63.42l-50.79,8.53,2.75,12.35s55.06-.67,63.46-2.06C473.28,199.63,480.18,137.58,459.93,140.2Z"/><path class="cls-3" d="M482.21,137.79c-5.36,5-4.49,11.11-12.28,10.79-12.16,1.7-11.77-14.28-11.77-14.28-4.68,1.55-13.27,2.32-20.1-8-7.78-11.7-9.94-22.16-11.09-32.08-.74-6.36,1.94-10.47,12.68-13.45s18.7.26,27.48,11.69c7.19,9.38,8.43,31.42,8.43,31.42C477.45,128,482.21,137.79,482.21,137.79Z"/><path class="cls-8" d="M527,246s-25.35,2.08-38.64.64c-5.06-39.7-11-48.9-11-48.9-13.67-1.7-17.71-6.09-17.7-12.66-2.29-26.54-5.83-41.07-5.83-41.07a8.64,8.64,0,0,1,5.22-3.59s1.33,9.3,10.86,8.17c10.29-1.21,5.63-13,5.63-13,5.5-3.61,11.34-3.88,17.4-2.52s11.27,5.27,15.43,9.88c9.78,10.84,10.23,22.29,11.83,36.81s-1,20-.23,37.72C520.56,230,526.21,242.89,527,246Z"/><path class="cls-3" d="M407,241.53l6.76-11.12a5.5,5.5,0,0,1,3.61-2.18l13.72-2.14,57.31-9.66.61,14.69-53.92.87-5.07,3.2a6.59,6.59,0,0,1-5,.87l-8.23-1.78-8,9.77Z"/><path class="cls-9" d="M484.36,141.92c2.32-5.28,4.58-9,10.92-8.73,17.75.64,5.55,27,18,78.26,1.26,5.19,2,19.09-12.73,19.92s-56.78,5.39-56.78,5.39l-5.75-16.93,51.59-7.13S478.35,155.59,484.36,141.92Z"/><path class="cls-10" d="M391.75,239.26H299.63l-15.94-51.12a6.67,6.67,0,0,1,6.36-8.65H368.2a6.68,6.68,0,0,1,6.37,4.68Z"/><path class="cls-11" d="M299.63,239.26H439.16a1.83,1.83,0,0,1,1.83,1.83v1.71a1.83,1.83,0,0,1-1.83,1.83H303.65a4,4,0,0,1-4-4v-1.35A0,0,0,0,1,299.63,239.26Z"/><path class="cls-12" d="M299.63,239.26h92.12a0,0,0,0,1,0,0v2.53a2.84,2.84,0,0,1-2.84,2.84H303.73a4.1,4.1,0,0,1-4.1-4.1v-1.27A0,0,0,0,1,299.63,239.26Z"/><path class="cls-13" d="M332.63,203.39a3.94,3.94,0,0,0-.6.08c0,3-1.91,5.48-4.34,5.83v.08c0,3.3,2.21,6,4.94,6s4.94-2.68,4.94-6S335.35,203.39,332.63,203.39Z"/><path class="cls-3" d="M432.5,381.54l1,11.87,1.65,5.21c.61,1.93-.3,5.78-2.25,6.37-9.95,3-38.08,9.62-42.9,9.55,0,0,.26-5.1,3.78-6s24.8-14.23,24.8-14.23l-.09-10.05Z"/><path class="cls-4" d="M435.38,407.75s.48-9.68-.9-12.21a15.7,15.7,0,0,1-7.1,7.92c-4.71,1.61-19.39,7.84-21.83-1-5.13,2-14.8,6.84-18.37,10.54,0,0,1.14,2.57,3.43,2.83,0,0,10-.23,13.68-.51l26.25-5.39,3.37,4.18,3-.69Z"/><path class="cls-14" d="M527,246c6.92,14.5,20.55,48.69-14.22,50.73-40,2.35-89.89,1.94-89.89,1.94l11.77,87.65-18.82,3.57s-5.06-30.67-12.14-57.95-22.79-54.17-2-61.67S527,246,527,246Z"/><path class="cls-15" d="M425.63,446.76H294.53c-4.37,0-8.17-2.95-9.94-7.69a14.6,14.6,0,0,1,1.92-13.89L355.21,336l-61-79.18a4.85,4.85,0,0,1,.22-6,3.21,3.21,0,0,1,5.08.27l60.55,78.61,60.55-78.61a3.21,3.21,0,0,1,5.08-.27,4.85,4.85,0,0,1,.23,6L365,336l68.7,89.19a14.6,14.6,0,0,1,1.92,13.89C433.81,443.81,430,446.76,425.63,446.76ZM360.08,342.31l-68.26,88.62a5,5,0,0,0-.65,4.7,3.72,3.72,0,0,0,3.36,2.59h131.1a3.72,3.72,0,0,0,3.36-2.59,5,5,0,0,0-.65-4.7Z"/><path class="cls-16" d="M476.39,254.77H243.77a5.07,5.07,0,0,1-5.07-5.07h0a5.07,5.07,0,0,1,5.07-5.08H476.39a5.07,5.07,0,0,1,5.07,5.08h0A5.07,5.07,0,0,1,476.39,254.77Z"/><polygon class="cls-15" points="543.91 433.29 483.92 433.29 497.67 305.4 502.44 305.91 489.25 428.5 538.57 428.5 525.43 306.32 530.2 305.81 543.91 433.29"/><path class="cls-15" d="M530.09,447.11h-60l16.1-148.2H514Zm-54.66-4.79h49.32L509.69,303.7h-19.2Z"/><rect class="cls-16" x="466.47" y="296.4" width="75.47" height="10.36"/><polygon class="cls-16" points="545.6 306.77 538.37 306.77 545.6 267.7 552.83 267.7 545.6 306.77"/><path class="cls-4" d="M482.84,138.42c-20.74,6.32-17.75-14.24-17.75-14.24,7.88,1.74,5.72-17.14-2.31-18.2-5.12-.68-4,7.06-4,7.06-18.26,11-40.79-8.65-38.71-22.72,1.13-7.6,3-12.58,11.8-17.9,10.8-6.51,21.47-4.06,31.14-.38C483.84,80,484.19,101,505.87,102c49.19,2.28,37.75,34.85,65.43,43,15.91,4.66,36.21,9.06,37.49,35.31,1.56,31.84-54.5,32.82-71.43,29.21-22-4.71-25-41.51-29.53-55.38C502.2,136.94,496.58,134.23,482.84,138.42Z"/><path class="cls-4" d="M96.76,229.41c-10.73,0-15,4.43-15,14,0,.87-1.67.87-1.67,0,0-9.54-3.39-14-15-14-.86,0-.86-1.67,0-1.67,11.94,0,15-5.53,15-14,0-.88,1.67-.88,1.67,0,0,10,4.06,14,15,14C97.62,227.74,97.62,229.41,96.76,229.41Z"/><path class="cls-4" d="M45,183.61c-14.95,0-20.87,6.18-20.87,19.47,0,1.22-2.32,1.22-2.32,0,0-13.29-4.73-19.47-20.87-19.47-1.2,0-1.2-2.33,0-2.33,16.63,0,20.86-7.7,20.86-19.45,0-1.22,2.32-1.22,2.32,0,0,14,5.67,19.45,20.87,19.45C46.16,181.28,46.16,183.61,45,183.61Z"/><path class="cls-4" d="M104,93.83c-26.8,0-37.39,11.07-37.39,34.89,0,2.19-4.17,2.19-4.17,0,0-23.82-8.48-34.89-37.39-34.89-2.16,0-2.16-4.18,0-4.18,29.81,0,37.39-13.8,37.39-34.85,0-2.19,4.17-2.19,4.17,0,0,25.07,10.14,34.85,37.39,34.85C106.14,89.65,106.14,93.83,104,93.83Z"/><ellipse class="cls-13" cx="236.45" cy="469.64" rx="187.33" ry="21.9"/><path class="cls-17" d="M210.23,469.5c0,3.75-17,6.79-38,6.79s-38-3-38-6.79,17-6.8,38-6.8S210.23,465.74,210.23,469.5Z"/><path class="cls-12" d="M207.73,471.37c-8.08,2.45-20.59,2.28-29.37,0-2.08-.54-4-1.52-4.42-3.62l-8.36-41.9h54.93l-8.36,41.9C211.73,469.85,209.79,470.75,207.73,471.37Z"/><ellipse class="cls-18" cx="193.13" cy="425.85" rx="27.37" ry="4.01"/><path class="cls-10" d="M219.36,431.59a94.24,94.24,0,0,1-18.67,12c-1.89.91-3.9,1.83-5.13,3.54s-1.28,4.46.49,5.6c.74.49,1.85.84,1.85,1.73a1.66,1.66,0,0,1-.51,1c-1.86,2.12-4.67,3.13-6.83,4.94s-3.56,5.29-1.65,7.37a8.33,8.33,0,0,0,3.1,2.18c1.55.59,1.89,3.2,2.5,3.2a43.19,43.19,0,0,0,13.22-1.77,4.51,4.51,0,0,0,4.42-3.62Z"/><path class="cls-5" d="M183.56,216.93c-1.76-7.25-1.38-13.91-.17-21.27s4.46-14.3,11.79-12.93c7,1.3,9.55,9.84,9.95,16,.56,8.54-2.19,16.75-3.12,25.15-1.41,12.73,1.51,26.65,4.84,39,2.68,9.92,6,17.94,8.62,29.52a60.87,60.87,0,0,1-.29,26.6c-2.35,9.68-17.73,44.29-20.72,79.79C193,353.4,184,340.67,181,325.18c-1.24-6.39-2.59-12.73-2-19.21,1.47-16.54,6.06-32.63,8.81-49S187.72,234.07,183.56,216.93Z"/><path class="cls-6" d="M192.82,426.81h-.08a1,1,0,0,1-.88-1.05c7-81.51,1.41-221.32,1.35-222.72a1,1,0,1,1,1.92-.08c.06,1.41,5.67,141.34-1.35,223A1,1,0,0,1,192.82,426.81Z"/><path class="cls-6" d="M196.21,343.07h0a1,1,0,0,1-.92-1c1.08-24,12-31.4,12.49-31.71A1,1,0,0,1,208.8,312h0c-.11.07-10.6,7.3-11.63,30.19A1,1,0,0,1,196.21,343.07Z"/><path class="cls-6" d="M196.36,325.69a1,1,0,0,1-1-.9C194,300.46,184.93,297,184.84,297a1,1,0,0,1,.6-1.83c.42.14,10.35,3.64,11.88,29.5a1,1,0,0,1-.9,1Z"/><path class="cls-6" d="M196.27,295.79h-.09a1,1,0,0,1-.87-1.05c1.82-18.87,7.8-24.34,8.05-24.57a1,1,0,0,1,1.28,1.44c-.08.08-5.69,5.39-7.41,23.31A1,1,0,0,1,196.27,295.79Z"/><path class="cls-5" d="M132.87,283.86c-2.11-5.23-11.21-25-9.73-31.78,3.92,1.56,14.82,18.45,18.4,26,4.35,8.8,12.83,21.85,18.65,29.85,4.68,6.4,7.34,8.08,10.84,15.28,2.58,5.1,6.6,26.3,6.88,33.93.62,14.23-3.07,17.05,1.09,43.93-8.88-33.8-27.81-53.94-30.88-63.95-3.51-11.43-3.61-16.07-6.32-28.28C138.94,296.67,139.56,299.75,132.87,283.86Z"/><path class="cls-6" d="M182.65,427.77a1,1,0,0,1-1-.88c-4.78-60.58-44.27-144.95-47.95-149.63a1,1,0,0,1-.23-.19,1,1,0,0,1,.09-1.36,1,1,0,0,1,1-.17c1.63.66,13.28,25.32,23.5,52.18,10.17,26.71,22.84,65.58,25.48,99a1,1,0,0,1-.88,1ZM134.86,277.16a.71.71,0,0,1-.14.1A.45.45,0,0,0,134.86,277.16Zm0,0Z"/><path class="cls-6" d="M169.55,365.12a1,1,0,0,1-.93-.72c-4.47-17.21.81-25.92,1.68-26.47a1,1,0,0,1,1.26,1.43c-.25.35-5.41,7.87-1.08,24.56a1,1,0,0,1-.69,1.17A1,1,0,0,1,169.55,365.12Z"/><path class="cls-6" d="M165.68,352.43a1,1,0,0,1-.89-.61c-6.51-16.41-13.34-17.17-14.1-17.2a1,1,0,0,1-.93-.79l1-.17.06-1c1.45.06,9,1.23,15.81,18.41a1,1,0,0,1-.54,1.25A.92.92,0,0,1,165.68,352.43Z"/><path class="cls-6" d="M158.19,330.88a1,1,0,0,1-.93-.72c-3.62-13.74-1.42-20-.53-20.34a1,1,0,0,1,1.2,1.36c-.14.31-2.24,5.49,1.2,18.49a1,1,0,0,1-.69,1.17A.69.69,0,0,1,158.19,330.88Z"/><path class="cls-14" d="M243.31,326.86c2.74-3.18,15.05-14.23,20.52-13.69-.63,3.09-10,14-13.7,18.48-4.68,5.15-9.79,14.87-11.78,21.32-1.63,5.18-1.27,7.38-3.45,12.15-1.67,3.27-10.26,14.45-13.44,18.54-6,7.43-12.48,10.12-18.77,28.65,4.2-24.2,7.58-47.77,12.19-54.78,5-7.61,7.94-9.78,14.7-16.29C236.57,335,234.49,336.3,243.31,326.86Z"/><path class="cls-6" d="M199.14,427.77a.58.58,0,0,1-.19,0,1,1,0,0,1-.76-1.13c4.66-22.93,14.77-49.27,26.41-68.72a186.6,186.6,0,0,1,22.19-30.79c.56-.64,1.1-1.25,1.29-1.49a1,1,0,0,1,1.15-.58,1,1,0,0,1,.68.66c.17.58.14.62-1.67,2.68a184.71,184.71,0,0,0-22,30.49c-11.54,19.3-21.57,45.4-26.18,68.13A1,1,0,0,1,199.14,427.77Z"/><path class="cls-6" d="M212.9,384.14a.92.92,0,0,1-.42-.1,1,1,0,0,1-.44-1.28c5.39-11.16,12.83-12.24,14.27-12.34l.1,1,1,0a1,1,0,0,1-.93.93c-.76.06-7.63.84-12.67,11.26A1,1,0,0,1,212.9,384.14Z"/><path class="cls-6" d="M216.8,375.56a1,1,0,0,1-.89-1.33c4.76-11.52,1.93-15.8,1.71-16.1a1,1,0,0,1-.22-1.08,1,1,0,0,1,1.27-.5c.05,0,4.93,4.11-1,18.41A1,1,0,0,1,216.8,375.56Z"/><path class="cls-6" d="M224.38,361.21a1,1,0,0,1-.58-.2,1,1,0,0,1-.18-1.35c5.59-7.37,10.16-8.48,11.43-8.65l.18.94.94.19a1,1,0,0,1-.87.78c-.77.1-4.88,1-10.15,7.91A1,1,0,0,1,224.38,361.21Z"/><circle class="cls-19" cx="354.84" cy="76.36" r="15.69" transform="translate(36.68 251.05) rotate(-40.91)"/><circle class="cls-19" cx="330.26" cy="114.92" r="7.85"/><path class="cls-19" d="M340.67,155.88A3.63,3.63,0,1,0,337,159.5,3.64,3.64,0,0,0,340.67,155.88Z"/></g></g></svg>