<svg xmlns="http://www.w3.org/2000/svg" xmlns:xlink="http://www.w3.org/1999/xlink" width="1440" height="720" viewBox="0 0 1440 720">
  <defs>
    <filter id="Rectangle_2_Copy" x="250" y="-5" width="1196" height="76" filterUnits="userSpaceOnUse">
      <feOffset dy="1" input="SourceAlpha"/>
      <feGaussianBlur stdDeviation="2" result="blur"/>
      <feFlood flood-color="#001529" flood-opacity="0.122"/>
      <feComposite operator="in" in2="blur"/>
      <feComposite in="SourceGraphic"/>
    </filter>
    <clipPath id="clip-path">
      <path id="Clip_2" data-name="Clip 2" d="M0,0V16H11.987V0Z" fill="none"/>
    </clipPath>
    <filter id="Rectangle_Copy" x="-7" y="-8" width="274" height="883" filterUnits="userSpaceOnUse">
      <feOffset dx="2" input="SourceAlpha"/>
      <feGaussianBlur stdDeviation="3" result="blur-2"/>
      <feFlood flood-color="#001529" flood-opacity="0.349"/>
      <feComposite operator="in" in2="blur-2"/>
      <feComposite in="SourceGraphic"/>
    </filter>
    <clipPath id="clip-path-2"/>
    <linearGradient id="linear-gradient" x1="1.219" y1="0.5" x2="-0.081" y2="0.5" gradientUnits="objectBoundingBox">
      <stop offset="0" stop-color="#47b4e0"/>
      <stop offset="0.172" stop-color="#1588e0"/>
      <stop offset="1" stop-color="#6eb4e0"/>
    </linearGradient>
    <linearGradient id="linear-gradient-2" x1="0.5" y1="1" x2="0.5" gradientUnits="objectBoundingBox">
      <stop offset="0.032" stop-color="#f0776f"/>
      <stop offset="0.503" stop-color="#f0656f"/>
      <stop offset="1" stop-color="#f0606f"/>
    </linearGradient>
    <linearGradient id="linear-gradient-3" x1="0.5" y1="0" x2="0.5" y2="1" xlink:href="#linear-gradient-2"/>
    <filter id="Combined_Shape" x="1019" y="34" width="360" height="351" filterUnits="userSpaceOnUse">
      <feOffset dy="2" input="SourceAlpha"/>
      <feGaussianBlur stdDeviation="4" result="blur-3"/>
      <feFlood flood-opacity="0.149"/>
      <feComposite operator="in" in2="blur-3"/>
      <feComposite in="SourceGraphic"/>
    </filter>
    <clipPath id="clip-通知为空">
      <rect width="1440" height="720"/>
    </clipPath>
  </defs>
  <g id="通知为空" clip-path="url(#clip-通知为空)">
    <rect width="1440" height="720" fill="#f0f2f5"/>
    <g id="Group_4" data-name="Group 4" transform="translate(256)">
      <rect id="Rectangle_16" data-name="Rectangle 16" width="1184" height="162" fill="#fff"/>
      <text id="一个页面" transform="translate(32 140)" fill="rgba(0,0,0,0.85)" font-size="20" font-family="YuGothicUI-Regular, Yu Gothic UI"><tspan x="0" y="0">一个</tspan><tspan y="0" font-family="MicrosoftJhengHeiUIRegular, Microsoft JhengHei UI">页</tspan><tspan y="0">面</tspan></text>
      <rect id="Rectangle_17_Copy" data-name="Rectangle 17 Copy" width="1184" height="1" transform="translate(0 161)" fill="#e9e9e9"/>
    </g>
    <g id="Group_2" data-name="Group 2" transform="translate(256)">
      <g transform="matrix(1, 0, 0, 1, -256, 0)" filter="url(#Rectangle_2_Copy)">
        <rect id="Rectangle_2_Copy-2" data-name="Rectangle 2 Copy" width="1184" height="64" transform="translate(256)" fill="#fff"/>
      </g>
      <rect id="Rectangle_2" data-name="Rectangle 2" width="40" height="64" transform="translate(1034)" fill="#e6f7ff"/>
      <g id="Group_20" data-name="Group 20" transform="translate(1006 20)">
        <g id="Group_28_Copy_4" data-name="Group 28 Copy 4" transform="translate(80)">
          <circle id="Oval" cx="12" cy="12" r="12" fill="#d4d7d9"/>
          <text id="用户名" transform="translate(32 16)" fill="rgba(0,0,0,0.65)" font-size="14" font-family="YuGothicUI-Regular, Yu Gothic UI"><tspan x="0" y="0">用</tspan><tspan y="0" font-family="MicrosoftJhengHeiUIRegular, Microsoft JhengHei UI">户</tspan><tspan y="0">名</tspan></text>
        </g>
        <g id="Group_19_Copy_4" data-name="Group 19 Copy 4" transform="translate(40 4)">
          <rect id="Rectangle_19" data-name="Rectangle 19" width="16" height="16" fill="rgba(255,255,255,0)"/>
          <g id="bells" transform="translate(2.003)">
            <path id="Clip_2-2" data-name="Clip 2" d="M0,0V16H11.987V0Z" fill="none"/>
            <g id="bells-2" data-name="bells" clip-path="url(#clip-path)">
              <path id="Fill_1" data-name="Fill 1" d="M5.993,16A1.125,1.125,0,0,1,4.87,14.875v-.751H.562A.562.562,0,0,1,.562,13H1V6A4.991,4.991,0,0,1,5.432,1.031V.563a.562.562,0,1,1,1.124,0v.469A4.992,4.992,0,0,1,10.988,6v7h.437a.562.562,0,0,1,0,1.124H7.117v.751A1.126,1.126,0,0,1,5.993,16Zm0-13.875A3.877,3.877,0,0,0,2.123,6v7H9.864V6A3.878,3.878,0,0,0,5.993,2.125Z" fill="rgba(0,0,0,0.65)"/>
            </g>
          </g>
        </g>
        <g id="Group_55_Copy_2" data-name="Group 55 Copy 2" transform="translate(0 4)">
          <rect id="Rectangle_40" data-name="Rectangle 40" width="16" height="16" fill="rgba(255,255,255,0)"/>
          <g id="search" transform="translate(1 1)">
            <path id="Shape" d="M13.041,13.836,9.826,10.622a6,6,0,1,1,.8-.8l3.214,3.213a.567.567,0,0,1,0,.8.564.564,0,0,1-.8,0Z" fill="rgba(0,0,0,0.65)"/>
          </g>
        </g>
      </g>
      <g id="Group" transform="translate(44 22) rotate(180)">
        <rect id="Rectangle_9" data-name="Rectangle 9" width="20" height="20" transform="translate(20) rotate(180)" fill="none"/>
        <rect id="Combined_Shape-2" data-name="Combined Shape" width="17.5" height="1.875" rx="0.938" transform="translate(18.75 -2.5) rotate(180)" fill="rgba(0,0,0,0.65)"/>
        <rect id="Rectangle_Copy-2" data-name="Rectangle Copy" width="11.25" height="1.875" rx="0.938" transform="translate(12.5 -9.063) rotate(180)" fill="rgba(0,0,0,0.65)"/>
        <path id="Rectangle_6" data-name="Rectangle 6" d="M0,.156A.156.156,0,0,0-.259.039L-3.485,2.858a.313.313,0,0,0,0,.471L-.259,6.14A.156.156,0,0,0,0,6.022Z" transform="translate(15 -6.907) rotate(180)" fill="rgba(0,0,0,0.65)"/>
        <rect id="Rectangle_Copy_2" data-name="Rectangle Copy 2" width="17.5" height="1.875" rx="0.938" transform="translate(18.75 -15.625) rotate(180)" fill="rgba(0,0,0,0.65)"/>
      </g>
    </g>
    <g id="Group_3" data-name="Group 3" transform="translate(0 1)">
      <g transform="matrix(1, 0, 0, 1, 0, -1)" filter="url(#Rectangle_Copy)">
        <rect id="Rectangle_Copy-3" data-name="Rectangle Copy" width="256" height="865" transform="translate(0 1)" fill="#002140"/>
      </g>
      <rect id="Rectangle_Copy_2-2" data-name="Rectangle Copy 2" width="256" height="801" transform="translate(0 64)" fill="#001529"/>
      <rect id="Rectangle_15_Copy" data-name="Rectangle 15 Copy" width="256" height="240" transform="translate(0 125)" fill="#000c17"/>
      <rect id="Rectangle_8" data-name="Rectangle 8" width="256" height="1" transform="translate(0 365)" fill="#001a33"/>
      <rect id="Rectangle_8_Copy_2" data-name="Rectangle 8 Copy 2" width="256" height="40" transform="translate(0 165)" fill="#1890ff"/>
      <g id="Group_52_Copy_9" data-name="Group 52 Copy 9" transform="translate(228 105)">
        <rect id="Rectangle_12" data-name="Rectangle 12" width="12" height="12" transform="translate(12 -12) rotate(90)" fill="none"/>
        <path id="Combined_Shape-3" data-name="Combined Shape" d="M5.015-6a.468.468,0,0,0-.325.12.47.47,0,0,0-.1.137L.121-.782a.468.468,0,0,0,.034.662A.469.469,0,0,0,.817-.155l4.2-4.663,4.2,4.663a.469.469,0,0,0,.662.034A.468.468,0,0,0,9.91-.782L5.445-5.741a.469.469,0,0,0-.105-.138A.468.468,0,0,0,5.026-6Z" transform="translate(0.983 -3.012)" fill="#fff"/>
      </g>
      <g id="Group_52_Copy_13" data-name="Group 52 Copy 13" transform="translate(228 231)">
        <rect id="Rectangle_12-2" data-name="Rectangle 12" width="12" height="12" transform="translate(12 -12) rotate(90)" fill="none"/>
        <path id="Combined_Shape-4" data-name="Combined Shape" d="M5.015-6a.468.468,0,0,0-.325.12.47.47,0,0,0-.1.137L.121-.782a.468.468,0,0,0,.034.662A.469.469,0,0,0,.817-.155l4.2-4.663,4.2,4.663a.469.469,0,0,0,.662.034A.468.468,0,0,0,9.91-.782L5.445-5.741a.469.469,0,0,0-.105-.138A.468.468,0,0,0,5.026-6Z" transform="translate(0.983 -3.012)" fill="#fff"/>
      </g>
      <g id="Group_52_Copy_13-2" data-name="Group 52 Copy 13" transform="translate(228 339)" opacity="0.45">
        <rect id="Rectangle_12-3" data-name="Rectangle 12" width="12" height="12" transform="translate(0 12) rotate(-90)" fill="none"/>
        <path id="Combined_Shape-5" data-name="Combined Shape" d="M5.015,6a.467.467,0,0,1-.43-.257L.121.782a.469.469,0,0,1,.7-.627l4.2,4.663L9.212.155a.469.469,0,0,1,.7.627L5.445,5.741A.468.468,0,0,1,5.026,6Z" transform="translate(0.983 3.012)" fill="#fff"/>
      </g>
      <text id="一级导航_copy" data-name="一级导航 copy" transform="translate(50 103)" fill="#fff" font-size="14" font-family="YuGothicUI-Regular, Yu Gothic UI"><tspan x="0" y="0">一</tspan><tspan y="0" font-family="MicrosoftJhengHeiUIRegular, Microsoft JhengHei UI">级导</tspan><tspan y="0">航</tspan></text>
      <text id="一级导航_copy_2" data-name="一级导航 copy 2" transform="translate(50 395)" fill="#fff" font-size="14" font-family="YuGothicUI-Regular, Yu Gothic UI" opacity="0.65"><tspan x="0" y="0">一</tspan><tspan y="0" font-family="MicrosoftJhengHeiUIRegular, Microsoft JhengHei UI">级导</tspan><tspan y="0">航</tspan></text>
      <text id="一级导航_copy_3" data-name="一级导航 copy 3" transform="translate(50 449)" fill="#fff" font-size="14" font-family="YuGothicUI-Regular, Yu Gothic UI" opacity="0.65"><tspan x="0" y="0">一</tspan><tspan y="0" font-family="MicrosoftJhengHeiUIRegular, Microsoft JhengHei UI">级导</tspan><tspan y="0">航</tspan></text>
      <text id="一级导航_copy_7" data-name="一级导航 copy 7" transform="translate(50 503)" fill="#fff" font-size="14" font-family="YuGothicUI-Regular, Yu Gothic UI" opacity="0.65"><tspan x="0" y="0">一</tspan><tspan y="0" font-family="MicrosoftJhengHeiUIRegular, Microsoft JhengHei UI">级导</tspan><tspan y="0">航</tspan></text>
      <text id="一级导航_copy_8" data-name="一级导航 copy 8" transform="translate(50 557)" fill="#fff" font-size="14" font-family="YuGothicUI-Regular, Yu Gothic UI" opacity="0.65"><tspan x="0" y="0">一</tspan><tspan y="0" font-family="MicrosoftJhengHeiUIRegular, Microsoft JhengHei UI">级导</tspan><tspan y="0">航</tspan></text>
      <text id="一级导航_copy_9" data-name="一级导航 copy 9" transform="translate(50 611)" fill="#fff" font-size="14" font-family="YuGothicUI-Regular, Yu Gothic UI" opacity="0.65"><tspan x="0" y="0">一</tspan><tspan y="0" font-family="MicrosoftJhengHeiUIRegular, Microsoft JhengHei UI">级导</tspan><tspan y="0">航</tspan></text>
      <text id="二级导航_copy" data-name="二级导航 copy" transform="translate(50 149)" fill="#fff" font-size="14" font-family="YuGothicUI-Regular, Yu Gothic UI" opacity="0.65"><tspan x="0" y="0">二</tspan><tspan y="0" font-family="MicrosoftJhengHeiUIRegular, Microsoft JhengHei UI">级导</tspan><tspan y="0">航</tspan></text>
      <text id="二级导航_copy_2" data-name="二级导航 copy 2" transform="translate(50 189)" fill="#fff" font-size="14" font-family="YuGothicUI-Regular, Yu Gothic UI"><tspan x="0" y="0">二</tspan><tspan y="0" font-family="MicrosoftJhengHeiUIRegular, Microsoft JhengHei UI">级导</tspan><tspan y="0">航</tspan></text>
      <text id="二级导航" transform="translate(50 229)" fill="#fff" font-size="14" font-family="YuGothicUI-Regular, Yu Gothic UI" opacity="0.65"><tspan x="0" y="0">二</tspan><tspan y="0" font-family="MicrosoftJhengHeiUIRegular, Microsoft JhengHei UI">级导</tspan><tspan y="0">航</tspan></text>
      <text id="二级导航_copy_5" data-name="二级导航 copy 5" transform="translate(50 349)" fill="#fff" font-size="14" font-family="YuGothicUI-Regular, Yu Gothic UI" opacity="0.65"><tspan x="0" y="0">二</tspan><tspan y="0" font-family="MicrosoftJhengHeiUIRegular, Microsoft JhengHei UI">级导</tspan><tspan y="0">航</tspan></text>
      <text id="三级导航_copy_2" data-name="三级导航 copy 2" transform="translate(74 269)" fill="#fff" font-size="14" font-family="YuGothicUI-Regular, Yu Gothic UI" opacity="0.65"><tspan x="0" y="0">三</tspan><tspan y="0" font-family="MicrosoftJhengHeiUIRegular, Microsoft JhengHei UI">级导</tspan><tspan y="0">航</tspan></text>
      <text id="三级导航_copy_3" data-name="三级导航 copy 3" transform="translate(74 309)" fill="#fff" font-size="14" font-family="YuGothicUI-Regular, Yu Gothic UI" opacity="0.65"><tspan x="0" y="0">三</tspan><tspan y="0" font-family="MicrosoftJhengHeiUIRegular, Microsoft JhengHei UI">级导</tspan><tspan y="0">航</tspan></text>
      <g id="Group_52_Copy_10" data-name="Group 52 Copy 10" transform="translate(228 385)" opacity="0.45">
        <rect id="Rectangle_12-4" data-name="Rectangle 12" width="12" height="12" transform="translate(0 12) rotate(-90)" fill="none"/>
        <path id="Combined_Shape-6" data-name="Combined Shape" d="M5.015,6a.467.467,0,0,1-.43-.257L.121.782a.469.469,0,0,1,.7-.627l4.2,4.663L9.212.155a.469.469,0,0,1,.7.627L5.445,5.741A.468.468,0,0,1,5.026,6Z" transform="translate(0.983 3.012)" fill="#fff"/>
      </g>
      <g id="Group_52_Copy_11" data-name="Group 52 Copy 11" transform="translate(228 439)" opacity="0.45">
        <rect id="Rectangle_12-5" data-name="Rectangle 12" width="12" height="12" transform="translate(0 12) rotate(-90)" fill="none"/>
        <path id="Combined_Shape-7" data-name="Combined Shape" d="M5.015,6a.467.467,0,0,1-.43-.257L.121.782a.469.469,0,0,1,.7-.627l4.2,4.663L9.212.155a.469.469,0,0,1,.7.627L5.445,5.741A.468.468,0,0,1,5.026,6Z" transform="translate(0.983 3.012)" fill="#fff"/>
      </g>
      <g id="Group_52_Copy_12" data-name="Group 52 Copy 12" transform="translate(228 493)" opacity="0.45">
        <rect id="Rectangle_12-6" data-name="Rectangle 12" width="12" height="12" transform="translate(0 12) rotate(-90)" fill="none"/>
        <path id="Combined_Shape-8" data-name="Combined Shape" d="M5.015,6a.467.467,0,0,1-.43-.257L.121.782a.469.469,0,0,1,.7-.627l4.2,4.663L9.212.155a.469.469,0,0,1,.7.627L5.445,5.741A.468.468,0,0,1,5.026,6Z" transform="translate(0.983 3.012)" fill="#fff"/>
      </g>
      <g id="check-circle-o_copy" data-name="check-circle-o copy" transform="translate(24 546)" opacity="0.65">
        <path id="Shape-2" data-name="Shape" d="M6.565.144,2.087,4.636.92,2.592a.492.492,0,1,0-.854.488l1.487,2.6a.493.493,0,0,0,.428.249.488.488,0,0,0,.243-.064.513.513,0,0,0,.116-.092l.005-.005L7.261.842a.492.492,0,0,0,0-.7A.488.488,0,0,0,6.565.144Z" transform="translate(3.297 4.034)" fill="#fff"/>
        <path id="Shape-3" data-name="Shape" d="M0,7a7,7,0,1,1,7,7A7,7,0,0,1,0,7Z" fill="#fff"/>
      </g>
      <g id="Group_3_Copy" data-name="Group 3 Copy" transform="translate(24 92)">
        <g id="Group_3_Copy-2" data-name="Group 3 Copy" clip-path="url(#clip-path-2)">
          <g id="dashboard" transform="translate(0 1)">
            <path id="Shape-4" data-name="Shape" d="M7,0A7.083,7.083,0,0,0,0,7.165,7.208,7.208,0,0,0,2.8,12.9v0A.488.488,0,0,0,3.1,13a.5.5,0,0,0,.492-.5.506.506,0,0,0-.242-.434A6.1,6.1,0,0,1,2.021,10.62l.6-.357a.454.454,0,0,0,.16-.612.432.432,0,0,0-.6-.164l-.6.357A6.193,6.193,0,0,1,1,7.612H1.7a.448.448,0,0,0,0-.9H1a6.261,6.261,0,0,1,.585-2.239l.6.355a.432.432,0,0,0,.6-.164.454.454,0,0,0-.16-.612l-.6-.354A6.128,6.128,0,0,1,3.619,2.072l.346.614a.432.432,0,0,0,.6.164.454.454,0,0,0,.16-.612l-.347-.616a5.857,5.857,0,0,1,2.188-.6v.711a.438.438,0,1,0,.875,0V1.024a5.887,5.887,0,0,1,2.181.6l-.349.619a.454.454,0,0,0,.16.612.432.432,0,0,0,.6-.164l.349-.619a6.1,6.1,0,0,1,1.6,1.636l-.6.354a.454.454,0,0,0-.16.612.432.432,0,0,0,.6.164l.6-.355A6.225,6.225,0,0,1,13,6.717H12.3a.448.448,0,0,0,0,.9H13a6.241,6.241,0,0,1-.582,2.232l-.6-.357a.432.432,0,0,0-.6.164.454.454,0,0,0,.16.612l.6.357a6.111,6.111,0,0,1-1.37,1.471l0,0a.506.506,0,0,0-.194.4.5.5,0,0,0,.492.5.486.486,0,0,0,.351-.151A7.209,7.209,0,0,0,14,7.165,7.083,7.083,0,0,0,7,0Z" fill="#fff"/>
            <path id="Shape-5" data-name="Shape" d="M3.139.1,1.421,1.469h0a.956.956,0,0,0-.436-.1A1,1,0,0,0,0,2.373,1,1,0,0,0,.984,3.381a1,1,0,0,0,.984-1.008.966.966,0,0,0-.018-.19L3.678.8A.455.455,0,0,0,3.753.172.431.431,0,0,0,3.139.1Z" transform="translate(6.016 4.786)" fill="#fff"/>
          </g>
        </g>
      </g>
      <g id="Group_5_Copy" data-name="Group 5 Copy" transform="translate(24 439)" opacity="0.65">
        <g id="Group_5_Copy-2" data-name="Group 5 Copy" clip-path="url(#clip-path-2)">
          <g id="列表" transform="translate(0 1)">
            <path id="Shape-6" data-name="Shape" d="M9.625,11H.985A1.008,1.008,0,0,1,0,9.968V1.031A1.008,1.008,0,0,1,.985,0H13.016A1.008,1.008,0,0,1,14,1.031V9.968A1.008,1.008,0,0,1,13.016,11Z" fill="#fff"/>
          </g>
        </g>
      </g>
      <g id="Group_9_Copy" data-name="Group 9 Copy" transform="translate(24 384)" opacity="0.65">
        <rect id="Rectangle_7" data-name="Rectangle 7" width="14" height="14" fill="none"/>
        <path id="Shape-7" data-name="Shape" d="M10.883,5.141a.492.492,0,0,0-.492.492c0,.019,0,.037,0,.055h0v4.7H.984V.984H6.125a.492.492,0,0,0,0-.984H.984A.984.984,0,0,0,0,.984v9.406a.984.984,0,0,0,.984.984h9.406a.984.984,0,0,0,.984-.984v-4.7h0c0-.018,0-.036,0-.055A.492.492,0,0,0,10.883,5.141Z" transform="translate(0.875 1.75)" fill="#fff"/>
        <path id="Shape-8" data-name="Shape" d="M.129,9.558a.434.434,0,0,1-.093-.481L1.4,5.859a.436.436,0,0,1,.093-.139L6.924.29a.987.987,0,0,1,1.394,0L9.4,1.371a.988.988,0,0,1,0,1.4L3.969,8.2a.44.44,0,0,1-.139.093L.61,9.652a.441.441,0,0,1-.174.036A.435.435,0,0,1,.129,9.558Z" transform="translate(4.306 0)" fill="#fff"/>
      </g>
      <g id="Group_5_Copy_2" data-name="Group 5 Copy 2" transform="translate(24 492)" opacity="0.65">
        <g id="Group_5_Copy_2-2" data-name="Group 5 Copy 2" clip-path="url(#clip-path-2)">
          <g id="详情" transform="translate(1 1)">
            <path id="Shape-9" data-name="Shape" d="M.964,12A.963.963,0,0,1,0,11.036V.964A.963.963,0,0,1,.964,0H11.036A.963.963,0,0,1,12,.964V11.036a.963.963,0,0,1-.964.964Z" fill="#fff"/>
            <path id="Shape-10" data-name="Shape" d="M.482.964H4.661a.482.482,0,1,0,0-.964H.482a.482.482,0,0,0,0,.964Z" transform="translate(4.286 8.089)" fill="#fff"/>
            <path id="Shape-11" data-name="Shape" d="M.482.964H4.661a.482.482,0,1,0,0-.964H.482a.482.482,0,0,0,0,.964Z" transform="translate(4.286 2.946)" fill="#fff"/>
            <path id="Shape-12" data-name="Shape" d="M.482.964H4.661a.482.482,0,1,0,0-.964H.482a.482.482,0,0,0,0,.964Z" transform="translate(4.286 5.518)" fill="#fff"/>
            <path id="Oval-2" data-name="Oval" d="M.482.964A.482.482,0,1,0,0,.482.482.482,0,0,0,.482.964Z" transform="translate(2.571 8.089)" fill="#fff"/>
            <path id="Oval-3" data-name="Oval" d="M.482.964A.482.482,0,1,0,0,.482.482.482,0,0,0,.482.964Z" transform="translate(2.571 2.946)" fill="#fff"/>
            <path id="Oval-4" data-name="Oval" d="M.482.964A.482.482,0,1,0,0,.482.482.482,0,0,0,.482.964Z" transform="translate(2.571 5.518)" fill="#fff"/>
          </g>
        </g>
      </g>
      <g id="Group_7_Copy" data-name="Group 7 Copy" transform="translate(24 600)" opacity="0.65">
        <rect id="Rectangle_17" data-name="Rectangle 17" width="14" height="14" fill="none"/>
        <g id="error" transform="translate(0.219 0.861)">
          <path id="Shape-13" data-name="Shape" d="M1.477,12.259A1.478,1.478,0,0,1,0,10.782a1.462,1.462,0,0,1,.194-.73L5.5.747A1.478,1.478,0,0,1,7.514.194a1.484,1.484,0,0,1,.551.551l5.306,9.307a1.478,1.478,0,0,1-1.284,2.207Z" transform="translate(0 0.013)" fill="#fff"/>
          <path id="Shape-14" data-name="Shape" d="M.547,0A.547.547,0,0,0,0,.547V.711a.547.547,0,0,0,1.094,0V.547A.547.547,0,0,0,.547,0Z" transform="translate(6.234 9.023)" fill="#fff"/>
          <path id="Shape-15" data-name="Shape" d="M.547,0A.547.547,0,0,0,0,.547V4.211a.547.547,0,0,0,1.094,0V.547A.547.547,0,0,0,.547,0Z" transform="translate(6.234 3.391)" fill="#fff"/>
        </g>
      </g>
    </g>
    <g id="Group_11" data-name="Group 11" transform="translate(24 17)">
      <g id="Group_5" data-name="Group 5">
        <g id="T1B9hfXcdvXXXXXXXX">
          <g id="Group-2" data-name="Group">
            <path id="Shape-16" data-name="Shape" d="M16.79.43l6.1,6.1a1.467,1.467,0,0,1,0,2.075h0a1.467,1.467,0,0,1-2.075,0L16.79,4.58a1.467,1.467,0,0,0-2.075,0L4.58,14.714a1.467,1.467,0,0,0,0,2.075L14.715,26.924a1.467,1.467,0,0,0,2.075,0l4.03-4.03a1.467,1.467,0,0,1,2.075,0h0a1.467,1.467,0,0,1,0,2.075l-6.1,6.1a1.467,1.467,0,0,1-2.075,0L.43,16.789a1.467,1.467,0,0,1,0-2.075L14.714.43A1.468,1.468,0,0,1,16.79.43Z" transform="translate(0.205 0.206)" fill="url(#linear-gradient)"/>
            <path id="Shape-17" data-name="Shape" d="M.43.43h0A1.467,1.467,0,0,1,2.5.43l4.03,4.03a1.467,1.467,0,0,1,0,2.075L2.5,10.564a1.467,1.467,0,0,1-2.075,0h0a1.467,1.467,0,0,1,0-2.075L2.384,6.535a1.467,1.467,0,0,0,0-2.075L.43,2.505A1.468,1.468,0,0,1,.43.43Z" transform="translate(24.745 10.46)" fill="url(#linear-gradient-2)"/>
          </g>
          <path id="Shape-18" data-name="Shape" d="M0,4.648A4.647,4.647,0,1,1,4.648,9.294,4.648,4.648,0,0,1,0,4.648Z" transform="translate(11.31 11.31)" fill="url(#linear-gradient-3)"/>
        </g>
      </g>
      <path id="Ant_Design_Pro" data-name="Ant Design Pro" d="M79.455,18c-2.583,0-4.468-1.251-4.692-3.114h2.705a2.012,2.012,0,0,0,2.062,1.187A1.957,1.957,0,0,0,81.754,14.1V12.313H81.7A3.273,3.273,0,0,1,78.565,14.1a3.734,3.734,0,0,1-2.983-1.352,5.752,5.752,0,0,1-1.132-3.709c0-3.191,1.595-5.174,4.162-5.174a3.333,3.333,0,0,1,3.131,1.87h.048V3.987h2.724V14.022C84.516,16.439,82.529,18,79.455,18ZM79.5,6.095c-1.371,0-2.223,1.135-2.223,2.962s.831,2.905,2.223,2.905,2.261-1.113,2.261-2.905S80.876,6.095,79.5,6.095Zm45.474,8.25a4.931,4.931,0,0,1-3.671-1.4,5.468,5.468,0,0,1-1.351-3.878c0-3.244,1.925-5.26,5.023-5.26S130,5.822,130,9.067a5.469,5.469,0,0,1-1.351,3.882A4.934,4.934,0,0,1,124.977,14.345Zm0-8.421c-1.392,0-2.223,1.178-2.223,3.152s.831,3.152,2.223,3.152,2.214-1.178,2.214-3.152S126.363,5.924,124.977,5.924ZM64.291,14.345c-2.644,0-4.377-1.255-4.522-3.275h2.7c.123.845.816,1.328,1.9,1.328,1.039,0,1.684-.407,1.684-1.063,0-.508-.339-.778-1.249-1l-1.873-.418C61,9.483,60.024,8.5,60.024,7c0-1.938,1.678-3.19,4.276-3.19,2.547,0,4.21,1.275,4.238,3.247H65.993c-.048-.8-.711-1.3-1.732-1.3-.945,0-1.579.431-1.579,1.073,0,.487.433.826,1.325,1.035l1.939.418c2.03.455,2.857,1.256,2.857,2.763C68.8,13.017,66.99,14.345,64.291,14.345Zm-10.227,0a4.908,4.908,0,0,1-3.661-1.4,5.4,5.4,0,0,1-1.334-3.825,5.6,5.6,0,0,1,1.325-3.876,5.16,5.16,0,0,1,7.078-.071,5.222,5.222,0,0,1,1.3,3.69v.845H51.784v.171a2.244,2.244,0,0,0,2.327,2.411,2.011,2.011,0,0,0,2.043-1.244H58.69A3.543,3.543,0,0,1,57.2,13.442,5.355,5.355,0,0,1,54.064,14.345Zm-.076-8.488a2.184,2.184,0,0,0-2.175,2.155h4.3A2.09,2.09,0,0,0,53.988,5.857ZM29.212,14.2c-2.382,0-3.31-.783-3.31-2.792V6.076H24.473V3.987H25.9V1.643h2.762V3.987h1.873V6.076H28.664v4.861c0,.779.39,1.158,1.192,1.158a4.443,4.443,0,0,0,.672-.048v2.041A6.934,6.934,0,0,1,29.212,14.2Zm59.864-.038H86.314V3.987h2.668V5.819h.057a3.156,3.156,0,0,1,3.169-1.984c2.236,0,3.519,1.388,3.519,3.807v6.52H92.964V8.222c0-1.367-.648-2.089-1.873-2.089a2,2,0,0,0-2.015,2.241v5.791Zm-72.312,0H14V3.987h2.668V5.819h.057a3.156,3.156,0,0,1,3.169-1.984c2.236,0,3.519,1.388,3.519,3.807v6.52H20.651V8.222c0-1.367-.648-2.089-1.873-2.089a2,2,0,0,0-2.015,2.241v5.791Zm-13.831,0H0L4.739.465H8.1l4.748,13.7H9.81L8.77,10.841h-4.8L2.932,14.164ZM6.338,3.085,4.588,8.7H8.155L6.4,3.085Zm109.7,11.079h-2.762V3.987h2.668V5.819H116a2.4,2.4,0,0,1,2.412-1.956,2.522,2.522,0,0,1,.786.1v2.44a2.857,2.857,0,0,0-1-.161,2.016,2.016,0,0,0-2.157,2.269v5.647Zm-11.636,0h-2.857V.465H107.1a4.459,4.459,0,0,1,4.729,4.69,4.568,4.568,0,0,1-1.357,3.4,4.959,4.959,0,0,1-3.514,1.291H104.4v4.318Zm0-11.43V7.6h1.93a2.293,2.293,0,0,0,2.592-2.44,2.284,2.284,0,0,0-2.583-2.43ZM72.985,14.164H70.222V3.987h2.763V14.163Zm-31.654,0H36.119V.465h5.212c4.136,0,6.509,2.478,6.509,6.8a7.238,7.238,0,0,1-1.718,5.081A6.378,6.378,0,0,1,41.331,14.164ZM38.975,2.829v8.962H40.99c2.575,0,3.936-1.563,3.936-4.519,0-2.865-1.4-4.443-3.936-4.443ZM71.6,2.867a1.434,1.434,0,1,1,1.476-1.434A1.44,1.44,0,0,1,71.6,2.867Z" transform="translate(44 8)" fill="#fff" stroke="#002140" stroke-miterlimit="10" stroke-width="0.3"/>
    </g>
    <g id="Group_9" data-name="Group 9" transform="translate(280 186)">
      <rect id="Rectangle_5" data-name="Rectangle 5" width="1136" height="418" rx="2" fill="#fff"/>
    </g>
    <g id="Group_27" data-name="Group 27" transform="translate(288 80)">
      <text id="表单页" transform="translate(51 15)" fill="rgba(0,0,0,0.45)" font-size="14" font-family="YuGothicUI-Regular, Yu Gothic UI"><tspan x="0" y="0">表</tspan><tspan y="0" font-family="MicrosoftJhengHeiUIRegular, Microsoft JhengHei UI">单页</tspan></text>
      <text id="分步表单" transform="translate(116 15)" fill="rgba(0,0,0,0.65)" font-size="14" font-family="YuGothicUI-Regular, Yu Gothic UI"><tspan x="0" y="0">分步表</tspan><tspan y="0" font-family="MicrosoftJhengHeiUIRegular, Microsoft JhengHei UI">单</tspan></text>
      <text id="首页" transform="translate(0 15)" fill="rgba(0,0,0,0.45)" font-size="14" font-family="YuGothicUI-Regular, Yu Gothic UI"><tspan x="0" y="0">首</tspan><tspan y="0" font-family="MicrosoftJhengHeiUIRegular, Microsoft JhengHei UI">页</tspan></text>
      <text id="_" data-name="/" transform="translate(36 15)" fill="rgba(0,0,0,0.45)" font-size="14" font-family="SegoeUI, Segoe UI"><tspan x="0" y="0">/</tspan></text>
      <text id="_copy_3" data-name="/ copy 3" transform="translate(101 15)" fill="rgba(0,0,0,0.45)" font-size="14" font-family="SegoeUI, Segoe UI"><tspan x="0" y="0">/</tspan></text>
    </g>
    <g id="Group_8" data-name="Group 8" transform="translate(730 646)">
      <g id="Group_2_Copy" data-name="Group 2 Copy" transform="translate(0 30)">
        <g id="Group-3" data-name="Group" transform="translate(59 4)">
          <path id="Shape-19" data-name="Shape" d="M5.506,11.977a6,6,0,1,1,.5.02C5.842,12,5.675,11.991,5.506,11.977Z" transform="translate(0.001 0.001)" fill="rgba(0,0,0,0.45)"/>
          <path id="Shape-20" data-name="Shape" d="M3.193,5.357a2.143,2.143,0,0,1,0-4.286,2.172,2.172,0,0,1,1.757.9H6.171A3.211,3.211,0,1,0,3.214,6.429a3.238,3.238,0,0,0,3-2.036h-1.2A2.179,2.179,0,0,1,3.193,5.357Z" transform="translate(2.914 2.786)" fill="rgba(0,0,0,0.45)"/>
        </g>
        <text id="Copyright" transform="translate(0 13)" fill="rgba(0,0,0,0.45)" font-size="12" font-family="SegoeUI, Segoe UI"><tspan x="0" y="0">Copyright</tspan></text>
        <text id="_2017_蚂蚁金服体验技术部出品" data-name="2017 蚂蚁金服体验技术部出品" transform="translate(75 13)" fill="rgba(0,0,0,0.45)" font-size="12" font-family="SegoeUI, Segoe UI"><tspan x="0" y="0">2017 </tspan><tspan y="0" font-family="MicrosoftJhengHeiUIRegular, Microsoft JhengHei UI">蚂蚁</tspan><tspan y="0" font-family="YuGothicUI-Regular, Yu Gothic UI">金服体</tspan><tspan y="0" font-family="MicrosoftJhengHeiUIRegular, Microsoft JhengHei UI">验</tspan><tspan y="0" font-family="YuGothicUI-Regular, Yu Gothic UI">技</tspan><tspan y="0" font-family="MicrosoftJhengHeiUIRegular, Microsoft JhengHei UI">术</tspan><tspan y="0" font-family="YuGothicUI-Regular, Yu Gothic UI">部出品</tspan></text>
      </g>
      <g id="Group_8_Copy" data-name="Group 8 Copy" transform="translate(37)">
        <text id="帮助" transform="translate(0 15)" fill="rgba(0,0,0,0.45)" font-size="14" font-family="YuGothicUI-Regular, Yu Gothic UI"><tspan x="0" y="0">帮助</tspan></text>
        <text id="隐私" transform="translate(68 15)" fill="rgba(0,0,0,0.45)" font-size="14" font-family="MicrosoftJhengHeiUIRegular, Microsoft JhengHei UI"><tspan x="0" y="0">隐</tspan><tspan y="0" font-family="YuGothicUI-Regular, Yu Gothic UI">私</tspan></text>
        <text id="条款" transform="translate(136 15)" fill="rgba(0,0,0,0.45)" font-size="14" font-family="YuGothicUI-Regular, Yu Gothic UI"><tspan x="0" y="0">条款</tspan></text>
      </g>
    </g>
    <g id="Group_26_Copy" data-name="Group 26 Copy" transform="translate(1031 44)">
      <g transform="matrix(1, 0, 0, 1, -1031, -44)" filter="url(#Combined_Shape)">
        <path id="Combined_Shape-9" data-name="Combined Shape" d="M4,327a4,4,0,0,1-4-4V11A4,4,0,0,1,4,7H272.284l7-7,7,7H332a4,4,0,0,1,4,4V323a4,4,0,0,1-4,4Z" transform="translate(1031 44)" fill="#fff"/>
      </g>
      <g id="bells_1_" data-name="bells (1)" transform="translate(130 128)">
        <path id="Shape-21" data-name="Shape" d="M18.525,56.089V53.26H2.138a2.121,2.121,0,1,1,0-4.242H3.8V22.624A18.908,18.908,0,0,1,20.662,3.889V2.121a2.138,2.138,0,0,1,4.275,0V3.889A18.907,18.907,0,0,1,41.8,22.624V49.019h1.663a2.121,2.121,0,1,1,0,4.242H27.075v2.829a4.275,4.275,0,0,1-8.55,0Z" transform="translate(17.024)" fill="rgba(163,177,191,0.4)"/>
        <path id="Triangle_36" data-name="Triangle 36" d="M1.756,3.829A1.216,1.216,0,0,1,0,2.74v-1.2A1.216,1.216,0,0,1,1.756.449l1.21.6a1.216,1.216,0,0,1,0,2.179Z" transform="translate(71.136 13.273)" fill="rgba(163,177,191,0.4)"/>
        <ellipse id="Oval_203" data-name="Oval 203" cx="2.432" cy="2.413" rx="2.432" ry="2.413" transform="translate(13.984 5.206)" fill="none" stroke="rgba(163,177,191,0.4)" stroke-miterlimit="10" stroke-width="1.824"/>
        <path id="Combined_Shape-10" data-name="Combined Shape" d="M2.37,5.387V3.575H.671a.67.67,0,1,1,0-1.34h1.7V.647a.671.671,0,0,1,1.341,0V2.235h1.7a.67.67,0,1,1,0,1.34h-1.7V5.387a.671.671,0,0,1-1.341,0Z" transform="translate(68.096 45.025)" fill="rgba(163,177,191,0.4)"/>
        <path id="Combined_Shape_Copy" data-name="Combined Shape Copy" d="M2.37,5.387V3.575H.671a.67.67,0,1,1,0-1.34h1.7V.647a.671.671,0,0,1,1.341,0V2.235h1.7a.67.67,0,1,1,0,1.34h-1.7V5.387a.671.671,0,0,1-1.341,0Z" transform="translate(0 34.768)" fill="rgba(163,177,191,0.4)"/>
        <ellipse id="Oval_4" data-name="Oval 4" cx="19.456" cy="1.81" rx="19.456" ry="1.81" transform="translate(20.672 69.38)" fill="rgba(163,177,191,0.25)"/>
      </g>
      <text id="你已阅完所有通知" transform="translate(112 232)" fill="rgba(0,0,0,0.45)" font-size="14" font-family="YuGothicUI-Regular, Yu Gothic UI"><tspan x="0" y="0">你已</tspan><tspan y="0" font-family="MicrosoftJhengHeiUIRegular, Microsoft JhengHei UI">阅</tspan><tspan y="0">完所有通知</tspan></text>
      <g id="Group_10" data-name="Group 10" transform="translate(32 19)">
        <text id="通知" transform="translate(0 16)" fill="#1890ff" font-size="14" font-family="YuGothicUI-Regular, Yu Gothic UI"><tspan x="0" y="0">通知</tspan></text>
        <text id="_4_" data-name="(4)" transform="translate(32 15)" fill="#1890ff" font-size="14" font-family="SegoeUI, Segoe UI"><tspan x="0" y="0">(4)</tspan></text>
      </g>
      <g id="Group_12" data-name="Group 12" transform="translate(144 19)">
        <text id="_3_" data-name="(3)" transform="translate(32 15)" fill="rgba(0,0,0,0.65)" font-size="14" font-family="SegoeUI, Segoe UI"><tspan x="0" y="0">(3)</tspan></text>
        <text id="消息" transform="translate(0 16)" fill="rgba(0,0,0,0.65)" font-size="14" font-family="YuGothicUI-Regular, Yu Gothic UI"><tspan x="0" y="0">消息</tspan></text>
      </g>
      <g id="Group_14" data-name="Group 14" transform="translate(256 19)">
        <text id="_3_2" data-name="(3)" transform="translate(32 15)" fill="rgba(0,0,0,0.65)" font-size="14" font-family="SegoeUI, Segoe UI"><tspan x="0" y="0">(3)</tspan></text>
        <text id="待办" transform="translate(0 16)" fill="rgba(0,0,0,0.65)" font-size="14" font-family="YuGothicUI-Regular, Yu Gothic UI"><tspan x="0" y="0">待</tspan><tspan y="0" font-family="MicrosoftJhengHeiUIRegular, Microsoft JhengHei UI">办</tspan></text>
      </g>
      <rect id="Rectangle_8-2" data-name="Rectangle 8" width="336" height="1" transform="translate(0 54)" fill="#e8e8e8"/>
      <rect id="Rectangle_8-3" data-name="Rectangle 8" width="80" height="2" transform="translate(16 53)" fill="#1890ff"/>
    </g>
  </g>
</svg>
