<svg xmlns="http://www.w3.org/2000/svg" viewBox="0 0 550.66 542.75"><defs><style>.cls-1{fill:#bdefe9;}.cls-2{fill:#8fd8d1;}.cls-3{fill:#f1f2f2;}.cls-4{fill:#f4d87e;}.cls-5{fill:#097c71;}.cls-6{fill:#1c938a;}.cls-7{fill:#00564c;}.cls-8{fill:#c13633;}.cls-9{fill:#d54b42;}.cls-10{fill:#db5956;}.cls-11{fill:#d1d3d4;}.cls-12{fill:#a7a9ac;}.cls-13{fill:#bcbec0;}.cls-14{fill:#3bafa9;}.cls-15{fill:#1c1c1d;}.cls-16{fill:#a97c50;}.cls-17{fill:#e6e7e8;}.cls-18{fill:#808285;}.cls-19{fill:#fff;}</style></defs><title>Asset 1</title><g id="Layer_2" data-name="Layer 2"><g id="design"><path class="cls-1" d="M548.25,310.78q-.43-54.39.82-109.06l.06-2.89c.58-32.4-1.55-65.18-11.15-92.82-5.23-15.07-12.68-28.62-23.11-39.73-25.95-27.63-52.53-40.46-83.57-38.83-31.19,1.64-62.06,1.72-91.47-14-43.12-23.06-103.1-14.79-147,12.16C154.63,49,127,95.17,109.73,139.05,91.33,185.7,77.57,248.69,90.35,301.16c5.79,23.81,19.4,47.35,40,57.22,17.5,8.37,37.82,6.42,56.94,9.05,33.51,4.6,63.59,23.5,89.32,48.21,39.42,37.87,67.53,104.3,117.63,122.7,19.05,7,41.15,5.64,63-3.89,41.24-18,79.71-68.06,90.33-122.23C554,379.57,548.5,343.11,548.25,310.78Z"/><path class="cls-2" d="M215.39,134.61h-13A86.57,86.57,0,0,0,192.63,111l9.17-9.18a7.79,7.79,0,0,0,0-11L182.91,71.89a7.81,7.81,0,0,0-11,0l-9.17,9.18a86.72,86.72,0,0,0-23.62-9.79v-13a7.8,7.8,0,0,0-7.8-7.8H104.57a7.8,7.8,0,0,0-7.79,7.8v13a86.59,86.59,0,0,0-23.62,9.79L64,71.89a7.8,7.8,0,0,0-11,0L34.06,90.78a7.81,7.81,0,0,0,0,11L43.24,111a86.26,86.26,0,0,0-9.78,23.62h-13a7.8,7.8,0,0,0-7.8,7.79v26.72a7.8,7.8,0,0,0,7.8,7.8h13a86.32,86.32,0,0,0,9.78,23.61l-9.18,9.18a7.81,7.81,0,0,0,0,11L53,239.63a7.8,7.8,0,0,0,11,0l9.18-9.18a86.28,86.28,0,0,0,23.62,9.79v13a7.8,7.8,0,0,0,7.79,7.8h26.72a7.8,7.8,0,0,0,7.8-7.8v-13a86.41,86.41,0,0,0,23.62-9.79l9.17,9.18a7.81,7.81,0,0,0,11,0l18.89-18.89a7.79,7.79,0,0,0,0-11l-9.17-9.18a86.64,86.64,0,0,0,9.78-23.61h13a7.8,7.8,0,0,0,7.79-7.8V142.4A7.79,7.79,0,0,0,215.39,134.61Zm-97.46,73.86a52.71,52.71,0,1,1,52.71-52.71A52.71,52.71,0,0,1,117.93,208.47Z"/><path class="cls-1" d="M123.67,439.28h-5.1a33.89,33.89,0,0,0-3.85-9.28l3.61-3.61a3.05,3.05,0,0,0,0-4.33l-7.42-7.43a3.08,3.08,0,0,0-4.34,0l-3.6,3.61a34.2,34.2,0,0,0-9.28-3.85v-5.1a3.07,3.07,0,0,0-3.07-3.06H80.12a3.06,3.06,0,0,0-3.06,3.06v5.1a34.2,34.2,0,0,0-9.28,3.85l-3.61-3.61a3.07,3.07,0,0,0-4.33,0l-7.43,7.43a3.05,3.05,0,0,0,0,4.33L56,430a34.2,34.2,0,0,0-3.85,9.28h-5.1A3.06,3.06,0,0,0,44,442.34v10.5a3.07,3.07,0,0,0,3.06,3.07h5.1A34.2,34.2,0,0,0,56,465.19l-3.61,3.6a3.07,3.07,0,0,0,0,4.34l7.43,7.42a3.05,3.05,0,0,0,4.33,0l3.61-3.6a34.18,34.18,0,0,0,9.28,3.84v5.1A3.06,3.06,0,0,0,80.12,489h10.5a3.07,3.07,0,0,0,3.07-3.06v-5.1A34.18,34.18,0,0,0,103,477l3.6,3.6a3.07,3.07,0,0,0,4.34,0l7.42-7.42a3.07,3.07,0,0,0,0-4.34l-3.61-3.6a33.89,33.89,0,0,0,3.85-9.28h5.1a3.07,3.07,0,0,0,3.06-3.07v-10.5A3.06,3.06,0,0,0,123.67,439.28Zm-38.3,29a20.71,20.71,0,1,1,20.71-20.71A20.71,20.71,0,0,1,85.37,468.3Z"/><path class="cls-1" d="M74.13,387.26H71a20.75,20.75,0,0,0-2.34-5.66l2.2-2.2a1.86,1.86,0,0,0,0-2.64l-4.53-4.53a1.88,1.88,0,0,0-2.64,0l-2.2,2.2a20.81,20.81,0,0,0-5.65-2.34V369A1.87,1.87,0,0,0,54,367.11h-6.4A1.87,1.87,0,0,0,45.72,369v3.11a20.75,20.75,0,0,0-5.66,2.34l-2.19-2.2a1.88,1.88,0,0,0-2.64,0l-4.53,4.53a1.86,1.86,0,0,0,0,2.64l2.2,2.2a20.77,20.77,0,0,0-2.35,5.66h-3.1a1.87,1.87,0,0,0-1.87,1.86v6.4a1.87,1.87,0,0,0,1.87,1.87h3.1a20.77,20.77,0,0,0,2.35,5.66l-2.2,2.19a1.88,1.88,0,0,0,0,2.65l4.53,4.52a1.86,1.86,0,0,0,2.64,0l2.19-2.2a20.77,20.77,0,0,0,5.66,2.35v3.1a1.87,1.87,0,0,0,1.87,1.87H54a1.87,1.87,0,0,0,1.87-1.87v-3.1a20.84,20.84,0,0,0,5.65-2.35l2.2,2.2a1.86,1.86,0,0,0,2.64,0l4.53-4.52a1.88,1.88,0,0,0,0-2.65l-2.2-2.19A20.75,20.75,0,0,0,71,397.39h3.11A1.87,1.87,0,0,0,76,395.52v-6.4A1.87,1.87,0,0,0,74.13,387.26ZM50.79,405a12.63,12.63,0,1,1,12.62-12.63A12.64,12.64,0,0,1,50.79,405Z"/><ellipse class="cls-3" cx="187.33" cy="512.74" rx="187.33" ry="21.9"/><path class="cls-4" d="M375.32,341.25l8.18,11.38,5.15,1.81c1.92.67,4.45,3.71,3.76,5.62-3.55,9.78-15.17,36.23-18.11,40.05,0,0-3.92-3.27-2.49-6.6s3.5-28.37,3.5-28.37l-7.81-10.5Z"/><path class="cls-5" d="M394.42,359.19s-5.19-6.08-8.3-5.64a15.21,15.21,0,0,1,1.7,10c-1.54,4.74-5.37,20.22-13.94,16.85-1.47,5.31-3.41,15.95-2.59,21,0,0,2.75.63,4.33-1,0,0,5.84-8.14,7.82-11.25L393.26,365l7-.24,1.25-2.82Z"/><path class="cls-6" d="M401.91,244.22S324.17,258.49,314,263.73s-1.56,17.55,12.12,36.23,43.74,62,43.74,62l11.78-13.47-33.74-59.9s81,1.64,89-7.79,7.71-22.14,3.62-37.18Z"/><path class="cls-7" d="M339.8,87.87c-7.7-.18-25.63,31.29,25.54,49,17.47,6,50.87-1.38,57.76-10.52,0,0-27.7-60.26-57.12-57.33C341.42,71.45,339.8,87.87,339.8,87.87Z"/><path class="cls-4" d="M279.13,220.1l11.61-7.45L306,215l52.12-10.79,1.76,15.27-52,1.53-5.57,1.25a6.85,6.85,0,0,1-4.78-.66l-7-3.76-10.22,5.88Z"/><path class="cls-8" d="M373.47,137.8c-12,1.55-6.08,19.39-11.27,63.42l-50.8,8.53,2.75,12.35s55.06-.67,63.46-2.06C386.82,197.23,393.72,135.19,373.47,137.8Z"/><path class="cls-4" d="M395.75,135.39c-5.35,5-4.49,11.11-12.28,10.79-12.15,1.7-11.77-14.28-11.77-14.28-4.67,1.55-13.26,2.32-20.1-8-7.78-11.7-9.94-22.16-11.09-32.08-.74-6.36,1.95-10.47,12.69-13.45s18.69.26,27.48,11.69c7.19,9.38,8.42,31.42,8.42,31.42C391,125.56,395.75,135.39,395.75,135.39Z"/><path class="cls-9" d="M440.55,243.58s-25.35,2.08-38.64.64c-5.06-39.7-11-48.9-11-48.9-13.66-1.7-17.7-6.09-17.7-12.66-2.29-26.54-5.83-41.07-5.83-41.07a8.64,8.64,0,0,1,5.22-3.59s1.33,9.3,10.87,8.17c10.29-1.21,5.63-13,5.63-13,5.49-3.61,11.34-3.88,17.39-2.52s11.27,5.27,15.43,9.88c9.79,10.84,10.24,22.29,11.83,36.81s-1,20-.22,37.72C434.11,227.62,439.75,240.49,440.55,243.58Z"/><path class="cls-4" d="M320.58,239.13,327.33,228a5.56,5.56,0,0,1,3.61-2.18l13.73-2.14L402,214l.62,14.69-53.93.87-5.07,3.2a6.56,6.56,0,0,1-5,.87l-8.24-1.78-8,9.77Z"/><path class="cls-10" d="M397.9,139.52c2.32-5.28,4.59-9,10.93-8.73,17.75.64,5.55,27,18,78.26,1.27,5.19,2,19.09-12.73,19.92s-56.78,5.39-56.78,5.39l-5.75-16.93,51.59-7.13S391.89,153.19,397.9,139.52Z"/><path class="cls-11" d="M305.29,236.86H213.18l-16-51.12a6.67,6.67,0,0,1,6.37-8.65h78.15a6.67,6.67,0,0,1,6.36,4.68Z"/><path class="cls-12" d="M213.18,236.86H352.71a1.83,1.83,0,0,1,1.83,1.83v1.71a1.83,1.83,0,0,1-1.83,1.83H217.19a4,4,0,0,1-4-4v-1.35A0,0,0,0,1,213.18,236.86Z"/><path class="cls-13" d="M213.18,236.86h92.12a0,0,0,0,1,0,0v2.53a2.84,2.84,0,0,1-2.84,2.84H217.27a4.1,4.1,0,0,1-4.1-4.1v-1.27A0,0,0,0,1,213.18,236.86Z"/><path class="cls-3" d="M246.17,201a3.81,3.81,0,0,0-.59.08c0,3-1.92,5.48-4.34,5.83,0,0,0,0,0,.08,0,3.3,2.21,6,4.94,6s4.94-2.68,4.94-6S248.9,201,246.17,201Z"/><path class="cls-4" d="M346,379.14l1,11.87,1.64,5.21c.61,1.93-.3,5.78-2.24,6.37-9.95,3-38.09,9.62-42.9,9.55,0,0,.26-5.1,3.77-5.95S332.16,392,332.16,392l-.09-10Z"/><path class="cls-5" d="M348.92,405.35s.48-9.68-.89-12.21a15.7,15.7,0,0,1-7.1,7.92c-4.72,1.61-19.4,7.84-21.84-1-5.12,2-14.8,6.84-18.36,10.54,0,0,1.13,2.57,3.42,2.83,0,0,10-.23,13.68-.51l26.25-5.39,3.37,4.18,3-.69Z"/><path class="cls-14" d="M440.55,243.58c6.92,14.5,20.55,48.69-14.21,50.73-40,2.35-89.89,1.94-89.89,1.94l11.77,87.65-18.83,3.57s-5.06-30.67-12.14-58-22.79-54.17-2-61.67S440.55,243.58,440.55,243.58Z"/><path class="cls-15" d="M339.17,444.36H208.08c-4.37,0-8.18-2.95-9.94-7.69a14.57,14.57,0,0,1,1.92-13.89l68.69-89.19-61-79.18a4.84,4.84,0,0,1,.23-6,3.21,3.21,0,0,1,5.08.27l60.55,78.61,60.54-78.61a3.21,3.21,0,0,1,5.08-.27,4.84,4.84,0,0,1,.23,6l-61,79.18,68.69,89.19a14.57,14.57,0,0,1,1.92,13.89C347.35,441.41,343.54,444.36,339.17,444.36ZM273.63,339.91l-68.26,88.62a4.93,4.93,0,0,0-.65,4.7,3.72,3.72,0,0,0,3.36,2.59H339.17a3.72,3.72,0,0,0,3.36-2.59,4.93,4.93,0,0,0-.65-4.7Z"/><path class="cls-16" d="M389.93,252.37H157.32a5.07,5.07,0,0,1-5.08-5.07h0a5.07,5.07,0,0,1,5.08-5.08H389.93A5.07,5.07,0,0,1,395,247.3h0A5.07,5.07,0,0,1,389.93,252.37Z"/><polygon class="cls-15" points="457.45 430.89 397.46 430.89 411.22 303 415.98 303.51 402.8 426.1 452.12 426.1 438.97 303.92 443.74 303.41 457.45 430.89"/><path class="cls-15" d="M443.64,444.71h-60l16.1-148.2h27.81ZM389,439.92h49.31L423.24,301.3H404Z"/><rect class="cls-16" x="380.01" y="294.01" width="75.47" height="10.36"/><polygon class="cls-16" points="459.14 304.37 451.92 304.37 459.14 265.3 466.37 265.3 459.14 304.37"/><path class="cls-5" d="M396.39,136c-20.75,6.32-17.76-14.24-17.76-14.24,7.88,1.74,5.73-17.14-2.31-18.2-5.12-.68-4,7.06-4,7.06-18.25,11-40.79-8.65-38.7-22.72,1.12-7.6,3-12.58,11.8-17.9,10.79-6.51,21.46-4.06,31.14-.38,20.8,7.91,21.15,28.91,42.83,29.91,49.2,2.28,37.75,34.85,65.44,43,15.91,4.66,36.2,9.06,37.48,35.31,1.56,31.84-54.49,32.82-71.43,29.21-22-4.71-25-41.51-29.52-55.38C415.75,134.54,410.13,131.83,396.39,136Z"/><path class="cls-5" d="M186.68,198.93c-10.73,0-15,4.43-15,14,0,.88-1.67.88-1.67,0,0-9.54-3.39-14-15-14-.87,0-.87-1.67,0-1.67,11.93,0,15-5.52,15-13.95,0-.88,1.67-.88,1.67,0,0,10,4.06,13.95,15,13.95C187.55,197.26,187.55,198.93,186.68,198.93Z"/><path class="cls-5" d="M134.88,153.13c-14.95,0-20.86,6.18-20.86,19.47,0,1.23-2.33,1.23-2.33,0,0-13.29-4.73-19.47-20.86-19.47-1.21,0-1.21-2.33,0-2.33,16.63,0,20.86-7.7,20.86-19.44,0-1.23,2.33-1.23,2.33,0,0,14,5.66,19.44,20.86,19.44C136.09,150.8,136.09,153.13,134.88,153.13Z"/><path class="cls-5" d="M193.9,63.35c-26.8,0-37.39,11.07-37.39,34.89,0,2.19-4.16,2.19-4.16,0,0-23.82-8.48-34.89-37.4-34.89-2.16,0-2.16-4.18,0-4.18,29.81,0,37.4-13.8,37.4-34.85,0-2.19,4.16-2.19,4.16,0,0,25.08,10.15,34.85,37.39,34.85C196.06,59.17,196.07,63.35,193.9,63.35Z"/><path class="cls-17" d="M177.17,519.25c0,3.76-17,6.8-38,6.8s-38-3-38-6.8,17-6.79,38-6.79S177.17,515.5,177.17,519.25Z"/><path class="cls-13" d="M174.68,521.13c-8.08,2.45-20.6,2.28-29.38,0-2.08-.54-4-1.52-4.42-3.63l-8.35-41.89h54.92L179.1,517.5C178.68,519.61,176.74,520.51,174.68,521.13Z"/><ellipse class="cls-18" cx="160.08" cy="475.61" rx="27.37" ry="4.01"/><path class="cls-11" d="M186.31,481.35a93.82,93.82,0,0,1-18.68,11.95c-1.89.92-3.9,1.84-5.13,3.54s-1.27,4.47.49,5.61c.75.49,1.85.84,1.85,1.72a1.7,1.7,0,0,1-.5,1c-1.86,2.12-4.67,3.13-6.84,4.94s-3.55,5.29-1.65,7.37A8.36,8.36,0,0,0,159,519.7c1.55.59,1.89,3.19,2.5,3.2a43.19,43.19,0,0,0,13.22-1.77,4.51,4.51,0,0,0,4.42-3.63Z"/><path class="cls-6" d="M150.51,266.69c-1.76-7.25-1.39-13.91-.17-21.28s4.45-14.29,11.79-12.93c7,1.31,9.54,9.85,10,16,.55,8.54-2.19,16.75-3.12,25.15-1.42,12.73,1.5,26.64,4.84,39,2.68,9.92,6,17.94,8.62,29.52a60.87,60.87,0,0,1-.29,26.6c-2.36,9.67-17.74,44.29-20.73,79.79C160,403.16,151,390.43,148,374.94c-1.24-6.39-2.6-12.73-2-19.21,1.47-16.54,6.05-32.63,8.81-49S154.67,283.83,150.51,266.69Z"/><path class="cls-7" d="M159.77,476.57h-.09a1,1,0,0,1-.87-1c7-81.51,1.4-221.32,1.34-222.72a1,1,0,0,1,1.93-.08c.06,1.41,5.66,141.33-1.35,223A1,1,0,0,1,159.77,476.57Z"/><path class="cls-7" d="M163.16,392.82h0a1,1,0,0,1-.92-1c1.07-24,12-31.41,12.48-31.71a1,1,0,1,1,1.06,1.61h0c-.1.07-10.59,7.3-11.62,30.18A1,1,0,0,1,163.16,392.82Z"/><path class="cls-7" d="M163.3,375.45a1,1,0,0,1-1-.9c-1.44-24.33-10.46-27.75-10.55-27.78a1,1,0,0,1-.61-1.22,1,1,0,0,1,1.21-.61c.42.14,10.35,3.63,11.88,29.49a1,1,0,0,1-.91,1Z"/><path class="cls-7" d="M163.22,345.55h-.09a1,1,0,0,1-.87-1.05c1.81-18.87,7.79-24.34,8-24.57a1,1,0,0,1,1.36.09.94.94,0,0,1-.08,1.35c-.08.08-5.68,5.38-7.4,23.31A1,1,0,0,1,163.22,345.55Z"/><path class="cls-6" d="M99.82,333.62c-2.11-5.23-11.22-25-9.73-31.78,3.91,1.56,14.81,18.45,18.39,26,4.36,8.8,12.84,21.85,18.66,29.85,4.68,6.4,7.33,8.08,10.83,15.28,2.58,5.1,6.6,26.3,6.89,33.92.61,14.24-3.08,17.06,1.08,43.94-8.88-33.8-27.81-53.94-30.87-63.95-3.52-11.43-3.62-16.07-6.32-28.28C105.88,346.43,106.51,349.51,99.82,333.62Z"/><path class="cls-7" d="M149.6,477.53a1,1,0,0,1-1-.89c-4.78-60.57-44.28-144.95-47.95-149.62a1.12,1.12,0,0,1-.24-.19,1,1,0,0,1,.09-1.36,1,1,0,0,1,1-.17c1.62.66,13.28,25.32,23.5,52.18,10.16,26.71,22.84,65.58,25.48,99a1,1,0,0,1-.89,1ZM101.81,326.92l-.15.1Zm0,0Z"/><path class="cls-7" d="M136.5,414.88a1,1,0,0,1-.93-.72c-4.47-17.22.81-25.92,1.68-26.47a1,1,0,0,1,1.33.3,1,1,0,0,1-.07,1.13c-.26.35-5.41,7.87-1.08,24.55a1,1,0,0,1-.69,1.18Z"/><path class="cls-7" d="M132.63,402.19a1,1,0,0,1-.9-.61c-6.5-16.41-13.33-17.17-14.09-17.2a1,1,0,0,1-.93-.8l.94-.16.06-1c1.46.06,9,1.23,15.81,18.41a1,1,0,0,1-.54,1.25A.84.84,0,0,1,132.63,402.19Z"/><path class="cls-7" d="M125.14,380.63a1,1,0,0,1-.93-.71c-3.63-13.74-1.43-20-.54-20.34a1,1,0,0,1,1.25.54.94.94,0,0,1,0,.82c-.14.31-2.24,5.49,1.19,18.49a1,1,0,0,1-.68,1.17Z"/><path class="cls-14" d="M210.25,376.62c2.74-3.18,15.05-14.23,20.53-13.69-.64,3.09-10,14-13.7,18.48-4.68,5.15-9.79,14.87-11.78,21.32-1.64,5.18-1.28,7.38-3.46,12.15-1.66,3.26-10.25,14.45-13.43,18.54-5.95,7.43-12.48,10.12-18.78,28.65,4.2-24.2,7.59-47.77,12.19-54.78,5-7.62,8-9.78,14.71-16.29C203.51,384.71,201.44,386.06,210.25,376.62Z"/><path class="cls-7" d="M166.08,477.53a.65.65,0,0,1-.19,0,1,1,0,0,1-.75-1.13c4.65-22.94,14.77-49.27,26.41-68.73a186.38,186.38,0,0,1,22.19-30.78l1.29-1.49a1,1,0,0,1,1.15-.58,1,1,0,0,1,.67.66c.18.58.14.62-1.66,2.68a184.48,184.48,0,0,0-22,30.48C181.67,427.92,171.64,454,167,476.76A1,1,0,0,1,166.08,477.53Z"/><path class="cls-7" d="M179.85,433.9a.92.92,0,0,1-.42-.1,1,1,0,0,1-.45-1.28c5.4-11.16,12.84-12.24,14.27-12.34l.1,1,1,0a1,1,0,0,1-.92.93c-.77,0-7.63.84-12.67,11.25A1,1,0,0,1,179.85,433.9Z"/><path class="cls-7" d="M183.75,425.32a1,1,0,0,1-.89-1.33c4.75-11.52,1.93-15.8,1.71-16.1a1,1,0,0,1-.22-1.08,1,1,0,0,1,1.26-.5c.06,0,4.93,4.11-1,18.41A1,1,0,0,1,183.75,425.32Z"/><path class="cls-7" d="M191.33,411a1,1,0,0,1-.77-1.54c5.59-7.37,10.17-8.49,11.43-8.65l.18.94,1,.19a1.06,1.06,0,0,1-.88.78c-.77.1-4.87.95-10.14,7.9A1,1,0,0,1,191.33,411Z"/><circle class="cls-19" cx="260.02" cy="76.97" r="15.69" transform="translate(13.11 189.1) rotate(-40.91)"/><circle class="cls-19" cx="235.44" cy="115.53" r="7.85"/><path class="cls-19" d="M245.84,156.49a3.63,3.63,0,1,0-3.62,3.63A3.63,3.63,0,0,0,245.84,156.49Z"/></g></g></svg>