<svg xmlns="http://www.w3.org/2000/svg" xmlns:xlink="http://www.w3.org/1999/xlink" viewBox="0 0 436.15 340.45"><defs><style>.cls-1{isolation:isolate;}.cls-2{fill:#dae8ef;}.cls-3{fill:#ccd9e2;}.cls-4{fill:#bcced8;}.cls-5{fill:#112b46;}.cls-26,.cls-6{mix-blend-mode:screen;}.cls-7{fill:#1d262d;}.cls-8{fill:#606bf1;}.cls-9{fill:#fbd15b;}.cls-10{fill:#ff8578;}.cls-11{fill:#f9fbfc;}.cls-12{fill:#f1f2f2;}.cls-13{fill:url(#radial-gradient);}.cls-14{fill:url(#radial-gradient-2);}.cls-15{fill:#f7b094;}.cls-16{fill:#3d3d7a;}.cls-17{fill:#0a2033;}.cls-18{fill:#30475e;}.cls-19{fill:url(#radial-gradient-3);}.cls-20{fill:#56548c;}.cls-21{fill:url(#radial-gradient-4);}.cls-22{fill:#f4675d;}.cls-23{fill:url(#radial-gradient-5);}.cls-24{fill:#e8987c;}.cls-25{fill:url(#radial-gradient-6);}.cls-26{fill:#6d4b35;}.cls-27{fill:#abb5ba;}.cls-28{fill:#8495a0;}.cls-29{fill:none;}.cls-30{fill:#141b56;}.cls-31{fill:#a5b7c6;}.cls-32{fill:url(#linear-gradient);}.cls-33{fill:#747ded;}.cls-34{fill:url(#linear-gradient-2);}.cls-35{fill:url(#linear-gradient-3);}.cls-36{fill:#95a8b5;}</style><radialGradient id="radial-gradient" cx="247.78" cy="112.6" r="12.93" gradientUnits="userSpaceOnUse"><stop offset="0" stop-color="#ffc8af"/><stop offset="1" stop-color="#ffbb9c"/></radialGradient><radialGradient id="radial-gradient-2" cx="249.86" cy="89.41" r="20.38" gradientTransform="translate(-22.79 54.39) rotate(-12.15)" xlink:href="#radial-gradient"/><radialGradient id="radial-gradient-3" cx="220.22" cy="307.77" r="8.13" xlink:href="#radial-gradient"/><radialGradient id="radial-gradient-4" cx="168.75" cy="309.81" r="7.4" xlink:href="#radial-gradient"/><radialGradient id="radial-gradient-5" cx="213.82" cy="170.92" r="41.44" xlink:href="#radial-gradient"/><radialGradient id="radial-gradient-6" cx="213.82" cy="170.92" r="41.44" xlink:href="#radial-gradient"/><linearGradient id="linear-gradient" x1="460.17" y1="13.81" x2="420.83" y2="63.41" gradientTransform="matrix(0.78, -0.62, 0.62, 0.78, -14.96, 494.17)" gradientUnits="userSpaceOnUse"><stop offset="0" stop-color="#606bf1"/><stop offset="1" stop-color="#58479f"/></linearGradient><linearGradient id="linear-gradient-2" x1="563.19" y1="-99.71" x2="523.85" y2="-50.12" gradientTransform="matrix(0.45, -0.89, 0.89, 0.45, 140.81, 772.34)" xlink:href="#linear-gradient"/><linearGradient id="linear-gradient-3" x1="522.83" y1="-63.64" x2="474.15" y2="-2.26" gradientTransform="translate(57.89 659.38) rotate(-52.61)" xlink:href="#linear-gradient"/></defs><title>Asset 3</title><g class="cls-1"><g id="Layer_2" data-name="Layer 2"><g id="BACKGROUND"><path class="cls-2" d="M435.94,224.81,420.17,335.52H19.25L7.41,251.06a21,21,0,0,1,12.75-22.3L55.74,214V178.61a21,21,0,0,1,17.95-20.77l8.41-1.23,14.13-47.79a21,21,0,0,1,20.12-15H260.92a21,21,0,0,1,20.92,19.47l68.84,7.26a21,21,0,0,1,18.75,19.65l2.78,47.75,48.64,13.74A21,21,0,0,1,435.94,224.81Z"/><path class="cls-3" d="M43.29,247.64,55.8,335.52H374l9.39-67a16.66,16.66,0,0,0-10.11-17.7l-28.24-11.72V211a16.65,16.65,0,0,0-14.25-16.49l-6.68-1-11.22-37.94a16.64,16.64,0,0,0-16-11.93H182.21a16.64,16.64,0,0,0-16.61,15.45L111,164.86a16.66,16.66,0,0,0-14.89,15.59l-2.21,37.9L55.26,229.26A16.67,16.67,0,0,0,43.29,247.64Z"/><path class="cls-4" d="M305.83,302.77a19,19,0,0,0-16.31-18.86l-7.64-1.12L269,239.38a19.05,19.05,0,0,0-18.28-13.66H119.43a19,19,0,0,0-19,17.68l-56.85,6,12.26,86.12H307.27l-1.44-.6Z"/></g><g id="OBJECTS"><rect class="cls-5" x="90.49" y="19.34" width="97.55" height="91.05"/><g class="cls-6"><rect class="cls-7" x="90.49" y="19.34" width="97.55" height="9.63"/></g><path class="cls-8" d="M167,24.27a1.77,1.77,0,1,1-1.76-1.77A1.76,1.76,0,0,1,167,24.27Z"/><path class="cls-9" d="M174.32,24.27a1.77,1.77,0,1,1-1.76-1.77A1.76,1.76,0,0,1,174.32,24.27Z"/><path class="cls-10" d="M181.17,24.45a1.77,1.77,0,1,1-1.77-1.76A1.77,1.77,0,0,1,181.17,24.45Z"/><rect class="cls-10" x="107.83" y="37.92" width="13.82" height="1.16"/><rect class="cls-9" x="124.05" y="37.92" width="13.82" height="1.16"/><rect class="cls-8" x="112.11" y="44.18" width="21.43" height="1.16"/><rect class="cls-10" x="137.08" y="44.18" width="10.89" height="1.16"/><rect class="cls-9" x="119.54" y="50.44" width="9.41" height="1.16"/><rect class="cls-9" x="134.39" y="50.44" width="31.22" height="1.16"/><rect class="cls-8" x="126.85" y="56.69" width="35.68" height="1.16"/><rect class="cls-10" x="117.93" y="62.95" width="10.98" height="1.16"/><rect class="cls-8" x="133.61" y="62.95" width="10.98" height="1.16"/><rect class="cls-10" x="107.83" y="95.4" width="15.97" height="1.16"/><rect class="cls-9" x="129.4" y="95.4" width="15.97" height="1.16"/><rect class="cls-10" x="150.39" y="95.4" width="15.97" height="1.16"/><rect class="cls-8" x="112.11" y="89.15" width="31.22" height="1.16"/><rect class="cls-10" x="148.19" y="89.15" width="31.22" height="1.16"/><rect class="cls-10" x="119.54" y="82.89" width="30.98" height="1.16"/><rect class="cls-9" x="153.22" y="82.89" width="8.62" height="1.16"/><rect class="cls-9" x="117.52" y="76.64" width="11.66" height="1.16"/><rect class="cls-8" x="135.37" y="76.64" width="11.66" height="1.16"/><rect class="cls-10" x="154.53" y="76.64" width="11.66" height="1.16"/><rect class="cls-9" x="131.03" y="70.38" width="16.35" height="1.16"/><rect class="cls-8" x="108.51" y="70.38" width="16.35" height="1.16"/><rect class="cls-11" x="98.79" y="36.81" width="1.49" height="1.49"/><path class="cls-11" d="M100.28,91.35H98.79v-3h1.49Zm0-7.58H98.79v-3h1.49Zm0-7.58H98.79v-3h1.49Zm0-7.58H98.79v-3h1.49Zm0-7.58H98.79V58h1.49Zm0-7.58H98.79v-3h1.49Zm0-7.57H98.79v-3h1.49Z"/><rect class="cls-11" x="98.79" y="95.9" width="1.49" height="1.49"/><rect class="cls-10" x="209.03" width="80.33" height="49.52"/><path class="cls-11" d="M240.23,19.92,230.67,24l9.56,4L239,30.9l-11.46-5.12V22.24L239,17.09Z"/><path class="cls-11" d="M254.31,10.48l-6.93,26.64-3.31-.77,7-26.62Z"/><path class="cls-11" d="M270.9,22.24v3.54L259.44,30.9,258.19,28l9.53-4-9.53-4.07,1.25-2.83Z"/><rect class="cls-8" x="286.6" y="95.93" width="45.75" height="32.6"/><path class="cls-12" d="M305.74,103c-1.47,0-2,.4-2,1.5v4.9c0,1.92-.8,2.5-2.13,2.88a2.45,2.45,0,0,1,2.13,2.82V120c0,1.1.51,1.49,2,1.49v2.15c-3.71,0-4.76-1.19-4.76-3.66V115.3c0-1.33-.35-1.85-1.57-1.85V111c1.22,0,1.57-.54,1.57-1.87v-4.65c0-2.5,1-3.67,4.76-3.67Z"/><path class="cls-12" d="M318,104.48v4.65c0,1.33.35,1.87,1.59,1.87v2.45c-1.24,0-1.59.52-1.59,1.85V120c0,2.47-1.05,3.66-4.76,3.66v-2.15c1.45,0,2-.39,2-1.49v-4.91c0-1.89.79-2.47,2.13-2.82-1.34-.38-2.13-1-2.13-2.88v-4.9c0-1.1-.49-1.5-2-1.5v-2.15C316.93,100.81,318,102,318,104.48Z"/><rect class="cls-9" x="59.44" y="7.1" width="51.33" height="34.33"/><path class="cls-11" d="M76.43,17A8.42,8.42,0,0,0,87.7,29.2l5.39,5.39a.57.57,0,0,0,.82,0l1.51-1.51a.59.59,0,0,0,0-.83L90,26.87A8.43,8.43,0,0,0,76.43,17Zm10.81,9.45a6,6,0,1,1,0-8.43A6,6,0,0,1,87.24,26.41Z"/><path class="cls-13" d="M260.08,113.15c-.11,1.13-1.66,13-13.84,13-12.78,0-10.64-12.65-10.64-12.65v-.08a12.62,12.62,0,0,1,4-.19v-6l14.51-8.11h.52v14A26.54,26.54,0,0,1,260.08,113.15Z"/><path class="cls-14" d="M253,72.34a16.68,16.68,0,0,1,4.36,8.09c1.39,6.14.08,12.65-1.71,18.57a9.47,9.47,0,0,1-1.27,2.89,10,10,0,0,1-1.59,1.6l-7.74,6.75c-1.74,1.53-12.49,2.8-14.54,1.34-7.9-5.65-9.42-22-7.84-30.39C225.34,67.31,243.18,62.34,253,72.34Z"/><path class="cls-15" d="M248.6,90.11c.1-1.34,1.48-2.8,2.86-1.93s1.09,3.27.5,4.57c-.47,1-2,2.15-3.07,1.19-.88-.79.49-1.73.53-2.46s-1.27-1.13-.73-1.83"/><path class="cls-15" d="M248.85,96.29a4.09,4.09,0,0,0,4.5-2.68,15.59,15.59,0,0,0,.55-4.29,10.36,10.36,0,0,1,.35,4.74c-.37,2.92-1.4,5.7-3.69,5.74S248.85,96.29,248.85,96.29Z"/><path class="cls-16" d="M247.08,94.21l-.16.05c-.89.12-1.25-1-1.38-1.63a29.33,29.33,0,0,1-.31-4.77,3.69,3.69,0,0,0-.15-1.28c-.5-1.14-1.83-1.89-2.24-3.07-.48-1.38.86-2.76.33-4.27-.81-2.31-3.78-2.84-5.92-2.81a66.57,66.57,0,0,0-9.54,1.13c-3.36.52-7.65,1-10.6-1.11-3.57-2.56-5.05-9.22-2.39-12.87a8.58,8.58,0,0,1,6.6-3.1c2.55-.06,4.71,1.46,7.05,2.22,1.87.61,3.67-1.17,5.42-1.52,2.19-.44,3.12,2,5.06,2s3.73-1.41,5.56-1.74c3.65-.67,3.43,3,5.88,4.25,1.52.78,3.49.31,5,1.1,1.17.6,1.34,1.66,1.59,2.85a28.12,28.12,0,0,0,.57,3.22A7.33,7.33,0,0,0,259.11,75a7.78,7.78,0,0,1,1.36,2.58,16,16,0,0,1,.67,6.56,44.34,44.34,0,0,1-2.74,10.78c-.8,2.26-1.1,4.6-2.33,6.73-.33.58-1.79,2.25-2.34,1a1.91,1.91,0,0,1-.08-.86c.17-2.32,2.33-17.29-3.34-15.49a4,4,0,0,0-2.43,2.5,9.69,9.69,0,0,0-.5,4.14c0,.2,0,.41,0,.61A.71.71,0,0,1,247.08,94.21Z"/><path class="cls-15" d="M239.6,111.82c6.44-1,10.7-6.12,10.7-6.12a11.74,11.74,0,0,1-11.09,9Z"/><path class="cls-17" d="M251.8,228.8h6a1.63,1.63,0,0,1,1.63,1.63v88.53a0,0,0,0,1,0,0h-9.23a0,0,0,0,1,0,0V230.42A1.63,1.63,0,0,1,251.8,228.8Z" transform="translate(509.58 547.74) rotate(180)"/><path class="cls-18" d="M235.74,230.06h38.11a6.31,6.31,0,0,1,6.31,6.31v1.39a0,0,0,0,1,0,0H229.42a0,0,0,0,1,0,0v-1.39A6.31,6.31,0,0,1,235.74,230.06Z" transform="translate(509.58 467.82) rotate(180)"/><path class="cls-17" d="M251.8,308.45h6a1.63,1.63,0,0,1,1.63,1.63v20.51a0,0,0,0,1,0,0h-9.23a0,0,0,0,1,0,0V310.08A1.63,1.63,0,0,1,251.8,308.45Z" transform="translate(509.58 639.04) rotate(180)"/><path class="cls-17" d="M206.91,325.19a5.4,5.4,0,1,0,5.4-5.4A5.4,5.4,0,0,0,206.91,325.19Z"/><path class="cls-17" d="M291.87,325.19a5.4,5.4,0,1,0,5.4-5.4A5.4,5.4,0,0,0,291.87,325.19Z"/><rect class="cls-18" x="245.51" y="301.58" width="18.56" height="16.22" transform="translate(509.58 619.37) rotate(180)"/><path class="cls-9" d="M206.91,314h95.76a0,0,0,0,1,0,0v1.88a5.75,5.75,0,0,1-5.75,5.75H212.66a5.75,5.75,0,0,1-5.75-5.75V314a0,0,0,0,1,0,0Z" transform="translate(509.58 635.59) rotate(180)"/><rect class="cls-18" x="251.59" y="239.58" width="3.2" height="60.55"/><path class="cls-9" d="M291,164.63a3.76,3.76,0,0,0-3.88,4c.63,11-1.7,37.8-11.94,47-12.51,11.18-48,9.66-48,9.66s-5.85,7.19,5.86,8.79,44.74.53,52.73-6.93c7.73-7.21,12.32-26.12,8.86-59a3.79,3.79,0,0,0-3.64-3.41Z"/><polygon class="cls-19" points="224.58 300.13 228.8 309.75 215.87 315.42 211.64 305.77 224.58 300.13"/><path class="cls-20" d="M285.53,193.22c-.8,1.6-58.23,0-63.65.53,0,0-35.15,16.78-40.2,32.48a17.24,17.24,0,0,0-.49,6.17c1.4,22.11,26.58,75.06,26.58,75.06l3.87-1.69,12.94-5.64,1.84-.8s-20-59.52-16-62.71,49.26-11.19,65-15.44S285.53,193.22,285.53,193.22Z"/><polygon class="cls-21" points="175.3 302.6 176.31 317.05 162.21 317.05 161.19 302.57 175.3 302.6"/><path class="cls-16" d="M221.59,193.26l-.51.22s-58.84,8.26-68.43,24.77c-6.23,10.73,5.83,89.18,5.83,89.18l20.82.05s-3.12-65.35-2.08-69c1.17-4.16,3.17-5.66,4-6.09a17.24,17.24,0,0,1,.49-6.17c5-15.7,40.2-32.48,40.2-32.48A1,1,0,0,1,221.59,193.26Z"/><path class="cls-10" d="M278.43,138.89l-3.95.54a193,193,0,0,1-3.31,21.28L222,179.37l-.67,3.57-.61-.05c0,.73,0,1.45.05,2.12.11,4.11.39,7.06.82,8.25a1,1,0,0,0,.28.49c1.34,1.09,18.73-1,37.53,5.88,16.3,6,25.44,12.53,25.86,11.65C290.39,200.63,281.06,158.83,278.43,138.89Z"/><path class="cls-22" d="M273.3,163.27c-1.31,6.29-4.7,18.82-11.34,20.5-8.68,2.2-25.46,2.09-41.18,1.24,0-.67,0-1.39-.05-2.12l.61.05.67-3.57,49.16-18.66a193,193,0,0,0,3.31-21.28,1.23,1.23,0,0,0,0,.18C274.59,141.25,275.26,154,273.3,163.27Z"/><path class="cls-22" d="M224,123.18c-.88,1.6-2.14,18.69-2.83,35.66l-10.05-9.38C215.41,141.2,224,123.18,224,123.18Z"/><path class="cls-15" d="M218,171.24c-8.49,1.47-16.28,2.73-16.28,2.73l0,.42c-9.44-7.54-23.81-28.91-23.81-28.91s4.3-5.16,5.37-6.51c.16-.21,23.58,15.91,24.78,15.77.31,0,1.51-2.15,3.1-5.28l10.05,9.38c-.16,4-.29,8.07-.37,11.89Z"/><path class="cls-23" d="M201.72,174l-.21,7H176s2.54-10,9.45-10,9.59,3.66,9.59,3.66Z"/><path class="cls-15" d="M183.07,138.81l.19.16c-1.07,1.35-5.37,6.51-5.37,6.51l-2.66-1.88a6.63,6.63,0,0,1-6.36-.08c-3.57-1.93-1.36-6.55-1.18-7.1-.69.2-5,3.65-5.63,3.28s-1.17-1.58,3.61-6.29,11.25,1.34,11.44,1.34Z"/><path class="cls-15" d="M169.42,142.72s-1,1.93.8,2.76a18.22,18.22,0,0,0,6.93,1.3c1.53-.15,2.74-2.29,2.74-2.29l-4.63-4.35h-3.71Z"/><path class="cls-24" d="M169.15,143.66c.27-.94,2.9-.44,4.54-.4,1.2,0,1.86-.28,2.23-1.2s-1.38-2.37-1.72-1.92.63,1.11.66,1.71-1.72.81-3.06.81a32.73,32.73,0,0,0-3.67.35Z"/><path class="cls-25" d="M268.68,169.79l-25-8.87c-1.82,3.4-3.77,6-5.7,6.47-2.93.77-10,2.09-17.12,3.34l-2.82.51c-8.49,1.47-16.28,2.73-16.28,2.73l0,.42v.27l-.19,6.31v1.6a177.91,177.91,0,0,1,19.22.32c15,1.07,34.35,1.71,40.76-1.31,3-1.42,5.4-6.09,7.28-11.84Z"/><polygon class="cls-15" points="243.64 160.92 268.68 169.79 267.54 173.13 242.76 162.5 243.64 160.92"/><path class="cls-10" d="M243.64,160.92c-1.82,3.4-3.77,6-5.7,6.47-2.93.77-10,2.09-17.12,3.34.08-3.82.21-7.85.37-11.89.69-17,1.95-34.06,2.83-35.66,1.44-2.67,5.37-8.47,11.57-9.79v.08s-2.14,12.65,10.64,12.65c12.18,0,13.73-11.84,13.84-13,6.26.7,15.87,3.83,17.19,16.42.27,2.49.66,5.69,1.15,9.32l-3.94.54s-1.6,17.73-5.71,30.31l-.09,0Z"/><polygon class="cls-26" points="243.38 158.61 253.38 134.41 246.01 159.59 243.38 158.61"/><path class="cls-10" d="M260.08,113.15h-5.45s-7.75,8.51-12.73,8.51-2.3-8.46-2.3-8.46h-2.43a13.74,13.74,0,0,0-13.66,12.18c-.09.8-.17,1.55-.24,2.23-.53,5.15,20.33,8.9,20.33,8.9l10.74-.6,6.52-12.73,1.3-5.21Z"/><path class="cls-12" d="M194.34,326.49c.48,2.6,2.29,4.45,4.89,4l34.7-6.48a1.6,1.6,0,0,0,1.29-1.88l-.57-3.08s-36.49,6.39-40.33,7.45Z"/><path class="cls-16" d="M204.66,317.75l1.07-.94,2-1.81,1-.92,1.77-1.58,1.07-1,1.41-1.27a.79.79,0,0,1,1,0c1.42,1.2,6,3.95,14.38-1.22a.8.8,0,0,1,1.14.29l5.05,9.71s-36.49,6.39-40.33,7.45C195.58,325.68,200.24,321.65,204.66,317.75Z"/><path class="cls-12" d="M139.69,326.15c.06,2.65,1.55,4.76,4.2,4.69l35.28-.86a1.61,1.61,0,0,0,1.58-1.65l-.08-3.13s-37,.49-41,.93Z"/><path class="cls-16" d="M151.27,319.17l1.21-.76,2.3-1.47,1.15-.74,2-1.27,1.21-.79,1.6-1a.78.78,0,0,1,1,.15c1.22,1.41,5.33,4.85,14.4,1.08a.81.81,0,0,1,1.08.47l3.43,10.39s-37,.49-41,.93C141,325.55,146.28,322.31,151.27,319.17Z"/><polygon class="cls-27" points="114.58 182.57 95.74 132.31 149.39 132.31 168.24 182.57 114.58 182.57"/><polygon class="cls-28" points="171.56 182.57 168.24 182.57 149.39 132.31 152.4 132.44 169.84 177.94 171.56 182.57"/><polyline class="cls-29" points="98.62 177.14 98.9 177.14 166.18 177.14"/><path class="cls-28" d="M170.51,182.57H206l-.1-3.17H169.79"/><rect class="cls-28" x="313.02" y="192.16" width="8.54" height="140.23"/><rect class="cls-27" x="266.69" y="192.16" width="8.54" height="140.23"/><rect class="cls-28" x="118.25" y="192.16" width="8.54" height="140.23"/><rect class="cls-27" x="71.92" y="192.16" width="8.54" height="140.23"/><rect class="cls-30" x="59.59" y="182.57" width="274.66" height="10.12" rx="4.15"/><polygon class="cls-28" points="104.7 137.59 105.61 140.04 116.3 140.04 115.39 137.59 104.7 137.59"/><polygon class="cls-24" points="211.14 149.46 210.38 150.95 221.19 162.12 221.19 158.84 211.14 149.46"/><rect class="cls-31" y="330.59" width="431.92" height="9.86"/><path class="cls-32" d="M363.44,257.44c-1.72,8.33-1.2,22.51-12.21,24.75-3,.61-5.83-1.45-7.56-3.8-2.25-3.09-2.79-9.61-2.76-13.35,0-3,1-6.25,1.37-9.24.35-3.22.64-6.45,1-9.67,1.36-11.61,7.42-21.34,17.68-27.13.79,3.81,2.6,7,4.2,10.69a38.49,38.49,0,0,1,1.85,5.18c.84,3.09-.17,6.22-.93,9.19C365,248.44,364.35,253,363.44,257.44Z"/><path class="cls-33" d="M349.36,282.47c.08-.7.17-1.39.26-2.09a8.88,8.88,0,0,0,3.79-1.33,20.1,20.1,0,0,0,5-3.93c.08-.09-.05-.22-.14-.15a21.89,21.89,0,0,1-4.84,3.32,13.93,13.93,0,0,1-3.68,1.37c.11-.83.24-1.67.38-2.5a10.31,10.31,0,0,0,3.79-1.75,44.37,44.37,0,0,0,5.42-4.14s0,0,0,0c-2.69,2-5.69,4.74-9.09,5.35.18-1,.37-2.08.59-3.11l0-.16c3.94-1,6.6-4.09,9.62-6.58.05,0,0-.13-.06-.09-3,2.31-5.75,4.94-9.42,6.06.31-1.48.65-2.95,1-4.41a21.07,21.07,0,0,0,8.9-6.31.05.05,0,0,0-.08-.07,27.11,27.11,0,0,1-8.68,5.75c.33-1.46.66-2.91,1-4.37a33.29,33.29,0,0,0,4.58-2.21,12.56,12.56,0,0,0,3.57-3.62c.05-.08-.07-.15-.12-.08-2,2.87-5,3.76-7.9,5.27.28-1.36.55-2.72.78-4.09,3.24-1.78,6.75-3.44,8.59-6.85,0,0,0-.07-.05,0-1.94,3.14-5.34,4.49-8.42,6.2l.12-.73c.2-1.27.38-2.54.57-3.81a31.26,31.26,0,0,0,5.3-2.89,10,10,0,0,0,3.24-2.76c0-.07-.07-.15-.12-.08-1.74,2.49-5.54,3.93-8.34,5.17l.54-3.85c3.12-1.89,6.78-2.93,8.7-6.33a.09.09,0,0,0-.15-.09c-2,3.1-5.49,4.06-8.46,5.82.11-.8.23-1.59.35-2.39,3.36-1.24,7.27-4.05,9.05-7.09a.16.16,0,0,0-.26-.17,18.89,18.89,0,0,1-8.69,6.63c.2-1.29.4-2.58.63-3.86a.31.31,0,0,0,.05-.12,19.22,19.22,0,0,0,4.31-2.31,11.85,11.85,0,0,0,4.05-3.69c.11-.18-.18-.34-.28-.16-1.49,2.67-5,4.45-8,5.47l.27-1.4.42-2.1c1.2-.83,2.73-1.23,3.94-2.1a22.83,22.83,0,0,0,2.86-2.61.1.1,0,0,0-.14-.15,18.82,18.82,0,0,1-3.95,3c-.83.44-1.77.69-2.58,1.18.24-1.14.47-2.29.7-3.43h.08a.2.2,0,0,0,.2-.06c1.63-.41,2.88-1.82,4-3a0,0,0,1,0,0,0,10.94,10.94,0,0,1-4,2.7h0l-.12,0c.18-.93.35-1.86.51-2.8a.21.21,0,0,0,.19-.24,17.28,17.28,0,0,0,2.39-2,.06.06,0,1,0-.08-.09,14.33,14.33,0,0,1-2.39,1.68c.3-1.93.54-3.87.65-5.83a.14.14,0,0,0-.28,0c-.17,1.89-.45,3.76-.77,5.62a17.45,17.45,0,0,1-2.46-3.75c0-.07-.14,0-.11,0a10.9,10.9,0,0,0,1.19,2.33,14.43,14.43,0,0,0,1.27,2c-.18,1-.38,2-.59,3a5.56,5.56,0,0,1-3-1.18A5.45,5.45,0,0,1,353,227.6c0-.18-.3-.18-.28,0a6.17,6.17,0,0,0,1.6,3.66,5.89,5.89,0,0,0,3.45,1.69c-.24,1.15-.49,2.29-.74,3.44a27.79,27.79,0,0,1-2.82-2.09,39.12,39.12,0,0,1-3.56-3.85c-.13-.13-.33.06-.21.19a40.52,40.52,0,0,0,3.32,3.74,18.92,18.92,0,0,0,3.18,2.42l0,.18,0,0a.18.18,0,0,0,0,.25c-.24,1.1-.48,2.2-.71,3.3a1.55,1.55,0,0,0,0,.21c-2.56-1.17-6.39-3.21-6.73-6.18a.2.2,0,1,0-.39.08c.76,3.37,4.45,4.86,7,6.69-.25,1.25-.48,2.49-.69,3.75a15.25,15.25,0,0,1-4.62-2.38c-1.26-1-3.05-2.22-3.62-3.78,0,0-.09,0-.07,0,.52,1.54,2.13,2.61,3.29,3.66a12.42,12.42,0,0,0,4.9,3,.29.29,0,0,0,0,.16c-.13.8-.26,1.59-.38,2.39-3.11-.24-7.46-2.61-9.05-5,0,0,0,0,0,0a10.14,10.14,0,0,0,4.57,3.76,12.67,12.67,0,0,0,4.44,1.6c-.23,1.47-.44,3-.66,4.42-1.35-.5-2.78-.75-4.12-1.28a10.23,10.23,0,0,1-4.67-4c-.07-.1-.25,0-.18.1,2.16,3.42,5.26,4.42,8.89,5.71-.19,1.21-.37,2.41-.57,3.62-3-.57-6.82-2.38-8.32-5-.11-.19-.41,0-.3.15A9.64,9.64,0,0,0,349,256c1.2.6,2.86,1.61,4.29,1.72,0,0,0,.08,0,.12q-.43,2.6-1,5.18c-3.31-.84-5.46-3.3-7.87-5.6-.17-.16-.43.09-.26.25,2.45,2.42,4.61,5,8,5.85-.31,1.4-.64,2.8-1,4.19a15.37,15.37,0,0,1-7.46-5.1c-.13-.16-.35.06-.23.22a16.46,16.46,0,0,0,7.56,5.42c-.37,1.5-.75,3-1.13,4.48a11,11,0,0,1-6.93-4.56c-.05-.05-.14,0-.1.07,1.59,2.21,4,4.77,6.88,5l-.36,1.43c-.08.29-.16.58-.23.87a16.31,16.31,0,0,1-6-2.91c-.05,0-.11,0-.06.08a15.66,15.66,0,0,0,6,3.27c-.25.89-.5,1.81-.76,2.75a13,13,0,0,0-1.66-.71,11.49,11.49,0,0,1-2.74-1.58c-.09-.06-.19.07-.1.12a11.75,11.75,0,0,0,2.37,1.6c.7.27,1.36.61,2,.91-1,3.72-1.88,7.67-1.4,11.24.11.79,1.43,1,1.64.16A62.75,62.75,0,0,0,349.36,282.47Z"/><path class="cls-34" d="M328.58,255.06c2,8.27,8.42,20.91-.62,27.59-2.43,1.8-5.9,1.15-8.46-.26-3.34-1.84-6.59-7.53-8.13-10.93-1.22-2.7-1.69-6.11-2.66-9-1-3.07-2.15-6.12-3.16-9.19-3.68-11.1-2.28-22.48,4.57-32.06,2.33,3.12,5.33,5.28,8.32,7.92a38.6,38.6,0,0,1,3.87,3.91c2.06,2.45,2.46,5.72,3,8.72C326.18,246.24,327.54,250.65,328.58,255.06Z"/><path class="cls-33" d="M326.39,283.69c-.23-.66-.44-1.33-.65-2a8.83,8.83,0,0,0,2.87-2.8,19.87,19.87,0,0,0,2.85-5.67c0-.1-.14-.17-.19-.06a22.19,22.19,0,0,1-3,5.05,13.49,13.49,0,0,1-2.76,2.79c-.24-.8-.48-1.61-.7-2.42a10.5,10.5,0,0,0,2.69-3.19,44.06,44.06,0,0,0,3.17-6.05s0,0,0,0c-1.61,2.91-3.15,6.69-6,8.68q-.42-1.53-.78-3.06a.75.75,0,0,0,0-.16c3.15-2.57,4.27-6.49,5.94-10,0-.06,0-.11-.08-.05-1.72,3.34-3.14,6.91-6,9.47-.34-1.47-.66-2.94-1-4.42a21,21,0,0,0,5.4-9.47.05.05,0,1,0-.1,0,27,27,0,0,1-5.44,8.87c-.32-1.45-.63-2.91-1-4.36a32.09,32.09,0,0,0,3.22-3.95,12.42,12.42,0,0,0,1.71-4.78.07.07,0,0,0-.14,0c-.59,3.44-2.94,5.52-4.94,8.11-.32-1.35-.65-2.7-1-4,2.19-3,4.68-6,4.9-9.83,0,0-.06-.05-.06,0-.44,3.66-2.95,6.32-5,9.17-.07-.24-.13-.48-.2-.72-.35-1.23-.72-2.46-1.1-3.69a30.56,30.56,0,0,0,3.6-4.86,10.2,10.2,0,0,0,1.77-3.86c0-.09-.13-.11-.14,0-.53,3-3.37,5.9-5.39,8.21-.37-1.24-.75-2.48-1.13-3.72,2-3,4.91-5.52,5.22-9.41,0-.11-.17-.14-.18,0-.49,3.65-3.26,6-5.21,8.85-.24-.77-.47-1.54-.69-2.32,2.52-2.54,4.88-6.74,5.21-10.25a.15.15,0,0,0-.3,0,18.92,18.92,0,0,1-5.09,9.68c-.36-1.25-.72-2.51-1-3.77a.49.49,0,0,0,0-.12,18.91,18.91,0,0,0,2.93-3.92,11.81,11.81,0,0,0,2.12-5.06.16.16,0,0,0-.32,0c-.23,3-2.69,6.17-4.93,8.33-.11-.46-.24-.92-.35-1.39-.17-.69-.33-1.38-.5-2.08.74-1.26,2-2.26,2.68-3.57a21.88,21.88,0,0,0,1.49-3.57.1.1,0,0,0-.18-.08,18.83,18.83,0,0,1-2.3,4.43c-.57.75-1.32,1.38-1.84,2.16-.27-1.14-.54-2.27-.82-3.41l0,0h0a.21.21,0,0,0,.15-.14c1.31-1.06,1.85-2.87,2.34-4.42a0,0,0,1,0-.06,0,11,11,0,0,1-2.49,4.14h0l-.11,0c-.23-.92-.47-1.83-.73-2.75a.22.22,0,0,0,.08-.3,16.74,16.74,0,0,0,1.3-2.86.06.06,0,1,0-.11-.05,14.06,14.06,0,0,1-1.45,2.54c-.54-1.88-1.15-3.74-1.88-5.57-.07-.16-.32-.05-.26.12.65,1.78,1.19,3.59,1.68,5.42a17.05,17.05,0,0,1-3.81-2.37c-.06,0-.15,0-.09.08a10.64,10.64,0,0,0,2.06,1.6,13.92,13.92,0,0,0,2,1.32c.26,1,.5,2,.73,3a5.13,5.13,0,0,1-6.48-2.43c-.09-.16-.35,0-.25.12a6.16,6.16,0,0,0,3,2.64,5.82,5.82,0,0,0,3.84.07c.27,1.15.52,2.29.78,3.44a26.91,26.91,0,0,1-3.44-.71,38.81,38.81,0,0,1-4.85-2,.14.14,0,0,0-.11.26,39.68,39.68,0,0,0,4.59,2,19,19,0,0,0,3.9.86l0,.18s0,0,0,.05a.19.19,0,0,0,.09.24c.24,1.1.49,2.2.74,3.29,0,.07,0,.14.05.21-2.82,0-7.15-.22-8.71-2.77-.15-.24-.5,0-.32.25,2.11,2.72,6.09,2.52,9.17,3.1q.45,1.86,1,3.69a15.09,15.09,0,0,1-5.19-.21c-1.57-.37-3.7-.72-4.88-1.89,0,0-.09,0-.05.06,1.13,1.18,3,1.47,4.54,1.93a12.41,12.41,0,0,0,5.71.67.3.3,0,0,0,.07.15c.21.77.43,1.55.66,2.32-2.92,1.1-7.87.79-10.3-.67,0,0,0,0,0,0a10.16,10.16,0,0,0,5.73,1.47,12.4,12.4,0,0,0,4.7-.42c.41,1.43.84,2.86,1.26,4.29-1.43.11-2.83.5-4.27.57A10.15,10.15,0,0,1,308,254c-.11-.07-.23.09-.12.16,3.4,2.19,6.63,1.8,10.46,1.43.35,1.17.68,2.34,1,3.52-2.93.74-7.18.72-9.63-1-.18-.12-.39.15-.21.27a9.64,9.64,0,0,0,5.35,1.42c1.35,0,3.27.26,4.62-.25l0,.11c.47,1.7.88,3.41,1.27,5.13-3.36.64-6.34-.68-9.5-1.75-.22-.07-.35.26-.13.34,3.25,1.15,6.28,2.54,9.75,1.91.31,1.4.61,2.8.89,4.21A15.36,15.36,0,0,1,312.9,268c-.19-.09-.3.2-.12.3a16.49,16.49,0,0,0,9.14,1.72c.3,1.51.58,3,.86,4.54a11,11,0,0,1-8.2-1.21c-.06,0-.12.07-.06.11,2.37,1.33,5.63,2.63,8.36,1.65l.27,1.45c.06.29.11.59.16.89a16.57,16.57,0,0,1-6.69-.09c-.06,0-.08.08,0,.1a15.73,15.73,0,0,0,6.79.43q.23,1.38.48,2.82a12.22,12.22,0,0,0-1.81.06,12.4,12.4,0,0,1-3.16-.28c-.1,0-.13.14,0,.15a12.3,12.3,0,0,0,2.82.46c.75-.06,1.49,0,2.24-.05.66,3.8,1.53,7.75,3.47,10.79.43.67,1.72.3,1.55-.55A63.29,63.29,0,0,0,326.39,283.69Z"/><path class="cls-35" d="M347.67,248.64c.47,10.51,5.39,27.37-7.15,33.41-3.37,1.62-7.43,0-10.21-2.28-3.65-3-6.27-10.68-7.36-15.17-.86-3.56-.65-7.82-1.16-11.5-.56-4-1.19-7.94-1.72-11.92-1.89-14.34,2.43-27.85,13-37.91,2.11,4.33,5.26,7.65,8.28,11.56a47.18,47.18,0,0,1,3.8,5.64c1.95,3.46,1.68,7.53,1.67,11.31C346.8,237.38,347.42,243.05,347.67,248.64Z"/><path class="cls-33" d="M338.37,283c-.12-.86-.22-1.73-.33-2.59a11.19,11.19,0,0,0,4.15-2.74,25,25,0,0,0,4.78-6.23c.07-.13-.13-.24-.22-.13a27.68,27.68,0,0,1-4.8,5.45,17,17,0,0,1-4,2.75c-.12-1-.21-2.07-.3-3.1,1.59-.62,2.83-2.08,4-3.26a52.45,52.45,0,0,0,5.25-6.62s0-.05,0,0c-2.63,3.16-5.38,7.41-9.28,9.17-.1-1.3-.18-2.61-.24-3.91v-.2c4.42-2.39,6.68-6.9,9.54-10.81.05-.07,0-.15-.09-.09-2.87,3.67-5.41,7.67-9.48,10.13-.06-1.87-.11-3.73-.16-5.59a26,26,0,0,0,8.76-10.27.06.06,0,1,0-.1-.06c-2.28,4-5.22,6.71-8.68,9.53,0-1.85-.09-3.69-.16-5.53,1.62-1.38,3.42-2.42,4.83-4a15.54,15.54,0,0,0,3.18-5.42.09.09,0,0,0-.16-.06c-1.53,4.05-4.86,6-7.89,8.71-.07-1.71-.17-3.43-.3-5.14,3.34-3.12,7.06-6.17,8.23-10.82,0,0-.06-.07-.07,0-1.38,4.36-5.05,7-8.23,10,0-.3-.05-.61-.07-.91-.15-1.59-.31-3.17-.48-4.75a39.34,39.34,0,0,0,5.49-5.07,12.67,12.67,0,0,0,3.05-4.29c0-.1-.13-.17-.17-.06-1.33,3.51-5.45,6.39-8.44,8.73-.17-1.6-.35-3.19-.52-4.79,3.17-3.21,7.25-5.57,8.52-10.23a.11.11,0,0,0-.21-.07c-1.44,4.33-5.35,6.54-8.39,9.55l-.3-3c3.66-2.5,7.5-7.07,8.71-11.25a.19.19,0,0,0-.35-.12A23.4,23.4,0,0,1,335,236.35c-.15-1.6-.29-3.21-.41-4.82a.4.4,0,0,0,0-.15,24,24,0,0,0,4.46-4.08,14.49,14.49,0,0,0,3.74-5.66c.08-.25-.31-.35-.38-.11-1,3.66-4.7,6.88-7.91,9,0-.59-.08-1.18-.11-1.77,0-.88-.09-1.76-.13-2.64,1.19-1.36,2.9-2.3,4.09-3.72a28.23,28.23,0,0,0,2.64-4,.12.12,0,0,0-.21-.13A23.22,23.22,0,0,1,337,223.1c-.86.78-1.92,1.37-2.73,2.2L334,221l0,0h.06a.28.28,0,0,0,.22-.14c1.83-1,2.91-3.06,3.86-4.83,0,0,0-.08-.06,0a13.56,13.56,0,0,1-4,4.46H334q-.09-1.75-.24-3.51a.27.27,0,0,0,.16-.35,21.48,21.48,0,0,0,2.25-3.18.08.08,0,0,0-.13-.08,17.31,17.31,0,0,1-2.35,2.75c-.22-2.41-.53-4.81-1-7.2a.17.17,0,0,0-.34.08c.37,2.32.6,4.64.78,7a21.26,21.26,0,0,1-4.09-3.76c-.05-.07-.18,0-.13.08a13,13,0,0,0,2.14,2.42,17.42,17.42,0,0,0,2.14,2.07c.09,1.25.15,2.51.21,3.77a6.84,6.84,0,0,1-4-.51,6.71,6.71,0,0,1-3.35-3.94c-.07-.21-.41-.13-.34.08a7.67,7.67,0,0,0,3,3.91,7.28,7.28,0,0,0,4.65,1c.06,1.45.11,2.91.15,4.36a33.49,33.49,0,0,1-4-1.66c-2.09-.94-3.54-2.35-5.44-3.53a.17.17,0,0,0-.19.29c1.79,1.15,3.16,2.53,5.11,3.48a23.51,23.51,0,0,0,4.55,1.94v.23l0,0a.23.23,0,0,0,.05.32c0,1.39.09,2.78.14,4.17,0,.09,0,.18,0,.26-3.42-.63-8.64-1.91-9.94-5.37a.25.25,0,1,0-.44.22c1.92,3.8,6.81,4.47,10.42,5.9.08,1.57.18,3.14.31,4.7a18.8,18.8,0,0,1-6.26-1.45c-1.82-.82-4.34-1.74-5.49-3.43,0-.05-.11,0-.08.06,1.1,1.7,3.35,2.49,5.07,3.4a15.27,15.27,0,0,0,6.79,2.13.35.35,0,0,0,.05.2c.08,1,.17,2,.26,3-3.8.66-9.74-.85-12.36-3.2,0,0,0,0,0,0a12.59,12.59,0,0,0,6.63,3.12,15.62,15.62,0,0,0,5.8.58c.18,1.83.37,3.67.55,5.5-1.77-.19-3.56-.05-5.32-.29a12.56,12.56,0,0,1-6.81-3.35c-.12-.11-.31.05-.19.16,3.62,3.46,7.65,3.73,12.39,4.16.15,1.51.29,3,.41,4.52-3.73.22-8.89-.79-11.48-3.43-.19-.2-.5.09-.31.28a11.85,11.85,0,0,0,6.18,3c1.62.36,3.91,1.07,5.66.77,0,0,0,.09,0,.14.17,2.17.28,4.35.36,6.53-4.24,0-7.55-2.3-11.15-4.33-.25-.14-.49.23-.24.38,3.69,2.16,7,4.55,11.41,4.58.06,1.78.09,3.55.11,5.32a19,19,0,0,1-10.49-3.86c-.21-.15-.41.18-.21.34a20.34,20.34,0,0,0,10.7,4.21c0,1.91,0,3.81,0,5.72-3.62.35-6.86-1.16-9.7-3.37-.07-.05-.16.06-.09.11,2.57,2.17,6.23,4.51,9.78,3.95,0,.61,0,1.22,0,1.83,0,.36,0,.74,0,1.11A20.43,20.43,0,0,1,328,273a.07.07,0,0,0,0,.12,19.43,19.43,0,0,0,8.15,2.1c0,1.15-.05,2.33-.07,3.53a15.9,15.9,0,0,0-2.21-.34,14.91,14.91,0,0,1-3.77-1.07c-.12,0-.2.14-.08.18a15.34,15.34,0,0,0,3.32,1.2c.93.11,1.83.31,2.73.47-.07,4.76.07,9.77,1.73,13.91.37.92,2,.77,2-.3C339.7,289.52,338.82,286.21,338.37,283Z"/><polygon class="cls-36" points="354.59 286.88 354.13 295.43 353.4 308.73 352.21 330.59 322.62 330.59 321.43 308.73 320.7 295.43 320.24 286.88 354.59 286.88"/><polygon class="cls-31" points="354.13 295.43 354.03 297.14 353.94 298.92 353.4 308.73 321.43 308.73 320.89 298.92 320.8 297.14 320.7 295.43 354.13 295.43"/><polygon class="cls-36" points="354.03 297.14 353.94 298.92 320.89 298.92 320.8 297.14 354.03 297.14"/></g></g></g></svg>