<svg width="24" height="26" viewBox="0 0 24 26" fill="none" xmlns="http://www.w3.org/2000/svg">
	<path d="M8.42967 23.9776V20.1441C8.42965 19.1726 9.21959 18.3834 10.198 18.3773H13.7908C14.7736 18.3773 15.5703 19.1683 15.5703 20.1441V23.9665C15.5703 24.8091 16.255 25.4939 17.1037 25.5H19.5548C20.6995 25.5029 21.7984 25.0535 22.609 24.2509C23.4195 23.4483 23.875 22.3584 23.875 21.2219V10.3323C23.875 9.41423 23.4651 8.54339 22.7558 7.95438L14.4287 1.34284C12.9731 0.186403 10.8942 0.22376 9.48174 1.43173L1.33377 7.95438C0.590926 8.52603 0.14694 9.39945 0.125 10.3323V21.2108C0.125 23.5796 2.05923 25.5 4.44522 25.5H6.84036C7.24897 25.5029 7.64186 25.3438 7.93184 25.058C8.22182 24.7722 8.38491 24.3833 8.3849 23.9776H8.42967Z" fill="black"/>
</svg>
