<svg width="28" height="21" viewBox="0 0 28 21" fill="none" xmlns="http://www.w3.org/2000/svg">
<path d="M15.68 3.10002H12.32C11.4277 3.06206 10.5568 3.37988 9.89864 3.98364C9.2405 4.58741 8.84895 5.42774 8.81 6.32002V10.67C8.81436 11.1831 8.97713 11.6824 9.27606 12.0994C9.575 12.5165 9.99548 12.831 10.48 13V18.8C10.4603 19.3158 10.6408 19.8192 10.9837 20.205C11.3267 20.5908 11.8055 20.8291 12.32 20.87H15.68C16.1945 20.8291 16.6733 20.5908 17.0163 20.205C17.3592 19.8192 17.5397 19.3158 17.52 18.8V13C18.0013 12.8322 18.4196 12.5207 18.7182 12.1076C19.0169 11.6945 19.1816 11.1997 19.19 10.69V6.32002C19.1511 5.42774 18.7595 4.58741 18.1014 3.98364C17.4432 3.37988 16.5723 3.06206 15.68 3.10002ZM4 3.46002C4.33259 3.47197 4.66117 3.38428 4.94357 3.2082C5.22598 3.03212 5.44934 2.77567 5.58499 2.47177C5.72063 2.16786 5.76239 1.83036 5.70488 1.50256C5.64738 1.17476 5.49325 0.871615 5.26227 0.632021C5.03128 0.392428 4.73398 0.227314 4.4085 0.157863C4.08302 0.0884116 3.74422 0.117792 3.43555 0.242234C3.12689 0.366676 2.86245 0.580504 2.67616 0.856282C2.48986 1.13206 2.39021 1.45721 2.39 1.79002C2.38602 2.00539 2.42452 2.21944 2.50328 2.41994C2.58205 2.62044 2.69954 2.80346 2.84905 2.95854C2.99856 3.11362 3.17716 3.23773 3.37464 3.32377C3.57212 3.40982 3.78462 3.45611 4 3.46002ZM5.2 4.26002H2.8C2.09398 4.2273 1.40362 4.47481 0.879213 4.94865C0.354803 5.42249 0.0388009 6.08431 0 6.79002V9.79002C0.00582329 10.2289 0.155833 10.6536 0.426902 10.9988C0.697971 11.3439 1.07505 11.5903 1.5 11.7V15.51C1.4722 15.9398 1.61352 16.3634 1.89378 16.6903C2.17405 17.0173 2.57105 17.2218 3 17.26H5.09C5.30692 17.2436 5.51846 17.1845 5.71244 17.086C5.90641 16.9875 6.079 16.8516 6.22027 16.6862C6.36154 16.5208 6.4687 16.329 6.53558 16.122C6.60247 15.915 6.62776 15.6968 6.61 15.48V11.64C7.00962 11.5121 7.35887 11.2617 7.60833 10.9243C7.85778 10.5869 7.99481 10.1796 8 9.76002V6.76002C7.95363 6.05965 7.63435 5.40542 7.11078 4.93795C6.5872 4.47047 5.90113 4.22705 5.2 4.26002ZM24 3.46002C24.3326 3.47197 24.6612 3.38428 24.9436 3.2082C25.226 3.03212 25.4493 2.77567 25.585 2.47177C25.7206 2.16786 25.7624 1.83036 25.7049 1.50256C25.6474 1.17476 25.4933 0.871615 25.2623 0.632021C25.0313 0.392428 24.734 0.227314 24.4085 0.157863C24.083 0.0884116 23.7442 0.117792 23.4356 0.242234C23.1269 0.366676 22.8624 0.580504 22.6762 0.856282C22.4899 1.13206 22.3902 1.45721 22.39 1.79002C22.386 2.00539 22.4245 2.21944 22.5033 2.41994C22.582 2.62044 22.6995 2.80346 22.8491 2.95854C22.9986 3.11362 23.1772 3.23773 23.3746 3.32377C23.5721 3.40982 23.7846 3.45611 24 3.46002ZM25.2 4.26002H22.8C22.094 4.2273 21.4036 4.47481 20.8792 4.94865C20.3548 5.42249 20.0388 6.08431 20 6.79002V9.79002C20.0058 10.2289 20.1558 10.6536 20.4269 10.9988C20.698 11.3439 21.075 11.5903 21.5 11.7V15.51C21.4722 15.9398 21.6135 16.3634 21.8938 16.6903C22.1741 17.0173 22.571 17.2218 23 17.26H25.07C25.2869 17.2436 25.4985 17.1845 25.6924 17.086C25.8864 16.9875 26.059 16.8516 26.2003 16.6862C26.3415 16.5208 26.4487 16.329 26.5156 16.122C26.5825 15.915 26.6078 15.6968 26.59 15.48V11.64C26.9933 11.5155 27.347 11.2666 27.6002 10.9289C27.8535 10.5913 27.9934 10.1821 28 9.76002V6.76002C27.9536 6.05965 27.6344 5.40542 27.1108 4.93795C26.5872 4.47047 25.9011 4.22705 25.2 4.26002Z" fill="black"/>
</svg>
