<svg width="27" height="27" viewBox="0 0 27 27" fill="none" xmlns="http://www.w3.org/2000/svg">
<path d="M14.5117 0.000484941C15.2931 -0.0130148 16.0333 0.25563 16.5859 0.769971C17.1415 1.26811 17.4384 1.95795 17.4384 2.68694C17.4384 4.17191 18.7313 5.37474 20.3381 5.37474C20.834 5.37474 21.3312 5.23839 21.7731 5.00889C23.1498 4.30556 24.8689 4.7524 25.6503 6.00788L26.6178 7.58735C26.8593 7.99234 27 8.45133 27 8.92382C27 9.88231 26.4473 10.7746 25.5523 11.2458C25.1104 11.4753 24.741 11.8263 24.4867 12.2326C23.7323 13.5002 24.2026 15.1054 25.5523 15.837C26.9148 16.5782 27.3836 18.1995 26.6178 19.4806L25.6503 21.0075C25.1388 21.8431 24.1869 22.3574 23.164 22.3574C22.6525 22.3574 22.1411 22.2346 21.7163 21.9916C21.2602 21.7621 20.7644 21.6271 20.2657 21.6271C19.4985 21.6271 18.7597 21.9119 18.2212 22.4236C17.6657 22.9244 17.3674 23.6116 17.3674 24.327C17.3674 25.7985 16.0759 27 14.469 27H12.524C11.7554 27 11.0308 26.703 10.5052 26.2035C9.96528 25.6905 9.68255 25.0155 9.68255 24.3135C9.68255 22.8286 8.40246 21.6271 6.79844 21.6271C6.27135 21.6271 5.75988 21.7621 5.31945 22.0199C4.6517 22.3696 3.85608 22.4641 3.1173 22.2886C2.37851 22.0996 1.73917 21.6406 1.35557 21.0331L0.447717 19.5076C0.0200734 18.8745 -0.107794 18.1172 0.0925314 17.4017C0.290015 16.6862 0.802903 16.0787 1.49765 15.7142C1.9395 15.4847 2.30747 15.1472 2.56321 14.7287C3.30341 13.4597 2.83315 11.8668 1.49765 11.1243C0.14794 10.3953 -0.320905 8.78883 0.447717 7.51985L1.35557 6.00788C1.73917 5.37474 2.37851 4.9144 3.1315 4.7254C3.88592 4.5364 4.68011 4.64305 5.34786 5.00889C5.8025 5.23839 6.29976 5.35989 6.79844 5.35989C7.56564 5.35989 8.30301 5.07639 8.84289 4.5769C9.38278 4.07741 9.68255 3.38892 9.68255 2.68694C9.68255 1.20196 10.974 0.000484941 12.5794 0.000484941H14.5117ZM15.0814 10.0997C13.5896 9.51781 11.8691 9.82831 10.7183 10.8948C9.58168 11.9478 9.22649 13.5542 9.85162 14.9326C10.464 16.3217 11.9117 17.2262 13.5313 17.2262H13.547C14.6125 17.2397 15.6071 16.8495 16.3586 16.1462C17.1116 15.4577 17.5378 14.5127 17.5378 13.5272C17.5521 12.0288 16.5717 10.6653 15.0814 10.0997Z" fill="black"/>
</svg>
