<svg xmlns="http://www.w3.org/2000/svg" viewBox="0 0 1393.99 680.75"><defs><style>.cls-1{fill:#e7f3fe;}.cls-2{fill:#a2dff2;}.cls-3{fill:#96cfe0;}.cls-4{fill:#2e5b9a;}.cls-5{fill:#f09959;}.cls-6{fill:#e38540;}.cls-7{fill:#75a1de;}.cls-8{fill:#a86b48;}.cls-9{fill:#3e6bab;}.cls-10{fill:#f0ceb4;}.cls-11{fill:#a8ceff;}.cls-12{fill:#f7a96f;}.cls-13{fill:#b7e1ff;}.cls-14{fill:#fff;}.cls-15{fill:#9ec8ff;}.cls-16{fill:#9cd499;}</style></defs><title>Asset 4</title><g id="Layer_2" data-name="Layer 2"><g id="Слой_1" data-name="Слой 1"><path class="cls-1" d="M69.1,677.21S-47.68,532.41,22.39,394.62s203.19-105.1,390-245.23C639.24-20.73,798.52-30.08,1001,44.29c114.44,42,133.12,214.87,315.29,322.3,164.23,96.85,30.37,261.58-56,287.27s-144.8,25.69-144.8,25.69Z"/><path class="cls-2" d="M764.34,365.9c-29.15,59.16-65.69,220.84-75.66,229.7s-67.55,43.19-77.51,59.8-5.54,11.07-1.11,12.18,254.7,2.21,254.7,2.21S836,498.15,832.64,497,764.34,365.9,764.34,365.9Z"/><path class="cls-3" d="M722.9,669c46,.32,94.47.57,121.17.71L807.51,451.07c-19.5-37.8-43.17-85.17-43.17-85.17-3.67,7.46-7.47,16.55-11.31,26.75-3.79,164.21,19.86,210.23,2.1,239.49C741.26,655,728.61,665.19,722.9,669Z"/><path class="cls-4" d="M1242.53,680.75H40.78a9.27,9.27,0,0,1,0-18.54H1242.53a9.27,9.27,0,0,1,0,18.54Z"/><path class="cls-2" d="M917.82,294.49c41.57,38.37,134.09,74.75,134.09,74.75s14.06,129.89,4.47,203.43-4.27,88.46-4.27,88.46H861.33s-25.6-35.53-72.48-146C759,444.77,764.34,365.9,764.34,365.9l116.18-52.23Z"/><path class="cls-3" d="M861.33,661.13h190.78s-5.32-14.92,4.27-88.46c7.9-60.56-.24-159.31-3.36-192.3l-17.35-7.44c-43.56,12.56-68.66,77.52-76,141-4.94,42.48-75.33,84.3-121.37,107.33C853.39,650.11,861.33,661.13,861.33,661.13Z"/><path class="cls-4" d="M814.56,161.17c-23,51.22,4.6,98.67,3.77,96.67s34.81-86.48,34.81-86.48Z"/><path class="cls-5" d="M901.71,199.05l29.16,106.61a9.61,9.61,0,0,1-1.84,8.63c-6.84,8.43-16.58,25.76-36.23,31.32A48.59,48.59,0,0,1,880.46,347a8.33,8.33,0,0,1-8.22-6.74L852.7,239.15Z"/><path class="cls-6" d="M896.14,208l-10.66,4.37L852.7,239.15l17.59,89.64C900.13,310.19,904.48,297.64,896.14,208Z"/><path class="cls-5" d="M900.64,246.21c-6.46,35.07-32.7,58.79-58.62,53s-38.28-28.51-35.23-74c2.38-35.7,20-74.51,45.91-68.7S907.09,211.14,900.64,246.21Z"/><path class="cls-2" d="M1051.91,369.24c38.6,8.72,45.77,87.12,58.33,169.81,1.44,9.52,8.85,90.07,8.85,90.07a24.66,24.66,0,0,1-14,22.15c-12.62,6.31-17.72,11.07-90.81,11.81-70.2.71-160.7-2.21-160.7-2.21s-.8-26.12,6.4-38.89c10.83-19.19,121.81-46.76,132.15-48.23,1.48-20.67-10.19-95.47,5.91-146.18,11.07-34.89,23-53.16,37.89-57.93A29.88,29.88,0,0,1,1051.91,369.24Z"/><path class="cls-3" d="M893.25,662.46c34.61.52,82.1,1,121,.62,73.09-.74,78.19-5.5,90.81-11.81,14.76-7.39,15.5-19.94,15.5-19.94s-7.46-85.71-8.86-95.23c-8.12-55.38-16.89-118.74-37.32-149.32,19.2,56.27,22.29,103.74,22.64,124,.17,10.27-.78,24.33-3.78,34.16-3.32,10.88-11.81,17.71-25.1,14-26.57-7.38-59.8,8.12-59.8,8.12s25.1-8.86,48.73-.73,72.35,62,19.19,81.94C1060,654.41,962.58,659.39,893.25,662.46Z"/><path class="cls-3" d="M865.86,624.44s9.85-16.73,30-16.73,18.7,33,15.75,43.8-14.77,11.32-14.77,11.32l-43.31-2Z"/><rect class="cls-7" x="541.42" y="653.22" width="288.02" height="17.13" rx="7.49"/><path class="cls-5" d="M860.45,626.41c-42.33-15.26-53.43-9.51-63-12.3-23.63-6.89-29.53-1-44.79,40.85-3,8.33,5.91,8.86,14.77,8.86s19.68-17.23,23.13-19.2,12.8-3,12.8-3-3,0-7.39,8.86-9.84,12.3-3,12.3,7.87-11.32,20.67-8.86,7.88,8.86,39.87,8.37,56.14,0,55.62-19.19c-.5-18.21,1.52-27.32-15.75-30.52C880.14,610.17,860.45,626.41,860.45,626.41Z"/><path class="cls-8" d="M861,626.41c28.3-3.2,20,32.06,17,35s15.75,1,15.75,1,8.79-14.15,1.41-30.39-22.15-17-22.15-17L860.51,622Z"/><path class="cls-4" d="M890.55,623.34c-.36,4.37-7.79,7.32-16.58,6.58s-15.63-4.87-15.26-9.24,7.79-7.31,16.58-6.58S890.92,619,890.55,623.34Z"/><path class="cls-9" d="M888.3,621.17c-.32,3.9-7,6.54-14.81,5.88s-14-4.35-13.64-8.26,7-6.53,14.82-5.87S888.63,617.27,888.3,621.17Z"/><path class="cls-10" d="M883.39,619.36c-.23,2.81-5,4.71-10.66,4.23s-10.05-3.13-9.82-5.94,5-4.7,10.67-4.23S883.63,616.55,883.39,619.36Z"/><path class="cls-7" d="M538.92,616.26h-275a30.09,30.09,0,0,1-29.49-24.9l-35.87-198c-3.39-18.67,10.76-35.89,29.48-35.89H503.05a30.1,30.1,0,0,1,29.49,24.91l35.87,198C571.8,599.05,557.65,616.26,538.92,616.26Z"/><path class="cls-11" d="M551.78,581.12,515.16,387.2c-2.66-14.13-15.32-24.39-30.09-24.39H205.54a30.88,30.88,0,0,0-7,25.85l37.14,202.18a31,31,0,0,0,30.52,25.42h255.5C540.79,616.26,555.23,599.41,551.78,581.12Z"/><path class="cls-7" d="M485.45,642.78H433.24c-9.32,0-16.87-8.29-16.87-18.52V528.79c0-16.28-12-29.48-26.83-29.48H362.26c-14.82,0-26.84,13.2-26.84,29.48V635.7c0,18.29,13.55,33.07,30.19,33l142.51-1C508.12,653.93,498,642.78,485.45,642.78Z"/><path class="cls-11" d="M337.5,530.93V636.21a32.45,32.45,0,0,0,30.09,32.36l139.08-.87c0-2.28-11-6.43-24.52-6.43H425.66A18.24,18.24,0,0,1,407.42,643V530.93a29,29,0,0,0-29-29H366.53A29,29,0,0,0,337.5,530.93Z"/><path class="cls-5" d="M628.61,630.65c21-11.68,46.7-7.78,56,3.89S695.55,654,674.53,654s-63,1.56-70,.78S628.61,630.65,628.61,630.65Z"/><path class="cls-5" d="M659.74,623.64c22.58-5.44,38,7.69,56.83,20.24,16.35,10.9,19.63,21.5,1.56,12.46-26.47-13.24-42-14.79-42-14.79Z"/><path class="cls-5" d="M639.18,630.58c-11.4,0-21.35-3.64-29.4-3s-33.53,26.83-29.5,28.84a9,9,0,0,0,.93.4,13.72,13.72,0,0,0,16.29-5.71c3.61-5.79,9.48-12.52,16.31-10.11a72.48,72.48,0,0,0,23.36,3.63Z"/><path class="cls-12" d="M632.5,658.67c-11.68-4.67,7-43.59,13.23-43.59s29.58,18.68,29.58,18.68-5.49,3.1-24.13-3.11c-4.67-1.56-8.56,24.91-14,28S632.5,658.67,632.5,658.67Z"/><path class="cls-4" d="M806.77,245.66c-1.09,42.86,13.51,50.11,23.73,55.93s54.21-3.8,60.67-14.4c16.53-27.12,2.62-52.41,6.31-52s7.08,10.94,16.72,24.64c.9,1.27,7.16,9.74,7.48,6.92,4.48-38.38,24.46-50.29,19.7-89.11-3.5-28.62-21.67-26.35-21.67-26.35s-11.72-23.94-48.2-21.22c-24.44,1.82-46.23,11.34-71.42,17.83s29.81,63.59,62.49,42.72,16.54,25.09,21.7,28.66,2.48.47,4.84,24-27.5,38.87-36.06,40.88c-27.37,6.44-31.94,1.92-37.94-8.38C809.92,266.81,806.77,245.66,806.77,245.66Z"/><path class="cls-5" d="M920.05,232.39c-3.14,10.8-10.81,17.78-17.14,15.58s-6.51-11-5.77-23.53c.68-11.32,10.82-17.78,17.14-15.58S923.19,221.59,920.05,232.39Z"/><rect class="cls-13" x="83.75" y="93.64" width="242.86" height="109.75" rx="4.6"/><rect class="cls-14" x="90.39" y="122.47" width="229.58" height="75.77" rx="3.72"/><rect class="cls-14" x="93.76" y="101.71" width="9.51" height="8.56" rx="2.06"/><rect class="cls-14" x="111.06" y="101.71" width="9.51" height="8.56" rx="2.06"/><rect class="cls-14" x="128.36" y="101.71" width="9.51" height="8.56" rx="2.06"/><path class="cls-13" d="M310.62,139.08H189.19a3.64,3.64,0,1,1,0-7.27H310.62a3.64,3.64,0,0,1,0,7.27Z"/><path class="cls-13" d="M219.29,195.12H97.85a3.63,3.63,0,0,1,0-7.26H219.29a3.63,3.63,0,0,1,0,7.26Z"/><rect class="cls-13" x="227.85" y="187.86" width="15.05" height="7.27" rx="1.24"/><rect class="cls-13" x="246.79" y="187.86" width="15.05" height="7.27" rx="1.24"/><path class="cls-13" d="M311.79,154.9H110.7a2.47,2.47,0,1,1,0-4.93H311.79a2.47,2.47,0,0,1,0,4.93Z"/><path class="cls-13" d="M311.79,165.54H110.7a2.47,2.47,0,1,1,0-4.93H311.79a2.47,2.47,0,0,1,0,4.93Z"/><path class="cls-15" d="M143.23,170.7H376.88a4.6,4.6,0,0,1,4.6,4.6V275.84a4.61,4.61,0,0,1-4.61,4.61H143.23a4.61,4.61,0,0,1-4.61-4.61V175.3A4.61,4.61,0,0,1,143.23,170.7Z"/><rect class="cls-14" x="145.26" y="199.53" width="229.58" height="75.77" rx="3.72"/><rect class="cls-14" x="148.63" y="178.77" width="9.51" height="8.56" rx="2.06"/><rect class="cls-14" x="165.93" y="178.77" width="9.51" height="8.56" rx="2.06"/><rect class="cls-14" x="183.23" y="178.77" width="9.52" height="8.56" rx="2.06"/><path class="cls-15" d="M365.5,216.14H244.06a3.64,3.64,0,0,1,0-7.27H365.5a3.64,3.64,0,0,1,0,7.27Z"/><path class="cls-15" d="M274.16,272.18H152.73a3.63,3.63,0,1,1,0-7.26H274.16a3.63,3.63,0,1,1,0,7.26Z"/><rect class="cls-15" x="282.73" y="264.92" width="15.05" height="7.27" rx="1.24"/><rect class="cls-15" x="301.67" y="264.92" width="15.05" height="7.27" rx="1.24"/><path class="cls-15" d="M366.67,232H165.57a2.46,2.46,0,1,1,0-4.92h201.1a2.46,2.46,0,0,1,0,4.92Z"/><path class="cls-15" d="M366.67,242.6H165.57a2.47,2.47,0,0,1,0-4.93h201.1a2.47,2.47,0,0,1,0,4.93Z"/><path class="cls-16" d="M467.88,253.59a31.53,31.53,0,1,1-31.52-31.52A31.53,31.53,0,0,1,467.88,253.59Z"/><path class="cls-14" d="M433.23,265.24h-.09a2.38,2.38,0,0,1-1.71-.81l-8.57-9.73a2.4,2.4,0,0,1,3.61-3.17l6.89,7.83,16.48-16.14a2.4,2.4,0,1,1,3.36,3.43l-18.29,17.91A2.41,2.41,0,0,1,433.23,265.24Z"/><rect class="cls-15" x="460.08" y="16.86" width="219.13" height="90.3" rx="9.34"/><path class="cls-15" d="M486.55,93.53v49.82L544,85.94S487.71,93.53,486.55,93.53Z"/><rect class="cls-14" x="471.41" y="25.81" width="196.46" height="72.39" rx="7.92"/><path class="cls-15" d="M578.4,43.71H489.66a3.89,3.89,0,0,1,0-7.78H578.4a3.89,3.89,0,0,1,0,7.78Z"/><rect class="cls-15" x="485.77" y="54.22" width="168.92" height="4.37" rx="2.16"/><rect class="cls-15" x="485.77" y="62.69" width="168.92" height="4.37" rx="2.16"/><rect class="cls-15" x="611.05" y="86.53" width="9.51" height="8.56" rx="2.06"/><rect class="cls-15" x="628.35" y="86.53" width="9.51" height="8.56" rx="2.06"/><rect class="cls-15" x="645.65" y="86.53" width="9.51" height="8.56" rx="2.06"/></g></g></svg>