<svg width="34" height="30" viewBox="0 0 34 30" fill="none" xmlns="http://www.w3.org/2000/svg">
<path d="M3.58295 17.8703C3.53869 17.4497 3.516 17.0274 3.51495 16.6048C3.51495 10.8488 7.77762 6.01437 13.5523 4.61646M6.04562 23.8292C8.49095 26.961 12.4823 28.9997 17.0003 28.9997C21.5183 28.9997 25.5176 26.961 27.947 23.8212M20.4483 4.61646C26.223 6.01437 30.477 10.8488 30.477 16.6048C30.477 17.034 30.4516 17.4564 30.4096 17.8703" stroke="black" stroke-width="2" stroke-miterlimit="10" stroke-linecap="round" stroke-linejoin="round"/>
<path d="M17.0003 7.41079C18.9252 7.41079 20.4856 5.97569 20.4856 4.2054C20.4856 2.4351 18.9252 1 17.0003 1C15.0754 1 13.515 2.4351 13.515 4.2054C13.515 5.97569 15.0754 7.41079 17.0003 7.41079Z" stroke="black" stroke-width="2" stroke-miterlimit="10" stroke-linecap="round" stroke-linejoin="round"/>
<path d="M29.5146 24.1734C31.4395 24.1734 33 22.7383 33 20.968C33 19.1977 31.4395 17.7626 29.5146 17.7626C27.5897 17.7626 26.0293 19.1977 26.0293 20.968C26.0293 22.7383 27.5897 24.1734 29.5146 24.1734Z" stroke="black" stroke-width="2" stroke-miterlimit="10" stroke-linecap="round" stroke-linejoin="round"/>
<path d="M4.48533 24.1734C6.41023 24.1734 7.97067 22.7383 7.97067 20.968C7.97067 19.1977 6.41023 17.7626 4.48533 17.7626C2.56044 17.7626 1 19.1977 1 20.968C1 22.7383 2.56044 24.1734 4.48533 24.1734Z" stroke="black" stroke-width="2" stroke-miterlimit="10" stroke-linecap="round" stroke-linejoin="round"/>
</svg>
