<svg width="24" height="24" viewBox="0 0 24 24" fill="none" xmlns="http://www.w3.org/2000/svg">
<path d="M7.28994 11.7099C7.3829 11.8037 7.4935 11.8781 7.61536 11.9288C7.73722 11.9796 7.86793 12.0057 7.99994 12.0057C8.13195 12.0057 8.26266 11.9796 8.38452 11.9288C8.50637 11.8781 8.61698 11.8037 8.70994 11.7099C8.80367 11.617 8.87806 11.5064 8.92883 11.3845C8.9796 11.2627 9.00574 11.132 9.00574 10.9999C9.00574 10.8679 8.9796 10.7372 8.92883 10.6154C8.87806 10.4935 8.80367 10.3829 8.70994 10.2899L6.40994 7.99994H19.9999C20.2652 7.99994 20.5195 7.89458 20.707 7.70705C20.8946 7.51951 20.9999 7.26516 20.9999 6.99994C20.9999 6.73472 20.8946 6.48037 20.707 6.29283C20.5195 6.1053 20.2652 5.99994 19.9999 5.99994H6.40994L8.70994 3.70994C8.89824 3.52164 9.00403 3.26624 9.00403 2.99994C9.00403 2.73364 8.89824 2.47824 8.70994 2.28994C8.52164 2.10164 8.26624 1.99585 7.99994 1.99585C7.73364 1.99585 7.47824 2.10164 7.28994 2.28994L3.28994 6.28994C3.19621 6.3829 3.12182 6.49351 3.07105 6.61536C3.02028 6.73722 2.99414 6.86793 2.99414 6.99994C2.99414 7.13195 3.02028 7.26266 3.07105 7.38452C3.12182 7.50638 3.19621 7.61698 3.28994 7.70994L7.28994 11.7099ZM16.7099 12.2899C16.5216 12.1016 16.2662 11.9958 15.9999 11.9958C15.7336 11.9958 15.4782 12.1016 15.2899 12.2899C15.1016 12.4782 14.9958 12.7336 14.9958 12.9999C14.9958 13.2662 15.1016 13.5216 15.2899 13.7099L17.5899 15.9999H3.99994C3.73472 15.9999 3.48037 16.1053 3.29283 16.2928C3.1053 16.4804 2.99994 16.7347 2.99994 16.9999C2.99994 17.2652 3.1053 17.5195 3.29283 17.707C3.48037 17.8946 3.73472 17.9999 3.99994 17.9999H17.5899L15.2899 20.2899C15.1962 20.3829 15.1218 20.4935 15.071 20.6154C15.0203 20.7372 14.9941 20.8679 14.9941 20.9999C14.9941 21.132 15.0203 21.2627 15.071 21.3845C15.1218 21.5064 15.1962 21.617 15.2899 21.7099C15.3829 21.8037 15.4935 21.8781 15.6154 21.9288C15.7372 21.9796 15.8679 22.0057 15.9999 22.0057C16.132 22.0057 16.2627 21.9796 16.3845 21.9288C16.5064 21.8781 16.617 21.8037 16.7099 21.7099L20.7099 17.7099C20.8037 17.617 20.8781 17.5064 20.9288 17.3845C20.9796 17.2627 21.0057 17.132 21.0057 16.9999C21.0057 16.8679 20.9796 16.7372 20.9288 16.6154C20.8781 16.4935 20.8037 16.3829 20.7099 16.2899L16.7099 12.2899Z" fill="black"/>
</svg>
