<svg class="svg-icon" style="width: 1em; height: 1em;vertical-align: middle;fill: currentColor;overflow: hidden;" viewBox="0 0 1024 1024" version="1.1" xmlns="http://www.w3.org/2000/svg"><path d="M925.77792 774.10816a152.1152 152.1152 0 0 0-15.45728-37.46816l29.50656-44.416-0.1536-0.0768-41.91744-41.91232-0.0768-0.0768-44.416 29.50656a153.37472 153.37472 0 0 0-37.30944-15.45728l-10.61888-52.21888h-59.39712l-10.61888 52.14208a153.2928 153.2928 0 0 0-37.31456 15.45728l-44.416-29.42976-42.07104 42.07104 29.50144 44.416a149.43744 149.43744 0 0 0-15.52896 37.46816l-52.21888 10.61888v59.39712l52.21888 10.61888a154.8288 154.8288 0 0 0 15.45216 37.46816l-29.50144 44.416 42.07104 42.07104 44.4928-29.50144a153.73312 153.73312 0 0 0 37.31456 15.45216l10.61888 52.21888h59.39712l10.61888-52.21888a152.36608 152.36608 0 0 0 37.30944-15.45216l44.416 29.50144 0.0768-0.0768 41.91744-41.91232 0.0768-0.0768-29.50656-44.416a152.32 152.32 0 0 0 15.45728-37.46816L977.92 844.11904v-59.39712l-52.14208-10.61376z m-150.02624 110.52544c-38.84032-0.04096-70.29248-31.5648-70.25152-70.41024 0.04608-38.84032 31.5648-70.29248 70.40512-70.25152 38.84544 0.04608 70.2976 31.5648 70.25664 70.41024-0.04096 38.84032-31.5648 70.2976-70.41024 70.25152z m0 0" fill="" /><path d="M437.632 3.4816a230.912 230.912 0 0 1 54.74304 6.6048 269.79328 269.79328 0 0 1 51.22048 17.75104 231.84384 231.84384 0 0 1 42.61888 25.37472 154.0096 154.0096 0 0 1 28.93824 28.42624 223.90784 223.90784 0 0 1 36.36224 71.51616 522.86976 522.86976 0 0 1 16.03584 74.56768 635.32544 635.32544 0 0 1 5.07904 82.11456 38.7072 38.7072 0 0 1 10.56256 13.17376 77.66016 77.66016 0 0 1 5.8624 18.26304c1.68448 9.03168 1.95072 18.26304 0.78336 27.37664a111.90272 111.90272 0 0 1-8.21248 33.97632 70.68672 70.68672 0 0 1-14.07488 19.7888 46.03392 46.03392 0 0 1-17.98656 11.14624 1026.44736 1026.44736 0 0 1-9.37984 32.45568c-3.52256 8.79616-7.04512 17.39776-10.95168 25.8816a70.4256 70.4256 0 0 1-14.08 19.7888 970.0352 970.0352 0 0 0-29.71136 25.88672 63.01696 63.01696 0 0 0-15.25248 36.01408 136.06912 136.06912 0 0 0-1.95584 30.9248c0.91136 10.8288 3.6864 21.40672 8.21248 31.2832a98.24768 98.24768 0 0 0 21.89824 29.91104c0.9728 0.86016 3.71712 1.4848 2.95936 2.53952-91.57632 127.91296-45.07136 272.128 10.89024 341.0944 0 0-20.10112 1.96096-30.26944 2.84672a2471.8848 2471.8848 0 0 1-78.98624 5.59616c-25.02656 1.36704-46.91968 2.03264-65.30048 2.03264s-39.8848-0.6656-64.51712-2.03264c-24.63744-1.37216-49.664-3.21024-75.85792-5.59616a2881.6896 2881.6896 0 0 1-77.81376-8.13568c-25.80992-3.05152-49.26976-6.25664-70.37952-9.61536-21.11488-3.36384-38.71232-6.76352-53.57056-10.1632a70.56384 70.56384 0 0 1-27.37664-10.1632 89.30304 89.30304 0 0 1-14.85824-49.69984 402.64704 402.64704 0 0 1 4.3008-107.5712 85.4784 85.4784 0 0 1 28.15488-57.32352 183.36256 183.36256 0 0 1 54.35392-31.27808 706.6624 706.6624 0 0 1 64.51712-20.80256 199.86432 199.86432 0 0 0 59.04384-26.3936 139.49952 139.49952 0 0 0 30.49984-25.37984 83.16416 83.16416 0 0 0 15.24736-24.36096 62.94016 62.94016 0 0 0 5.08416-25.37984c0-8.78592-0.39424-18.60096-1.1776-29.44512a56.86272 56.86272 0 0 0-15.25248-37.03296 526.3616 526.3616 0 0 0-29.71136-27.91936 62.54592 62.54592 0 0 1-13.29664-19.7888 1870.37184 1870.37184 0 0 1-10.55744-25.8816 999.89504 999.89504 0 0 1-9.37984-32.45568 42.4704 42.4704 0 0 1-13.29152-7.1168 79.34464 79.34464 0 0 1-12.51328-14.19264 84.8896 84.8896 0 0 1-11.3408-26.3936 71.15776 71.15776 0 0 1-4.3008-31.27808c0.66048-8.30464 2.37056-16.49152 5.08416-24.36608a67.41504 67.41504 0 0 1 12.51328-21.30944 509.34784 509.34784 0 0 1 3.90656-77.1072 474.47552 474.47552 0 0 1 13.69088-69.99552 218.40896 218.40896 0 0 1 30.1056-66.97984 187.74016 187.74016 0 0 1 40.66816-46.1824 202.9568 202.9568 0 0 1 45.7472-27.91936 190.01856 190.01856 0 0 1 46.91968-13.68576 301.07136 301.07136 0 0 1 45.3632-3.5584V3.4816z m0 0" fill="" /></svg>