<svg width="31" height="23" viewBox="0 0 31 23" fill="none" xmlns="http://www.w3.org/2000/svg">
<path d="M0 2.70322V1.91667C0 1.40833 0.204129 0.920823 0.567481 0.561379C0.930832 0.201934 1.42364 0 1.9375 0L29.0625 0C29.5764 0 30.0692 0.201934 30.4325 0.561379C30.7959 0.920823 31 1.40833 31 1.91667V2.70322L15.5 12.2866L0 2.70322ZM16.0134 14.2296C15.8594 14.3247 15.6815 14.3751 15.5 14.3751C15.3185 14.3751 15.1406 14.3247 14.9866 14.2296L0 4.96345V21.0833C0 21.5917 0.204129 22.0792 0.567481 22.4386C0.930832 22.7981 1.42364 23 1.9375 23H29.0625C29.5764 23 30.0692 22.7981 30.4325 22.4386C30.7959 22.0792 31 21.5917 31 21.0833V4.96345L16.0134 14.2296Z" fill="black"/>
</svg>
