<svg width="22" height="26" viewBox="0 0 22 26" fill="none" xmlns="http://www.w3.org/2000/svg">
<path d="M12.4548 21.8563C13.0765 21.8746 13.6869 22.0262 14.2441 22.3007H14.2776C14.7432 22.6806 14.8223 23.3585 14.4566 23.8341C13.7906 24.7871 12.7251 25.388 11.5602 25.4675C10.3634 25.6102 9.15811 25.2789 8.20531 24.5453C7.71529 24.2092 7.39685 23.6778 7.33304 23.0897C7.33304 22.4674 7.91455 22.1785 8.45133 22.0563C9.08005 21.9239 9.72093 21.8568 10.3636 21.8563H12.4548ZM11.0458 0.5C14.9151 0.5 18.9074 3.3001 19.3211 7.35579C19.3882 8.18915 19.3211 9.05585 19.3882 9.90032C19.6078 10.9893 20.1132 12.0013 20.8532 12.8338C21.3133 13.5179 21.5798 14.3123 21.6249 15.1338V15.3894C21.6317 16.498 21.2345 17.5716 20.5065 18.4117C19.5839 19.3982 18.3321 20.0181 16.9839 20.1562C13.0007 20.6673 8.96785 20.6673 4.98462 20.1562C3.62056 20.0286 2.35112 19.4079 1.41727 18.4117C0.712159 17.5635 0.342409 16.489 0.377257 15.3894V15.1338C0.420897 14.3153 0.679194 13.5224 1.12651 12.8338C1.86981 12.0006 2.38235 10.9897 2.61384 9.90032C2.68094 9.05585 2.61384 8.20026 2.68094 7.35579C3.10589 3.3001 7.01992 0.5 10.9339 0.5H11.0458Z" fill="black"/>
</svg>
