<svg width="28" height="25" viewBox="0 0 28 25" fill="none" xmlns="http://www.w3.org/2000/svg">
<path d="M14 6.65994C15.5188 6.65994 16.75 5.37948 16.75 3.79994C16.75 2.22041 15.5188 0.939941 14 0.939941C12.4812 0.939941 11.25 2.22041 11.25 3.79994C11.25 5.37948 12.4812 6.65994 14 6.65994Z" fill="black"/>
<path d="M15.68 7.09989H12.32C11.4277 7.06194 10.5568 7.37976 9.89864 7.98352C9.2405 8.58729 8.84895 9.42761 8.81 10.3199V14.6699C8.81436 15.183 8.97713 15.6823 9.27606 16.0993C9.575 16.5164 9.99548 16.8309 10.48 16.9999V22.7999C10.4603 23.3157 10.6408 23.8191 10.9837 24.2049C11.3267 24.5907 11.8055 24.829 12.32 24.8699H15.68C16.1945 24.829 16.6733 24.5907 17.0163 24.2049C17.3592 23.8191 17.5397 23.3157 17.52 22.7999V16.9999C18.0013 16.8321 18.4196 16.5206 18.7182 16.1075C19.0169 15.6944 19.1816 15.1996 19.19 14.6899V10.3199C19.1511 9.42761 18.7595 8.58729 18.1014 7.98352C17.4432 7.37976 16.5723 7.06194 15.68 7.09989V7.09989ZM4 7.45989C4.33259 7.47185 4.66117 7.38416 4.94357 7.20808C5.22598 7.032 5.44934 6.77555 5.58499 6.47165C5.72063 6.16774 5.76239 5.83024 5.70488 5.50244C5.64738 5.17464 5.49325 4.87149 5.26227 4.6319C5.03128 4.39231 4.73398 4.22719 4.4085 4.15774C4.08302 4.08829 3.74422 4.11767 3.43555 4.24211C3.12689 4.36655 2.86245 4.58038 2.67616 4.85616C2.48986 5.13194 2.39021 5.45709 2.39 5.78989C2.38602 6.00527 2.42452 6.21932 2.50328 6.41982C2.58205 6.62032 2.69954 6.80333 2.84905 6.95842C2.99856 7.1135 3.17716 7.2376 3.37464 7.32365C3.57212 7.40969 3.78462 7.45599 4 7.45989V7.45989ZM5.2 8.25989H2.8C2.09398 8.22718 1.40362 8.47469 0.879213 8.94853C0.354803 9.42237 0.0388009 10.0842 0 10.7899V13.7899C0.00582329 14.2287 0.155833 14.6535 0.426902 14.9986C0.69797 15.3438 1.07505 15.5902 1.5 15.6999V19.5099C1.4722 19.9396 1.61352 20.3632 1.89378 20.6902C2.17405 21.0172 2.57105 21.2216 3 21.2599H5.09C5.30692 21.2435 5.51846 21.1843 5.71244 21.0859C5.90641 20.9874 6.079 20.8515 6.22027 20.6861C6.36154 20.5206 6.4687 20.3289 6.53558 20.1219C6.60247 19.9149 6.62776 19.6967 6.61 19.4799V15.6399C7.00962 15.5119 7.35887 15.2616 7.60833 14.9242C7.85778 14.5868 7.99481 14.1795 8 13.7599V10.7599C7.95363 10.0595 7.63435 9.4053 7.11078 8.93782C6.5872 8.47035 5.90113 8.22693 5.2 8.25989V8.25989ZM24 7.45989C24.3326 7.47185 24.6612 7.38416 24.9436 7.20808C25.226 7.032 25.4493 6.77555 25.585 6.47165C25.7206 6.16774 25.7624 5.83024 25.7049 5.50244C25.6474 5.17464 25.4933 4.87149 25.2623 4.6319C25.0313 4.39231 24.734 4.22719 24.4085 4.15774C24.083 4.08829 23.7442 4.11767 23.4356 4.24211C23.1269 4.36655 22.8624 4.58038 22.6762 4.85616C22.4899 5.13194 22.3902 5.45709 22.39 5.78989C22.386 6.00527 22.4245 6.21932 22.5033 6.41982C22.582 6.62032 22.6995 6.80333 22.8491 6.95842C22.9986 7.1135 23.1772 7.2376 23.3746 7.32365C23.5721 7.40969 23.7846 7.45599 24 7.45989V7.45989ZM25.2 8.25989H22.8C22.094 8.22718 21.4036 8.47469 20.8792 8.94853C20.3548 9.42237 20.0388 10.0842 20 10.7899V13.7899C20.0058 14.2287 20.1558 14.6535 20.4269 14.9986C20.698 15.3438 21.075 15.5902 21.5 15.6999V19.5099C21.4722 19.9396 21.6135 20.3632 21.8938 20.6902C22.1741 21.0172 22.571 21.2216 23 21.2599H25.07C25.2869 21.2435 25.4985 21.1843 25.6924 21.0859C25.8864 20.9874 26.059 20.8515 26.2003 20.6861C26.3415 20.5206 26.4487 20.3289 26.5156 20.1219C26.5825 19.9149 26.6078 19.6967 26.59 19.4799V15.6399C26.9933 15.5154 27.347 15.2665 27.6002 14.9288C27.8535 14.5911 27.9934 14.182 28 13.7599V10.7599C27.9536 10.0595 27.6344 9.4053 27.1108 8.93782C26.5872 8.47035 25.9011 8.22693 25.2 8.25989V8.25989Z" fill="black"/>
</svg>
