<svg xmlns="http://www.w3.org/2000/svg" xmlns:xlink="http://www.w3.org/1999/xlink" viewBox="0 0 539.71 319.05"><defs><style>.cls-1{fill:none;}.cls-2{fill:#455a64;}.cls-3{fill:#263238;}.cls-4{fill:#e8505b;}.cls-5{opacity:0.4;}.cls-6{fill:#fafafa;}.cls-7{fill:#ebebeb;}.cls-8{fill:#f5f5f5;}.cls-9{fill:#e0e0e0;}.cls-10{clip-path:url(#clip-path);}.cls-11{fill:#1a877f;}.cls-12{fill:#086057;}.cls-13{fill:#ffbe9d;}.cls-14{fill:#eb996e;}.cls-15{fill:#3cafa9;}.cls-16{opacity:0.3;}.cls-17{fill:#6dc9c2;}.cls-18{fill:#fff;}</style><clipPath id="clip-path"><path class="cls-1" d="M128.74,103.52a2.61,2.61,0,0,1,.36,1.3,2.55,2.55,0,0,1-5.09,0,2.61,2.61,0,0,1,.35-1.3h-3a2.51,2.51,0,0,1,.36,1.3,2.55,2.55,0,0,1-5.09,0,2.61,2.61,0,0,1,.35-1.3h-3a2.51,2.51,0,0,1,.36,1.3,2.55,2.55,0,0,1-5.09,0,2.51,2.51,0,0,1,.36-1.3h-3a2.51,2.51,0,0,1,.36,1.3,2.55,2.55,0,0,1-5.09,0,2.51,2.51,0,0,1,.36-1.3H99.43a2.61,2.61,0,0,1,.35,1.3,2.55,2.55,0,0,1-5.09,0,2.51,2.51,0,0,1,.36-1.3h-3a2.61,2.61,0,0,1,.35,1.3,2.54,2.54,0,0,1-5.08,0,2.61,2.61,0,0,1,.35-1.3H85.87v52.63h43.84V103.52Z"/></clipPath></defs><title>Asset 1</title><g id="Layer_2" data-name="Layer 2"><g id="Chair"><path class="cls-2" d="M382.23,191a16.4,16.4,0,0,1,16-13.76c34.54-.46,122.48-1.26,127.2,2.49,5.88,4.67,9,7.06,8.49,14.46-.42,6.81-7.84,124.29-7.84,124.29H361.47Z"/><path class="cls-3" d="M507.3,318.57a1.73,1.73,0,0,1,0-.34c0-.26-.05-.6-.09-1-.07-.93-.16-2.24-.29-3.92s-.26-3.78-.33-6.21-.24-5.18-.25-8.23c0-1.52,0-3.12-.05-4.79s0-3.39.06-5.19c0-3.59.21-7.42.38-11.45.46-8.05,1.22-16.9,2.46-26.13s2.9-18,4.61-25.84c.92-3.93,1.75-7.68,2.69-11.14.46-1.74.87-3.42,1.33-5l1.33-4.6c.82-2.94,1.71-5.56,2.44-7.87s1.4-4.29,2-5.89,1-2.83,1.32-3.71l.36-.95a1.08,1.08,0,0,1,.14-.32l-.09.33-.31,1L523.72,191c-.55,1.61-1.2,3.59-1.9,5.92s-1.56,4.93-2.35,7.88c-.42,1.47-.85,3-1.3,4.6s-.85,3.29-1.3,5c-.92,3.46-1.74,7.2-2.64,11.13-1.68,7.88-3.29,16.6-4.57,25.81s-2,18.05-2.49,26.09c-.18,4-.39,7.85-.43,11.43,0,1.79-.09,3.52-.09,5.18s0,3.26,0,4.79c0,3,.11,5.8.17,8.22s.15,4.51.25,6.21.14,3,.18,3.92c0,.43,0,.77,0,1A1.88,1.88,0,0,1,507.3,318.57Z"/><path class="cls-3" d="M414.75,236.4s.08-.05.25-.1a2.42,2.42,0,0,1,.76,0,3.51,3.51,0,0,1,2.41,1.42,4,4,0,0,1,.25,4.1,5.2,5.2,0,0,1-1.61,1.93,4.92,4.92,0,0,1-2.55.89,4.08,4.08,0,0,1-2.63-.68,3.32,3.32,0,0,1-1.36-2.14,4.45,4.45,0,0,1,1.26-3.94c1.85-1.58,3.49-1.64,3.45-1.48s-.09,0-.25,0a5.33,5.33,0,0,0-.7.24,7.11,7.11,0,0,0-2.24,1.46,4.13,4.13,0,0,0-1.05,3.58,2.87,2.87,0,0,0,1.18,1.82,3.68,3.68,0,0,0,2.3.58,4.48,4.48,0,0,0,2.29-.78,4.66,4.66,0,0,0,1.47-1.73,3.56,3.56,0,0,0-.11-3.67,3.39,3.39,0,0,0-2.13-1.44C415.11,236.35,414.75,236.45,414.75,236.4Z"/><path class="cls-3" d="M440.56,221.48a41,41,0,0,0-4.42,0,20.26,20.26,0,0,0-16.6,11.63c-1.17,2.47-1.45,4.17-1.56,4.14a4.68,4.68,0,0,1,.19-1.18,16.76,16.76,0,0,1,1-3.11,19.71,19.71,0,0,1,16.91-11.84,18.07,18.07,0,0,1,3.28.08A4.26,4.26,0,0,1,440.56,221.48Z"/><path class="cls-3" d="M392.83,252a2.69,2.69,0,0,1,.38-.84,13.44,13.44,0,0,1,1.45-2.09,15.45,15.45,0,0,1,15.18-5.17,13.37,13.37,0,0,1,2.43.76,2.82,2.82,0,0,1,.82.44c0,.09-1.24-.47-3.32-.84a16,16,0,0,0-14.83,5C393.52,250.91,392.91,252.09,392.83,252Z"/><path class="cls-3" d="M424.67,256.13a6.1,6.1,0,0,1-1.69-1.22,19.09,19.09,0,0,1-3.27-3.84,18.77,18.77,0,0,1-2.13-4.57,6.07,6.07,0,0,1-.41-2.05,37.3,37.3,0,0,0,3,6.34A37.52,37.52,0,0,0,424.67,256.13Z"/><path class="cls-3" d="M470.33,237.79s.08,0,.25-.1a2.47,2.47,0,0,1,.77,0,3.51,3.51,0,0,1,2.4,1.42,4,4,0,0,1,.25,4.1,5.2,5.2,0,0,1-1.61,1.93,4.92,4.92,0,0,1-2.55.89,4.09,4.09,0,0,1-2.63-.68,3.32,3.32,0,0,1-1.36-2.14,4.45,4.45,0,0,1,1.26-3.94c1.85-1.58,3.49-1.64,3.45-1.48s-.09,0-.25,0a5.88,5.88,0,0,0-.7.24,7.11,7.11,0,0,0-2.24,1.46,4.13,4.13,0,0,0-1.05,3.58,2.87,2.87,0,0,0,1.18,1.82,3.69,3.69,0,0,0,2.31.58,4.48,4.48,0,0,0,2.28-.78,4.66,4.66,0,0,0,1.47-1.73,3.56,3.56,0,0,0-.11-3.67,3.39,3.39,0,0,0-2.13-1.44C470.7,237.74,470.33,237.84,470.33,237.79Z"/><path class="cls-3" d="M496.14,222.87a41,41,0,0,0-4.42,0,20.26,20.26,0,0,0-16.6,11.63,40.92,40.92,0,0,0-1.55,4.14,4.32,4.32,0,0,1,.18-1.18,16.93,16.93,0,0,1,1-3.11,19.68,19.68,0,0,1,16.9-11.84,18.07,18.07,0,0,1,3.28.08A4.26,4.26,0,0,1,496.14,222.87Z"/><path class="cls-3" d="M448.41,253.44a2.57,2.57,0,0,1,.38-.85,13.44,13.44,0,0,1,1.45-2.09,15.46,15.46,0,0,1,15.19-5.17,13.23,13.23,0,0,1,2.42.76,2.82,2.82,0,0,1,.82.44c0,.09-1.24-.47-3.32-.84a16,16,0,0,0-14.83,5.06C449.1,252.3,448.49,253.49,448.41,253.44Z"/><path class="cls-3" d="M480.26,257.52a5.89,5.89,0,0,1-1.7-1.22,18.79,18.79,0,0,1-5.4-8.41,6.4,6.4,0,0,1-.41-2,38.26,38.26,0,0,0,3,6.34A36.45,36.45,0,0,0,480.26,257.52Z"/></g><g id="Cushion"><path class="cls-4" d="M539.71,154.62c-44.3-43.77-99.46-54.21-99.46-54.21-32.8,19.55-54.93,52.38-71.78,91.79,28.26,26.15,64.6,51.21,95.7,53.52C513.35,233.28,539.71,154.62,539.71,154.62Z"/><g class="cls-5"><path d="M539.71,154.62c-44.3-43.77-99.46-54.21-99.46-54.21-32.8,19.55-54.93,52.38-71.78,91.79,28.26,26.15,64.6,51.21,95.7,53.52C513.35,233.28,539.71,154.62,539.71,154.62Z"/></g><path class="cls-4" d="M523.92,189.38l-.11-.3-.28-.91-1.06-3.51-3.89-13.23.2.1L497,178.58l.14-.14a.66.66,0,0,1-.06.12.23.23,0,0,1-.26.07c-.08,0-.16-.15-.14-.14a.73.73,0,0,1,0-.16l0-.23,0-.45,0-.88V175c0-1.2,0-2.42,0-3.65,0-2.47,0-5,0-7.62s-.11-5.29-.26-8a71.56,71.56,0,0,0-.86-8.28l.31.2L476,152.22,464,155l-.26.06-.05-.26c-1.78-9.33-3.48-18.2-5-26.38l.3.18a178.28,178.28,0,0,1-31.56,5.52h-.16l0-.16c-.83-6.79-1.49-12.2-1.94-15.92-.21-1.84-.38-3.26-.5-4.25,0-.46-.08-.83-.11-1.09a2.17,2.17,0,0,1,0-.38s0,.13.07.37.09.63.16,1.09c.13,1,.33,2.4.58,4.23.49,3.73,1.2,9.12,2.09,15.91l-.18-.14a182.42,182.42,0,0,0,31.46-5.65l.25-.06.05.25c1.57,8.17,3.28,17,5.08,26.37l-.32-.2,12.05-2.8,19.75-4.58.27-.06,0,.27a71.28,71.28,0,0,1,.86,8.34c.14,2.74.21,5.42.24,8s0,5.16,0,7.63c0,1.23,0,2.45,0,3.65,0,.6,0,1.19,0,1.78v.87l0,.43,0,.2v0s.05,0-.05,0-.1,0-.13.06,0-.05,0,0-.13-.07-.13-.07l-.11-.05.25-.08,21.77-6.94.15,0,0,.15,3.75,13.27c.43,1.53.75,2.71,1,3.54.1.39.18.69.24.91A1.14,1.14,0,0,1,523.92,189.38Z"/><path class="cls-6" d="M515.45,203.31a1.13,1.13,0,0,1-.1-.24c-.07-.17-.16-.41-.27-.7l-1-2.76-3.68-10.51.17.09-25.9,6.91-.24.07,0-.25c-.62-4.76-1.31-9.88-2.06-15.27s-1.58-11.06-2.62-16.9l.31.21-19,4.4-12.84,3-.26.06-.05-.26-5-26.39.29.19a178.15,178.15,0,0,1-31.56,5.51l-.16,0,0-.16c-.83-6.8-1.48-12.2-1.94-15.93-.21-1.83-.38-3.26-.49-4.24,0-.47-.09-.83-.12-1.1a2.06,2.06,0,0,1,0-.37,2.09,2.09,0,0,1,.07.37c0,.26.09.62.16,1.09.13,1,.33,2.4.58,4.23.49,3.72,1.2,9.12,2.09,15.91l-.18-.15a181.58,181.58,0,0,0,31.47-5.64l.24-.06.05.25c1.57,8.17,3.28,17,5.08,26.37l-.31-.2,12.83-3,19-4.4.26-.06,0,.26c1,5.86,1.83,11.53,2.59,16.92s1.42,10.52,2,15.29l-.27-.19,25.94-6.77.13,0,0,.13c1.52,4.53,2.72,8.09,3.55,10.55.4,1.2.7,2.13.92,2.78.09.3.17.54.22.72A2.31,2.31,0,0,1,515.45,203.31Z"/><path class="cls-4" d="M498.11,224.86s0-.28,0-.83.11-1.37.2-2.41c.19-2.14.46-5.25.81-9.22l.17.13-26.86,8.93-.23.07-.05-.24c-2.12-11-4.62-24-7.34-38.09l.31.21-16.43,3.81-15.37,3.57-.26.06-.05-.26c-1.78-9.35-3.47-18.21-5-26.39l.29.18a177.52,177.52,0,0,1-31.56,5.52l-.16,0,0-.16c-.83-6.81-1.48-12.21-1.94-15.94-.21-1.83-.38-3.25-.49-4.24l-.12-1.09a2.06,2.06,0,0,1,0-.37,2.09,2.09,0,0,1,.07.37c0,.26.09.62.16,1.08.13,1,.33,2.4.58,4.23.49,3.72,1.2,9.12,2.09,15.92l-.18-.14a181.88,181.88,0,0,0,31.47-5.65l.24-.06.05.25c1.57,8.17,3.28,17,5.08,26.37l-.31-.2,15.37-3.57,16.43-3.81.26-.06.05.26c2.68,14.09,5.16,27.1,7.25,38.1l-.27-.16,26.91-8.76.19-.06,0,.19c-.41,4-.72,7.08-.94,9.21-.11,1-.2,1.84-.26,2.41S498.11,224.86,498.11,224.86Z"/><path class="cls-6" d="M462.35,245.55l-.06-.18-.16-.57q-.19-.8-.57-2.22c-.48-2-1.18-4.82-2.07-8.42s-1.9-8-3.1-13-2.48-10.69-3.68-16.9l.28.18-31.79,7.41-.26.06-.06-.27c-.16-.87-.34-1.8-.52-2.75-1.58-8.25-3.1-16.19-4.52-23.63l.31.2a179.05,179.05,0,0,1-31.56,5.52h-.17l0-.17c-.81-6.7-1.47-12.1-1.92-15.86-.22-1.84-.38-3.28-.5-4.29-.05-.47-.09-.84-.11-1.11a3.58,3.58,0,0,1,0-.38,1.38,1.38,0,0,1,.08.37l.16,1.11c.14,1,.34,2.44.59,4.28.5,3.75,1.21,9.14,2.09,15.83l-.19-.15A183.12,183.12,0,0,0,416,184.94l.26-.07.05.26c1.43,7.43,2.95,15.38,4.54,23.62.18.95.36,1.89.53,2.76l-.32-.21L452.89,204l.23-.06.05.24c1.17,6.2,2.48,11.87,3.6,16.91s2.15,9.42,3,13.06,1.49,6.46,1.94,8.45c.22.95.39,1.7.51,2.23.05.24.08.43.12.58S462.36,245.55,462.35,245.55Z"/><path class="cls-4" d="M445.46,242a8.4,8.4,0,0,1-.37-1.39l-.86-3.85c-.7-3.28-1.66-7.86-2.71-13.05l.31.21-3,.69c-5.86,1.36-11.17,2.56-15,3.41l-4.56,1a10,10,0,0,1-1.69.29,10.68,10.68,0,0,1,1.64-.48l4.53-1.14c3.83-.94,9.12-2.2,15-3.55l3-.7.26-.06,0,.27c1,5.19,1.92,9.77,2.54,13.07.28,1.58.52,2.89.7,3.88A9.12,9.12,0,0,1,445.46,242Z"/><path class="cls-4" d="M408.58,223.76a9.65,9.65,0,0,1-.37-1.41c-.22-1-.5-2.32-.83-3.89-.68-3.29-1.58-7.84-2.54-12.87-.06-.3-.12-.61-.18-.89l.33.2c-4.75,1.28-9.08,2.2-12.21,2.77-1.56.28-2.83.49-3.71.61a8,8,0,0,1-1.37.14,6.82,6.82,0,0,1,1.34-.33l3.67-.77c3.11-.66,7.41-1.64,12.14-2.92l.27-.08.05.28c.06.28.12.59.18.9,1,5,1.81,9.58,2.39,12.89.27,1.58.49,2.9.67,3.92A7.58,7.58,0,0,1,408.58,223.76Z"/><path class="cls-4" d="M371.47,195a10.52,10.52,0,0,1-.66-3.14,10.1,10.1,0,0,1-.14-3.2,10,10,0,0,1,.66,3.13A9.83,9.83,0,0,1,371.47,195Z"/><path class="cls-6" d="M531.39,174.76a.81.81,0,0,1-.06-.24c0-.19-.08-.43-.15-.73-.12-.67-.29-1.63-.52-2.85-.45-2.53-1.09-6.18-1.91-10.81l.17.13-15.11,2.42-.2,0,0-.2c-1.52-9.08-3.34-20-5.35-32l.31.2-20.63,4.8-10.51,2.44-.25.06-.06-.25c-2.23-9.08-4.31-17.68-5.87-25.62l.27.19L440.8,117l-.16,0,0-.15c-.59-4.92-1.06-8.82-1.38-11.51-.15-1.31-.27-2.33-.35-3,0-.33-.06-.59-.08-.79a.74.74,0,0,1,0-.26,2.56,2.56,0,0,1,.05.26l.12.78c.1.71.24,1.73.43,3,.35,2.69.87,6.58,1.52,11.49l-.17-.13,30.66-4.88.22,0,.05.23c1.58,7.9,3.67,16.5,5.91,25.57l-.31-.19L487.79,135l20.63-4.78.26-.06.05.26c2,12,3.76,23,5.24,32l-.22-.17L528.88,160l.14,0,0,.15c.76,4.63,1.36,8.29,1.78,10.82.19,1.23.34,2.19.44,2.86,0,.31.08.55.11.74A1,1,0,0,1,531.39,174.76Z"/><path class="cls-3" d="M534.77,153.88l-.28.1-.83.26c-.72.24-1.81.48-3.17,1a65.22,65.22,0,0,0-11.12,4.94,77.75,77.75,0,0,0-14.58,10.61,100.13,100.13,0,0,0-14.48,16.68,149,149,0,0,0-11.1,19.15c-3,6.12-5.42,11.77-7.38,16.54s-3.48,8.65-4.54,11.34l-1.24,3.08c-.13.33-.24.59-.33.8s-.12.27-.13.26a1.2,1.2,0,0,1,.08-.28c.08-.21.17-.48.29-.82.27-.74.65-1.79,1.14-3.12,1-2.7,2.48-6.61,4.39-11.4s4.3-10.47,7.29-16.61a146.94,146.94,0,0,1,11.1-19.24,98.44,98.44,0,0,1,14.59-16.73,76.28,76.28,0,0,1,14.72-10.58A61.65,61.65,0,0,1,530.43,155c1.37-.48,2.48-.68,3.21-.89l.84-.21A1.2,1.2,0,0,1,534.77,153.88Z"/></g><g id="Notes"><path class="cls-7" d="M217.32,65.14l.14,2.7a2.34,2.34,0,1,1,.19,3.55l.15,2.71a2.28,2.28,0,0,1,1.47-.64,2.34,2.34,0,0,1,.25,4.67,2.28,2.28,0,0,1-1.53-.48l.14,2.71a2.34,2.34,0,1,1,.19,3.55l.15,2.71a2.28,2.28,0,0,1,1.47-.64,2.34,2.34,0,0,1,.25,4.67,2.28,2.28,0,0,1-1.53-.48l.14,2.71a2.34,2.34,0,1,1,.19,3.55l.15,2.7a2.34,2.34,0,1,1,.19,3.56l.09,1.68,72.09-1.73-3.65-42Z"/><path class="cls-8" d="M215.72,63.41l.15,2.7a2.28,2.28,0,0,1,1.47-.64,2.34,2.34,0,0,1,.25,4.67,2.28,2.28,0,0,1-1.53-.48l.14,2.71a2.34,2.34,0,1,1,.19,3.55l.15,2.71A2.28,2.28,0,0,1,218,78a2.34,2.34,0,0,1,.25,4.67,2.28,2.28,0,0,1-1.53-.48l.14,2.71a2.34,2.34,0,1,1,.19,3.55l.15,2.71a2.28,2.28,0,0,1,1.47-.64,2.34,2.34,0,0,1,.25,4.67,2.28,2.28,0,0,1-1.53-.48l.14,2.71a2.34,2.34,0,1,1,.19,3.55l.09,1.68,72.08-3.86-2.1-39.23Z"/><path class="cls-9" d="M288.22,67.32c0,.14-16.13,1.12-36,2.18s-36,1.82-36.05,1.67,16.12-1.12,36-2.19S288.21,67.17,288.22,67.32Z"/><path class="cls-9" d="M288.55,73.59c0,.15-16.12,1.13-36,2.19s-36.05,1.81-36.05,1.67,16.11-1.12,36-2.19S288.54,73.45,288.55,73.59Z"/><path class="cls-9" d="M288.89,79.87c0,.14-16.12,1.12-36,2.19s-36.05,1.81-36.06,1.66,16.12-1.12,36-2.18S288.88,79.72,288.89,79.87Z"/><path class="cls-9" d="M289.22,86.14c0,.15-16.12,1.13-36,2.19s-36,1.81-36,1.67,16.12-1.12,36-2.19S289.22,86,289.22,86.14Z"/><path class="cls-9" d="M289.56,92.42c0,.14-16.12,1.12-36,2.19s-36,1.81-36.06,1.67,16.12-1.13,36-2.19S289.55,92.28,289.56,92.42Z"/><rect class="cls-4" x="226.55" y="62.85" width="0.5" height="39.28" transform="translate(-4.08 12.24) rotate(-3.06)"/><path class="cls-9" d="M234.37,101.75c-.14,0-.73-8.77-1.31-19.6s-.93-19.62-.78-19.62.73,8.76,1.3,19.6S234.52,101.74,234.37,101.75Z"/><path class="cls-9" d="M221.54,102.44c-.14,0-.73-8.77-1.31-19.6s-.93-19.62-.79-19.63.73,8.77,1.31,19.6S221.69,102.43,221.54,102.44Z"/><path class="cls-9" d="M241.4,101.38c-.14,0-.73-8.77-1.31-19.6s-.93-19.62-.79-19.63.73,8.77,1.31,19.6S241.55,101.37,241.4,101.38Z"/><path class="cls-9" d="M248.43,101c-.14,0-.73-8.77-1.31-19.6s-.93-19.62-.79-19.63.73,8.77,1.31,19.6S248.57,101,248.43,101Z"/><path class="cls-9" d="M255.46,100.62c-.15,0-.73-8.76-1.31-19.59s-.94-19.63-.79-19.63.73,8.76,1.31,19.6S255.6,100.62,255.46,100.62Z"/><path class="cls-9" d="M262.48,100.25c-.14,0-.73-8.77-1.31-19.6S260.24,61,260.38,61s.73,8.77,1.31,19.6S262.63,100.24,262.48,100.25Z"/><path class="cls-9" d="M269.51,99.87c-.14,0-.73-8.77-1.31-19.6s-.93-19.62-.79-19.62.73,8.76,1.31,19.6S269.65,99.86,269.51,99.87Z"/><path class="cls-9" d="M276.54,99.5c-.15,0-.73-8.77-1.31-19.6s-.94-19.62-.79-19.63.73,8.77,1.31,19.6S276.68,99.49,276.54,99.5Z"/><path class="cls-9" d="M283.56,99.12c-.14,0-.73-8.77-1.3-19.6s-.94-19.62-.79-19.63.73,8.77,1.31,19.6S283.71,99.11,283.56,99.12Z"/><path class="cls-3" d="M282.69,75.37a3.18,3.18,0,0,1-.51.08l-1.47.12-5.42.37c-4.58.28-10.91.64-17.89,1s-13.32.62-17.91.76-7.43.16-7.42,0l25.3-1.28,17.9-.83,5.42-.2,1.48,0A1.76,1.76,0,0,1,282.69,75.37Z"/><path class="cls-3" d="M284.15,82.53c0,.15-11.62.8-26,1.45s-26,1.08-26,.94,11.62-.8,26-1.46S284.14,82.39,284.15,82.53Z"/><path class="cls-3" d="M284.92,88.81c0,.14-11.62.79-26,1.45s-26,1.08-26,.93,11.62-.79,26-1.45S284.91,88.67,284.92,88.81Z"/><path class="cls-9" d="M223.79,67.53a6.35,6.35,0,0,0,2.31,4,4.12,4.12,0,1,0,1.51-7.43"/><path class="cls-2" d="M223.62,67.51a3.28,3.28,0,1,0,3.1-3.45A3.28,3.28,0,0,0,223.62,67.51Z"/><path class="cls-2" d="M221.74,66.3a2,2,0,1,0,1.86-2.07A2,2,0,0,0,221.74,66.3Z"/><path class="cls-3" d="M223.57,68.12c0-.08.31-.05.71-.2a1.89,1.89,0,0,0,1.12-1.09,2,2,0,0,0-.15-1.57c-.2-.38-.43-.56-.39-.63s.36,0,.69.43a2.07,2.07,0,0,1,.34,2,2,2,0,0,1-1.52,1.27C223.84,68.35,223.55,68.18,223.57,68.12Z"/><path class="cls-3" d="M225.22,65c.07-.13.56,0,1.11-.11s.93-.47,1-.39-.15.71-.93.9S225.12,65.1,225.22,65Z"/><path class="cls-3" d="M225.72,70c-.14,0-.28-.61-.8-1.08s-1.13-.59-1.13-.74.79-.29,1.49.36S225.86,70,225.72,70Z"/><path class="cls-9" d="M279.2,65.21a6.25,6.25,0,0,0,2.3,4A4.12,4.12,0,1,0,283,61.82"/><path class="cls-4" d="M285.53,64.32a3.17,3.17,0,1,1-3.33-3A3.18,3.18,0,0,1,285.53,64.32Z"/><path class="cls-4" d="M287.21,63a1.9,1.9,0,1,1-2-1.79A1.89,1.89,0,0,1,287.21,63Z"/><path class="cls-3" d="M285.64,64.9c0,.06-.24.26-.75.24a1.9,1.9,0,0,1-1.6-1.07,2,2,0,0,1,.12-1.91c.28-.43.6-.53.63-.48s-.15.26-.3.65a2,2,0,0,0,0,1.52,1.76,1.76,0,0,0,1.18.92C285.34,64.88,285.62,64.82,285.64,64.9Z"/><path class="cls-3" d="M283.73,62.06c.11.1-.36.6-1.14.52s-1.11-.7-1-.77.51.19,1,.25S283.65,61.94,283.73,62.06Z"/><path class="cls-3" d="M283.76,66.9c-.14,0-.33-.75.27-1.46s1.42-.63,1.4-.49-.57.31-1,.83S283.91,66.9,283.76,66.9Z"/><polygon class="cls-9" points="162.82 158.57 221.74 166.09 220.95 144.52 162.82 158.57"/><rect class="cls-2" x="163.47" y="142.56" width="56.76" height="18.84" transform="translate(13.3 -15.43) rotate(4.77)"/><path class="cls-3" d="M213,150.58c0,.15-9.5-.53-21.18-1.5s-21.16-1.89-21.15-2,9.5.53,21.19,1.51S213,150.44,213,150.58Z"/><path class="cls-3" d="M212.85,155.48c0,.15-9.5-.53-21.19-1.5s-21.15-1.88-21.14-2,9.5.53,21.19,1.51S212.86,155.34,212.85,155.48Z"/><polygon class="cls-7" points="181.12 138.94 203.03 140.77 201.88 141.75 203.38 143.05 201.59 143.87 203.19 145.29 180.22 143.38 181.66 142.16 180.94 140.87 182.18 140.24 181.12 138.94"/><path class="cls-9" d="M129.41,105a2.58,2.58,0,0,1,.35,1.3,2.54,2.54,0,0,1-5.08,0A2.58,2.58,0,0,1,125,105h-3a2.58,2.58,0,0,1,.36,1.3,2.55,2.55,0,0,1-5.09,0,2.58,2.58,0,0,1,.35-1.3h-3a2.49,2.49,0,0,1,.36,1.3,2.55,2.55,0,0,1-5.09,0,2.49,2.49,0,0,1,.36-1.3h-3a2.49,2.49,0,0,1,.36,1.3,2.55,2.55,0,0,1-5.09,0,2.49,2.49,0,0,1,.36-1.3h-3a2.58,2.58,0,0,1,.35,1.3,2.55,2.55,0,0,1-5.09,0,2.49,2.49,0,0,1,.36-1.3h-3a2.58,2.58,0,0,1,.35,1.3,2.55,2.55,0,0,1-5.09,0,2.58,2.58,0,0,1,.36-1.3H86.54v52.63l46,2.52L130.38,105Z"/><g class="cls-10"><path class="cls-8" d="M128.74,103.52a2.61,2.61,0,0,1,.36,1.3,2.55,2.55,0,0,1-5.09,0,2.61,2.61,0,0,1,.35-1.3h-3a2.51,2.51,0,0,1,.36,1.3,2.55,2.55,0,0,1-5.09,0,2.61,2.61,0,0,1,.35-1.3h-3a2.51,2.51,0,0,1,.36,1.3,2.55,2.55,0,0,1-5.09,0,2.51,2.51,0,0,1,.36-1.3h-3a2.51,2.51,0,0,1,.36,1.3,2.55,2.55,0,0,1-5.09,0,2.51,2.51,0,0,1,.36-1.3H99.43a2.61,2.61,0,0,1,.35,1.3,2.55,2.55,0,0,1-5.09,0,2.51,2.51,0,0,1,.36-1.3h-3a2.61,2.61,0,0,1,.35,1.3,2.54,2.54,0,0,1-5.08,0,2.61,2.61,0,0,1,.35-1.3H85.87v52.63h43.84V103.52Z"/><path class="cls-9" d="M83.2,158.57c-.14,0-.39-12.75-.55-28.48s-.18-28.48,0-28.49.39,12.75.55,28.49S83.34,158.57,83.2,158.57Z"/><path class="cls-9" d="M90.24,158.5c-.15,0-.39-12.75-.56-28.48s-.17-28.49,0-28.49.39,12.75.56,28.49S90.38,158.5,90.24,158.5Z"/><path class="cls-9" d="M93.73,158.5c-.14,0-.39-12.75-.55-28.48s-.18-28.49,0-28.49.39,12.75.55,28.49S93.87,158.5,93.73,158.5Z"/><path class="cls-9" d="M100.84,158.5c-.14,0-.39-12.75-.55-28.48s-.17-28.49,0-28.49.39,12.75.55,28.49S101,158.5,100.84,158.5Z"/><path class="cls-9" d="M108,158.5c-.14,0-.39-12.75-.55-28.48s-.17-28.49,0-28.49.39,12.75.55,28.49S108.1,158.5,108,158.5Z"/><path class="cls-9" d="M115.07,158.5c-.15,0-.4-12.75-.56-28.48s-.17-28.49,0-28.49.39,12.75.55,28.49S115.21,158.5,115.07,158.5Z"/><path class="cls-9" d="M121.81,158.5c-.14,0-.39-12.75-.55-28.48s-.17-28.49,0-28.49.39,12.75.55,28.49S122,158.5,121.81,158.5Z"/><path class="cls-9" d="M128.56,158.5c-.14,0-.39-12.75-.55-28.48s-.18-28.49,0-28.49.39,12.75.55,28.49S128.71,158.5,128.56,158.5Z"/><path class="cls-9" d="M97.27,158.43c-.14,0-.39-12.75-.55-28.48s-.17-28.49,0-28.49.39,12.75.55,28.48S97.42,158.43,97.27,158.43Z"/><path class="cls-9" d="M104.31,158.36c-.14,0-.39-12.75-.55-28.48s-.18-28.49,0-28.49.39,12.75.55,28.48S104.45,158.36,104.31,158.36Z"/><path class="cls-9" d="M111.35,158.29c-.15,0-.39-12.76-.55-28.48s-.18-28.49,0-28.49.39,12.75.56,28.48S111.49,158.28,111.35,158.29Z"/><path class="cls-9" d="M118.38,158.21c-.14,0-.39-12.75-.55-28.48s-.17-28.48,0-28.49.39,12.75.55,28.49S118.53,158.21,118.38,158.21Z"/><path class="cls-9" d="M125.13,158.57c-.14,0-.39-12.75-.55-28.48s-.18-28.48,0-28.49.39,12.75.55,28.49S125.27,158.57,125.13,158.57Z"/><path class="cls-9" d="M132.46,158.07c-.15,0-.39-12.75-.55-28.48s-.18-28.49,0-28.49.4,12.75.56,28.48S132.6,158.07,132.46,158.07Z"/><path class="cls-9" d="M140,151.39c0,.15-12.75.39-28.48.55S83,152.11,83,152s12.75-.38,28.48-.54S140,151.25,140,151.39Z"/><path class="cls-9" d="M140.3,155c0,.15-12.75.39-28.48.55s-28.49.17-28.49,0,12.75-.39,28.49-.54S140.3,154.85,140.3,155Z"/><path class="cls-9" d="M139.94,144.36c0,.14-12.75.38-28.48.54s-28.49.17-28.49,0,12.75-.39,28.48-.55S139.94,144.21,139.94,144.36Z"/><path class="cls-9" d="M139.87,137.32c0,.14-12.75.39-28.48.55s-28.49.16-28.49,0,12.75-.39,28.48-.55S139.87,137.18,139.87,137.32Z"/><path class="cls-9" d="M139.8,130.28c0,.15-12.76.39-28.48.55s-28.49.17-28.49,0,12.75-.39,28.48-.54S139.79,130.14,139.8,130.28Z"/><path class="cls-9" d="M139.73,123.25c0,.14-12.76.38-28.48.54s-28.49.17-28.49,0,12.75-.39,28.48-.55S139.72,123.1,139.73,123.25Z"/><path class="cls-9" d="M139.66,116.21c0,.14-12.76.39-28.49.54s-28.48.17-28.48,0,12.75-.39,28.48-.55S139.65,116.07,139.66,116.21Z"/><path class="cls-9" d="M139.59,109.17c0,.15-12.76.39-28.49.55s-28.48.17-28.48,0,12.74-.39,28.48-.54S139.58,109,139.59,109.17Z"/><path class="cls-9" d="M139.59,106.35c0,.15-12.76.39-28.49.55s-28.48.17-28.48,0,12.74-.38,28.48-.54S139.58,106.21,139.59,106.35Z"/><path class="cls-9" d="M139.59,112.77c0,.14-12.76.39-28.49.54s-28.48.17-28.48,0,12.74-.39,28.48-.55S139.58,112.62,139.59,112.77Z"/><path class="cls-9" d="M139.59,119.75c0,.14-12.76.39-28.49.54s-28.48.17-28.48,0,12.74-.39,28.48-.55S139.58,119.61,139.59,119.75Z"/><path class="cls-9" d="M139.59,126.73c0,.14-12.76.39-28.49.54s-28.48.17-28.48,0,12.74-.39,28.48-.55S139.58,126.59,139.59,126.73Z"/><path class="cls-9" d="M139.59,133.71c0,.14-12.76.39-28.49.55s-28.48.16-28.48,0,12.74-.39,28.48-.55S139.58,133.57,139.59,133.71Z"/><path class="cls-9" d="M139.59,140.69c0,.14-12.76.39-28.49.55s-28.48.16-28.48,0,12.74-.39,28.48-.54S139.58,140.55,139.59,140.69Z"/><path class="cls-9" d="M139.59,147.67c0,.15-12.76.39-28.49.55s-28.48.16-28.48,0,12.74-.39,28.48-.54S139.58,147.53,139.59,147.67Z"/><path class="cls-1" d="M128.74,103.52a2.61,2.61,0,0,1,.36,1.3,2.55,2.55,0,0,1-5.09,0,2.61,2.61,0,0,1,.35-1.3h-3a2.51,2.51,0,0,1,.36,1.3,2.55,2.55,0,0,1-5.09,0,2.61,2.61,0,0,1,.35-1.3h-3a2.51,2.51,0,0,1,.36,1.3,2.55,2.55,0,0,1-5.09,0,2.51,2.51,0,0,1,.36-1.3h-3a2.51,2.51,0,0,1,.36,1.3,2.55,2.55,0,0,1-5.09,0,2.51,2.51,0,0,1,.36-1.3H99.43a2.61,2.61,0,0,1,.35,1.3,2.55,2.55,0,0,1-5.09,0,2.51,2.51,0,0,1,.36-1.3h-3a2.61,2.61,0,0,1,.35,1.3,2.54,2.54,0,0,1-5.08,0,2.61,2.61,0,0,1,.35-1.3H85.87v52.63h43.84V103.52Z"/></g><path class="cls-9" d="M104.78,111.15a6.3,6.3,0,0,0,2.31,4,4.12,4.12,0,1,0,1.51-7.43"/><path class="cls-4" d="M104.7,111.13a3.28,3.28,0,1,0,3.1-3.45A3.28,3.28,0,0,0,104.7,111.13Z"/><path class="cls-4" d="M102.82,109.92a2,2,0,1,0,1.86-2.07A2,2,0,0,0,102.82,109.92Z"/><path class="cls-3" d="M104.65,111.74c0-.08.31,0,.71-.2a1.89,1.89,0,0,0,1.12-1.09,2,2,0,0,0-.15-1.57c-.2-.38-.43-.56-.39-.63s.36,0,.7.43a2.1,2.1,0,0,1,.33,1.95,2,2,0,0,1-1.52,1.27C104.93,112,104.63,111.8,104.65,111.74Z"/><path class="cls-3" d="M106.3,108.61c.07-.13.56,0,1.11-.11s.93-.47,1-.38-.15.7-.93.89S106.21,108.72,106.3,108.61Z"/><path class="cls-3" d="M106.81,113.6c-.15,0-.29-.61-.8-1.09s-1.14-.59-1.13-.74.78-.29,1.49.36S107,113.62,106.81,113.6Z"/><path class="cls-3" d="M124.8,122.33c0,.14-7,.26-15.62.26s-15.63-.12-15.63-.26,7-.27,15.63-.27S124.8,122.18,124.8,122.33Z"/><path class="cls-3" d="M124.8,125.57c0,.15-7,.26-15.62.26s-15.63-.11-15.63-.26,7-.26,15.63-.26S124.8,125.43,124.8,125.57Z"/><path class="cls-3" d="M124.8,128.82c0,.15-7,.26-15.62.26s-15.63-.11-15.63-.26,7-.26,15.63-.26S124.8,128.68,124.8,128.82Z"/><path class="cls-3" d="M124.8,132.07c0,.14-7,.26-15.62.26s-15.63-.12-15.63-.26,7-.26,15.63-.26S124.8,131.93,124.8,132.07Z"/><path class="cls-3" d="M124.8,135.32c0,.14-7,.26-15.62.26s-15.63-.12-15.63-.26,7-.26,15.63-.26S124.8,135.17,124.8,135.32Z"/><path class="cls-3" d="M124.8,138.57c0,.14-7,.26-15.62.26s-15.63-.12-15.63-.26,7-.27,15.63-.27S124.8,138.42,124.8,138.57Z"/><path class="cls-3" d="M124.8,141.81c0,.15-7,.26-15.62.26s-15.63-.11-15.63-.26,7-.26,15.63-.26S124.8,141.67,124.8,141.81Z"/></g><g id="Lamp"><path class="cls-3" d="M47.63,291.34a1,1,0,0,1-1-.79L11,155a1.08,1.08,0,0,1,.76-1.3,1.06,1.06,0,0,1,1.3.76L48.66,290a1.06,1.06,0,0,1-.76,1.3Z"/><path class="cls-3" d="M38.24,294.7a1.06,1.06,0,0,1-1-.8L1.65,158.4a1.06,1.06,0,0,1,2.06-.54l35.56,135.5a1.06,1.06,0,0,1-.76,1.3A.84.84,0,0,1,38.24,294.7Z"/><polygon class="cls-3" points="5.92 152.51 4.21 151.24 95.5 28.39 178.78 44.34 178.38 46.43 96.41 30.73 5.92 152.51"/><rect class="cls-3" x="-17.61" y="92.47" width="150.91" height="2.13" transform="translate(-51.75 84.37) rotate(-53.48)"/><path class="cls-11" d="M93.23,34A6,6,0,1,0,97,26.37,6,6,0,0,0,93.23,34Z"/><polygon class="cls-4" points="174.84 37.47 173.35 28.79 179.77 28.31 180.24 36.69 174.84 37.47"/><polygon class="cls-12" points="174.84 37.47 173.35 28.79 179.77 28.31 180.24 36.69 174.84 37.47"/><polyline class="cls-11" points="169.58 36.87 163.65 69.08 148.64 111.63 233.18 99.43 199.06 62.29 184.82 34.68 169.58 36.87"/><path class="cls-11" d="M0,156.11a6.71,6.71,0,1,0,6.71-6.7A6.7,6.7,0,0,0,0,156.11Z"/><path class="cls-11" d="M20.86,318.45c0-.45-.06-.89-.06-1.34a26.83,26.83,0,1,1,53.66,0c0,.45,0,.89-.07,1.34Z"/></g><g id="Character"><path class="cls-13" d="M167.22,308.41c-.33.06-1.73,1.49.27,3.77s14.13,8.47,16.36,4.76-3.15-6.29-3.15-6.29Z"/><path class="cls-13" d="M180.53,304.4s12.5-1.38,17.6-.72c5.53.71,11.4-2.09,14.88-5.91a19.93,19.93,0,0,0,4.39-8.83l8-5.57s.86-18.91-11.75-15.85l-14.73.51s-29,4.81-33.47,8.42c0,0-5.46,5.3-7.06,7.36-.59.77-1.11,8.56,4.43,11.22,0,0-3.27,4.18-.39,6.53l1.35,1s-1.87,4.16-.11,5.35,15.67,5.42,19.62,2.67-.63-5.93-2.72-6.21"/><path class="cls-14" d="M165,294.3a11.44,11.44,0,0,1,1.64.17c1,.14,2.56.32,4.45.46.94.07,2,.12,3.08.15s2.3,0,3.57.08a7.5,7.5,0,0,1,3.82,1.21,4.27,4.27,0,0,1,1.87,3.86,3.33,3.33,0,0,1-1.12,2,5.8,5.8,0,0,1-1.89,1.05,17,17,0,0,1-3.91.72,34.32,34.32,0,0,1-6.68-.13c-1.89-.19-3.41-.45-4.45-.62a11.91,11.91,0,0,1-1.62-.34,10,10,0,0,1,1.65.14c1,.11,2.57.31,4.45.46a37.05,37.05,0,0,0,6.6,0,17.1,17.1,0,0,0,3.79-.72,5.39,5.39,0,0,0,1.72-1,2.77,2.77,0,0,0,.94-1.67,3.75,3.75,0,0,0-1.65-3.37,7,7,0,0,0-3.57-1.14c-1.22-.11-2.42-.08-3.53-.13s-2.16-.12-3.1-.21c-1.9-.19-3.41-.43-4.46-.63A8.56,8.56,0,0,1,165,294.3Z"/><path class="cls-14" d="M163.93,285.26a14,14,0,0,1,1.63.19c1.05.14,2.56.33,4.43.5s4.12.29,6.6.29a8.55,8.55,0,0,1,3.95.59,3.11,3.11,0,0,1,1.5,1.61,4.07,4.07,0,0,1,.21,2.24,5.36,5.36,0,0,1-2.53,3.46,8.65,8.65,0,0,1-3.79,1.24,38.78,38.78,0,0,1-6.66-.31l-4.44-.45a9.48,9.48,0,0,1-1.63-.24,9.9,9.9,0,0,1,1.65,0l4.45.29a41.46,41.46,0,0,0,6.57.2,8.22,8.22,0,0,0,3.58-1.19,4.87,4.87,0,0,0,2.28-3.13,2.93,2.93,0,0,0-1.43-3.3,8.38,8.38,0,0,0-3.71-.56c-2.5,0-4.75-.2-6.63-.41s-3.39-.46-4.43-.66A8.62,8.62,0,0,1,163.93,285.26Z"/><path class="cls-14" d="M170.38,286.37a17.08,17.08,0,0,1-1.13-2.31,15.67,15.67,0,0,1-1.2-2.28,4.45,4.45,0,0,1,1.66,2A4.25,4.25,0,0,1,170.38,286.37Z"/><path class="cls-13" d="M208.62,268.28,196.8,266.7s-33.4-6.81-33.73-5.93-2,1.19-.74,4.77,20.52,6.76,21.37,7.9,1.48,7.77,9.05,10.81,12.25,2,12.25,2"/><path class="cls-14" d="M205,286.27a.65.65,0,0,1-.25.07,5.79,5.79,0,0,1-.77.11,18,18,0,0,1-3,0,25.24,25.24,0,0,1-4.63-.82,25.51,25.51,0,0,1-5.81-2.26,13.35,13.35,0,0,1-5.2-5.44,29,29,0,0,1-1.61-3.88,3,3,0,0,0-.22-.44.81.81,0,0,0-.35-.22,10.2,10.2,0,0,0-1-.36q-1-.31-2.16-.6c-2.94-.76-6-1.5-9.23-2.44a48.51,48.51,0,0,1-4.8-1.63,16,16,0,0,1-2.35-1.16,5.65,5.65,0,0,1-1.07-.84,2.26,2.26,0,0,1-.42-.62,6.23,6.23,0,0,1-.22-.65,4.82,4.82,0,0,1-.16-2.72,3.17,3.17,0,0,1,.72-1.19,1.81,1.81,0,0,0,.33-.46s0,0,.08-.13a.3.3,0,0,1,.19-.11.73.73,0,0,1,.22,0h.35c1.74.11,3.39.41,5,.66,3.27.54,6.41,1.13,9.4,1.69,6,1.14,11.35,2.22,15.85,3.15,1.13.22,2.2.47,3.21.64l2.9.41,4.63.66,2.93.44.76.12.26.07h-.27l-.76-.08-3-.34-4.65-.58-2.9-.36c-1-.16-2.1-.4-3.23-.61l-15.87-3c-3-.55-6.13-1.12-9.39-1.65-1.63-.25-3.3-.55-5-.65h-.39s0,0,0,0,0-.09-.05-.12,0,0,0,0c.39.15.1,0,.19.09l0,.05a2.29,2.29,0,0,1-.42.59,2.73,2.73,0,0,0-.62,1,4.44,4.44,0,0,0,.17,2.43,2.22,2.22,0,0,0,.52,1.05,4.87,4.87,0,0,0,1,.76,16.55,16.55,0,0,0,2.27,1.13c1.57.63,3.17,1.15,4.75,1.61,3.16.94,6.26,1.69,9.21,2.47.73.19,1.46.39,2.17.61.36.12.71.23,1.06.38a1.25,1.25,0,0,1,.54.38,2.41,2.41,0,0,1,.27.53,29.58,29.58,0,0,0,1.57,3.86,13.09,13.09,0,0,0,5,5.33,26,26,0,0,0,5.7,2.29,26.6,26.6,0,0,0,4.57.9,20.21,20.21,0,0,0,2.94.1l.77-.06Z"/><path class="cls-14" d="M176.89,303.81a3.85,3.85,0,0,1,1.23.06,11.9,11.9,0,0,1,3.22,1,10.6,10.6,0,0,1,2,1.2,3.52,3.52,0,0,1,1.48,2.31,2.89,2.89,0,0,1-1.48,2.65,5.53,5.53,0,0,1-3.17.65,58.86,58.86,0,0,1-10.92-1.6,33.42,33.42,0,0,1-3.2-1,5,5,0,0,1-1.13-.49,7.24,7.24,0,0,1,1.19.3c.76.22,1.85.51,3.22.82a71.1,71.1,0,0,0,10.85,1.44,5.19,5.19,0,0,0,2.89-.56,2.41,2.41,0,0,0,1.27-2.17,3.15,3.15,0,0,0-1.27-2,10.56,10.56,0,0,0-1.91-1.2A18,18,0,0,0,176.89,303.81Z"/><path class="cls-15" d="M263.84,235.54s14.81-24.38,18.14-40.47,20.53-41.61,26.07-48.27,27.75-14.43,27.75-14.43L344,128l63.4-5.58s42.16,4.44,54.93,16.1,22.75,38.28,22.75,51.6,12.88,128.64,12.88,128.64l-156.21-.21,3.5-56.86s-18.86-12.76-23.86-23.85-2.22-5.55-2.22-5.55-17.71,37.65-23.81,42.09-77,26.21-77,26.21l-9.71-37.23Z"/><path class="cls-15" d="M448.27,143.12c-1.71.54-22.87,55.19-24.36,60.16s0,36.29,0,36.29l7,12.92s-2,9.45-.5,13.92l-31.32,6s-7.95-5.47-15.41,0L346.7,275.5s10.84.13,7.61,16.76c-3.16,16.3-5.57,19.89-5.57,19.89l129.85-3s14.43-.71,12.23-28.45-8.39-104.26-8.39-104.26S473,135.47,448.27,143.12Z"/><path class="cls-3" d="M423.62,235.2a4.61,4.61,0,0,1-.31-.67c-.2-.5-.46-1.16-.79-2s-.75-1.91-1.15-3.15-.93-2.65-1.35-4.24-1-3.31-1.39-5.21-.85-3.91-1.26-6.05a108.61,108.61,0,0,1-1.52-14.09,111.36,111.36,0,0,1,.42-14.16c.26-2.17.47-4.23.82-6.14.16-1,.29-1.88.47-2.76s.36-1.72.53-2.53c.32-1.62.73-3,1.06-4.32s.64-2.35.93-3.22.49-1.51.65-2A3.39,3.39,0,0,1,421,164a4.57,4.57,0,0,1-.17.72c-.14.52-.32,1.2-.56,2s-.56,2-.84,3.24-.69,2.71-1,4.32c-.15.81-.32,1.65-.49,2.53s-.29,1.81-.44,2.76c-.33,1.9-.52,4-.77,6.11a107.48,107.48,0,0,0,1.09,28.13c.39,2.13.75,4.16,1.21,6s.89,3.62,1.32,5.2.9,3,1.28,4.24.75,2.31,1.06,3.18l.7,2A5.44,5.44,0,0,1,423.62,235.2Z"/><path class="cls-3" d="M468.8,294.46s-.13-.12-.33-.38l-.87-1.14c-.37-.51-.83-1.12-1.39-1.81s-1.17-1.49-1.92-2.31-1.54-1.77-2.46-2.7-1.92-1.91-3-2.93a75.61,75.61,0,0,0-7.48-6,74.11,74.11,0,0,0-8.24-4.88c-1.33-.63-2.58-1.26-3.8-1.75s-2.34-1-3.38-1.35-2-.7-2.85-1-1.57-.5-2.17-.67l-1.38-.4a1.81,1.81,0,0,1-.48-.18,1.83,1.83,0,0,1,.5.07l1.41.32c.61.13,1.36.31,2.21.58s1.83.52,2.88.91,2.22.78,3.43,1.3,2.5,1.09,3.85,1.72a71.41,71.41,0,0,1,8.32,4.89,69,69,0,0,1,7.5,6.06c1.07,1,2.09,2,3,3s1.71,1.89,2.43,2.75,1.33,1.67,1.87,2.38,1,1.33,1.32,1.86l.79,1.2A2.06,2.06,0,0,1,468.8,294.46Z"/><path class="cls-3" d="M479.73,287.18c-.07.07-1.22-1.25-3.39-3a35.61,35.61,0,0,0-4-2.8,37,37,0,0,0-5.39-2.6,36.63,36.63,0,0,0-5.76-1.63,34.55,34.55,0,0,0-4.86-.56c-2.79-.12-4.52.1-4.53,0a5.11,5.11,0,0,1,1.21-.21,12.61,12.61,0,0,1,1.43-.12c.56,0,1.19-.07,1.9,0a30.53,30.53,0,0,1,4.94.46A32.21,32.21,0,0,1,472.58,281a30.61,30.61,0,0,1,4,2.93c.55.44,1,.91,1.39,1.29a11.24,11.24,0,0,1,1,1A5,5,0,0,1,479.73,287.18Z"/><path class="cls-3" d="M467.73,268.9c-.07.09-1.6-1.12-4.4-2.51a22.74,22.74,0,0,0-2.34-1c-.84-.36-1.78-.63-2.76-.94a31.6,31.6,0,0,0-13.26-.91c-1,.18-2,.32-2.87.56a24.52,24.52,0,0,0-2.46.69c-3,1-4.64,2-4.69,1.89a5.94,5.94,0,0,1,1.17-.72,11.88,11.88,0,0,1,1.43-.71,20.42,20.42,0,0,1,2-.81,24.21,24.21,0,0,1,2.47-.76,27.87,27.87,0,0,1,2.9-.61,30.68,30.68,0,0,1,13.47.92c1,.33,1.95.62,2.8,1s1.64.73,2.34,1.09,1.3.75,1.84,1.07a11.59,11.59,0,0,1,1.33.91A7.33,7.33,0,0,1,467.73,268.9Z"/><path class="cls-3" d="M391.78,309.89a47.73,47.73,0,0,0,.92-5.57,35.81,35.81,0,0,0-.05-6.1,48.33,48.33,0,0,0-1.3-7.37,50.51,50.51,0,0,0-2.49-7.06,38.21,38.21,0,0,0-3-5.34,47.81,47.81,0,0,0-3.53-4.4,7.68,7.68,0,0,1,1.15,1,11.61,11.61,0,0,1,1.22,1.31l.72.86c.25.31.48.66.74,1a35.12,35.12,0,0,1,3.1,5.35,46.35,46.35,0,0,1,2.56,7.13,45.76,45.76,0,0,1,1.28,7.46,33.82,33.82,0,0,1-.06,6.18c-.05.43-.09.85-.14,1.25l-.22,1.1a12.05,12.05,0,0,1-.42,1.74A9.53,9.53,0,0,1,391.78,309.89Z"/><path class="cls-3" d="M370,272.36a1.19,1.19,0,0,1-.06-.29c0-.22-.08-.5-.14-.86-.11-.79-.27-1.89-.47-3.29-.41-2.86-.94-7-1.56-12.13-1.23-10.26-2.7-24.45-3.85-40.17s-1.74-30-2-40.31c-.14-5.17-.21-9.34-.22-12.23,0-1.42,0-2.53,0-3.33v-.86a1,1,0,0,1,0-.3,1.16,1.16,0,0,1,0,.3c0,.22,0,.5,0,.86,0,.8.06,1.91.11,3.32.09,2.93.22,7.09.39,12.22.36,10.32,1,24.57,2.16,40.29s2.56,29.91,3.7,40.17c.58,5.1,1.06,9.24,1.39,12.15.16,1.4.28,2.51.37,3.3,0,.35.07.64.09.86A1,1,0,0,1,370,272.36Z"/><path class="cls-3" d="M319,233a10.8,10.8,0,0,1-.68-1.52c-.4-1-1-2.44-1.75-4.2-1.5-3.54-3.74-8.35-6.41-13.56s-5.11-9.85-6.92-13.34c-.87-1.71-1.57-3.11-2-4.08a11.2,11.2,0,0,1-.67-1.53,9,9,0,0,1,.86,1.44l2.16,4c1.83,3.39,4.38,8,7.06,13.27s4.87,10.08,6.29,13.65c.71,1.79,1.26,3.25,1.6,4.27A10.61,10.61,0,0,1,319,233Z"/><path class="cls-3" d="M311,214.49a3.36,3.36,0,0,1-.91-.18c-.57-.14-1.39-.38-2.4-.71a59.36,59.36,0,0,1-14.77-7.31c-.88-.61-1.56-1.11-2-1.48s-.7-.59-.68-.62a32.82,32.82,0,0,1,2.91,1.79,81.43,81.43,0,0,0,14.69,7.28A30.73,30.73,0,0,1,311,214.49Z"/><path class="cls-3" d="M297.61,248.64a6,6,0,0,1-1.07-.66c-.67-.45-1.65-1.08-2.88-1.83a59.14,59.14,0,0,0-20.91-7.83c-1.42-.24-2.57-.41-3.37-.5a5.79,5.79,0,0,1-1.24-.22,6.41,6.41,0,0,1,1.26,0c.81,0,2,.15,3.41.35a52.12,52.12,0,0,1,21.05,7.88c1.21.79,2.16,1.47,2.79,2A5.76,5.76,0,0,1,297.61,248.64Z"/><path class="cls-3" d="M405.73,122.47a5.6,5.6,0,0,1-.06.82c-.07.57-.15,1.35-.26,2.31-.27,2-.62,4.93-1.24,8.5a106.8,106.8,0,0,1-2.8,12.44,57.88,57.88,0,0,1-6.29,14.28,43.78,43.78,0,0,1-5.21,6.68l-.2.22-.19-.24A26.38,26.38,0,0,0,380,159.6a26.71,26.71,0,0,0-5-1.84,23.7,23.7,0,0,0-4.55-.61,19,19,0,0,0-6.49.91c-1.45.51-2.22.89-2.24.84a3.6,3.6,0,0,1,.55-.29,13.83,13.83,0,0,1,1.63-.71,18.17,18.17,0,0,1,6.55-1.08,23.5,23.5,0,0,1,4.64.56,25.55,25.55,0,0,1,5.1,1.83,26.55,26.55,0,0,1,9.7,8l-.38,0a44.67,44.67,0,0,0,5.13-6.61,58.35,58.35,0,0,0,6.27-14.14,114.36,114.36,0,0,0,2.9-12.36c.66-3.56,1.07-6.46,1.39-8.46.16-1,.28-1.73.37-2.31A3.76,3.76,0,0,1,405.73,122.47Z"/><polygon class="cls-15" points="406.58 123.1 396.95 110.33 386.48 110.66 352.46 128.63 406.58 123.1"/><path class="cls-3" d="M361.72,158.9a1.77,1.77,0,0,1-.55,0,10.63,10.63,0,0,1-1.57-.26,19.72,19.72,0,0,1-5.37-2.29,11.55,11.55,0,0,0-3.65-1.52,10.71,10.71,0,0,0-4.51,0,10.56,10.56,0,0,0-7.56,6.56l-.54,1.47,0-1.57c0-.38,0-.8,0-1.22.13-7.87.13-15,.45-20.18.15-2.58.36-4.67.57-6.1.09-.72.2-1.27.28-1.65a2.29,2.29,0,0,1,.15-.56s-.1.8-.23,2.23-.3,3.52-.4,6.09c-.23,5.16-.17,12.29-.3,20.18,0,.42,0,.84,0,1.23l-.5-.1a11,11,0,0,1,7.94-6.85,11.21,11.21,0,0,1,8.44,1.68,20.67,20.67,0,0,0,5.24,2.41C361,158.81,361.73,158.85,361.72,158.9Z"/><path class="cls-13" d="M397,48.49v76.67a18.59,18.59,0,0,1-4.37,12h0a56,56,0,0,1-15.4,12.75l-15.46,8.71-12.79-11.42a18.57,18.57,0,0,1-6.2-13.14c-.22-5.59-.22-11.21-.22-11.21s-21.67-1.56-23.71-22.93c-.95-10.07-1.26-30.68-1.31-49.67A41.58,41.58,0,0,1,355.64,8.69l.61,0A39.74,39.74,0,0,1,397,48.49Z"/><path class="cls-14" d="M342.45,122.51s13.61,0,27.24-10.24c0,0-5.32,16-26.83,15.79Z"/><path class="cls-3" d="M324.69,64.58a3.07,3.07,0,0,0,3.2,2.84,2.92,2.92,0,0,0,2.92-3,3.06,3.06,0,0,0-3.19-2.84A2.92,2.92,0,0,0,324.69,64.58Z"/><path class="cls-3" d="M323,58.84c.41.37,2.59-1.54,5.87-1.8s5.84,1.18,6.16.75c.16-.19-.28-.88-1.4-1.56a8.43,8.43,0,0,0-5-1.09A8.12,8.12,0,0,0,324,57.07C323,57.93,322.75,58.68,323,58.84Z"/><path class="cls-3" d="M356,63.26a3.07,3.07,0,0,0,3.2,2.84,3,3,0,0,0,2.93-3,3.07,3.07,0,0,0-3.2-2.84A3,3,0,0,0,356,63.26Z"/><path class="cls-3" d="M355.32,56.78c.41.37,2.59-1.54,5.87-1.8s5.84,1.18,6.16.75c.16-.19-.28-.88-1.4-1.56a8.45,8.45,0,0,0-5-1.09A8.06,8.06,0,0,0,356.35,55C355.4,55.87,355.12,56.62,355.32,56.78Z"/><path class="cls-3" d="M345.4,82.15c0-.19-2.07-.37-5.41-.52-.85,0-1.66-.12-1.85-.68a4.28,4.28,0,0,1,.36-2.54l1.95-6.59c2.69-9.39,4.57-17.08,4.19-17.19s-2.87,7.42-5.56,16.81c-.65,2.31-1.26,4.52-1.85,6.63a4.82,4.82,0,0,0-.16,3.33,2.11,2.11,0,0,0,1.48,1.11,5.65,5.65,0,0,0,1.44.08C343.34,82.49,345.41,82.34,345.4,82.15Z"/><path class="cls-3" d="M355.27,83.62c-.54,0-.25,3.59-3.09,6.37s-6.68,2.71-6.67,3.21c0,.23.91.62,2.52.54a9,9,0,0,0,5.58-2.48A7.79,7.79,0,0,0,356,85.94C356,84.43,355.51,83.58,355.27,83.62Z"/><path class="cls-3" d="M353.4,44c.4.86,3.65.17,7.54.31s7.11.94,7.55.1c.2-.4-.41-1.2-1.74-2a13.19,13.19,0,0,0-11.5-.32C353.88,42.79,353.23,43.55,353.4,44Z"/><path class="cls-3" d="M323.37,49.23c.64.7,2.84-.27,5.56-.53s5.07.09,5.54-.74c.2-.4-.22-1.11-1.29-1.74a8.08,8.08,0,0,0-8.94,1C323.34,48.09,323.09,48.88,323.37,49.23Z"/><path class="cls-3" d="M371.78,27l.12.09a16.91,16.91,0,0,1,7.16,10.36c0,.15.06.3.09.43,1.35,6,1.71,12.25,3.11,18.27s1.14,10.62,7.17,12a8,8,0,0,0,8.39-3.41,5.25,5.25,0,0,0,.54-2.86c-.08-14.83,2.9-20.59,1.6-36a13,13,0,0,0-6.27-10.13c-3.42-2-7.55-4.12-11-2.12s-7.53,9.09-10.08,12.16"/><path class="cls-13" d="M390.54,58.77c.35-.19,14.34-5.56,15.08,9.1s-14.13,12.39-14.18,12S390.54,58.77,390.54,58.77Z"/><path class="cls-14" d="M395.64,74.05c.06,0,.26.17.7.35a2.59,2.59,0,0,0,1.91-.06c1.53-.65,2.71-3.17,2.64-5.82a8.38,8.38,0,0,0-.9-3.62A3,3,0,0,0,398,63a1.31,1.31,0,0,0-1.47.78c-.18.42-.07.71-.15.74s-.32-.23-.24-.84a1.65,1.65,0,0,1,.53-1,1.93,1.93,0,0,1,1.4-.45,3.6,3.6,0,0,1,2.78,2.14,8.76,8.76,0,0,1,1.1,4c.05,3-1.32,5.81-3.41,6.53a2.77,2.77,0,0,1-2.36-.27C395.68,74.41,395.59,74.08,395.64,74.05Z"/><path class="cls-3" d="M383.37,15.79c3.12-6.15-7.44-13.74-14.85-15.41S351.9,3,344.91,6c-4.41,1.88-8.75,4.35-13.54,4.55-3.21.13-6.36-.78-9.47-1.6s-6.33-1.55-9.51-1.07-6.33,2.46-7.29,5.52,1.1,7,4.31,7.16c-4.23-1.89-9.84,1.52-10.12,6.15s4.88,8.68,9.31,7.32c-2.21-1.4-5.18,1.46-4.71,4s3,4.27,5.46,5.12c6.32,2.18,13.36.73,19.5-1.92s11.71-6.44,17.78-9.24,16.22-7.76,22.69-6.06c4.76,1.24,8.44,6.55,10.95,5.1a9,9,0,0,0,4.08-7,25.77,25.77,0,0,0-1-8.3"/><path class="cls-2" d="M307.61,20.28c.12-.08.85,1,2.56,2.6a20.27,20.27,0,0,0,8.56,4.56,18.59,18.59,0,0,0,13.9-1.72c4.79-2.64,8.68-7.45,13.23-12.06S355.91,5.4,361.65,4.4s11.18.65,14.39,3.69a12.84,12.84,0,0,1,4.1,9.18,10.09,10.09,0,0,1-.41,2.74c-.22.6-.36.89-.41.88a21.53,21.53,0,0,0,.25-3.6,12.59,12.59,0,0,0-4.22-8.44c-3-2.7-8.14-4.16-13.46-3.13s-10.57,4.43-15,9-8.48,9.45-13.61,12.2a19.41,19.41,0,0,1-14.82,1.54,19.42,19.42,0,0,1-8.68-5.15,13,13,0,0,1-1.72-2.15C307.73,20.6,307.57,20.31,307.61,20.28Z"/><path class="cls-2" d="M394.21,57.82c0,.06-.67-.35-1.32-1.46a9.89,9.89,0,0,1-1.16-5.24c-.07-4.74,3.68-10.15,3.67-16.7a14.81,14.81,0,0,0-2.34-8.6,11.26,11.26,0,0,0-5.83-4.24,9.5,9.5,0,0,0-4.93-.26c-1.16.28-1.77.61-1.84.5s.48-.56,1.67-1a9.16,9.16,0,0,1,5.38-.19,11.87,11.87,0,0,1,6.64,4.46,15.62,15.62,0,0,1,2.7,9.39,26.6,26.6,0,0,1-2.06,9.45,28.24,28.24,0,0,0-2,7.28C392.33,55.52,394.42,57.74,394.21,57.82Z"/><rect class="cls-3" x="391.86" y="63.17" width="7.53" height="17.43" rx="2.14" transform="translate(154.28 -249.73) rotate(42.82)"/><path class="cls-3" d="M485.16,193.37s0,.19.06.58.07,1,.13,1.72c.11,1.53.27,3.78.47,6.71.4,5.88,1,14.47,1.71,25.35s1.59,24.09,2.59,39.16q.38,5.66.76,11.65c.15,2,.23,4,.32,6.09.08,1,0,2.07,0,3.12s0,2.1-.18,3.15l-.39,3.18c-.23,1.05-.45,2.1-.68,3.17s-.66,2.08-1,3.13-.84,2.05-1.38,3c-2.09,3.9-5.37,7.54-9.91,9h-.06l-97.82,0-31,0h-.34l.09-.32L351.31,302c.47-1.66.93-3.32,1.39-5a34.66,34.66,0,0,0,1.16-4.94,21.43,21.43,0,0,0-.86-9.82,12,12,0,0,0-2.34-4.22,6.81,6.81,0,0,0-4-2.34l-2.05-.32,2.05-.17,36.94-3.11-.11,0a12.61,12.61,0,0,1,8-2.44,16,16,0,0,1,7.71,2.45l-.17,0,31.33-5.94-.14.24a13.44,13.44,0,0,1-.54-3.68,30.27,30.27,0,0,1,.1-3.58,57.14,57.14,0,0,1,.95-6.75v.11l-6.93-12.93,0,0v0c-.49-11.52-.67-20.61-.58-26.81,0-3.11.15-5.49.31-7.08a11.89,11.89,0,0,1,.27-1.8c.09-.4.14-.6.14-.6s0,.2-.1.6a15.16,15.16,0,0,0-.23,1.8c-.14,1.6-.23,4-.24,7.08,0,6.2.18,15.28.71,26.8v-.06c2.13,3.95,4.45,8.23,7,12.91l0,.06v.06a58.65,58.65,0,0,0-.92,6.71,29.68,29.68,0,0,0-.09,3.54,12.75,12.75,0,0,0,.53,3.57l.06.2-.2,0-31.32,6H399l-.08,0a15.46,15.46,0,0,0-7.48-2.37,12.14,12.14,0,0,0-7.67,2.37l0,0h-.07l-36.94,3.15v-.49a7.28,7.28,0,0,1,4.32,2.5,12.41,12.41,0,0,1,2.44,4.39,21.79,21.79,0,0,1,.89,10.06,34.24,34.24,0,0,1-1.17,5c-.46,1.64-.92,3.3-1.39,5q-1.4,5-2.81,10l-.25-.32h31l97.82.07h0a14.92,14.92,0,0,0,5.67-3.5,21.12,21.12,0,0,0,4-5.29c.53-1,.91-2,1.36-3s.68-2.06,1-3.09.45-2.09.68-3.13l.39-3.14a29.86,29.86,0,0,0,.18-3.13,29,29,0,0,0,0-3.09c-.09-2.05-.16-4.07-.3-6.07q-.39-6-.75-11.65c-1-15.08-1.79-28.27-2.48-39.17s-1.21-19.48-1.58-25.36c-.17-2.93-.3-5.18-.4-6.71,0-.76-.07-1.33-.09-1.73S485.16,193.37,485.16,193.37Z"/><path class="cls-3" d="M456.84,138.88s-.63.4-1.78,1.11a41.77,41.77,0,0,0-4.62,3.31,54.34,54.34,0,0,0-12,14.34,118.46,118.46,0,0,0-8,17L428.37,180l-.58,1.44a1.66,1.66,0,0,1-.23.49,2,2,0,0,1,.14-.53l.48-1.47c.44-1.28,1.09-3.13,1.93-5.39A106.39,106.39,0,0,1,438,157.38,52.46,52.46,0,0,1,450.2,143a36.46,36.46,0,0,1,4.76-3.2c.58-.34,1.07-.56,1.38-.72A2.25,2.25,0,0,1,456.84,138.88Z"/><g class="cls-16"><path d="M417.7,177.06A66.38,66.38,0,0,0,412.11,207c.38,10.17,1.6,20.36.6,30.48s-4.51,20.46-12.06,27.28a9.83,9.83,0,0,0-2.44,2.71,2.76,2.76,0,0,0,.47,3.35,4,4,0,0,0,3.14.32c7.24-1.26,14.55-2.15,21.79-3.41,1.55-.27,6.76-1.29,6.76-1.29a28.28,28.28,0,0,1-.44-6c.23-1.81.94-8,.94-8a10.77,10.77,0,0,0-1.39-2.57,59.15,59.15,0,0,1-6-15.39c-2.47-5.06-3.58-10.14-4.73-14.86-3.17-13.1-3.08-26-1.06-42.61"/></g><g class="cls-16"><path d="M338.43,162.14l1.78,4.5a1.84,1.84,0,0,0,.86,1.14c.89.34,1.6-.76,2-1.61a11.55,11.55,0,0,1,8.87-6.24c3-.35,6.16.54,9.15-.09a41.06,41.06,0,0,0-8.26-4.11,13.74,13.74,0,0,0-9.06-.08,8.35,8.35,0,0,0-5.48,6.83"/></g><g class="cls-16"><path d="M363.15,158.34a49.35,49.35,0,0,1,10.59.95,16.54,16.54,0,0,1,9.07,5.23c2.42,2.95,3.32,6.81,4.3,10.5.19.7.53,1.55,1.26,1.63a1.79,1.79,0,0,0,1.19-.48c6-4.39,9.94-11.13,12.1-18.22s2.66-14.59,2.78-22c-2.86,5.11-4.1,10.93-6,16.47s-4.67,11.13-9.57,14.33a4.77,4.77,0,0,0-1.12-3.51,10.52,10.52,0,0,0-2.91-2.39,27.76,27.76,0,0,0-22.26-2.72"/></g><path class="cls-13" d="M347.61,276.13H335.36s-27.63-10-33.31-9c-5.11.86-23.85,13.31-27.52,15.77a2.36,2.36,0,0,0-.89,1.13h0a4,4,0,0,0,2.24,5.11l.39.16-.17.56a6.6,6.6,0,0,0-.28,2.23,2.7,2.7,0,0,0,5,1.17l-.7,1.25a3.09,3.09,0,0,0-.39,1.68l.06,1.14a3.06,3.06,0,0,0,2.12,2.75h0a3,3,0,0,0,3.21-.84c2.38-2.62,7.51-7.85,11-8.43a82.76,82.76,0,0,1,11.34-.57,3.86,3.86,0,0,1,3.57,2.46h0c-2.06.14-16.42,7.63-21.5,10.31a5.43,5.43,0,0,0-2.95,4.09c-.19,1.59.61,3.26,3.76,2.52,6.75-1.57,18.9-7.16,18.9-7.16s6.26-1.79,10.32,1.07c5.71,4,8.33,5.51,13.23,3.88a41.22,41.22,0,0,0,8.52-3.95l9.66-1S360.1,279.63,347.61,276.13Z"/><path class="cls-14" d="M311.12,280.8a50.11,50.11,0,0,0-5.19-.72,26.81,26.81,0,0,0-22.33,9.53c-2.09,2.47-3,4.3-3.07,4.24a6.21,6.21,0,0,1,.61-1.27,24.09,24.09,0,0,1,2.18-3.21A26,26,0,0,1,306,279.71a22.76,22.76,0,0,1,3.81.65A5.82,5.82,0,0,1,311.12,280.8Z"/><path class="cls-14" d="M308.2,274.09a22.75,22.75,0,0,0-5.41-.94,23.56,23.56,0,0,0-12.56,3.55,50.64,50.64,0,0,0-10.13,8.57l-2.78,3a8.88,8.88,0,0,1-1.05,1,6.74,6.74,0,0,1,.9-1.18c.61-.74,1.51-1.8,2.66-3.07A46.26,46.26,0,0,1,290,276.26a22.93,22.93,0,0,1,12.85-3.48,15.51,15.51,0,0,1,4,.73,8.65,8.65,0,0,1,1,.4C308.09,274,308.2,274.07,308.2,274.09Z"/></g><g id="Device"><path class="cls-3" d="M174.84,319l-33.18-83.3a10.89,10.89,0,0,1,10.08-15H255.11a10.89,10.89,0,0,1,10.31,7.39l28.5,84,33.29.16c2.7,0,4.89,4,4.89,6.67h0l-36.64-.42Z"/></g><g id="Desk"><path class="cls-3" d="M539.71,318.78c0,.15-120.07.27-268.14.27s-268.18-.12-268.18-.27,120.05-.27,268.18-.27S539.71,318.63,539.71,318.78Z"/></g><g id="Plant"><path class="cls-17" d="M94.76,284.17c-9.78-5.67-15-18.86-15.4-29.65s4.1-22.06,13-28.25c9.32-6.52,22.6-6.4,32.18-.26s15.2,17.71,14.76,29.08-6.63,22.23-15.79,29"/><path class="cls-18" d="M110.37,285.21a12.57,12.57,0,0,1-.18-2.47c0-1.76-.12-4-.19-6.73-.15-5.68-.37-13.53-.75-22.2s-.85-16.5-1.2-22.18c-.17-2.7-.3-5-.41-6.72a12.12,12.12,0,0,1,0-2.48,13.23,13.23,0,0,1,.39,2.45c.19,1.58.43,3.87.69,6.7.52,5.67,1.09,13.51,1.47,22.19s.51,16.54.49,22.23c0,2.85-.05,5.15-.1,6.74A13.65,13.65,0,0,1,110.37,285.21Z"/><path class="cls-3" d="M82.25,252.07c0,.26-1.58.33-3.48.18s-3.43-.49-3.41-.74,1.58-.33,3.48-.18S82.27,251.82,82.25,252.07Z"/><path class="cls-3" d="M82.79,242.39c-.1.23-1.45-.14-3-.83s-2.73-1.44-2.63-1.67,1.45.14,3,.83S82.89,242.16,82.79,242.39Z"/><path class="cls-3" d="M87.77,235.2c-.13.21-1.64-.5-3.21-1.81s-2.56-2.65-2.38-2.82,1.43.86,3,2.12S87.91,235,87.77,235.2Z"/><path class="cls-3" d="M92.78,228.42c-.23.1-1-1-1.62-2.53s-1-2.8-.78-2.9,1,1,1.62,2.53S93,228.31,92.78,228.42Z"/><path class="cls-3" d="M100.65,223.6c-.23.11-1-1.1-1.53-2.77s-.56-3.1-.32-3.15.69,1.27,1.2,2.88S100.88,223.5,100.65,223.6Z"/><path class="cls-3" d="M113.77,218.18c.24.08.09,1.11-.33,2.3s-1,2.08-1.19,2-.09-1.11.33-2.3S113.53,218.09,113.77,218.18Z"/><path class="cls-3" d="M123.5,222.35c.17.19-.45,1.05-1.39,1.92s-1.85,1.43-2,1.24.45-1,1.39-1.91S123.33,222.17,123.5,222.35Z"/><path class="cls-3" d="M132.07,227.89c.14.21-.62,1-1.7,1.7s-2.07,1.16-2.22.95.62-1,1.7-1.71S131.93,227.68,132.07,227.89Z"/><path class="cls-3" d="M138.15,236.14c.1.23-1.1,1-2.68,1.64s-2.94,1-3,.8,1.1-1,2.68-1.64S138.05,235.9,138.15,236.14Z"/><path class="cls-3" d="M140.55,245.13c0,.26-1.19.61-2.73.8s-2.81.14-2.84-.11,1.19-.61,2.73-.8S140.52,244.88,140.55,245.13Z"/><path class="cls-3" d="M141.79,256.21c-.1.23-1.4-.11-2.9-.76s-2.64-1.38-2.54-1.61,1.4.11,2.91.77S141.9,256,141.79,256.21Z"/><path class="cls-3" d="M140.7,265.71c-.08.23-1.73-.16-3.45-1.29s-2.74-2.47-2.56-2.63,1.44.81,3.07,1.87S140.79,265.47,140.7,265.71Z"/><path class="cls-3" d="M135.75,274.37c-.15.19-1.46-.58-2.72-1.93s-1.93-2.72-1.72-2.85,1.19.93,2.39,2.22S135.91,274.16,135.75,274.37Z"/><path class="cls-3" d="M88.76,275.38c.12.23-1.26,1.17-3.07,2.12s-3.38,1.52-3.49,1.3,1.26-1.17,3.07-2.12S88.64,275.16,88.76,275.38Z"/><path class="cls-3" d="M84.47,267.56c.1.23-1,.95-2.46,1.62s-2.74,1-2.84.78,1-1,2.46-1.62S84.36,267.33,84.47,267.56Z"/><path class="cls-3" d="M81.31,260.63c0,.25-1.32.65-3,.89s-3.12.23-3.15,0,1.32-.65,3-.89S81.28,260.37,81.31,260.63Z"/><path class="cls-3" d="M91.66,256.8c.08.24-1.25.86-3,1.05s-3.19-.1-3.17-.35,1.4-.36,3.07-.56S91.59,256.56,91.66,256.8Z"/><path class="cls-3" d="M100.26,248.25c.07.24-1,.77-2.4.91s-2.56-.18-2.53-.42,1.12-.36,2.44-.5S100.19,248,100.26,248.25Z"/><path class="cls-3" d="M101.9,241.4c-.08.24-1.22.06-2.54-.4s-2.33-1-2.25-1.26,1.22-.06,2.55.4S102,241.16,101.9,241.4Z"/><path class="cls-3" d="M105.05,234.47c-.17.17-1-.34-1.51-1.31s-.62-1.91-.38-2,.67.65,1.17,1.51S105.24,234.29,105.05,234.47Z"/><path class="cls-3" d="M101.25,262.84c.06.25-.92.7-2.2,1a8.53,8.53,0,0,1-1.85.27l-.18-.53c.33-.06.54,0,.58.05s-.09.26-.36.47l-.18-.54a8.67,8.67,0,0,1,1.77-.61C100.11,262.65,101.19,262.59,101.25,262.84Z"/><path class="cls-3" d="M103,275c.09.23-1.17.95-2.82,1.59s-3,1-3.14.75,1.16-.95,2.81-1.6S102.93,274.75,103,275Z"/><path class="cls-3" d="M93.31,269.59c.09.24-.75.74-1.87,1.12s-2.09.5-2.17.26.76-.74,1.87-1.12S93.23,269.35,93.31,269.59Z"/><path class="cls-3" d="M94.06,244.86c-.06.24-1.52.1-3.21-.5S87.93,243,88,242.73s1.47.19,3.11.77S94.12,244.61,94.06,244.86Z"/><path class="cls-3" d="M117.56,242.17c.14.22-.69,1-1.84,1.77s-2.2,1.2-2.34,1,.68-1,1.84-1.76S117.42,242,117.56,242.17Z"/><path class="cls-3" d="M118.84,254.37c0,.25-.82.64-1.94.87s-2.06.22-2.11,0,.81-.63,1.93-.86S118.78,254.13,118.84,254.37Z"/><path class="cls-3" d="M120.32,268.09c-.11.23-1.35-.12-2.78-.78s-2.5-1.39-2.4-1.62,1.35.12,2.78.79S120.43,267.86,120.32,268.09Z"/><path class="cls-3" d="M117.18,281.45c-.2.16-1-.5-1.81-1.48s-1.29-1.9-1.1-2.06,1,.5,1.81,1.48S117.37,281.29,117.18,281.45Z"/><path class="cls-3" d="M116.54,233.19c.15.2-.38.87-1.3,1.33s-1.77.48-1.84.24.6-.64,1.43-1.06S116.38,233,116.54,233.19Z"/><path class="cls-3" d="M128.05,245.5c.08.23-1,.82-2.44,1s-2.64-.07-2.62-.32,1.14-.4,2.5-.59S128,245.25,128.05,245.5Z"/><path class="cls-3" d="M125.76,234.45c.11.22-1,1-2.45,1.46s-2.81.48-2.84.23,1.13-.65,2.56-1.11S125.64,234.22,125.76,234.45Z"/><path class="cls-3" d="M130.57,262.6c0,.25-1.82.41-4,0s-3.82-1.18-3.74-1.41,1.8.13,3.9.51S130.57,262.34,130.57,262.6Z"/><path class="cls-3" d="M126.29,278.65c-.16.2-1.49-.59-2.82-1.93s-2.11-2.67-1.91-2.82,1.27.89,2.56,2.18S126.45,278.45,126.29,278.65Z"/><path class="cls-18" d="M107.47,221.39c.13.2-3.65,1.74-8,6.35a39.21,39.21,0,0,0-10,22.12,49.71,49.71,0,0,0,.6,13.55,105.83,105.83,0,0,0,2.54,10.88c.88,3.06,1.69,5.51,2.23,7.21a17.87,17.87,0,0,1,.77,2.67,15.94,15.94,0,0,1-1.11-2.55c-.64-1.66-1.55-4.09-2.51-7.15a91.29,91.29,0,0,1-2.75-10.91,48.63,48.63,0,0,1-.68-13.81c1.14-9.85,5.86-18,10.45-22.46a28.73,28.73,0,0,1,6-4.68,16.64,16.64,0,0,1,1.84-1A2.5,2.5,0,0,1,107.47,221.39Z"/><path class="cls-18" d="M120,284.76c-.19-.1,2.06-3.58,4.12-9.84a55.75,55.75,0,0,0,2.47-25.31,47.79,47.79,0,0,0-3.91-13.49,31.87,31.87,0,0,0-6.65-9.27,24.29,24.29,0,0,0-6.52-4.12c-1.69-.71-2.71-.87-2.7-.95a2.37,2.37,0,0,1,.75.06,13.63,13.63,0,0,1,2.08.56,22.59,22.59,0,0,1,6.82,4,31.75,31.75,0,0,1,7,9.39,47,47,0,0,1,4,13.74,53.8,53.8,0,0,1-2.75,25.64c-.52,1.58-1.19,2.94-1.68,4.16s-1.08,2.21-1.53,3A16.39,16.39,0,0,1,120,284.76Z"/><polygon class="cls-3" points="84.47 282.59 134.98 282.59 135.29 292.7 84.47 292.7 84.47 282.59"/><polygon class="cls-3" points="88.76 287.65 91.66 318.51 128.59 318.51 131.56 287.99 88.76 287.65"/><path class="cls-2" d="M135.29,292.82c0,.26-11.37.46-25.4.46s-25.41-.2-25.41-.46,11.38-.45,25.41-.45S135.29,292.57,135.29,292.82Z"/><path class="cls-2" d="M130.16,302.23a7.62,7.62,0,0,1-1.08,1.92,28.2,28.2,0,0,1-3.92,4.63l-.23.22-.23-.24a72.66,72.66,0,0,0-9.9-8.66l.56,0L111,303.92l-5.19,4.52-.29.25-.28-.24-8.44-7.09.49-.05-4.36,5.32a11.81,11.81,0,0,1-1.71,1.87,12.08,12.08,0,0,1,1.41-2.11l4.12-5.51.21-.28.28.23,8.56,6.94h-.57l5.17-4.54,4.4-3.83.27-.24.29.21a64.69,64.69,0,0,1,9.85,8.95l-.46,0A52.81,52.81,0,0,0,130.16,302.23Z"/></g></g></svg>