<?xml version="1.0" encoding="iso-8859-1"?>
<!-- Generator: Adobe Illustrator 19.1.0, SVG Export Plug-In . SVG Version: 6.00 Build 0)  -->
<svg version="1.1" id="Capa_1" xmlns="http://www.w3.org/2000/svg" xmlns:xlink="http://www.w3.org/1999/xlink" x="0px" y="0px"
	 viewBox="0 0 483.64 483.64" style="enable-background:new 0 0 483.64 483.64;" xml:space="preserve">
<g>
	<g>
		<path d="M312.4,238.886l-29.9-5.1c-2.9-11.5-7.4-22.4-13.3-32.4l17.7-24.7c3.3-4.6,2.8-10.8-1.2-14.8l-10.5-10.6l-10.5-10.6
			c-2.2-2.2-5.2-3.4-8.1-3.4c-2.3,0-4.6,0.7-6.6,2.1l-24.9,17.4c-10.1-6.1-21.2-10.8-33.1-13.7l-4.9-29.7c-0.9-5.6-5.7-9.6-11.3-9.7
			l-15-0.1l-15-0.1l0,0c-5.5,0-10.4,4-11.4,9.6l-5.3,30.2c-11.5,2.9-22.4,7.6-32.3,13.4l-24.3-17.8c-2-1.4-4.4-2.2-6.7-2.2
			c-2.9,0-5.9,1.1-8.1,3.3l-10.6,10.5l-10.6,10.5c-3.9,3.9-4.5,10.1-1.3,14.8l17.7,25c-5.9,10-10.4,20.8-13.3,32.3l-29.7,4.9
			c-5.6,0.9-9.6,5.7-9.7,11.3l-0.1,15l-0.1,15c0,5.6,4,10.5,9.6,11.4l30.2,5.3c2.9,11.5,7.6,22.4,13.4,32.3l-17.6,24.5
			c-3.3,4.6-2.8,10.8,1.2,14.8l10.5,10.6l10.5,10.9c2.2,2.2,5.2,3.4,8.1,3.4c2.3,0,4.6-0.7,6.6-2.1l25-17.7
			c9.7,5.7,20.4,10.2,31.5,13.1l4.9,30c0.9,5.6,5.7,9.6,11.3,9.7l15,0.1l15,0.1l0,0c5.5,0,10.4-4,11.4-9.6l5.1-29.9
			c11.5-2.9,22.4-7.4,32.4-13.3l24.7,17.7c2,1.4,4.4,2.2,6.7,2.2c2.9,0,5.9-1.1,8.1-3.3l10.6-10.5l10.6-10.5
			c3.9-3.9,4.5-10.1,1.3-14.8l-17.5-24.9c6-10,10.5-20.8,13.5-32.3l30-4.9c5.6-0.9,9.6-5.7,9.7-11.3l0.1-15l0.1-15
			C321.9,244.586,317.9,239.886,312.4,238.886z M182.7,359.186c-7.3,1.7-14.6,2.5-21.8,2.5c-44.2,0-84.2-30.4-94.6-75.4
			c-12-52.3,20.6-104.4,72.9-116.4c7.3-1.7,14.6-2.5,21.8-2.5c44.2,0,84.2,30.4,94.6,75.4
			C267.6,295.086,234.9,347.186,182.7,359.186z"/>
		<path d="M364,229.486l8,1l0,0c2.9,0.3,5.8-1.5,6.6-4.4l4.6-15.5c6.3-0.8,12.3-2.5,18-5l12,10.9c1,0.9,2.2,1.4,3.4,1.6
			c1.6,0.2,3.2-0.2,4.5-1.2l6.3-4.9l6.3-4.9c2.3-1.8,3-5.1,1.6-7.7l-7.7-14.3c3.8-4.9,6.9-10.4,9.2-16.3l16.2-0.7
			c3-0.1,5.5-2.4,5.8-5.4l1-8l1-8c0.2-2.9-1.6-5.7-4.4-6.5l-15.5-4.6c-0.8-6.3-2.5-12.3-5-18l10.9-12c2-2.2,2.1-5.6,0.3-7.9
			l-4.9-6.3l-4.9-6.3c-1-1.3-2.5-2.1-4.1-2.3c-1.2-0.1-2.5,0.1-3.6,0.7l-14.3,7.7c-5-3.9-10.6-7-16.7-9.3l-0.8-16.1
			c-0.1-3-2.4-5.5-5.4-5.8l-8-1l-8-1l0,0c-2.9-0.3-5.8,1.5-6.6,4.4l-4.7,15.7c-6.3,0.8-12.3,2.6-18,5.1l-11.8-11
			c-1-0.9-2.2-1.4-3.4-1.6c-1.6-0.2-3.2,0.2-4.5,1.2l-6.3,4.9l-6.3,4.9c-2.3,1.8-3,5.1-1.6,7.7l7.8,14.4c-3.7,4.9-6.8,10.4-9.1,16.3
			l-16,0.7c-3,0.1-5.5,2.4-5.8,5.4l-1,8l-1,8c-0.4,2.9,1.5,5.8,4.4,6.7l15.7,4.7c0.8,6.3,2.6,12.3,5.1,18l-10.8,11.9
			c-2,2.2-2.1,5.6-0.3,7.9l4.9,6.3l4.9,6.3c1,1.3,2.5,2.1,4.1,2.3c1.2,0.1,2.5-0.1,3.6-0.7l14.4-7.8c4.8,3.6,10.2,6.7,15.9,8.9
			l0.7,16.2c0.1,3,2.4,5.5,5.4,5.8L364,229.486z M339.4,142.886c0.7-19.4,17-34.5,36.4-33.8s34.5,17,33.8,36.4
			c-0.7,19.4-17,34.5-36.4,33.8C353.8,178.586,338.7,162.286,339.4,142.886z"/>
		<path d="M483.6,293.386l-0.7-6l-0.7-6c-0.4-2.1-2.2-3.8-4.4-4l-12.1-0.6c-1.7-4.4-4-8.5-6.8-12.2l5.8-10.6c1.1-2,0.6-4.4-1.2-5.8
			l-4.7-3.7l-4.7-3.7c-1-0.8-2.2-1.1-3.4-1c-0.9,0.1-1.8,0.5-2.5,1.1l-9,8.1c-4.3-2-8.9-3.3-13.7-3.9l-3.3-11.5
			c-0.6-2.2-2.7-3.5-4.9-3.3l-6,0.7l-6,0.7l0,0c-2.2,0.3-3.9,2.1-4,4.3l-0.7,12.2c-4.4,1.7-8.5,4.1-12.1,6.8l-10.5-5.9
			c-0.9-0.5-1.8-0.6-2.8-0.5c-1.2,0.1-2.3,0.7-3,1.7l-3.7,4.7l-3.7,4.7c-1.4,1.7-1.3,4.2,0.2,5.9l8.2,9.1c-1.9,4.2-3.1,8.7-3.7,13.4
			l-11.5,3.3c-2.2,0.6-3.5,2.7-3.3,4.9l0.7,6l0.7,6c0.3,2.2,2.1,3.9,4.3,4.1l12.2,0.7c1.7,4.4,4.1,8.5,6.8,12.1l-5.8,10.5
			c-1.1,2-0.6,4.4,1.2,5.8l4.7,3.7l4.7,3.7c1,0.8,2.2,1.1,3.4,1c0.9-0.1,1.8-0.5,2.5-1.1l9.1-8.2c4.1,1.8,8.6,3.1,13.1,3.7l3.3,11.6
			c0.6,2.2,2.7,3.5,4.9,3.3l6-0.7l6-0.7l0,0c2.2-0.3,3.9-2.1,4-4.3l0.6-12.1c4.4-1.7,8.5-4,12.2-6.8l10.6,5.8
			c0.9,0.5,1.8,0.6,2.8,0.5c1.2-0.1,2.3-0.7,3-1.7l3.7-4.7l3.7-4.7c1.4-1.7,1.3-4.2-0.2-5.9l-8.1-9c1.9-4.2,3.2-8.7,3.8-13.4
			l11.6-3.3C482.5,297.686,483.9,295.586,483.6,293.386z M424.4,320.486c-14.2,2.9-28-6.3-30.9-20.5s6.3-28,20.5-30.9
			s28,6.3,30.9,20.5S438.6,317.586,424.4,320.486z"/>
		<path d="M216.7,294.486c-17.3-4.4-31.3-14.3-31.3-14.3l-11,34.7l-2.1,6.5v-0.1l-1.8,5.5l-5.8-16.4c14.6-20.4-3.9-19.6-3.9-19.6
			s-18.5-0.8-3.9,19.6l-5.8,16.5l-1.8-5.6l-13-41.2c0,0-14.1,9.9-31.3,14.3c-8.6,2.2-11.7,9.6-12.7,16.4
			c15.5,21.3,40.5,34.7,68.4,34.7c6.4,0,12.8-0.7,19.1-2.2c20.2-4.6,37.7-16.3,49.7-32.9C228.3,303.786,225.1,296.686,216.7,294.486
			z"/>
		<path d="M131.8,257.286c1.5,9.7,8.9,22,21.2,26.3c5,1.8,10.5,1.8,15.6,0c12.1-4.3,19.8-16.6,21.3-26.2c1.6-0.1,3.8-2.4,6.1-10.5
			c3.1-11.1-0.2-12.8-3-12.5c0.5-1.5,0.9-3.1,1.2-4.6c4.8-28.8-9.4-29.8-9.4-29.8s-2.3-4.5-8.5-7.9c-4.1-2.5-9.9-4.4-17.5-3.7
			c-2.5,0.1-4.8,0.6-7,1.3l0,0c-2.8,0.9-5.4,2.3-7.7,3.9c-2.8,1.8-5.5,4-7.9,6.5c-3.8,3.8-7.1,8.8-8.5,15c-1.2,4.6-0.9,9.5,0.1,14.6
			l0,0c0.3,1.5,0.7,3,1.2,4.6c-2.8-0.3-6.2,1.4-3,12.5C128,254.786,130.2,257.086,131.8,257.286z"/>
	</g>
</g>
<g>
</g>
<g>
</g>
<g>
</g>
<g>
</g>
<g>
</g>
<g>
</g>
<g>
</g>
<g>
</g>
<g>
</g>
<g>
</g>
<g>
</g>
<g>
</g>
<g>
</g>
<g>
</g>
<g>
</g>
</svg>
