<svg width="18" height="33" viewBox="0 0 18 33" fill="none" xmlns="http://www.w3.org/2000/svg">
<path d="M17.55 8.34374C17.551 6.82826 17.1173 5.34118 16.2956 4.04234C15.474 2.74349 14.2953 1.68199 12.8864 0.971932C11.4775 0.261871 9.89164 -0.0699032 8.2992 0.0122691C6.70677 0.0944413 5.168 0.587453 3.8483 1.43831C2.5286 2.28918 1.47786 3.46571 0.809019 4.84147C0.140178 6.21723 -0.121475 7.74019 0.0521835 9.24665C0.225842 10.7531 0.828246 12.1861 1.79465 13.3917C2.76105 14.5972 4.05491 15.5297 5.53715 16.0889V28.2591C5.53715 28.3006 5.54576 28.3417 5.56248 28.3801C5.57921 28.4184 5.60372 28.4533 5.63462 28.4827L9.24914 31.9174C9.31154 31.9767 9.39616 32.01 9.48439 32.01C9.57262 32.01 9.65724 31.9767 9.71964 31.9174L13.2057 28.6047C13.2664 28.547 13.3013 28.4692 13.303 28.3876C13.3048 28.306 13.2732 28.2269 13.215 28.1669L10.654 25.5268C10.6236 25.4955 10.6002 25.4586 10.5851 25.4184C10.5701 25.3783 10.5638 25.3356 10.5665 25.2931C10.5693 25.2505 10.5811 25.209 10.6012 25.1709C10.6213 25.1327 10.6493 25.0989 10.6835 25.0713L13.1903 23.0529C13.2554 23.0005 13.2968 22.9264 13.306 22.8458C13.3152 22.7652 13.2915 22.6844 13.2397 22.62L10.4872 19.1927C10.4429 19.1377 10.419 19.0703 10.419 19.001V16.531C12.4243 16.1678 14.2336 15.1515 15.5352 13.657C16.8368 12.1626 17.5493 10.2836 17.55 8.34374ZM8.775 8.34374C8.25433 8.34375 7.74535 8.19704 7.31243 7.92216C6.8795 7.64729 6.54208 7.25659 6.34282 6.79948C6.14356 6.34237 6.09142 5.83937 6.19298 5.3541C6.29455 4.86883 6.54527 4.42308 6.91343 4.07321C7.2816 3.72335 7.75067 3.48508 8.26133 3.38855C8.77199 3.29202 9.30131 3.34155 9.78235 3.53089C10.2634 3.72023 10.6745 4.04086 10.9638 4.45225C11.2531 4.86364 11.4075 5.34731 11.4075 5.84208C11.4075 6.1706 11.3394 6.4959 11.2071 6.79942C11.0748 7.10293 10.8809 7.37871 10.6365 7.61101C10.392 7.84331 10.1018 8.02758 9.78242 8.1533C9.46303 8.27902 9.12071 8.34373 8.775 8.34374Z" fill="black"/>
</svg>
