<svg xmlns="http://www.w3.org/2000/svg" viewBox="0 0 441.36 409.3"><defs><style>.cls-1{fill:#e0e0e0;}.cls-2{fill:#fafafa;}.cls-3{fill:#263238;}.cls-4{fill:#fff;}.cls-5{fill:#455a64;}.cls-6{fill:#3cafa9;}.cls-7{fill:#69ccc5;}.cls-8{opacity:0.3;}.cls-9{fill:#f5f5f5;}.cls-10{fill:#ebebeb;}.cls-11{fill:#ffbe9d;}.cls-12{fill:#eb996e;}.cls-13{opacity:0.6;}</style></defs><title>Asset 1</title><g id="Layer_2" data-name="Layer 2"><g id="Background_Complete" data-name="Background Complete"><path class="cls-1" d="M29.93,297.12a39.33,39.33,0,0,0-16.8-5.78c-2.74-.28-5.74-.2-7.94,1.46a1.64,1.64,0,0,0-.82,1.45,1.73,1.73,0,0,0,.78,1c6.83,5.22,17.17,5.88,24.78,1.88"/><path class="cls-1" d="M29.5,296.65a82.22,82.22,0,0,1-10.85-9.55,27.41,27.41,0,0,1-6.8-12.58c-.29-1.43-.38-3.07.54-4.21C21,277.07,27.83,285.8,29.5,296.65"/><path class="cls-1" d="M29.84,297.06a39.44,39.44,0,0,1,.2-14.25c1.09-4.65,3.62-9.1,7.59-11.75,1.5,3.49.85,7.52-.2,11.17a54.52,54.52,0,0,1-7.52,15.84"/><path class="cls-1" d="M38.32,312.25c-5.15.62-9.63,3.34-13.47,6.82a25.57,25.57,0,0,0-7.71,13.23c5.05-.32,9.33-3.88,12.44-7.87s5.26-8.37,8.67-12.1"/><path class="cls-1" d="M40.16,314.68A33.24,33.24,0,0,1,44,283.25c2.93,10.43,1.85,22.21-3.84,31.43"/><path class="cls-1" d="M51.36,328a24,24,0,0,0-23,13.22c-.28.57-.53,1.29-.15,1.8a1.7,1.7,0,0,0,1.52.45c4.53-.29,8.54-3,11.85-6.12s6.2-6.68,9.86-9.37"/><path class="cls-1" d="M51,327.29a42.8,42.8,0,0,1-.43-23.9c.84-3.08,2.26-6.32,5.1-7.76a.79.79,0,0,1,1.27.44,14.33,14.33,0,0,1,1.21,6.85,43.11,43.11,0,0,1-1.08,6.95c-.89,4.24-1.37,8.8-3.7,12.46a24.74,24.74,0,0,0-1.48,2.73c-.44.93-.44,1.26-.84,2"/><path class="cls-1" d="M80.66,331.71c-2.2-8.36.13-18.49,5.4-25.34.39-.5.9-1,1.54-1,1,.09,1.22,1.39,1.17,2.36a45.83,45.83,0,0,1-8.11,24"/><path class="cls-1" d="M83.33,333.54c10.16,2.64,21.8.07,30.25-6.16a24.49,24.49,0,0,0-16.38-2c-5.47,1.25-10.46,3.7-13.87,8.16"/><path class="cls-1" d="M85.59,328c5.68-9.27,16.58-15.32,27.45-15.87-1.26,4.42-4.89,7.85-9,9.93s-8.67,3-13.18,3.85c-1.75.34-4.16.71-5.29,2.09"/><path class="cls-1" d="M81.22,301c1.54-5.27,3.09-10.59,3.51-16.07s-.35-11.2-3.2-15.9c-5.31,10.27-5.85,22.28-.47,32.52"/><path class="cls-1" d="M99.11,291.93c6.21-11.28,18.88-20.3,31.7-21.56-4.94,12.31-18.43,21.83-31.7,21.56"/><path class="cls-1" d="M95.2,294.15c9.26,1.41,17.15,7.32,25.81,10.91a11.55,11.55,0,0,0,5.84,1.12,4.57,4.57,0,0,0,2.86-8.08,12.6,12.6,0,0,0-4.24-2.57c-9.43-3.93-19.54-4-29.47-1.65"/><path class="cls-1" d="M89.84,300.64c2.1.6,2.81,1.69,4.47,3.1a48.34,48.34,0,0,0,19.58,10.06c.74.19,1.72.26,2.09-.42s-.08-1.3-.5-1.83a27,27,0,0,0-11.82-8c-4.52-1.68-8.43-3.71-13.82-3.27"/><path class="cls-1" d="M83.79,261.4a37,37,0,0,0,28.4,9.67,2,2,0,0,0,1.29-.47c.72-.77-.14-2-1-2.62-8.35-6.51-18.47-9.21-28.72-6.58"/><path class="cls-1" d="M91,258.78a39.57,39.57,0,0,1,35.44-5.85c-4.46,4.4-10.66,6.77-16.89,7.42A53.77,53.77,0,0,1,91,258.78"/><path class="cls-1" d="M88.11,240.75c-.82-8.34-.29-14.91-.87-23.29,0-.67-.19-1.47-.81-1.71-.87-.34-1.6.73-1.89,1.62a26.69,26.69,0,0,0,3.56,23.19"/><path class="cls-1" d="M87.51,241.67c5.65-3.49,9.89-8.06,13.81-13.42,2.72-3.73,5-8.2,4.4-12.78-3.83-.07-7.47,2-10,4.95a27.66,27.66,0,0,0-5.07,10.21c-1.11,3.67-1.88,7.44-3.18,11"/><path class="cls-1" d="M101.07,237.9a111.16,111.16,0,0,0,34-20c-4.06-1.64-8.71-.66-12.76,1-9.27,3.74-16.85,10.06-21.39,19"/><path class="cls-1" d="M91.32,246.23c6.28.68,12.65,1.13,18.87.09s11.9-3.45,17.61-5.85a2.1,2.1,0,0,0,1.2-.91,1.4,1.4,0,0,0-.43-1.51,3.76,3.76,0,0,0-1.5-.7c-6.22-1.74-12.92-.93-19,1.14a88.54,88.54,0,0,0-16.71,7.74"/><path class="cls-1" d="M55.51,261.69c-4.28-8.64-4-18.72-.3-27.62,2.6,4,2.92,9,2.44,13.73s-1.91,9.58-2,14.32"/><path class="cls-1" d="M38.42,253.07A38.5,38.5,0,0,0,9.8,265.26c5.33.84,10.82-.54,15.67-2.9s9.16-5.7,13.43-9"/><path class="cls-1" d="M26.93,249.22c-5.23-.42-10.26-1.07-15.28.47s-9.6,5-11.65,9.88a27.66,27.66,0,0,0,14.33-2.71,82.28,82.28,0,0,0,12.6-7.64"/><path class="cls-1" d="M43.94,249.4c-4.7-3.08-9.53-6.22-15-7.49s-11.82-.34-15.64,3.79c4.43,2.6,9.81,2.91,15,2.9s11.44-.06,16.28,1.65"/><path class="cls-1" d="M44,249.65c-8-7.89-11.08-22.07-7.85-32.86A50,50,0,0,1,44,249.65"/><path class="cls-1" d="M66.07,227.29c1.52-3.53,2.58-7.23,3.94-10.81a31.26,31.26,0,0,1,5.62-10,14.81,14.81,0,0,1,10-5.16,40.1,40.1,0,0,1-19.32,26"/><path class="cls-1" d="M62.07,232c-2.51-3.46-5.4-8.14-8.81-10.72s-7.83-4.14-12-3.15A27.92,27.92,0,0,0,62.07,232"/><path class="cls-1" d="M62.87,227.57c-1.64-4.18-3.3-8.4-4-12.84s-.26-9.18,2-13.06c4.41,8.34,5.83,17.3,2.18,26"/><path class="cls-1" d="M66.11,201.67c2.5-8.26,10.07-14.35,18.25-17.15a6.78,6.78,0,0,1,3.2-.47,2.76,2.76,0,0,1,2.35,2c.3,1.41-.86,2.67-2,3.6a61.92,61.92,0,0,1-21.85,12.06"/><path class="cls-1" d="M66.2,194.91c.32-5.33.65-10.74,2.39-15.79s5.07-9.79,9.93-12c.83,5.39-1.54,10.74-4.41,15.38s-6.32,9-8,14.17"/><path class="cls-1" d="M66.07,198.58c-2.06-6-2.28-13.68-5.88-18.93-2.53-3.67-6.57-6.17-8.74-10.05A15.3,15.3,0,0,0,52,181a32.93,32.93,0,0,0,6.67,9.56c2.67,2.85,5,5,7.44,8"/><path class="cls-1" d="M66.11,376c-.16,0-.3-40.19-.31-89.77s.11-89.78.27-89.78.3,40.19.31,89.78S66.27,376,66.11,376Z"/><path class="cls-1" d="M101.24,255.62a8.58,8.58,0,0,1-1.51.57l-4.16,1.4c-3.51,1.2-8.32,2.93-13.55,5.07s-10.06,4-12.84,6.44a9.28,9.28,0,0,0-2.58,3.41c-.4.94-.47,1.52-.53,1.51a1.23,1.23,0,0,1,0-.42,7.46,7.46,0,0,1,.29-1.17,9.13,9.13,0,0,1,2.52-3.64,22.54,22.54,0,0,1,5.57-3.46c2.23-1,4.7-2.13,7.33-3.21C87,260,91.9,258.3,95.44,257.2c1.77-.55,3.22-1,4.22-1.23A10,10,0,0,1,101.24,255.62Z"/><path class="cls-1" d="M112.75,227.34s-.13.17-.42.45L111,229c-1.2,1.08-2.83,2.56-4.81,4.37l-16,14.27c-6.26,5.57-11.66,10.89-15.41,14.9-1.88,2-3.35,3.65-4.36,4.81l-1.17,1.33c-.27.3-.42.46-.43.44a2.15,2.15,0,0,1,.34-.51c.25-.32.6-.81,1.08-1.4,1-1.21,2.39-2.91,4.24-5a202.46,202.46,0,0,1,15.32-15c6.28-5.56,12-10.55,16.14-14.15l4.94-4.23,1.36-1.13A3,3,0,0,1,112.75,227.34Z"/><path class="cls-1" d="M83.44,253.31c-.16-.07,1.15-3.09,2.45-6.9s1.93-7,2.1-7a23.65,23.65,0,0,1-1.55,7.19,45,45,0,0,1-2,4.83A7.13,7.13,0,0,1,83.44,253.31Z"/><path class="cls-1" d="M66.15,277.64a6.74,6.74,0,0,1-1-1.12l-2.47-3.16c-2.08-2.69-4.95-6.39-8.16-10.44s-6.17-7.68-8.31-10.31l-2.53-3.13a6.89,6.89,0,0,1-.87-1.19,8,8,0,0,1,1,1.05c.64.7,1.55,1.72,2.66,3,2.22,2.57,5.23,6.16,8.45,10.22s6,7.8,8,10.55c1,1.37,1.79,2.49,2.33,3.28A7.68,7.68,0,0,1,66.15,277.64Z"/><path class="cls-1" d="M58.45,267.75a14,14,0,0,1-3.23-6,17.27,17.27,0,0,1-.73-6.09l.26,0c-.12.47-.2.72-.25.71s0-.27,0-.75l.26,0a27.65,27.65,0,0,0,1,5.93A43.47,43.47,0,0,0,58.45,267.75Z"/><path class="cls-1" d="M48.5,255.25a9.76,9.76,0,0,0-2.25-1.31,15.12,15.12,0,0,0-6.25-.5,38.34,38.34,0,0,0-6.3,1,19.92,19.92,0,0,1-2.59.62,8.84,8.84,0,0,1,2.48-1,28.84,28.84,0,0,1,6.36-1.2,13.63,13.63,0,0,1,6.46.7A3.91,3.91,0,0,1,48.5,255.25Z"/><path class="cls-1" d="M46.15,252.22c0,.09-1.32-.53-3.45-1.26a35.06,35.06,0,0,0-8.62-1.77,35.57,35.57,0,0,0-8.78.44c-2.22.4-3.57.82-3.6.72a3.38,3.38,0,0,1,.92-.39,21.35,21.35,0,0,1,2.6-.73,30.81,30.81,0,0,1,17.62,1.34,22.33,22.33,0,0,1,2.46,1.12C45.86,252,46.17,252.18,46.15,252.22Z"/><path class="cls-1" d="M66.07,239.4a72.61,72.61,0,0,1-2.51-8.75,72.32,72.32,0,0,1-2-8.88,71,71,0,0,1,2.52,8.74A71,71,0,0,1,66.07,239.4Z"/><path class="cls-1" d="M66.23,239.4a40.23,40.23,0,0,0-2.79-5.24,23.53,23.53,0,0,0-4.1-4.24,3.83,3.83,0,0,1,1.58.82,12.67,12.67,0,0,1,3,3.09A11.61,11.61,0,0,1,66.23,239.4Z"/><path class="cls-1" d="M66.11,354.6c-.06,0-.18-1-.63-2.67a37.82,37.82,0,0,0-2.69-7C60,339.3,55,332.1,48.54,324.89c-3.18-3.63-6.27-7.06-8.89-10.35a72.12,72.12,0,0,1-6.35-9.16,43.58,43.58,0,0,1-3.21-6.81c-.3-.83-.51-1.49-.63-1.94a3.18,3.18,0,0,1-.17-.7c.05,0,.35.92,1,2.56a49.48,49.48,0,0,0,3.35,6.68,76.63,76.63,0,0,0,6.42,9c2.63,3.25,5.72,6.66,8.91,10.3,6.44,7.23,11.48,14.51,14.18,20.28a34.55,34.55,0,0,1,2.54,7.09,20,20,0,0,1,.35,2A3.17,3.17,0,0,1,66.11,354.6Z"/><path class="cls-1" d="M97.86,318.75a17.09,17.09,0,0,1-1.67.94,34.51,34.51,0,0,0-4.31,2.85,48.84,48.84,0,0,0-5.67,5.17c-2,2.1-4,4.54-6.13,7.15-4.18,5.25-8.09,9.89-10.43,13.59-1.19,1.84-2.05,3.39-2.62,4.48a12.44,12.44,0,0,1-.92,1.67,1.74,1.74,0,0,1,.16-.47c.12-.3.29-.75.56-1.3a41.87,41.87,0,0,1,2.47-4.59c2.27-3.8,6.15-8.5,10.33-13.74,2.09-2.62,4.17-5.07,6.19-7.16a45.29,45.29,0,0,1,5.81-5.13,31.45,31.45,0,0,1,4.46-2.73c.55-.27,1-.44,1.3-.57A1.62,1.62,0,0,1,97.86,318.75Z"/><path class="cls-1" d="M98.48,330.38a23.36,23.36,0,0,1-3.52.51,46.51,46.51,0,0,0-8.34,1.65,25.07,25.07,0,0,0-7.47,3.91c-1.72,1.33-2.53,2.43-2.61,2.37a2.63,2.63,0,0,1,.52-.81,13.36,13.36,0,0,1,1.83-1.87A22.71,22.71,0,0,1,86.44,332a38.09,38.09,0,0,1,8.48-1.5A21,21,0,0,1,98.48,330.38Z"/><path class="cls-1" d="M77.57,337.54c-.19-.1,1.4-2.52,2.63-5.78s1.42-6.16,1.63-6.13a5.81,5.81,0,0,1-.06,1.89,20.46,20.46,0,0,1-1,4.44,21.71,21.71,0,0,1-2,4.08A5.75,5.75,0,0,1,77.57,337.54Z"/><path class="cls-1" d="M108.14,287.53a3.53,3.53,0,0,1-.57.29l-1.65.76c-.72.31-1.6.7-2.59,1.22s-2.15,1-3.36,1.77l-1.92,1.09c-.66.38-1.32.83-2,1.27-1.42.86-2.83,1.92-4.35,3A74.63,74.63,0,0,0,75,314.23c-1,1.55-2,3-2.84,4.45-.42.71-.85,1.38-1.21,2.06s-.7,1.33-1,2c-.69,1.23-1.18,2.4-1.65,3.41s-.85,1.9-1.14,2.64l-.69,1.67a3.08,3.08,0,0,1-.28.58,2.55,2.55,0,0,1,.17-.62c.15-.45.35-1,.59-1.72s.59-1.65,1-2.68.92-2.22,1.58-3.47l1-2c.35-.69.77-1.37,1.18-2.1.8-1.46,1.8-2.93,2.82-4.5a78.47,78.47,0,0,1,7.68-9.44,77.64,77.64,0,0,1,9.17-8c1.53-1.08,3-2.13,4.4-3,.71-.44,1.38-.88,2-1.26l2-1.06c1.23-.71,2.41-1.21,3.42-1.7s1.9-.86,2.64-1.14l1.7-.65A2.12,2.12,0,0,1,108.14,287.53Z"/><path class="cls-1" d="M83,304.36a4,4,0,0,1,1.38-2.06A8.8,8.8,0,0,1,90,300.16a15.31,15.31,0,0,1,5.86,1.15A8.71,8.71,0,0,1,98,302.38a12.42,12.42,0,0,1-2.35-.68,17.37,17.37,0,0,0-5.7-.95,9,9,0,0,0-5.32,1.86A16.86,16.86,0,0,0,83,304.36Z"/><path class="cls-1" d="M79.26,308.23c-.16-.09,1.26-2.16,1.58-5.14a20.56,20.56,0,0,0-.36-5.37,3.42,3.42,0,0,1,.66,1.5,10.81,10.81,0,0,1,.28,3.94,10.68,10.68,0,0,1-1.18,3.76C79.75,307.81,79.31,308.27,79.26,308.23Z"/><path class="cls-1" d="M38.35,360.36c.87,15.37,5.5,31,12.62,46.78h31c6.79-15.63,11.1-31.23,11.86-46.78Z"/><path class="cls-2" d="M88.78,385.22c0,.16-10.2.29-22.77.29s-22.77-.13-22.77-.29,10.19-.29,22.77-.29S88.78,385.06,88.78,385.22Z"/><path class="cls-2" d="M88.08,390.79c0,.16-9.55.29-21.34.29S45.4,391,45.4,390.79s9.55-.29,21.34-.29S88.08,390.63,88.08,390.79Z"/><path class="cls-2" d="M51.47,370.45a87.79,87.79,0,0,1,0,14.26,87.79,87.79,0,0,1,0-14.26Z"/><path class="cls-2" d="M68.06,370.45a94.18,94.18,0,0,1,0,14.77c-.17,0-.3-3.3-.3-7.38S67.89,370.45,68.06,370.45Z"/><path class="cls-2" d="M83.63,370.32a98,98,0,0,1,0,15.07,98,98,0,0,1,0-15.07Z"/><path class="cls-2" d="M92.81,370.45c0,.16-12,.29-26.7.29s-26.71-.13-26.71-.29,12-.29,26.71-.29S92.81,370.29,92.81,370.45Z"/></g><g id="Device"><rect class="cls-3" x="123.13" width="284.94" height="408.92" rx="11.55"/><rect class="cls-4" x="132.12" y="27.98" width="266.97" height="341.5"/><path class="cls-5" d="M276.54,388.37a10.94,10.94,0,1,1-10.93-10.93A10.93,10.93,0,0,1,276.54,388.37Z"/><rect class="cls-5" x="222.69" y="11.78" width="85.82" height="4.52" rx="1.22"/><rect class="cls-6" x="132.12" y="27.48" width="266.97" height="91.72"/><rect class="cls-4" x="232.34" y="130.87" width="156.9" height="219.03"/><path class="cls-1" d="M389.24,349.89c0-2,0-89.92-.09-219l.09.09H232.34l.1-.1c0,82.39,0,158.45,0,219l-.08-.08,156.9.08-156.9.08h-.09v-.08c0-60.57,0-136.63,0-219v-.1H389.34v.09C389.28,260,389.24,347.87,389.24,349.89Z"/><path class="cls-3" d="M374.26,170.82c0,.15-29.19.26-65.19.26s-65.21-.11-65.21-.26,29.19-.26,65.21-.26S374.26,170.68,374.26,170.82Z"/><path class="cls-3" d="M374.26,178.23c0,.14-29.19.26-65.19.26s-65.21-.12-65.21-.26,29.19-.26,65.21-.26S374.26,178.08,374.26,178.23Z"/><path class="cls-3" d="M374.26,185.63c0,.15-29.19.26-65.19.26s-65.21-.11-65.21-.26,29.19-.26,65.21-.26S374.26,185.49,374.26,185.63Z"/><path class="cls-3" d="M311.61,193a4,4,0,0,1-.71.05l-2,0-7.41.08-24.43.08-24.44-.08-7.41-.08-2,0a3.81,3.81,0,0,1-.7-.05,2.93,2.93,0,0,1,.7,0l2-.05,7.41-.09,24.44-.07,24.43.07,7.41.09,2,.05A3.08,3.08,0,0,1,311.61,193Z"/><rect class="cls-7" x="258.83" y="188.88" width="104.96" height="139.64" transform="translate(50.88 568.57) rotate(-89.68)"/><polygon class="cls-6" points="241.2 310.8 290.34 245.83 320.32 286.81 340.94 265.11 380.84 311.57 241.2 310.8"/><path class="cls-6" d="M333.42,238.07a11,11,0,1,1-10.93-11A11,11,0,0,1,333.42,238.07Z"/><g class="cls-8"><polygon points="240.97 310.8 290.1 245.83 320.09 286.81 340.7 265.11 380.61 311.57 240.97 310.8"/></g><g class="cls-8"><path d="M333.42,238.78a11,11,0,1,1-10.93-11.06A11,11,0,0,1,333.42,238.78Z"/></g><path class="cls-1" d="M388.23,327.11c0,.15-34.44.26-76.91.26s-76.92-.11-76.92-.26,34.43-.26,76.92-.26S388.23,327,388.23,327.11Z"/><path class="cls-3" d="M246.72,341.14a2.9,2.9,0,0,1,.2.4c.15.33.33.7.52,1.13a0,0,0,0,1,0,.06h0l-1.54-.65h.07a3.83,3.83,0,0,1-4.1.36,3.88,3.88,0,1,1,5.36-4.94,3.79,3.79,0,0,1,.05,2.76,2.85,2.85,0,0,1-.5.89,6,6,0,0,0,.42-.92,3.8,3.8,0,0,0-.11-2.68,3.76,3.76,0,0,0-3.11-2.24,3.7,3.7,0,0,0-3.7,5.16,3.67,3.67,0,0,0,1.67,1.8,3.74,3.74,0,0,0,3.94-.3h.07l1.52.68-.07.07-.48-1.17A2.17,2.17,0,0,1,246.72,341.14Z"/><path class="cls-3" d="M381.67,343.48s0-.25,0-.68,0-1.12,0-1.85c0-1.68,0-3.88-.05-6.46l.09.09h-7l.1-.1v.8c0,3,0,5.75,0,8.18l-.14-.07,3.52-2.48a.06.06,0,0,1,.08,0l3.47,2.56-.23-.16-.69-.47L378.12,341h.08l-3.5,2.52a.08.08,0,0,1-.12,0,.07.07,0,0,1,0-.06c0-2.43,0-5.22,0-8.18v-.8a.1.1,0,0,1,.1-.11h0l7,0a.09.09,0,0,1,.09.09h0c0,2.61,0,4.84-.05,6.54,0,.71,0,1.32,0,1.82S381.67,343.48,381.67,343.48Z"/><path class="cls-1" d="M218.83,157.62c0,.14-15.31.26-34.19.26s-34.2-.12-34.2-.26,15.31-.26,34.2-.26S218.83,157.47,218.83,157.62Z"/><path class="cls-1" d="M218.83,167c0,.14-15.31.26-34.19.26s-34.2-.12-34.2-.26,15.31-.26,34.2-.26S218.83,166.89,218.83,167Z"/><path class="cls-1" d="M218.83,176.44c0,.15-15.31.26-34.19.26s-34.2-.11-34.2-.26,15.31-.26,34.2-.26S218.83,176.3,218.83,176.44Z"/><path class="cls-1" d="M218.83,185.85c0,.15-15.31.26-34.19.26s-34.2-.11-34.2-.26,15.31-.26,34.2-.26S218.83,185.71,218.83,185.85Z"/><path class="cls-1" d="M186.18,195.27a8,8,0,0,1-1.41.1l-3.83.08c-3.23.05-7.7.08-12.63.08s-9.41,0-12.64-.08l-3.83-.08a7.9,7.9,0,0,1-1.4-.1,6.85,6.85,0,0,1,1.4-.1l3.83-.09c3.23,0,7.7-.07,12.64-.07s9.4,0,12.63.07l3.83.09A6.91,6.91,0,0,1,186.18,195.27Z"/><path class="cls-1" d="M218.83,331.82c0,.15-15.31.26-34.19.26s-34.2-.11-34.2-.26,15.31-.26,34.2-.26S218.83,331.68,218.83,331.82Z"/><path class="cls-1" d="M218.83,341.24c0,.14-15.31.26-34.19.26s-34.2-.12-34.2-.26,15.31-.26,34.2-.26S218.83,341.09,218.83,341.24Z"/><path class="cls-2" d="M333.37,104.64a2.09,2.09,0,0,1,.38-.09l1.11-.24c.5-.09,1.1-.22,1.81-.41s1.52-.38,2.43-.67a49.26,49.26,0,0,0,14.35-7,48,48,0,0,0,15.33-17.88A50.28,50.28,0,0,0,373.66,50l.29.22-.21,0a44.91,44.91,0,0,0-33.58,22.51,56.06,56.06,0,0,0-4.52,10.14A50.17,50.17,0,0,0,333,98.75a24.29,24.29,0,0,0,.08,2.52,16.17,16.17,0,0,0,.16,1.85c0,.48.09.85.13,1.13a2.29,2.29,0,0,1,0,.39,2.59,2.59,0,0,1-.08-.38c0-.28-.1-.65-.18-1.13a16.86,16.86,0,0,1-.21-1.85c-.07-.73-.13-1.58-.13-2.53a49.57,49.57,0,0,1,2.52-15.94,55.52,55.52,0,0,1,4.5-10.23,44.72,44.72,0,0,1,7.78-10.2,45.51,45.51,0,0,1,26.11-12.61l.21,0,.26,0,0,.26a50.63,50.63,0,0,1-5,28.58A48.18,48.18,0,0,1,362,89.12a49.14,49.14,0,0,1-8.36,7.38,48.4,48.4,0,0,1-14.51,6.93A36.26,36.26,0,0,1,333.37,104.64Z"/><path class="cls-2" d="M362.46,65.93s-.07.15-.26.42l-.85,1.13-3.18,4.09C355.47,75,351.7,79.75,347.52,85s-7.91,10-10.43,13.54c-1.26,1.79-2.25,3.25-2.92,4.27a14,14,0,0,1-1.09,1.57,2.15,2.15,0,0,1,.22-.45c.15-.28.38-.7.7-1.22.62-1.06,1.56-2.56,2.79-4.38,2.45-3.64,6.13-8.46,10.32-13.66s8-9.91,10.77-13.29l3.31-4,.93-1.07A2,2,0,0,1,362.46,65.93Z"/><path class="cls-2" d="M319.89,91a.67.67,0,0,1,0-.23c0-.19.06-.41.11-.68.11-.6.24-1.48.35-2.62a31,31,0,0,0-.62-9.63,29.14,29.14,0,0,0-6.31-12.7,29.6,29.6,0,0,0-14.57-9.3l.32-.18,0,.12A28,28,0,0,0,300.08,73a31.62,31.62,0,0,0,16.44,16.79,14.19,14.19,0,0,0,1.43.54,10.75,10.75,0,0,0,1.06.35l.66.2c.15,0,.23.07.22.08a16.68,16.68,0,0,1-3.44-1,29,29,0,0,1-8.32-5.12,30.14,30.14,0,0,1-8.5-11.68,28.28,28.28,0,0,1-1-17.58l0-.12.06-.25.26.07a29.9,29.9,0,0,1,14.79,9.48,29.22,29.22,0,0,1,6.31,13,29.53,29.53,0,0,1,.46,9.72,24.27,24.27,0,0,1-.45,2.62c-.06.27-.12.49-.16.67A.61.61,0,0,1,319.89,91Z"/><path class="cls-2" d="M305.14,65.71a5,5,0,0,1,.64,1c.42.74.94,1.65,1.56,2.72,1.3,2.31,3.07,5.51,5,9.06s3.69,6.75,5.08,9c.69,1.13,1.26,2,1.66,2.65a5.5,5.5,0,0,1,.59,1,4.64,4.64,0,0,1-.75-.87c-.45-.59-1.08-1.46-1.81-2.57-1.48-2.21-3.31-5.39-5.23-9s-3.63-6.78-4.85-9.13c-.56-1.11-1-2-1.42-2.8A4.81,4.81,0,0,1,305.14,65.71Z"/><path class="cls-2" d="M330.33,67s.52-.48,1.39-1.42a17,17,0,0,0,3-4.47,16.35,16.35,0,0,0,1.5-7.74,16.87,16.87,0,0,0-3.21-9l.36.06,0,0a15.41,15.41,0,0,0-5.46,7.88,17,17,0,0,0-.3,7.9,17.38,17.38,0,0,0,1.76,5.09c.62,1.12,1.08,1.67,1,1.7a2.1,2.1,0,0,1-.36-.38,8.87,8.87,0,0,1-.85-1.22,16.06,16.06,0,0,1-1.95-5.11,17.06,17.06,0,0,1,.2-8.12A15.79,15.79,0,0,1,333,44l.06,0,.21-.16.15.21a17.06,17.06,0,0,1,3.28,9.33,16.52,16.52,0,0,1-4.8,12.37,12,12,0,0,1-1.11,1C330.49,66.92,330.34,67,330.33,67Z"/><path class="cls-2" d="M332.46,50.77a10.8,10.8,0,0,1-.21,2.4c-.19,1.46-.49,3.49-.86,5.72s-.69,4.24-.86,5.7a15.37,15.37,0,0,1-.34,2.37,9,9,0,0,1,0-2.4c.09-1.49.35-3.53.72-5.76s.73-4.24,1-5.69A11.39,11.39,0,0,1,332.46,50.77Z"/><path class="cls-2" d="M355.75,105.64s.57.41,1.65,1.08a17.13,17.13,0,0,0,4.92,2,15.82,15.82,0,0,0,7.82-.08,16.44,16.44,0,0,0,8.09-5l0,.36-.05,0a15.14,15.14,0,0,0-8.71-3.81,16.54,16.54,0,0,0-7.74,1.3,17,17,0,0,0-4.57,2.78c-1,.84-1.39,1.4-1.43,1.37s.08-.16.29-.43a10.31,10.31,0,0,1,1-1.09,16.19,16.19,0,0,1,4.56-3,16.5,16.5,0,0,1,7.93-1.43,15.39,15.39,0,0,1,9,3.9l.05,0,.2.17-.18.2a16.7,16.7,0,0,1-8.36,5.13,16.18,16.18,0,0,1-13-2.27,12.11,12.11,0,0,1-1.17-.89A2.17,2.17,0,0,1,355.75,105.64Z"/><path class="cls-2" d="M371.9,104.47a11.27,11.27,0,0,1-2.36.28c-1.46.1-3.48.21-5.72.3s-4.24.17-5.69.29a13.74,13.74,0,0,1-2.37.15,8.94,8.94,0,0,1,2.33-.51,53.94,53.94,0,0,1,5.71-.45c2.23-.09,4.26-.14,5.72-.15A11.09,11.09,0,0,1,371.9,104.47Z"/><path class="cls-2" d="M332.07,27.83a13,13,0,0,0-2.38-.28,12.6,12.6,0,0,0-6.51,2,23.35,23.35,0,0,0-4,3c-1.33,1.25-2.66,2.73-4.1,4.3a41,41,0,0,1-4.95,4.75,17.29,17.29,0,0,1-6.95,3.28,23.71,23.71,0,0,1-8.46.13,52.92,52.92,0,0,1-8.89-2.25c-3-1-6.05-2.2-9.27-3.14a38.07,38.07,0,0,0-10.14-1.77,17.45,17.45,0,0,0-10.2,2.87c-3.09,2-5.38,5.14-7.48,8.34s-4,6.71-6.34,10c-.56.83-1.24,1.58-1.88,2.37-.33.39-.71.73-1.06,1.1a9.29,9.29,0,0,1-1.13,1l-1.2,1c-.43.29-.89.54-1.33.81l-.67.4-.72.3-1.45.58c-4,1.27-8.33.55-12.06-.89a54.53,54.53,0,0,1-10.31-5.81,55.34,55.34,0,0,0-9.85-5.59,39.59,39.59,0,0,0-10.47-2.69,47.51,47.51,0,0,0-19.85,2,53.85,53.85,0,0,0-8.41,3.47,62.45,62.45,0,0,0-7.15,4.41,70.07,70.07,0,0,0-10.78,9.63,85,85,0,0,0-6.88,8.5c-1.76,2.44-3,4.41-3.84,5.75l-1,1.54c-.21.34-.33.51-.33.51s.09-.19.29-.54l.9-1.56c.81-1.36,2-3.36,3.76-5.82a85.88,85.88,0,0,1,6.83-8.58,69.37,69.37,0,0,1,10.78-9.72,64.06,64.06,0,0,1,7.18-4.48,53.71,53.71,0,0,1,8.47-3.52,47.83,47.83,0,0,1,20-2.06A40.51,40.51,0,0,1,201,53.82a55.72,55.72,0,0,1,9.94,5.62,53.82,53.82,0,0,0,10.22,5.75c3.66,1.42,7.84,2.11,11.72.89A18.84,18.84,0,0,0,242,58.7c2.34-3.21,4.2-6.69,6.32-9.94s4.45-6.39,7.64-8.47a17.83,17.83,0,0,1,10.48-2.94,38.3,38.3,0,0,1,10.26,1.81c3.24,1,6.29,2.17,9.28,3.17a51.67,51.67,0,0,0,8.81,2.26,23.47,23.47,0,0,0,8.33-.09A17,17,0,0,0,310,41.32a41.27,41.27,0,0,0,4.94-4.69c1.45-1.56,2.79-3,4.14-4.28a23.7,23.7,0,0,1,4-3,12.55,12.55,0,0,1,6.61-1.91,10.58,10.58,0,0,1,1.79.22C331.87,27.76,332.07,27.83,332.07,27.83Z"/><path class="cls-2" d="M226.48,46.62s.07,0,.22-.08a2.73,2.73,0,0,1,.66-.06,4.14,4.14,0,0,1,2.31.76,4.42,4.42,0,0,1,1.94,3,3.62,3.62,0,0,1-.41,2.16,4.37,4.37,0,0,1-1.68,1.65,3.58,3.58,0,0,1-4.31-.35,3.83,3.83,0,0,1-.89-3.49,3.34,3.34,0,0,1,1.3-2,2,2,0,0,1,.6-.29c.15,0,.22-.06.23,0s-.29.14-.71.49a3.28,3.28,0,0,0-1.06,2,3.54,3.54,0,0,0,.86,3.08,3.14,3.14,0,0,0,3.73.24,4,4,0,0,0,1.48-1.45,3.09,3.09,0,0,0,.38-1.86,4.11,4.11,0,0,0-1.67-2.79,4.46,4.46,0,0,0-2.11-.86C226.8,46.61,226.49,46.67,226.48,46.62Z"/><rect class="cls-9" x="150.15" y="210.85" width="71.35" height="69.03"/><polygon class="cls-1" points="155.68 273.97 175.42 238.45 191.56 261.15 201.37 249.09 215.96 273.97 155.68 273.97"/><path class="cls-1" d="M198.44,231.54a5.14,5.14,0,1,1-5.14-5.14A5.14,5.14,0,0,1,198.44,231.54Z"/><path class="cls-1" d="M216,274.16s0-.1,0-.28,0-.47,0-.81c0-.73,0-1.77,0-3.1,0-2.74-.05-6.7-.08-11.73,0-10.08-.09-24.44-.15-41.67l.29.29-60.27,0c-.09.07.63-.64.33-.34v15.5c0,5.07,0,10,0,14.88,0,9.66,0,18.8,0,27.21l-.3-.3,43.59.16,12.29.07,3.26,0h.85l.29,0a1.1,1.1,0,0,1-.26,0h-.81l-3.21,0-12.22.08-43.78.15h-.3v-.3c0-8.41,0-17.55,0-27.21,0-4.84,0-9.81,0-14.88v-15.5l.35-.35,60.27.05h.3v.3c-.07,17.31-.12,31.73-.15,41.86,0,5-.06,8.93-.08,11.66,0,1.31,0,2.33,0,3.05,0,.32,0,.57,0,.77S216,274.17,216,274.16Z"/><rect class="cls-9" x="150.65" y="285.05" width="33.34" height="32.26"/><polygon class="cls-1" points="153.23 314.55 162.45 297.94 170 308.56 174.58 302.92 181.4 314.55 153.23 314.55"/><path class="cls-1" d="M173.21,294.72a2.4,2.4,0,1,1-2.4-2.4A2.4,2.4,0,0,1,173.21,294.72Z"/><path class="cls-1" d="M181.4,314.63v-.13c0-.09,0-.22,0-.37,0-.35,0-.83,0-1.46,0-1.27,0-3.12,0-5.47,0-4.72,0-11.43-.07-19.48l.13.13-28.17,0,.16-.16h0V295c0,2.37,0,4.7,0,7,0,4.51,0,8.79,0,12.71l-.14-.13,20.37.07,5.75,0,1.52,0h.53s0,0-.12,0h-.38l-1.5,0-5.71,0-20.46.07h-.14v-.14c0-3.92,0-8.2,0-12.71,0-2.26,0-4.59,0-7v-7.22h0l.16-.16,28.17,0h.14v.14c0,8.09,0,14.83-.07,19.56,0,2.34,0,4.18,0,5.45,0,.61,0,1.09,0,1.43,0,.15,0,.26,0,.36S181.41,314.64,181.4,314.63Z"/><rect class="cls-9" x="188" y="285.38" width="33" height="31.93"/><polygon class="cls-1" points="190.56 314.57 199.69 298.14 207.16 308.64 211.69 303.07 218.44 314.57 190.56 314.57"/><path class="cls-1" d="M210.34,295a2.38,2.38,0,1,1-2.38-2.38A2.38,2.38,0,0,1,210.34,295Z"/><path class="cls-1" d="M218.44,314.66s0,0,0-.13v-.37c0-.34,0-.82,0-1.44,0-1.26,0-3.09,0-5.42,0-4.66,0-11.3-.07-19.28l.13.14-27.88,0s.3-.3.16-.15h0v7.15c0,2.34,0,4.64,0,6.87,0,4.48,0,8.7,0,12.59l-.14-.13,20.16.07,5.69,0,1.5,0h-1.45l-5.65,0-20.25.07h-.14v-.14c0-3.89,0-8.11,0-12.59,0-2.23,0-4.53,0-6.87v-7.15h0c-.14.14.19-.2.16-.16l27.88,0h.14V288c0,8-.06,14.68-.07,19.37,0,2.31,0,4.13,0,5.39,0,.6,0,1.08,0,1.41,0,.15,0,.26,0,.36A.4.4,0,0,1,218.44,314.66Z"/><circle class="cls-10" cx="255.05" cy="151.64" r="11.96" transform="translate(49.12 365.27) rotate(-76.79)"/><path class="cls-11" d="M254.68,163.15a3.51,3.51,0,0,1-3.83-3.14l-1-10.58a5.11,5.11,0,0,1,4.7-5.61h.08a5.33,5.33,0,0,1,5.4,4.83c.24,2.42.46,5.06.47,6.36a3.31,3.31,0,0,1-2.74,3.23s0,.46.1,1.09a3.49,3.49,0,0,1-3.13,3.82Z"/><path class="cls-12" d="M257.71,158.24a6.68,6.68,0,0,1-3.61-1,3.47,3.47,0,0,0,3.67,1.67Z"/><path class="cls-3" d="M258.89,150.49a.4.4,0,0,1-.37.41.38.38,0,0,1-.41-.35.38.38,0,0,1,.37-.4A.37.37,0,0,1,258.89,150.49Z"/><path class="cls-3" d="M259.39,149.82c0,.05-.35-.17-.77-.16s-.73.23-.78.18,0-.12.16-.22a1.06,1.06,0,0,1,.62-.2,1,1,0,0,1,.62.18C259.37,149.7,259.42,149.79,259.39,149.82Z"/><path class="cls-3" d="M254.85,150.68a.41.41,0,0,1-.38.41.39.39,0,0,1-.41-.35.4.4,0,0,1,.37-.41A.39.39,0,0,1,254.85,150.68Z"/><path class="cls-3" d="M255.23,150c0,.06-.35-.16-.77-.15s-.74.22-.78.17,0-.11.16-.21a1.11,1.11,0,0,1,.62-.21,1.06,1.06,0,0,1,.62.19C255.21,149.85,255.25,149.94,255.23,150Z"/><path class="cls-3" d="M256.82,153.08a3.23,3.23,0,0,1,.69-.13c.1,0,.21,0,.22-.11a.47.47,0,0,0-.08-.32c-.1-.26-.21-.54-.33-.82a14,14,0,0,1-.75-2.15,16.13,16.13,0,0,1,.92,2.08c.11.29.22.56.32.83a.59.59,0,0,1,.07.42.28.28,0,0,1-.18.16l-.18,0A2.4,2.4,0,0,1,256.82,153.08Z"/><path class="cls-3" d="M255.58,153.4c.07,0,.07.45.47.77s.89.26.9.33-.11.09-.32.1a1.12,1.12,0,0,1-.74-.25,1,1,0,0,1-.37-.65C255.5,153.51,255.55,153.39,255.58,153.4Z"/><path class="cls-3" d="M255.31,148.3c0,.12-.46.07-1,.14s-.89.21-1,.11,0-.16.2-.28a1.63,1.63,0,0,1,.71-.26,1.57,1.57,0,0,1,.75.08C255.24,148.16,255.33,148.25,255.31,148.3Z"/><path class="cls-3" d="M259.22,148.59c-.08.1-.37,0-.72,0s-.65.07-.72,0,0-.14.15-.24a.93.93,0,0,1,.58-.16.92.92,0,0,1,.57.18C259.21,148.45,259.25,148.55,259.22,148.59Z"/><path class="cls-3" d="M252.75,146.36h0a2.2,2.2,0,0,0-.78,1.42v.05c-.09.79-.06,1.59-.16,2.38s0,1.37-.77,1.62a1,1,0,0,1-1.11-.33.64.64,0,0,1-.11-.36c-.18-1.89-.63-2.59-.66-4.58a1.67,1.67,0,0,1,.67-1.37c.41-.31.92-.62,1.38-.41s1.08,1.06,1.44,1.42"/><path class="cls-11" d="M250.75,150.67c-.05,0-1.9-.53-1.81,1.35a1.41,1.41,0,0,0,2,1.35C250.91,153.32,250.75,150.67,250.75,150.67Z"/><path class="cls-12" d="M250.29,152.68l-.08.06a.3.3,0,0,1-.25,0,.82.82,0,0,1-.41-.71,1.19,1.19,0,0,1,.07-.47.37.37,0,0,1,.24-.26.15.15,0,0,1,.19.08c0,.05,0,.09,0,.09s0,0,0-.11a.21.21,0,0,0-.08-.12.27.27,0,0,0-.18,0,.47.47,0,0,0-.33.31,1.16,1.16,0,0,0-.09.53.84.84,0,0,0,.52.79.35.35,0,0,0,.3-.06C250.29,152.73,250.3,152.69,250.29,152.68Z"/><path class="cls-3" d="M251.12,145.08c-.47-.75.78-1.85,1.7-2.16a5.56,5.56,0,0,1,3.09.42,5.41,5.41,0,0,0,1.79.41,4,4,0,0,0,1.19-.33,3.17,3.17,0,0,1,1.21-.26,1.16,1.16,0,0,1,1,.62.71.71,0,0,1-.46,1,.93.93,0,1,1,.27,1.71c.27-.21.68.12.66.46a1,1,0,0,1-.64.72,3.5,3.5,0,0,1-2.51,0c-.82-.26-1.58-.67-2.4-.95s-2.17-.79-3-.49c-.59.22-1,1-1.34.79a1.16,1.16,0,0,1-.61-.84,3.5,3.5,0,0,1,0-1.07"/><path class="cls-5" d="M260.86,144.69s-.09.14-.29.37a2.6,2.6,0,0,1-1,.69,2.37,2.37,0,0,1-1.79,0,8.62,8.62,0,0,1-1.85-1.38,3.92,3.92,0,0,0-2.14-1A2.16,2.16,0,0,0,252,144a1.69,1.69,0,0,0-.41,1.23,1.34,1.34,0,0,0,.09.34l.06.11a4,4,0,0,1-.07-.46,1.6,1.6,0,0,1,.43-1.13,2.08,2.08,0,0,1,1.68-.57,3.74,3.74,0,0,1,2,1,8,8,0,0,0,1.9,1.38,2.43,2.43,0,0,0,1.91,0,2.57,2.57,0,0,0,1.05-.77,2.72,2.72,0,0,0,.19-.29C260.85,144.73,260.87,144.7,260.86,144.69Z"/><path class="cls-5" d="M250.27,150.59s.08-.05.15-.2a1.27,1.27,0,0,0,.08-.69c-.05-.6-.6-1.25-.68-2.09a1.88,1.88,0,0,1,.19-1.12,1.44,1.44,0,0,1,.69-.62,1.31,1.31,0,0,1,.63-.1c.15,0,.23.06.24,0a.7.7,0,0,0-.23-.11,1.14,1.14,0,0,0-.69.05,1.59,1.59,0,0,0-.79.65,2,2,0,0,0-.22,1.24,3.34,3.34,0,0,0,.38,1.18,3.13,3.13,0,0,1,.35.9A1.48,1.48,0,0,1,250.27,150.59Z"/><path class="cls-5" d="M248.21,161.46l2.61-1.78a8.41,8.41,0,0,0,7-.35l4.41,1.88a12,12,0,0,1-14,.25Z"/><circle class="cls-10" cx="187.46" cy="98.24" r="33.75"/><path class="cls-11" d="M186.42,130.71a9.86,9.86,0,0,1-10.79-8.84l-3-29.85a14.41,14.41,0,0,1,13.25-15.84h.22A15.08,15.08,0,0,1,201.39,89.8c.66,6.85,1.29,14.29,1.3,18,0,7.78-7.73,9.12-7.73,9.12s.13,1.29.3,3.06a9.87,9.87,0,0,1-8.84,10.77Z"/><path class="cls-12" d="M195,116.88a18.77,18.77,0,0,1-10.18-2.83s2.62,5.54,10.37,4.72Z"/><path class="cls-3" d="M198.31,95a1.11,1.11,0,0,1-1.05,1.14,1.06,1.06,0,0,1-1.16-1A1.11,1.11,0,0,1,197.15,94,1.07,1.07,0,0,1,198.31,95Z"/><path class="cls-3" d="M199.73,93.1c-.14.15-1-.46-2.19-.44s-2.06.64-2.19.49.07-.33.45-.61a3.08,3.08,0,0,1,1.75-.57,2.86,2.86,0,0,1,1.74.53C199.66,92.77,199.79,93,199.73,93.1Z"/><path class="cls-3" d="M186.89,95.54a1.11,1.11,0,0,1-1,1.14,1.07,1.07,0,0,1-1.16-1,1.11,1.11,0,0,1,1-1.14A1.05,1.05,0,0,1,186.89,95.54Z"/><path class="cls-3" d="M188,93.52c-.14.14-1-.47-2.19-.44s-2.06.63-2.19.49.07-.33.45-.61a3,3,0,0,1,1.75-.58,3,3,0,0,1,1.74.53C187.91,93.19,188,93.45,188,93.52Z"/><path class="cls-3" d="M192.46,102.31a8.29,8.29,0,0,1,1.94-.38c.3,0,.59-.1.64-.31a1.57,1.57,0,0,0-.22-.9c-.3-.74-.61-1.51-.94-2.31a40.35,40.35,0,0,1-2.13-6,40.57,40.57,0,0,1,2.61,5.86c.32.81.62,1.59.9,2.33a1.74,1.74,0,0,1,.18,1.19.79.79,0,0,1-.49.46,2.2,2.2,0,0,1-.52.08A7.8,7.8,0,0,1,192.46,102.31Z"/><path class="cls-3" d="M189,103.2c.19,0,.21,1.28,1.34,2.18s2.5.74,2.52.92-.31.26-.89.29a3.31,3.31,0,0,1-2.1-.7,2.77,2.77,0,0,1-1-1.83C188.73,103.52,188.87,103.19,189,103.2Z"/><path class="cls-3" d="M188.21,88.83c-.12.32-1.31.19-2.71.38s-2.53.59-2.72.3c-.09-.13.1-.44.56-.76a4.34,4.34,0,0,1,2-.74,4.48,4.48,0,0,1,2.13.21C188,88.42,188.25,88.67,188.21,88.83Z"/><path class="cls-3" d="M199.23,89.65c-.21.27-1,0-2,0s-1.82.21-2-.07,0-.41.4-.68a2.95,2.95,0,0,1,3.27,0C199.2,89.23,199.32,89.51,199.23,89.65Z"/><path class="cls-3" d="M181,83.35l0,0a6.09,6.09,0,0,0-2.21,4l0,.15c-.27,2.23-.18,4.49-.47,6.71s0,3.87-2.15,4.57a2.92,2.92,0,0,1-3.16-.92,2,2,0,0,1-.29-1c-.5-5.35-1.78-7.32-1.87-12.92a4.72,4.72,0,0,1,1.9-3.88c1.16-.86,2.58-1.76,3.89-1.16s3,3,4.07,4"/><path class="cls-11" d="M175.34,95.5c-.13-.06-5.37-1.5-5.11,3.82s5.54,4,5.54,3.81S175.34,95.5,175.34,95.5Z"/><path class="cls-12" d="M174.05,101.19s-.09.07-.24.15a.91.91,0,0,1-.69,0,2.28,2.28,0,0,1-1.16-2,3,3,0,0,1,.19-1.33,1.06,1.06,0,0,1,.66-.75.47.47,0,0,1,.56.23c.08.14,0,.25.08.26s.11-.1.06-.31a.63.63,0,0,0-.23-.33.74.74,0,0,0-.52-.11,1.29,1.29,0,0,0-.92.87,3,3,0,0,0-.25,1.5,2.39,2.39,0,0,0,1.46,2.23,1,1,0,0,0,.84-.18C174.05,101.32,174.07,101.2,174.05,101.19Z"/><path class="cls-3" d="M176.39,79.74c-1.35-2.11,2.19-5.23,4.8-6.1s6.09.35,8.72,1.18c1.66.52,3.31,1.25,5.05,1.15a11.81,11.81,0,0,0,3.36-.91,8.5,8.5,0,0,1,3.39-.73,3.22,3.22,0,0,1,2.83,1.73,2,2,0,0,1-1.3,2.74,2.61,2.61,0,1,1,.77,4.83c.75-.59,1.92.34,1.85,1.29a2.78,2.78,0,0,1-1.79,2,10,10,0,0,1-7.1,0c-2.31-.74-4.46-1.91-6.75-2.7s-6.13-2.22-8.4-1.38c-1.67.63-2.81,2.67-3.77,2.24a3.27,3.27,0,0,1-1.72-2.36,9.34,9.34,0,0,1,.06-3"/><path class="cls-5" d="M203.88,78.64s-.27.4-.83,1a7.31,7.31,0,0,1-2.93,2,6.72,6.72,0,0,1-5.07-.12c-1.83-.78-3.4-2.38-5.21-3.88a11,11,0,0,0-6-2.77,6.1,6.1,0,0,0-5.05,1.84,4.61,4.61,0,0,0-1.15,3.46,3.65,3.65,0,0,0,.24,1c.1.2.16.31.18.3a9,9,0,0,1-.22-1.29,4.61,4.61,0,0,1,1.22-3.2,5.84,5.84,0,0,1,4.75-1.61,10.75,10.75,0,0,1,5.73,2.7c1.77,1.46,3.39,3.1,5.35,3.91a7,7,0,0,0,5.4,0,7.1,7.1,0,0,0,2.94-2.17,4.29,4.29,0,0,0,.54-.84A.94.94,0,0,0,203.88,78.64Z"/><path class="cls-5" d="M174,95.29s.23-.15.43-.58a3.64,3.64,0,0,0,.23-1.93c-.15-1.71-1.69-3.53-1.92-5.89a5.33,5.33,0,0,1,.53-3.19A4.07,4.07,0,0,1,175.2,82a3.4,3.4,0,0,1,1.77-.27c.43.06.66.16.68.11s-.19-.18-.64-.31a3.26,3.26,0,0,0-1.94.12,4.33,4.33,0,0,0-2.24,1.85,5.64,5.64,0,0,0-.64,3.48,9.72,9.72,0,0,0,1.08,3.34,10,10,0,0,1,1,2.56A4,4,0,0,1,174,95.29Z"/><path class="cls-5" d="M168.17,125.94l7.36-5c7,2.39,13.64,2.35,19.73-1l12.44,5.31A31.31,31.31,0,0,1,187.46,132C174.93,131.79,168.17,125.94,168.17,125.94Z"/><path class="cls-3" d="M221.21,98.24s0-.19-.06-.55-.06-.91-.1-1.6c0-.35-.05-.74-.07-1.18s-.14-.9-.22-1.41a26.09,26.09,0,0,0-.7-3.48,32.2,32.2,0,0,0-3.75-8.94A33.68,33.68,0,0,0,193.64,65.3a29.25,29.25,0,0,0-4.24-.49c-.72,0-1.45-.1-2.18-.09l-2.22.12c-.37,0-.75,0-1.12.07l-1.12.17c-.74.13-1.5.22-2.25.37A35,35,0,0,0,176,66.76a34.39,34.39,0,0,0-4.37,1.93c-.71.38-1.39.83-2.09,1.24a17,17,0,0,0-2,1.4,37.11,37.11,0,0,0-3.8,3.23,36.14,36.14,0,0,0-3.28,3.88,32.14,32.14,0,0,0-4.79,9.23,33.16,33.16,0,0,0,0,21.14,32.27,32.27,0,0,0,4.79,9.23,38.2,38.2,0,0,0,3.28,3.88,37.11,37.11,0,0,0,3.8,3.23,17.32,17.32,0,0,0,2,1.4c.7.41,1.38.86,2.09,1.24a35.87,35.87,0,0,0,4.37,1.93,35,35,0,0,0,4.47,1.31c.75.15,1.51.24,2.25.37l1.12.17c.37.05.75,0,1.12.07l2.22.12c.73,0,1.46-.06,2.19-.09a31.08,31.08,0,0,0,4.24-.49,33.69,33.69,0,0,0,22.66-15.78,32.2,32.2,0,0,0,3.75-8.94,24.59,24.59,0,0,0,.7-3.48c.08-.51.17-1,.22-1.41l.07-1.18c0-.69.08-1.22.1-1.6s.06-.55.06-.55,0,.19,0,.55,0,.91-.06,1.6c0,.36,0,.75,0,1.19s-.13.9-.2,1.42a22.7,22.7,0,0,1-.66,3.5,32,32,0,0,1-3.69,9,33.46,33.46,0,0,1-27.13,16.57c-.73,0-1.47.1-2.21.09L185,132.1c-.38,0-.76,0-1.14-.07l-1.13-.17c-.76-.13-1.53-.22-2.29-.37a37.59,37.59,0,0,1-4.53-1.32,36.19,36.19,0,0,1-4.44-1.94c-.72-.39-1.41-.84-2.12-1.27a16.69,16.69,0,0,1-2.06-1.41,38.17,38.17,0,0,1-3.86-3.27,37.25,37.25,0,0,1-3.33-3.94A32.75,32.75,0,0,1,155.2,109a33.62,33.62,0,0,1,0-21.47,32.83,32.83,0,0,1,4.87-9.36,38.48,38.48,0,0,1,3.33-3.94,37.21,37.21,0,0,1,3.87-3.27,17,17,0,0,1,2-1.42c.71-.42,1.4-.87,2.12-1.26a36.19,36.19,0,0,1,4.44-1.94A37.07,37.07,0,0,1,180.41,65c.76-.15,1.53-.24,2.29-.37l1.13-.17c.38,0,.76,0,1.14-.07l2.25-.11c.74,0,1.48.07,2.21.09a33.79,33.79,0,0,1,27.13,16.57,32,32,0,0,1,3.69,9,23,23,0,0,1,.66,3.51c.07.51.16,1,.2,1.42s0,.83,0,1.19c0,.69,0,1.22.06,1.6S221.21,98.24,221.21,98.24Z"/></g><g id="Character"><path class="cls-6" d="M47.84,368.07l-13,19.46-5.8,18.35a2.4,2.4,0,0,1-3.16,1.51h0a2.38,2.38,0,0,1-1.45-1.65c-1.19-4.8-5.46-22.47-4.43-23.85,1.19-1.58,12.3-21.43,12.3-21.43Z"/><g class="cls-13"><path class="cls-4" d="M25.93,407.39l-5-26.83-.53.84a3.63,3.63,0,0,0-.52,2.43c.32,2.27,1.34,8.51,4.58,21.87a2.38,2.38,0,0,0,1.51,1.69Z"/></g><g class="cls-13"><path class="cls-4" d="M29,376.75a1.45,1.45,0,0,1-.68,1.82,1.4,1.4,0,0,1-1.8-.66,1.53,1.53,0,0,1,.73-1.91,1.44,1.44,0,0,1,1.8.89"/></g><path class="cls-3" d="M26.87,395.9a7.16,7.16,0,0,1,2.71-.44,7.41,7.41,0,0,1,2.55,1s-.11-.35-.53-.7a3.66,3.66,0,0,0-2-.81,3.72,3.72,0,0,0-2.09.37C27.05,395.58,26.83,395.85,26.87,395.9Z"/><path class="cls-3" d="M26.61,399.44a18.17,18.17,0,0,1,2.28.25,18.47,18.47,0,0,1,2.09,1c.12-.07-.56-1.09-1.95-1.47A2.61,2.61,0,0,0,26.61,399.44Z"/><path class="cls-3" d="M26.4,390.85A23,23,0,0,1,30,391a24.93,24.93,0,0,1,3.36,1.17,5.32,5.32,0,0,0-3.27-1.67A5.34,5.34,0,0,0,26.4,390.85Z"/><path class="cls-3" d="M29.84,384.61c0,.15,1.36.38,2.81,1.23s2.37,1.9,2.48,1.8a4.62,4.62,0,0,0-2.22-2.25A4.59,4.59,0,0,0,29.84,384.61Z"/><path class="cls-3" d="M33.5,378.8a11.35,11.35,0,0,1,3,1.2,11.57,11.57,0,0,1,2.2,2.32c.06,0,0-.41-.29-1a5.2,5.2,0,0,0-3.87-2.64C33.88,378.65,33.5,378.73,33.5,378.8Z"/><path class="cls-3" d="M37.12,378.88a2,2,0,0,0,.5-.73,6.17,6.17,0,0,0,.65-2.34,2.75,2.75,0,0,0-.29-1.72,1,1,0,0,0-1-.4,1.59,1.59,0,0,0-.87.69,3.38,3.38,0,0,0,.83,4.24,4,4,0,0,0,4.36.33,1.4,1.4,0,0,0,.66-.93,1,1,0,0,0-.57-.95,3.43,3.43,0,0,0-1.73-.15,6.83,6.83,0,0,0-2.32.69c-.51.25-.75.46-.73.49a10.32,10.32,0,0,1,3.08-.81,3.09,3.09,0,0,1,1.51.16.51.51,0,0,1,.31.52.92.92,0,0,1-.47.58,3.48,3.48,0,0,1-3.77-.33,2.91,2.91,0,0,1-.76-3.58,1.1,1.1,0,0,1,.59-.51.51.51,0,0,1,.57.21,2.5,2.5,0,0,1,.28,1.45A9.17,9.17,0,0,1,37.12,378.88Z"/><path class="cls-6" d="M60.14,379.21l1.48,19.53S42.23,405.38,42.15,409l38-.09-1-30.53Z"/><g class="cls-13"><path class="cls-4" d="M73.3,396.63a1.55,1.55,0,0,1,1.14,1.72,1.49,1.49,0,0,1-1.7,1.15,1.63,1.63,0,0,1-1.2-1.83,1.55,1.55,0,0,1,1.9-1"/></g><g class="cls-13"><path class="cls-4" d="M80.16,408.93l-.1-3.08-36.71,1.37A2.63,2.63,0,0,0,42,409.3Z"/></g><path class="cls-3" d="M61,398.57c0,.19.94.23,1.88.79s1.45,1.32,1.62,1.24-.15-1.14-1.3-1.79S61,398.4,61,398.57Z"/><path class="cls-3" d="M57.08,400.38c0,.18.78.46,1.44,1.22s.88,1.58,1.06,1.57.26-1.07-.58-2S57.08,400.2,57.08,400.38Z"/><path class="cls-3" d="M55,405.24c.17,0,.39-.91-.13-1.91s-1.4-1.36-1.47-1.2.48.67.9,1.5S54.82,405.22,55,405.24Z"/><path class="cls-3" d="M61.15,394.08c.09.17.93-.12,2-.09s1.88.33,2,.16-.72-.79-2-.81S61.06,393.94,61.15,394.08Z"/><g class="cls-8"><polygon points="60.44 383.07 60.7 386.56 79.36 385.64 79.26 382.5 60.44 383.07"/></g><path class="cls-3" d="M60.93,390.14a3.66,3.66,0,0,0,1.9-.09,8.63,8.63,0,0,0,3-1.31,2.12,2.12,0,0,0,.56-.47.81.81,0,0,0,0-1,1,1,0,0,0-.83-.4,2.73,2.73,0,0,0-.71.13,7.69,7.69,0,0,0-1.17.45,6.72,6.72,0,0,0-1.71,1.23c-.85.85-1.12,1.55-1,1.58s.49-.54,1.36-1.24A7.17,7.17,0,0,1,64,388a6.52,6.52,0,0,1,1.08-.38c.39-.12.74-.14.85,0s0,.09,0,.21a1.65,1.65,0,0,1-.41.35,9.31,9.31,0,0,1-1,.61,9.87,9.87,0,0,1-1.81.78A12.84,12.84,0,0,0,60.93,390.14Z"/><path class="cls-3" d="M61.18,390.39c.07,0,.41-.65.43-1.86a6.15,6.15,0,0,0-.34-2.07,7.18,7.18,0,0,0-.53-1.13,1.59,1.59,0,0,0-1.26-.92.91.91,0,0,0-.77.57,3,3,0,0,0-.17.7,4.51,4.51,0,0,0,.05,1.28,4.37,4.37,0,0,0,.89,1.94c.79,1,1.57,1.14,1.58,1.08s-.6-.43-1.21-1.35a4.37,4.37,0,0,1-.67-1.77,4,4,0,0,1,0-1.1c0-.4.18-.73.34-.7s.52.28.69.6a7.36,7.36,0,0,1,.51,1,7.11,7.11,0,0,1,.44,1.88C61.25,389.67,61.08,390.37,61.18,390.39Z"/><path class="cls-5" d="M105.73,229.87c1.4,16.32,4.26,33.34,5.66,49.66.26,3,.5,6.05-.45,8.87-1.78,5.25-13.29,8.9-18.61,7.35"/><path class="cls-3" d="M46.25,218.36s-8.79,21.55-8.79,24.48,18.4,142.09,18.4,142.09l25.69-2.16L70.28,255l4-27.34Z"/><path class="cls-3" d="M105.05,227.29s-6,50.14-8.82,69.47c-3,20.22-8.74,24.05-8.74,24.05L41.05,380.23,22.86,363.84l40.93-65.49s10.91-72.67,10.53-70.71S105.05,227.29,105.05,227.29Z"/><path class="cls-5" d="M70.89,257.38a1.47,1.47,0,0,1,0,.2c0,.16-.05.35-.08.59-.08.55-.2,1.31-.35,2.28-.33,2-.81,4.9-1.4,8.51-1.24,7.31-3,17.55-5,29.43v.05l0,0L54.57,313.6,32.24,349.19l-6.82,10.75-1.87,2.91-.5.75c-.12.16-.18.25-.19.24a2.24,2.24,0,0,1,.14-.27l.46-.78,1.79-3L31.93,349l22.2-35.67c3.31-5.3,6.51-10.4,9.45-15.1l0,.09c2.09-11.88,3.9-22.1,5.18-29.4.66-3.6,1.18-6.48,1.55-8.49.18-1,.32-1.72.43-2.27.05-.23.09-.42.12-.58S70.88,257.38,70.89,257.38Z"/><path class="cls-5" d="M86.58,321.65a5.41,5.41,0,0,1-.43.61L84.82,324,80,330.25,64,351.09c-6.2,8.16-11.86,15.51-16,20.76-2.09,2.63-3.81,4.74-5,6.18-.59.68-1,1.23-1.4,1.65a4.09,4.09,0,0,1-.52.55,4.5,4.5,0,0,1,.44-.62l1.32-1.71c1.18-1.53,2.84-3.66,4.88-6.28l15.92-20.84c6.2-8.15,11.86-15.51,16-20.76,2.08-2.63,3.8-4.73,5-6.17l1.39-1.65A3.37,3.37,0,0,1,86.58,321.65Z"/><path class="cls-6" d="M60.33,127.33s-9,5.39-11.67,10.18S31.59,177.34,32.19,183s14.06,9.28,14.06,9.28L60.33,174,52,168.35l8.38-10.48Z"/><path class="cls-6" d="M74.84,122.68l-14.51,4.65s-6.58,62.58-9.88,71.57a87.56,87.56,0,0,0-4.2,19.46s1.87,17.5,22.23,19.89S105,228.58,105,228.58s12.19-30.88,15.78-57.23S121.93,130,121.93,130l-22.32-8Z"/><path class="cls-6" d="M117.83,131.82c-.63.65-9.59,6.59-12.58,16.77S99,169.25,99,169.25l-11.68,1.5,6.59,26.95s14.08-1.5,21.86-14.37,12.58-28.75,12.58-28.75S127.31,122,117.83,131.82Z"/><path class="cls-11" d="M46.25,192.31s32.63,6.52,44.47-7.52l-3.44-11.92S65.73,178,59,175.77Z"/><path class="cls-11" d="M91.29,170.24s5-11.09,5.62-11.24,10.23-3.51,10.23-3.51a3.48,3.48,0,0,1,0,2.41l3.43.44s-.51,2.12-1.68,2.41l1.24,1.1a6.89,6.89,0,0,1-2.33,2,2.56,2.56,0,0,1-2.27,0s.44.8-1.53,2-5.34,3.07-5.34,3.07Z"/><path class="cls-12" d="M91.25,170.27l0-.05c.2-.45,5-11.1,5.63-11.25s10.14-3.47,10.23-3.5h0v0a3.55,3.55,0,0,1,0,2.4l3.42.44v0c0,.08-.52,2.08-1.66,2.42l1.23,1.08h0a6.84,6.84,0,0,1-2.34,2,2.61,2.61,0,0,1-2.23,0c.06.22.11,1-1.57,2-2,1.23-5.3,3.05-5.33,3.07h0Zm15.87-14.75c-.52.19-9.57,3.36-10.21,3.5s-3.86,7.34-5.58,11.18l7.33-1.29c.12-.07,3.4-1.85,5.32-3.06s1.53-2,1.53-2l0-.08.07.05a2.61,2.61,0,0,0,2.25,0,6.81,6.81,0,0,0,2.31-2l-1.26-1.11h0c1.07-.27,1.59-2.12,1.65-2.37l-3.44-.44,0,0A3.41,3.41,0,0,0,107.12,155.52Z"/><path class="cls-12" d="M106.84,158a45.41,45.41,0,0,1-6.27,2.43c-.87.32-1.74.56-2.43.88a3.28,3.28,0,0,0-1.43,1.37c-.57,1-.78,1.77-.87,1.74a4.46,4.46,0,0,1,.55-1.92,3.45,3.45,0,0,1,1.53-1.61,21.72,21.72,0,0,1,2.48-1A42.54,42.54,0,0,1,106.84,158Z"/><path class="cls-12" d="M109.07,160.76a5.1,5.1,0,0,1-1.73.63c-1.1.29-2.65.54-4.29,1a11,11,0,0,0-3.88,1.82c-.87.68-1.25,1.27-1.33,1.22a3.32,3.32,0,0,1,1.1-1.5,9.65,9.65,0,0,1,4-2c1.69-.45,3.24-.64,4.35-.84A9.09,9.09,0,0,1,109.07,160.76Z"/><path class="cls-12" d="M100.29,165.81a5.55,5.55,0,0,1,5.06-1.81c0,.16-1.21.24-2.59.74S100.39,165.93,100.29,165.81Z"/><path class="cls-11" d="M88.29,173.64,61,166l-8.14,8.87s27.81,21.79,40.53,21.45"/><path class="cls-12" d="M93.34,196.32a12.54,12.54,0,0,1-3.41-.25,39,39,0,0,1-8.82-3c-7.17-3.27-16.45-9-26.07-16.19l-2.39-1.81-.22-.17.19-.21,8.15-8.86.1-.11.15,0,19.63,5.59L86.28,173l1.5.45a3,3,0,0,1,.51.19,2.46,2.46,0,0,1-.53-.11l-1.52-.38-5.67-1.51-19.68-5.41.24-.07L53,175l0-.38,2.38,1.81c9.6,7.14,18.82,12.93,25.92,16.26a40.58,40.58,0,0,0,8.7,3.14,14.27,14.27,0,0,0,1.43.26,10.34,10.34,0,0,0,1.06.11A4.81,4.81,0,0,1,93.34,196.32Z"/><path class="cls-3" d="M106.18,142.49a9.51,9.51,0,0,1-.4,2.17c-.31,1.33-.77,3.15-1.32,5.16s-1.06,3.82-1.46,5.12a9.41,9.41,0,0,1-.75,2.08,9.45,9.45,0,0,1,.4-2.18c.31-1.33.77-3.15,1.31-5.16s1.06-3.81,1.46-5.11A9.07,9.07,0,0,1,106.18,142.49Z"/><path class="cls-3" d="M104.91,179.06c-.09,0-.36-1.35-1-3.46a11.16,11.16,0,0,0-1.77-3.41,6.31,6.31,0,0,0-3.81-2.41,14.64,14.64,0,0,0-4.67.54l-3.85.76a6.18,6.18,0,0,0-1.42.37,1.32,1.32,0,0,0-.71.73,1.13,1.13,0,0,0,0,.89s-.41-.26-.24-.95a1.49,1.49,0,0,1,.78-.92,5.52,5.52,0,0,1,1.47-.48l3.83-.87a14,14,0,0,1,4.85-.58,6.59,6.59,0,0,1,4.11,2.63,10.67,10.67,0,0,1,1.74,3.58,23.55,23.55,0,0,1,.59,2.6A3.75,3.75,0,0,1,104.91,179.06Z"/><path class="cls-3" d="M108.92,173.14a12.9,12.9,0,0,0-3.19-3.67c-2.22-1.57-4.53-1.8-4.48-2a3.27,3.27,0,0,1,1.48.1A9.2,9.2,0,0,1,106,169a8,8,0,0,1,2.41,2.69A3.09,3.09,0,0,1,108.92,173.14Z"/><path class="cls-3" d="M128.31,154.58a3.22,3.22,0,0,1-.16.57l-.54,1.62c-.51,1.46-1.19,3.46-2,5.91s-1.89,5.48-3.35,8.67-3.17,6.61-5.25,10.1a34.34,34.34,0,0,1-7.34,8.71,31.24,31.24,0,0,1-7.89,4.93,24.34,24.34,0,0,1-6,1.7,16.09,16.09,0,0,1-1.7.15,2.3,2.3,0,0,1-.6,0c0-.06.82-.09,2.27-.35a26.32,26.32,0,0,0,5.92-1.84,33.62,33.62,0,0,0,14.93-13.57c2-3.44,3.73-6.92,5.27-10s2.52-6.12,3.44-8.59,1.65-4.49,2.19-5.86c.25-.65.46-1.17.63-1.58A2.12,2.12,0,0,1,128.31,154.58Z"/><path class="cls-3" d="M119.86,132.52c0,.15-2.25,1-4.81,2.5s-4.41,3.12-4.51,3a13.87,13.87,0,0,1,4.24-3.46A14.29,14.29,0,0,1,119.86,132.52Z"/><path class="cls-3" d="M59.26,155.11a25.54,25.54,0,0,1,.81-5.09,25.44,25.44,0,0,1,1.31-5,25.54,25.54,0,0,1-.81,5.09A25.44,25.44,0,0,1,59.26,155.11Z"/><path class="cls-3" d="M97.52,204.07a10.42,10.42,0,0,1-1.51.76c-.49.24-1.1.51-1.82.79s-1.53.63-2.45.93a58.44,58.44,0,0,1-6.57,1.9,67.33,67.33,0,0,1-8.27,1.31,66.45,66.45,0,0,1-8.38.16,60.32,60.32,0,0,1-6.8-.72c-1-.13-1.82-.33-2.58-.49s-1.4-.31-1.93-.45a9.54,9.54,0,0,1-1.62-.49,11.12,11.12,0,0,1,1.67.29c.53.12,1.18.25,1.94.37s1.61.3,2.58.41a67.68,67.68,0,0,0,6.76.6,71.78,71.78,0,0,0,8.31-.2A71.19,71.19,0,0,0,85.07,208a64.28,64.28,0,0,0,6.55-1.78c.93-.27,1.74-.6,2.47-.85s1.34-.5,1.84-.7A12,12,0,0,1,97.52,204.07Z"/><path class="cls-3" d="M73.6,219.37a26.29,26.29,0,0,1-6-1.49A25.82,25.82,0,0,1,62,215.49c.06-.13,2.62.83,5.83,1.9A58.3,58.3,0,0,1,73.6,219.37Z"/><g class="cls-8"><path d="M51.34,194.85a17.48,17.48,0,0,0,11,3.67c3.59-.06,7.1-1.23,10.68-1.13a36.43,36.43,0,0,1,8.28,1.67c4.57,1.21,9.35,2.05,14,1.25s9.19-3.52,11.14-7.82a22.93,22.93,0,0,1-21.53,2.23c-1.93-.82-3.78-1.91-5.85-2.23-2.52-.38-5,.43-7.54.92-6.9,1.36-14,.26-21-.85"/></g><g class="cls-8"><path d="M62.79,216.49a18.86,18.86,0,0,0,14.34,9.06,9.44,9.44,0,0,0,3.78-.31,4.7,4.7,0,0,0,2.85-2.38A13.15,13.15,0,0,0,79.31,221L63,216.53"/></g><path class="cls-2" d="M82.48,168.92c-.14.05-2.21-5.26-4.62-11.87s-4.27-12-4.14-12.05,2.21,5.26,4.62,11.87S82.61,168.87,82.48,168.92Z"/><path class="cls-2" d="M93.24,142.29c.1.11-5.61,5.29-12.75,11.56S67.49,165.13,67.4,165s5.61-5.29,12.75-11.57S93.15,142.19,93.24,142.29Z"/><path class="cls-11" d="M87,134.15a11.33,11.33,0,0,0,11.33-11.33V88.35a16.54,16.54,0,0,0-17-16.6l-.25,0a17.32,17.32,0,0,0-15.9,17.3c0,7.91.15,16.5.55,20.69.85,8.9,9.88,9.55,9.88,9.55v3.53A11.34,11.34,0,0,0,87,134.15Z"/><path class="cls-12" d="M75.67,119.18A20.85,20.85,0,0,0,87,114.92s-2.22,6.64-11.18,6.57Z"/><path class="cls-3" d="M68.23,95.36a1.27,1.27,0,0,0,1.33,1.18,1.22,1.22,0,0,0,1.22-1.25,1.28,1.28,0,0,0-1.33-1.19A1.23,1.23,0,0,0,68.23,95.36Z"/><path class="cls-3" d="M67.55,92.66c.17.15,1.08-.64,2.45-.75s2.43.49,2.56.31-.12-.37-.58-.65a3.48,3.48,0,0,0-2.07-.45,3.36,3.36,0,0,0-1.93.8C67.58,92.28,67.47,92.59,67.55,92.66Z"/><path class="cls-3" d="M81.31,94.79A1.26,1.26,0,0,0,82.64,96a1.22,1.22,0,0,0,1.22-1.25,1.28,1.28,0,0,0-1.34-1.18A1.21,1.21,0,0,0,81.31,94.79Z"/><path class="cls-3" d="M81,91.8c.17.15,1.08-.64,2.45-.75s2.43.49,2.56.31-.11-.36-.58-.65a3.48,3.48,0,0,0-2.07-.45,3.39,3.39,0,0,0-1.93.8C81.07,91.42,81,91.73,81,91.8Z"/><path class="cls-3" d="M76.9,102.37a8.72,8.72,0,0,0-2.25-.22c-.36,0-.69-.05-.77-.28a1.72,1.72,0,0,1,.15-1.06c.25-.87.52-1.79.81-2.75,1.12-3.91,1.9-7.11,1.74-7.15a47,47,0,0,0-2.31,7c-.27,1-.53,1.88-.77,2.76a2,2,0,0,0-.07,1.38.88.88,0,0,0,.62.47,2.1,2.1,0,0,0,.6,0A8.93,8.93,0,0,0,76.9,102.37Z"/><path class="cls-3" d="M81,103c-.22,0-.1,1.49-1.29,2.65S76.94,106.76,77,107s.37.26,1,.22a3.72,3.72,0,0,0,2.33-1,3.23,3.23,0,0,0,1-2.21C81.31,103.32,81.11,103,81,103Z"/><path class="cls-3" d="M80.23,86.46c.17.36,1.52.07,3.15.14s3,.39,3.14,0c.08-.17-.17-.5-.73-.82a5.2,5.2,0,0,0-2.38-.62,5.28,5.28,0,0,0-2.41.49C80.43,86,80.16,86.29,80.23,86.46Z"/><path class="cls-3" d="M67.73,88.65c.26.3,1.18-.11,2.31-.21s2.11,0,2.31-.31c.08-.17-.09-.47-.54-.73a3.36,3.36,0,0,0-3.72.43C67.71,88.18,67.61,88.51,67.73,88.65Z"/><path class="cls-3" d="M87.89,79.38l0,0a7,7,0,0,1,3,4.32l0,.18c.56,2.51.71,5.1,1.29,7.61s.48,4.42,3,5a3.37,3.37,0,0,0,3.5-1.42A2.21,2.21,0,0,0,99,93.9c0-6.18,1.21-8.58.67-15A5.46,5.46,0,0,0,97,74.68c-1.43-.85-3.15-1.71-4.59-.88s-3.13,3.79-4.19,5.07"/><path class="cls-11" d="M95.7,92.63c.15-.08,6-2.32,6.28,3.79s-5.88,5.16-5.9,5S95.7,92.63,95.7,92.63Z"/><path class="cls-12" d="M97.83,99s.11.07.29.14a1.06,1.06,0,0,0,.8,0,2.64,2.64,0,0,0,1.1-2.42,3.62,3.62,0,0,0-.38-1.51,1.21,1.21,0,0,0-.84-.77.52.52,0,0,0-.61.32c-.08.17,0,.29-.06.31s-.14-.1-.1-.35a.63.63,0,0,1,.22-.4.75.75,0,0,1,.58-.18A1.48,1.48,0,0,1,100,95a3.61,3.61,0,0,1,.45,1.68A2.76,2.76,0,0,1,99,99.4a1.13,1.13,0,0,1-1-.12C97.85,99.14,97.81,99,97.83,99Z"/><path class="cls-3" d="M92.72,74.73c1.3-2.57-3.1-5.72-6.19-6.42s-6.92,1.09-9.83,2.33c-1.84.78-3.65,1.81-5.64,1.89a13.4,13.4,0,0,1-4-.66,9.91,9.91,0,0,0-4-.45,3.72,3.72,0,0,0-3,2.3,2.32,2.32,0,0,0,1.8,3,3,3,0,1,0-.34,5.61c-.92-.59-2.16.61-2,1.68a3.16,3.16,0,0,0,2.27,2.13c2.64.91,5.57.31,8.13-.8s4.88-2.68,7.41-3.85,6.75-3.23,9.44-2.52c2,.52,3.52,2.73,4.56,2.12a3.74,3.74,0,0,0,1.71-2.89,10.94,10.94,0,0,0-.41-3.46"/><path class="cls-5" d="M61.16,76.6c.05,0,.35.42,1.07,1.08a8.48,8.48,0,0,0,3.56,1.9,7.77,7.77,0,0,0,5.79-.72c2-1.1,3.62-3.1,5.51-5A12.75,12.75,0,0,1,83.67,70a7.05,7.05,0,0,1,6,1.54,5.31,5.31,0,0,1,1.71,3.82,4,4,0,0,1-.17,1.14c-.09.25-.15.38-.17.37a9.27,9.27,0,0,0,.1-1.5,5.17,5.17,0,0,0-1.76-3.51,6.65,6.65,0,0,0-5.6-1.31,12.39,12.39,0,0,0-6.25,3.74c-1.86,1.87-3.53,3.93-5.67,5.08a8.06,8.06,0,0,1-6.17.64,8.22,8.22,0,0,1-3.62-2.14,5.48,5.48,0,0,1-.71-.9C61.21,76.73,61.14,76.61,61.16,76.6Z"/><path class="cls-5" d="M97.23,92.24s-.28-.15-.55-.62a4.12,4.12,0,0,1-.48-2.18c0-2,1.53-4.22,1.53-7a6.14,6.14,0,0,0-1-3.58,4.57,4.57,0,0,0-2.42-1.77A3.93,3.93,0,0,0,92.27,77a5.15,5.15,0,0,1-.76.21s.19-.24.69-.44a3.78,3.78,0,0,1,2.24-.07,4.92,4.92,0,0,1,2.77,1.85,6.48,6.48,0,0,1,1.12,3.91,10.91,10.91,0,0,1-.86,3.94,11.91,11.91,0,0,0-.85,3A4.8,4.8,0,0,0,97.23,92.24Z"/><path class="cls-3" d="M98.71,101.07c.08,0,.15.22.42.39a.66.66,0,1,0,.67-1.12c-.28-.16-.52-.11-.55-.18s.21-.28.68-.17a1.05,1.05,0,0,1,.64.51,1,1,0,0,1,0,1,1,1,0,0,1-.87.54,1.08,1.08,0,0,1-.76-.32C98.57,101.39,98.65,101.06,98.71,101.07Z"/><path class="cls-5" d="M105.73,229.87c-1.21-1.77-3.9-1.34-6-.76-9.18,2.58-19.52,8.58-29,7.54s-17.43-14.42-24.19-21.16l-4.79,12.33c2.28,3.9,5,10.18,22.43,12.49a4.85,4.85,0,0,0,0,.85,4.5,4.5,0,0,0,1.35,2.89,22.54,22.54,0,0,0-5,10.95c-.43,2.73-.35,5.53-.89,8.23s-1.87,5.46-4.29,6.79a4.43,4.43,0,0,0-1.93,1.4,2.38,2.38,0,0,0,.1,2.14c1.24,2.54,4.86,3.12,7.37,1.84s4.08-3.87,5.2-6.46c2.52-5.82,3.42-12.18,4.3-18.46l0-.21a4.24,4.24,0,0,0,1.74,1c1.22.36,2.76.27,3.48,1.33a4.26,4.26,0,0,1,.43,2.2,2.15,2.15,0,0,0,1,1.94,2.46,2.46,0,0,0,2.17-.5l5.1-3.1c.27-.17.57-.38.58-.7s-.35-.6-.69-.65-.7,0-1,0a2.09,2.09,0,0,1-1.45-1.3,18.9,18.9,0,0,1-.6-1.94,8,8,0,0,0-5.62-4.72,14.07,14.07,0,0,0-3.1-.46,4.21,4.21,0,0,0,.6-1.29,4.52,4.52,0,0,0,.12-1,97.53,97.53,0,0,0,23.23-1.78,59.73,59.73,0,0,1,8.29-.73C104.91,236.16,106.84,231.51,105.73,229.87Z"/><path class="cls-3" d="M65.33,244.3s.33-.74,1.42-1.35a4.6,4.6,0,0,1,2.1-.55,3.51,3.51,0,0,1,.64,0,1.16,1.16,0,0,1,.71.36,1.68,1.68,0,0,1,.28.72c0,.22.07.45.11.67a17.34,17.34,0,0,1,.07,4.69,5.55,5.55,0,0,1-.45,1.89,36.32,36.32,0,0,0-.14-6.5,3.35,3.35,0,0,0-.27-1.15c-.13-.2-.59-.22-1-.23a4.71,4.71,0,0,0-1.94.4A12.17,12.17,0,0,0,65.33,244.3Z"/><path class="cls-3" d="M72.14,243.58c-.09.12-.54-.1-1.1-.24S70,243.17,70,243s.52-.37,1.21-.19S72.24,243.48,72.14,243.58Z"/><path class="cls-3" d="M73,242c-.09,0,.06-.78-.2-2a3.64,3.64,0,0,0-.93-1.8,3.38,3.38,0,0,0-2.24-.93,7,7,0,0,0-2.55.24,3.8,3.8,0,0,0-1.73,1.07,4.36,4.36,0,0,0-.87,1.71,2.18,2.18,0,0,1,.59-2,3.89,3.89,0,0,1,1.86-1.28,6.81,6.81,0,0,1,2.74-.31,3.8,3.8,0,0,1,2.55,1.11,3.87,3.87,0,0,1,.94,2.07A3.34,3.34,0,0,1,73,242Z"/><path class="cls-3" d="M70.4,237.61s.32.2.57.71a3.63,3.63,0,0,1,.25,2.18,3.58,3.58,0,0,1-1.09,1.91c-.42.37-.76.48-.79.43a4.58,4.58,0,0,0,1.06-5.23Z"/><path class="cls-3" d="M54.33,230.36a57.17,57.17,0,0,0,4.9,4.34A60.75,60.75,0,0,0,64.87,238a5.93,5.93,0,0,1-1.86-.58A20.82,20.82,0,0,1,55.45,232,5.82,5.82,0,0,1,54.33,230.36Z"/><path class="cls-3" d="M64.43,238.81a5.45,5.45,0,0,1-2.65,0,5.53,5.53,0,0,1-2.54-.77,8.72,8.72,0,0,1,2.61.26A9.64,9.64,0,0,1,64.43,238.81Z"/><path class="cls-3" d="M83.33,238a17.1,17.1,0,0,1-5.24,1.21,17.28,17.28,0,0,1-5.39,0c0-.15,2.4-.21,5.33-.56S83.3,237.88,83.33,238Z"/><path class="cls-3" d="M78.37,240.57a5.17,5.17,0,0,1-2.82.21,5.25,5.25,0,0,1-2.71-.82,15.53,15.53,0,0,1,2.77.3A15.68,15.68,0,0,1,78.37,240.57Z"/><path class="cls-3" d="M64.29,258.31A7.22,7.22,0,0,1,64.1,256a20.1,20.1,0,0,1,3.35-10.66,7.41,7.41,0,0,1,1.48-1.8,35.19,35.19,0,0,0-3.41,7.05A34.55,34.55,0,0,0,64.29,258.31Z"/><path class="cls-3" d="M77.78,250.77c-.08,0-.26-.51-.76-1.24A12.14,12.14,0,0,0,74.65,247a25.88,25.88,0,0,1-3.75-3.31A22.54,22.54,0,0,1,75,246.62a9.67,9.67,0,0,1,2.35,2.72A2.5,2.5,0,0,1,77.78,250.77Z"/><path class="cls-3" d="M103.41,239.18a15.06,15.06,0,0,1,.25-3.91,14.37,14.37,0,0,1,.77-3.83,15,15,0,0,1-.25,3.9A14.38,14.38,0,0,1,103.41,239.18Z"/><path class="cls-5" d="M50.75,174.46l-16.39-.81a4,4,0,0,1-3.59-2.71l-9.54-27.86a4,4,0,0,1,3.93-5.31l23.62.78a4,4,0,0,1,3.75,3l6,23.41A7.61,7.61,0,0,1,50.75,174.46Z"/><path class="cls-11" d="M46.55,163.31c-1.18,1.22-13.39-5-15.34-4.64s-3.13,1.53-2,2.36,9.41,4.45,9.83,5.59c0,0-12.64-4-13.16-3.22s-1.39,2-.13,2.56,12.16,4,13.1,4.51a23.57,23.57,0,0,0,4.87,1.68c.35,0,2.81,1,5.07,1.9a11.36,11.36,0,0,0,8,.18l1.33-.46a5.09,5.09,0,0,0,3.4-4.86l0-4.38L63,161l-2.81-5.93-4.61-1.54L57.36,159c-1.81.87-4.89,1.49-6.45.62s-7.68-6.94-8.84-6.36-2.18,2-1.13,3.32,6.8,5.47,5.61,6.7"/><path class="cls-4" d="M39.09,148a1.76,1.76,0,1,1-1.75-1.75A1.76,1.76,0,0,1,39.09,148Z"/><path class="cls-3" d="M55.25,159.76s-.09-.15-.2-.45-.28-.79-.46-1.31c-.39-1.15-.93-2.82-1.57-4.88s-1.37-4.55-2.08-7.33c-.4-1.36-.46-3-1.4-4.08s-2.68-1.27-4.29-1.32c-6.6-.11-12.58-.24-16.9-.36l-5.12-.17-1.4-.07a1.75,1.75,0,0,1-.48-.07,2.32,2.32,0,0,1,.48,0l1.4,0h5.12c4.33,0,10.31.1,16.92.21a12.24,12.24,0,0,1,2.48.28,4.11,4.11,0,0,1,2.17,1.22,5,5,0,0,1,1,2.17c.17.73.33,1.44.49,2.14.68,2.77,1.38,5.25,2,7.33s1,3.69,1.4,4.93c.15.53.27,1,.37,1.34A2.45,2.45,0,0,1,55.25,159.76Z"/></g><g id="Skateboard"><path class="cls-6" d="M135.87,272.46s-8.62-1.19-13.87,12.19c-6.13,15.59-10.3,27.74-9.67,45.81.52,14.88,8.14,58.38,10.82,73.3a6.18,6.18,0,0,0,6.09,5.09h16.95a6.19,6.19,0,0,0,6.14-5.41c2-15.57,7.29-60.42,5.39-77C155.41,306.29,151.84,273.72,135.87,272.46Z"/><path class="cls-2" d="M155.34,305.89s0,.24,0,.71-.08,1.19-.13,2-.26,1.95-.42,3.19-.47,2.65-.92,4.16a49.36,49.36,0,0,1-4,10.34A51.17,51.17,0,0,1,142,337.39a47.41,47.41,0,0,1-10.55,8.52c-3.61,2.09-7,3.79-9.39,5.84a15.48,15.48,0,0,0-4.52,5.83,12.91,12.91,0,0,0-.6,1.93c-.08.46-.13.7-.13.7s0-.25.09-.71a10.63,10.63,0,0,1,.57-1.95,15.4,15.4,0,0,1,4.5-5.92c2.41-2.07,5.79-3.79,9.39-5.89a47.55,47.55,0,0,0,10.49-8.5,51,51,0,0,0,7.82-11,49.79,49.79,0,0,0,4-10.28c.45-1.51.66-2.93.94-4.15s.36-2.3.46-3.18.13-1.51.17-2S155.34,305.89,155.34,305.89Z"/><path class="cls-2" d="M153.32,299s-.17.52-.51,1.49-.88,2.4-1.62,4.21a90.26,90.26,0,0,1-23.91,33.13c-.86.77-1.78,1.49-2.69,2.26a19.29,19.29,0,0,1-3,2.06,6.74,6.74,0,0,1-3.55.94,5,5,0,0,1-3.38-1.58,7.64,7.64,0,0,1-1.85-3.34,14.72,14.72,0,0,1-.45-3.86c0-2.61.07-5.24.23-7.91a32.23,32.23,0,0,1,1.31-7.81,18,18,0,0,1,3.75-6.69,11.44,11.44,0,0,1,6.36-3.68,9.85,9.85,0,0,1,6.92,1.18,7.89,7.89,0,0,1,3.62,5.55,11.73,11.73,0,0,1-.75,6.3,19.54,19.54,0,0,1-3.13,5.08,38.12,38.12,0,0,1-3.78,4,9.5,9.5,0,0,1-4.36,2.4,4.49,4.49,0,0,1-4.12-1.32,6.27,6.27,0,0,1-1.62-3.48,8,8,0,0,1,.23-3.25,17.71,17.71,0,0,1,1.8-4.12c.51-.9.8-1.36.8-1.36s-.27.48-.76,1.38a17.28,17.28,0,0,0-1.76,4.12,7.84,7.84,0,0,0-.22,3.21,6.28,6.28,0,0,0,1.62,3.42,4.35,4.35,0,0,0,4,1.27,9.45,9.45,0,0,0,4.28-2.38,40,40,0,0,0,3.76-4,19.7,19.7,0,0,0,3.09-5,11.52,11.52,0,0,0,.73-6.21,7.71,7.71,0,0,0-3.54-5.42,9.62,9.62,0,0,0-6.78-1.14,11.24,11.24,0,0,0-6.25,3.62,17.64,17.64,0,0,0-3.7,6.61,32.72,32.72,0,0,0-1.31,7.76c-.15,2.66-.19,5.3-.22,7.9a14.71,14.71,0,0,0,.43,3.81,7.51,7.51,0,0,0,1.81,3.25,4.8,4.8,0,0,0,3.24,1.52,6.65,6.65,0,0,0,3.45-.91,19.24,19.24,0,0,0,2.93-2.05c.9-.76,1.83-1.47,2.69-2.25a91,91,0,0,0,16.13-18.43,92.87,92.87,0,0,0,7.83-14.58c.74-1.81,1.31-3.22,1.65-4.19S153.32,299,153.32,299Z"/><path class="cls-2" d="M153.05,289s0,.17-.13.5a13.34,13.34,0,0,1-.44,1.4,19.2,19.2,0,0,1-2.57,4.76A20.22,20.22,0,0,1,144,301a18.46,18.46,0,0,1-4.35,1.92,21.59,21.59,0,0,1-5,.83c-3.49.2-6.81,0-9.82.22a17.11,17.11,0,0,0-7.58,2.27,11.39,11.39,0,0,0-2.39,1.89,8.8,8.8,0,0,0-1.35,1.87,12.66,12.66,0,0,0-.74,1.83s0-.17.13-.5a6.88,6.88,0,0,1,.53-1.37,9.1,9.1,0,0,1,1.34-1.91,12,12,0,0,1,2.41-1.94,17.26,17.26,0,0,1,7.64-2.34c3-.27,6.35,0,9.82-.22a23,23,0,0,0,5-.82,19.05,19.05,0,0,0,4.3-1.89,20.36,20.36,0,0,0,5.91-5.3,19.05,19.05,0,0,0,2.61-4.7,13.12,13.12,0,0,0,.48-1.38C153,289.18,153.05,289,153.05,289Z"/><path class="cls-2" d="M117.85,303.42a5.19,5.19,0,0,1,.43-1.48,9.9,9.9,0,0,1,2.5-3.37,23.35,23.35,0,0,1,5.27-3.34,36.87,36.87,0,0,0,6.49-4,32.19,32.19,0,0,0,10.37-14.44l.36-1.09c.09-.25.14-.37.14-.37s0,.13-.1.38l-.32,1.1a30.9,30.9,0,0,1-1.6,3.89,31.63,31.63,0,0,1-8.72,10.7,36.9,36.9,0,0,1-6.53,3.95,23.84,23.84,0,0,0-5.26,3.28,9.88,9.88,0,0,0-2.52,3.29A8.22,8.22,0,0,0,118,303Z"/><path class="cls-2" d="M143.64,360h-.26c-.17,0-.43,0-.77,0a16,16,0,0,0-7.39,1.58,14.44,14.44,0,0,0-4.87,3.72,7.84,7.84,0,0,0-1.59,3.17,4,4,0,0,0,.83,3.59,5.07,5.07,0,0,0,3.69,1.56,10.51,10.51,0,0,0,4.26-1,28.59,28.59,0,0,0,8-5.09,20,20,0,0,0,5.84-8.21,10,10,0,0,0,.42-5.08,8.81,8.81,0,0,0-2.2-4.4,6.53,6.53,0,0,0-4.25-2,11,11,0,0,0-4.53.75A48,48,0,0,0,127.11,357a49.88,49.88,0,0,0-7.39,8c-.76,1-1.33,1.86-1.7,2.43l-.57.85s.7-1.24,2.2-3.33a49.32,49.32,0,0,1,7.36-8,47.81,47.81,0,0,1,13.72-8.45,11.35,11.35,0,0,1,4.62-.77,6.71,6.71,0,0,1,4.37,2.06,8.84,8.84,0,0,1,2.26,4.51,10.25,10.25,0,0,1-.42,5.17,20.32,20.32,0,0,1-5.9,8.31,28.73,28.73,0,0,1-8,5.1,10.79,10.79,0,0,1-4.33,1,5.29,5.29,0,0,1-3.82-1.63,4.21,4.21,0,0,1-.85-3.75,7.91,7.91,0,0,1,1.62-3.22,14.4,14.4,0,0,1,4.94-3.73,16.21,16.21,0,0,1,4.48-1.37,15.16,15.16,0,0,1,3-.15C143.29,360,143.64,360,143.64,360Z"/><path class="cls-2" d="M157.13,360.16l-.23.39-.69,1.12a18.33,18.33,0,0,1-1.15,1.71c-.49.65-1,1.42-1.68,2.18l-1,1.22c-.36.42-.79.82-1.2,1.25-.81.88-1.78,1.72-2.78,2.62a47.33,47.33,0,0,1-7.2,5,46.24,46.24,0,0,1-8,3.4c-1.3.36-2.52.74-3.7,1-.59.11-1.15.25-1.7.33l-1.58.22c-1,.17-1.93.19-2.74.25a19.38,19.38,0,0,1-2.07.06l-1.31,0c-.3,0-.45,0-.45,0l.45,0,1.31,0a17.88,17.88,0,0,0,2.07-.09c.8-.07,1.72-.1,2.72-.27l1.57-.23c.55-.09,1.11-.23,1.69-.35,1.17-.22,2.39-.6,3.68-1a46.77,46.77,0,0,0,8-3.41,47.27,47.27,0,0,0,7.18-4.93c1-.89,2-1.72,2.78-2.59.41-.43.83-.82,1.2-1.24l1-1.21c.68-.75,1.2-1.51,1.69-2.14s.88-1.22,1.19-1.7l.71-1.09C157,360.28,157.13,360.16,157.13,360.16Z"/><path class="cls-2" d="M155.82,373.92l-.39.24-1.13.63c-.49.27-1.09.61-1.77,1s-1.47.87-2.31,1.43c-1.69,1.08-3.64,2.48-5.73,4.12a79.65,79.65,0,0,0-6.42,5.78,76.26,76.26,0,0,0-5.68,6.51c-1.62,2.11-3,4.08-4,5.79-.56.84-1,1.63-1.4,2.32s-.74,1.29-1,1.79l-.62,1.14c-.14.26-.23.39-.23.39a56.66,56.66,0,0,1,3.12-5.72c1.05-1.72,2.4-3.71,4-5.83a78.46,78.46,0,0,1,5.69-6.54,76.63,76.63,0,0,1,6.46-5.78,67.71,67.71,0,0,1,5.77-4.09A56.84,56.84,0,0,1,155.82,373.92Z"/><path class="cls-2" d="M150.84,398.37a25.83,25.83,0,0,0-2.58.44,14.87,14.87,0,0,0-2.66,1,17,17,0,0,0-2.93,1.84,16.48,16.48,0,0,0-2.42,2.47,14.61,14.61,0,0,0-1.5,2.4,25.18,25.18,0,0,0-1,2.43,10.62,10.62,0,0,1,.84-2.49A13.51,13.51,0,0,1,140.1,404a14.45,14.45,0,0,1,5.42-4.38,13.87,13.87,0,0,1,2.71-.93A10.32,10.32,0,0,1,150.84,398.37Z"/><rect class="cls-3" x="130.58" y="282.88" width="9.64" height="14.24"/><ellipse class="cls-3" cx="146.96" cy="287.48" rx="1.74" ry="5.99"/><path class="cls-3" d="M147,281.49h5.81a2.19,2.19,0,0,1,2.09,1.47,14.2,14.2,0,0,1-.09,9,2.21,2.21,0,0,1-2.11,1.5H147Z"/><path class="cls-5" d="M146.87,281.47s.21,0,.49.2a2.54,2.54,0,0,1,.71,1.24,22.15,22.15,0,0,1,.66,4.51c0,.89,0,1.74,0,2.51a8.12,8.12,0,0,1-.34,2.05,2.25,2.25,0,0,1-.87,1.14c-.3.17-.5.17-.51.14a2.45,2.45,0,0,0,1-1.4,9.55,9.55,0,0,0,.21-2c0-.76,0-1.59,0-2.46a31.63,31.63,0,0,0-.5-4.44,2.74,2.74,0,0,0-.49-1.18C147,281.59,146.86,281.51,146.87,281.47Z"/><path class="cls-1" d="M124.45,286.17h22.48c.57.53.48,1.13,0,1.76l-6,1.67s-1.17,4.89-5.26,4.45a6.47,6.47,0,0,1-5.33-4.05L124.45,289Z"/><path class="cls-3" d="M136.72,292.81a2.69,2.69,0,1,1,2.69-2.69A2.69,2.69,0,0,1,136.72,292.81Zm0-4.38a1.69,1.69,0,1,0,1.69,1.69A1.69,1.69,0,0,0,136.72,288.43Z"/><ellipse class="cls-3" cx="117.41" cy="287.59" rx="1.74" ry="5.99"/><path class="cls-3" d="M117.41,281.6h5.81a2.2,2.2,0,0,1,2.09,1.47,14.15,14.15,0,0,1-.1,9,2.2,2.2,0,0,1-2.1,1.5h-5.7Z"/><path class="cls-5" d="M117.32,281.58s.21,0,.49.2a2.53,2.53,0,0,1,.7,1.24,20.84,20.84,0,0,1,.66,4.51,20.61,20.61,0,0,1,0,2.51,8.14,8.14,0,0,1-.33,2,2.14,2.14,0,0,1-.88,1.13c-.29.18-.49.18-.5.15a2.54,2.54,0,0,0,1-1.4,9,9,0,0,0,.2-2c0-.76,0-1.59,0-2.46a33.42,33.42,0,0,0-.49-4.44,2.62,2.62,0,0,0-.5-1.18C117.47,281.7,117.3,281.62,117.32,281.58Z"/><rect class="cls-3" x="134.44" y="387.9" width="9.64" height="14.24"/><path class="cls-3" d="M152.56,392.51c0,3.31-.78,6-1.74,6s-1.74-2.68-1.74-6,.77-6,1.74-6S152.56,389.2,152.56,392.51Z"/><path class="cls-3" d="M150.82,386.51h5.81a2.22,2.22,0,0,1,2.09,1.47,14.25,14.25,0,0,1-.1,9,2.19,2.19,0,0,1-2.1,1.49h-5.7Z"/><path class="cls-5" d="M150.73,386.5s.21,0,.49.2a2.48,2.48,0,0,1,.7,1.24,21.87,21.87,0,0,1,.62,7,8.07,8.07,0,0,1-.33,2.05,2.13,2.13,0,0,1-.88,1.14c-.3.18-.5.17-.5.15a2.54,2.54,0,0,0,1-1.4,9,9,0,0,0,.2-2c0-.76,0-1.59,0-2.46a33,33,0,0,0-.49-4.44,2.66,2.66,0,0,0-.5-1.19C150.88,386.61,150.71,386.54,150.73,386.5Z"/><path class="cls-1" d="M128.31,391.19h22.48c.57.54.48,1.13,0,1.77l-6,1.66s-1.17,4.9-5.25,4.46a6.5,6.5,0,0,1-5.34-4.06l-5.91-1Z"/><path class="cls-3" d="M140.58,397.84a2.69,2.69,0,1,1,2.69-2.69A2.69,2.69,0,0,1,140.58,397.84Zm0-4.38a1.69,1.69,0,1,0,1.69,1.69A1.69,1.69,0,0,0,140.58,393.46Z"/><ellipse class="cls-3" cx="121.26" cy="392.62" rx="1.74" ry="5.99"/><path class="cls-3" d="M121.26,386.62h5.81a2.2,2.2,0,0,1,2.09,1.47,14.24,14.24,0,0,1-.09,9,2.19,2.19,0,0,1-2.1,1.49h-5.71Z"/><path class="cls-5" d="M121.18,386.61s.21,0,.48.2a2.42,2.42,0,0,1,.71,1.24,20.64,20.64,0,0,1,.66,4.5,22.85,22.85,0,0,1,0,2.51,7.63,7.63,0,0,1-.34,2.05,2.11,2.11,0,0,1-.87,1.14c-.3.18-.5.17-.5.14a2.41,2.41,0,0,0,1-1.39,9,9,0,0,0,.21-2c0-.76,0-1.59,0-2.47a31.29,31.29,0,0,0-.5-4.43,2.67,2.67,0,0,0-.49-1.19C121.33,386.72,121.16,386.65,121.18,386.61Z"/><path class="cls-3" d="M145.23,279.63a11.07,11.07,0,0,0-.63-1.42,7,7,0,0,0-3.35-2.77,9.2,9.2,0,0,0-6.8-.14,15.72,15.72,0,0,0-7,5.92,62.42,62.42,0,0,0-9,22.38c-1.91,9-2.28,19.11-1.6,29.65.32,5.28.85,10.43,1.42,15.39s1.19,9.73,1.83,14.27c1.27,9.09,2.59,17.25,3.71,24.1.56,3.42,1.07,6.52,1.52,9.24a53.62,53.62,0,0,0,1.36,6.92,7,7,0,0,0,3.47,4.67,4.18,4.18,0,0,1-1.33-.81,8.29,8.29,0,0,1-2.33-3.8A51.27,51.27,0,0,1,125,396.3l-1.59-9.23c-1.17-6.84-2.52-15-3.83-24.09-.65-4.54-1.28-9.32-1.86-14.29s-1.11-10.11-1.43-15.4c-.68-10.58-.3-20.78,1.65-29.79a62.33,62.33,0,0,1,9.22-22.5,16,16,0,0,1,7.16-6,9.39,9.39,0,0,1,7,.22,7.07,7.07,0,0,1,3.36,2.91,5.05,5.05,0,0,1,.44,1.08A1.64,1.64,0,0,1,145.23,279.63Z"/><path class="cls-3" d="M150.54,290.48s0,.09.09.29l.19.87c.17.8.4,1.93.7,3.36s.66,3.24,1,5.33.81,4.45,1.16,7.09c.19,1.32.39,2.7.59,4.14s.36,2.94.55,4.5c.4,3.1.67,6.44,1,9.94.53,7,.89,14.77.9,22.89s-.42,15.88-1,22.9c-.33,3.5-.61,6.84-1,9.94-.19,1.56-.35,3.06-.56,4.5s-.41,2.82-.61,4.14c-.36,2.63-.82,5-1.17,7.08s-.71,3.88-1,5.33-.54,2.55-.71,3.36l-.19.87a1.32,1.32,0,0,1-.09.29,1.77,1.77,0,0,1,0-.31c0-.22.08-.51.14-.87.15-.81.35-1.94.62-3.38s.61-3.25.93-5.34.76-4.45,1.1-7.09c.18-1.32.37-2.7.57-4.13s.35-2.94.53-4.5c.39-3.1.66-6.43,1-9.93.54-7,.91-14.74.94-22.86s-.35-15.84-.86-22.85c-.31-3.5-.56-6.83-.94-9.94-.18-1.55-.32-3.05-.51-4.49s-.39-2.82-.57-4.14c-.33-2.64-.75-5-1.07-7.09s-.64-3.88-.92-5.35-.46-2.56-.6-3.37c-.06-.36-.11-.65-.14-.88S150.54,290.48,150.54,290.48Z"/></g><g id="Floor"><path class="cls-3" d="M441.36,408.92c0,.06-94.34.1-210.7.1s-210.73,0-210.73-.1,94.33-.1,210.73-.1S441.36,408.86,441.36,408.92Z"/></g></g></svg>